<svg xmlns="http://www.w3.org/2000/svg" width="355.46" height="208" version="1.1" viewBox="55.075 95.5 355.462 208"><defs><marker id="a" stroke-miterlimit="10" color="#ff2600" markerHeight="8" markerWidth="10" orient="auto" overflow="visible" viewBox="-1 -4 10 8"><path fill="currentColor" stroke="currentColor" d="m8 0l-8-3v6z"/></marker></defs><metadata>Produced by OmniGraffle 7.10.1</metadata><g fill="none"><title>Canvas 1</title><g><title>Layer 1</title><text fill="#000" font-family="Go, sans-serif" font-size="12" font-weight="400" transform="translate(64.5 130.5)"><tspan x="28" y="11">l := line{point{1 + zero, 2 + zero}, point{3 + zero, 4 + zero}}</tspan> <tspan x="28" y="25">tinycall()</tspan> <tspan x="28" y="39">hist := make([]int, 7)</tspan> <tspan x="28" y="53">var reader io.Reader = strings.NewReader(cannedInput)</tspan> <tspan x="28" y="67">scanner := bufio.NewScanner(reader)</tspan> <tspan x="28" y="81">for scanner.Scan() {</tspan> <tspan x="56" y="95">s := scanner.Text()</tspan> <tspan x="56" y="109">i, err := strconv.ParseInt(s, 10, 64)</tspan> <tspan x="56" y="123">if err != nil { ... }</tspan> <tspan x="56" y="137">hist = ensure(int(i), hist)</tspan> <tspan x="56" y="151">hist[int(i)]++</tspan> <tspan x="28" y="165">}</tspan></text><text fill="#000" transform="translate(204.34 100.5)"><tspan x="0" y="15" fill="#000" font-family="Go, sans-serif" font-size="16" font-weight="400">Go 1.10</tspan></text><path fill="#00f" fill-opacity=".331" d="m71.8 130.7l14 6-14 6z"/><path stroke="#000" stroke-linecap="round" stroke-linejoin="round" stroke-width=".25" d="m71.8 130.7l14 6-14 6z"/><path fill="#00f" fill-opacity=".331" d="m100.6 243.3l14 6-14 6z"/><path stroke="#000" stroke-linecap="round" stroke-linejoin="round" stroke-width=".25" d="m100.6 243.3l14 6-14 6z"/><path fill="#00f" fill-opacity=".331" d="m100.6 229.5l14 6-14 6z"/><path stroke="#000" stroke-linecap="round" stroke-linejoin="round" stroke-width=".25" d="m100.6 229.5l14 6-14 6z"/><path fill="#00f" fill-opacity=".331" d="m71.8 200.74l14 6-14 6z"/><path stroke="#000" stroke-linecap="round" stroke-linejoin="round" stroke-width=".25" d="m71.8 200.74l14 6-14 6z"/><path fill="#00f" fill-opacity=".331" d="m71.8 172.72l14 6-14 6z"/><path stroke="#000" stroke-linecap="round" stroke-linejoin="round" stroke-width=".25" d="m71.8 172.72l14 6-14 6z"/><path fill="#00f" fill-opacity=".331" d="m71.8 158.72l14 6-14 6z"/><path stroke="#000" stroke-linecap="round" stroke-linejoin="round" stroke-width=".25" d="m71.8 158.72l14 6-14 6z"/><path fill="#00f" fill-opacity=".331" d="m55.2 145.4l14 6-14 6z"/><path stroke="#000" stroke-linecap="round" stroke-linejoin="round" stroke-width=".25" d="m55.2 145.4l14 6-14 6z"/><path fill="#00f" fill-opacity=".331" d="m100.6 270.9l14 6-14 6z"/><path stroke="#000" stroke-linecap="round" stroke-linejoin="round" stroke-width=".25" d="m100.6 270.9l14 6-14 6z"/><path fill="#00f" fill-opacity=".331" d="m100.6 257.1l14 6-14 6z"/><path stroke="#000" stroke-linecap="round" stroke-linejoin="round" stroke-width=".25" d="m100.6 257.1l14 6-14 6z"/><path fill="#00f" fill-opacity=".331" d="m55.2 130.7l14 6-14 6z"/><path stroke="#000" stroke-linecap="round" stroke-linejoin="round" stroke-width=".25" d="m55.2 130.7l14 6-14 6z"/><path stroke="#ff2600" stroke-linecap="round" stroke-linejoin="round" marker-end="url(#a)" d="m61.66 147.95v-2.9031l1.6541-0.99387"/><line x1="79.06" x2="79.06" y1="139.52" y2="152.45" stroke="#ff2600" stroke-linecap="round" stroke-linejoin="round" marker-end="url(#a)"/><line x1="79.06" x2="94.381" y1="209.4" y2="228.38" stroke="#ff2600" stroke-linecap="round" stroke-linejoin="round" marker-end="url(#a)"/><line x1="79.06" x2="79.115" y1="182.66" y2="194.76" stroke="#ff2600" stroke-linecap="round" stroke-linejoin="round" marker-end="url(#a)"/></g></g></svg>