<svg xmlns="http://www.w3.org/2000/svg" xmlns:xlink="http://www.w3.org/1999/xlink" width="75" height="50" version="1.1" viewBox="0 0 75 50"><g id="Final" fill="none" fill-rule="evenodd" stroke="none" stroke-width="1"><g id="solutions" fill="#007D9C" fill-rule="nonzero" transform="translate(-248.000000, -457.000000)"><g id="Group-Copy" transform="translate(248.000000, 457.000000)"><polygon id="Path" points="17 24.485 31 18 31 20.537 19.895 25.471 19.895 25.527 31 30.49 31 33 17 26.515"/><polygon id="Path" points="33 33 39.656 13 42 13 35.346 33"/><polygon id="Path" points="58 26.572 44 33 44 30.49 55.284 25.527 55.284 25.472 44 20.509 44 18 58 24.428"/><polygon id="Path" points="71.251 50 3.751 50 0 47 75 47"/><path id="Path" d="M70.9988294,46 L68.6576152,46 L68.6576152,3.03599533 C68.6576152,2.65649591 68.3368688,2.33538102 67.9552509,2.33538102 L8.04357851,2.33538102 C7.6631312,2.33538102 7.34121424,2.65532822 7.34121424,3.03599533 L7.34121424,46 L5,46 L5,3.03599533 C5,1.36152714 6.3649279,0 8.04357851,0 L67.9564215,0 C69.6350721,0 71,1.36152714 71,3.03599533 L71,46 L70.9988294,46 Z"/><path id="Path" d="M30.8314219,45 L0,45 L0,47 L33,47 C31.8951418,47 31.0112552,46.1226667 30.8314219,45 Z"/><path id="Path" d="M44.1674028,45 C43.9875695,46.1226667 43.1048582,47 42,47 L75,47 L75,45 L44.1674028,45 Z"/></g></g></g></svg>