<svg xmlns="http://www.w3.org/2000/svg" width="60em" height="10.4em" version="1.1"><defs><style type="text/css">svg{font-family:&quot;Helvetica Neue&quot;,Arial,sans-serif}tspan.size{font-size:.8em}tspan.head{font-weight:700}tspan.paren{font-weight:400!important}</style></defs><text x="0em" y="1.2em" class="head"><tspan class="size">The following apply to me: <tspan class="paren">(multiple choice)</tspan></tspan></text><rect width="6.64em" height=".6em" x="7.25em" y="2.1em" fill="#00f" stroke="#00f"/><text x="6.75em" y="2.7em" text-anchor="end"><tspan class="size">2,386 (66%)</tspan></text><text x="14.39em" y="2.7em"><tspan class="size">I program in Go outside of work</tspan></text><rect width="6.22em" height=".6em" x="7.25em" y="3.3em" fill="#00f" stroke="#00f"/><text x="6.75em" y="3.9em" text-anchor="end"><tspan class="size">2,235 (62%)</tspan></text><text x="13.97em" y="3.9em"><tspan class="size">I program at work in Go</tspan></text><rect width="5.57em" height=".6em" x="7.25em" y="4.5em" fill="#00f" stroke="#00f"/><text x="6.75em" y="5.1em" text-anchor="end"><tspan class="size">2,004 (56%)</tspan></text><text x="13.32em" y="5.1em"><tspan class="size">I program at work in another language</tspan></text><rect width="1.72em" height=".6em" x="7.25em" y="5.7em" fill="#00f" stroke="#00f"/><text x="6.75em" y="6.3em" text-anchor="end"><tspan class="size">618 (17%)</tspan></text><text x="9.47em" y="6.3em"><tspan class="size">I manage a programming team</tspan></text><rect width=".94em" height=".6em" x="7.25em" y="6.9em" fill="#00f" stroke="#00f"/><text x="6.75em" y="7.5em" text-anchor="end"><tspan class="size">337 (9%)</tspan></text><text x="8.69em" y="7.5em"><tspan class="size">I am a student</tspan></text><rect width=".22em" height=".6em" x="7.25em" y="8.1em" fill="#777" stroke="#777"/><text x="6.75em" y="8.7em" text-anchor="end"><tspan class="size">78 (2%)</tspan></text><text x="7.97em" y="8.7em"><tspan class="size">Other</tspan></text><rect width=".03em" height=".6em" x="7.25em" y="9.3em" fill="#fff" stroke="#000"/><text x="6.75em" y="9.9em" text-anchor="end"><tspan class="size">10 (0%)</tspan></text><text x="7.78em" y="9.9em"><tspan class="size">No response</tspan></text></svg>