<svg xmlns="http://www.w3.org/2000/svg" width="60em" height="10.4em" version="1.1"><defs><style type="text/css">svg{font-family:&quot;Helvetica Neue&quot;,Arial,sans-serif}tspan.size{font-size:.8em}tspan.head{font-weight:700}</style></defs><text x="0em" y="1.2em" class="head"><tspan class="size">To what extent do you agree or disagree with the following statements:</tspan></text><text x="0em" y="2.4em"><tspan class="size">(<tspan fill="red">strongly disagree</tspan>, <tspan fill="#f44">disagree</tspan>, <tspan fill="#f88">somewhat disagree</tspan>, <tspan fill="#ccc">neutral</tspan>, <tspan fill="#88f">somewhat agree</tspan>, <tspan fill="#44f">agree</tspan>, <tspan fill="#00f">strongly agree</tspan>)</tspan></text><rect width=".08em" height=".6em" x="12em" y="3.3em" fill="red" stroke="red"/><rect width=".21em" height=".6em" x="12.08em" y="3.3em" fill="#f44" stroke="#f44"/><rect width=".46em" height=".6em" x="12.3em" y="3.3em" fill="#f88" stroke="#f88"/><rect width=".63em" height=".6em" x="12.75em" y="3.3em" fill="#ccc" stroke="#ccc"/><rect width="2.73em" height=".6em" x="13.39em" y="3.3em" fill="#88f" stroke="#88f"/><rect width="3.25em" height=".6em" x="16.12em" y="3.3em" fill="#44f" stroke="#44f"/><rect width="1.24em" height=".6em" x="19.36em" y="3.3em" fill="#00f" stroke="#00f"/><text x="11.5em" y="3.9em" text-anchor="end"><tspan class="size">3,094 (<tspan fill="red">1</tspan>, <tspan fill="#f44">2</tspan>, <tspan fill="#f88">5</tspan>, <tspan fill="#ccc">6</tspan>, <tspan fill="#88f">27</tspan>, <tspan fill="#44f">32</tspan>, <tspan fill="#00f">12</tspan>%)</tspan></text><text x="21.11em" y="3.9em"><tspan class="size">I have a good understanding of Go best practices. (9.6:1)</tspan></text><rect width=".04em" height=".6em" x="12em" y="4.5em" fill="red" stroke="red"/><rect width=".09em" height=".6em" x="12.04em" y="4.5em" fill="#f44" stroke="#f44"/><rect width=".26em" height=".6em" x="12.14em" y="4.5em" fill="#f88" stroke="#f88"/><rect width=".36em" height=".6em" x="12.4em" y="4.5em" fill="#ccc" stroke="#ccc"/><rect width="1.71em" height=".6em" x="12.76em" y="4.5em" fill="#88f" stroke="#88f"/><rect width="4.1em" height=".6em" x="14.47em" y="4.5em" fill="#44f" stroke="#44f"/><rect width="2.01em" height=".6em" x="18.56em" y="4.5em" fill="#00f" stroke="#00f"/><text x="11.5em" y="5.1em" text-anchor="end"><tspan class="size">3,083 (<tspan fill="red">0</tspan>, <tspan fill="#f44">1</tspan>, <tspan fill="#f88">3</tspan>, <tspan fill="#ccc">4</tspan>, <tspan fill="#88f">17</tspan>, <tspan fill="#44f">41</tspan>, <tspan fill="#00f">20</tspan>%)</tspan></text><text x="21.08em" y="5.1em"><tspan class="size">I am able to quickly find answers to my questions. (20:1)</tspan></text><rect width=".03em" height=".6em" x="12em" y="5.7em" fill="red" stroke="red"/><rect width=".03em" height=".6em" x="12.03em" y="5.7em" fill="#f44" stroke="#f44"/><rect width=".09em" height=".6em" x="12.06em" y="5.7em" fill="#f88" stroke="#f88"/><rect width=".21em" height=".6em" x="12.14em" y="5.7em" fill="#ccc" stroke="#ccc"/><rect width=".7em" height=".6em" x="12.35em" y="5.7em" fill="#88f" stroke="#88f"/><rect width="3.24em" height=".6em" x="13.06em" y="5.7em" fill="#44f" stroke="#44f"/><rect width="4.2em" height=".6em" x="16.29em" y="5.7em" fill="#00f" stroke="#00f"/><text x="11.5em" y="6.3em" text-anchor="end"><tspan class="size">3,053 (<tspan fill="red">0</tspan>, <tspan fill="#f44">0</tspan>, <tspan fill="#f88">1</tspan>, <tspan fill="#ccc">2</tspan>, <tspan fill="#88f">7</tspan>, <tspan fill="#44f">32</tspan>, <tspan fill="#00f">42</tspan>%)</tspan></text><text x="20.99em" y="6.3em"><tspan class="size">Go&apos;s performance meets my needs. (57:1)</tspan></text><rect width=".08em" height=".6em" x="12em" y="6.9em" fill="red" stroke="red"/><rect width=".28em" height=".6em" x="12.08em" y="6.9em" fill="#f44" stroke="#f44"/><rect width=".45em" height=".6em" x="12.36em" y="6.9em" fill="#f88" stroke="#f88"/><rect width="1.39em" height=".6em" x="12.81em" y="6.9em" fill="#ccc" stroke="#ccc"/><rect width="1.48em" height=".6em" x="14.19em" y="6.9em" fill="#88f" stroke="#88f"/><rect width="2.56em" height=".6em" x="15.68em" y="6.9em" fill="#44f" stroke="#44f"/><rect width=".78em" height=".6em" x="18.23em" y="6.9em" fill="#00f" stroke="#00f"/><text x="11.5em" y="7.5em" text-anchor="end"><tspan class="size">2,523 (<tspan fill="red">1</tspan>, <tspan fill="#f44">3</tspan>, <tspan fill="#f88">5</tspan>, <tspan fill="#ccc">14</tspan>, <tspan fill="#88f">15</tspan>, <tspan fill="#44f">26</tspan>, <tspan fill="#00f">8</tspan>%)</tspan></text><text x="19.52em" y="7.5em"><tspan class="size">Go&apos;s support for language interoperability meets my needs. (6.0:1)</tspan></text><rect width=".05em" height=".6em" x="12em" y="8.1em" fill="red" stroke="red"/><rect width=".24em" height=".6em" x="12.05em" y="8.1em" fill="#f44" stroke="#f44"/><rect width=".63em" height=".6em" x="12.29em" y="8.1em" fill="#f88" stroke="#f88"/><rect width=".67em" height=".6em" x="12.92em" y="8.1em" fill="#ccc" stroke="#ccc"/><rect width="2.39em" height=".6em" x="13.59em" y="8.1em" fill="#88f" stroke="#88f"/><rect width="3.36em" height=".6em" x="15.97em" y="8.1em" fill="#44f" stroke="#44f"/><rect width="1.14em" height=".6em" x="19.34em" y="8.1em" fill="#00f" stroke="#00f"/><text x="11.5em" y="8.7em" text-anchor="end"><tspan class="size">3,049 (<tspan fill="red">1</tspan>, <tspan fill="#f44">2</tspan>, <tspan fill="#f88">6</tspan>, <tspan fill="#ccc">7</tspan>, <tspan fill="#88f">24</tspan>, <tspan fill="#44f">34</tspan>, <tspan fill="#00f">11</tspan>%)</tspan></text><text x="20.98em" y="8.7em"><tspan class="size">I am able to quickly find libraries that I need. (7.5:1)</tspan></text><rect width=".07em" height=".6em" x="12em" y="9.3em" fill="red" stroke="red"/><rect width=".18em" height=".6em" x="12.07em" y="9.3em" fill="#f44" stroke="#f44"/><rect width=".43em" height=".6em" x="12.25em" y="9.3em" fill="#f88" stroke="#f88"/><rect width=".45em" height=".6em" x="12.68em" y="9.3em" fill="#ccc" stroke="#ccc"/><rect width="1.77em" height=".6em" x="13.13em" y="9.3em" fill="#88f" stroke="#88f"/><rect width="3.69em" height=".6em" x="14.9em" y="9.3em" fill="#44f" stroke="#44f"/><rect width="1.99em" height=".6em" x="18.59em" y="9.3em" fill="#00f" stroke="#00f"/><text x="11.5em" y="9.9em" text-anchor="end"><tspan class="size">3,083 (<tspan fill="red">1</tspan>, <tspan fill="#f44">2</tspan>, <tspan fill="#f88">4</tspan>, <tspan fill="#ccc">5</tspan>, <tspan fill="#88f">18</tspan>, <tspan fill="#44f">37</tspan>, <tspan fill="#00f">20</tspan>%)</tspan></text><text x="21.08em" y="9.9em"><tspan class="size">Go language, library, and tool documentation meet my needs. (11:1)</tspan></text></svg>