<svg xmlns="http://www.w3.org/2000/svg" width="60em" height="9.2em" version="1.1"><defs><style type="text/css">svg{font-family:&quot;Helvetica Neue&quot;,Arial,sans-serif}tspan.size{font-size:.8em}tspan.head{font-weight:700}</style></defs><text x="0em" y="1.2em" class="head"><tspan class="size">To what extent do you agree or disagree with the following statements:</tspan></text><text x="0em" y="2.4em"><tspan class="size">(<tspan fill="red">strongly disagree</tspan>, <tspan fill="#f44">disagree</tspan>, <tspan fill="#f88">somewhat disagree</tspan>, <tspan fill="#ccc">neutral</tspan>, <tspan fill="#88f">somewhat agree</tspan>, <tspan fill="#44f">agree</tspan>, <tspan fill="#00f">strongly agree</tspan>)</tspan></text><rect width=".1em" height=".6em" x="12em" y="3.3em" fill="red" stroke="red"/><rect width=".28em" height=".6em" x="12.1em" y="3.3em" fill="#f44" stroke="#f44"/><rect width=".51em" height=".6em" x="12.38em" y="3.3em" fill="#f88" stroke="#f88"/><rect width="1.93em" height=".6em" x="12.9em" y="3.3em" fill="#ccc" stroke="#ccc"/><rect width=".98em" height=".6em" x="14.83em" y="3.3em" fill="#88f" stroke="#88f"/><rect width="1.44em" height=".6em" x="15.8em" y="3.3em" fill="#44f" stroke="#44f"/><rect width=".58em" height=".6em" x="17.24em" y="3.3em" fill="#00f" stroke="#00f"/><text x="11.5em" y="3.9em" text-anchor="end"><tspan class="size">2,091 (<tspan fill="red">1</tspan>, <tspan fill="#f44">3</tspan>, <tspan fill="#f88">5</tspan>, <tspan fill="#ccc">19</tspan>, <tspan fill="#88f">10</tspan>, <tspan fill="#44f">14</tspan>, <tspan fill="#00f">6</tspan>%)</tspan></text><text x="18.32em" y="3.9em"><tspan class="size">I feel welcome to contribute to Go (compiler, standard library, documentation, website) (3.3:1)</tspan></text><rect width=".27em" height=".6em" x="12em" y="4.5em" fill="red" stroke="red"/><rect width=".74em" height=".6em" x="12.27em" y="4.5em" fill="#f44" stroke="#f44"/><rect width=".9em" height=".6em" x="13.01em" y="4.5em" fill="#f88" stroke="#f88"/><rect width="1.58em" height=".6em" x="13.91em" y="4.5em" fill="#ccc" stroke="#ccc"/><rect width="1.04em" height=".6em" x="15.49em" y="4.5em" fill="#88f" stroke="#88f"/><rect width="1.13em" height=".6em" x="16.53em" y="4.5em" fill="#44f" stroke="#44f"/><rect width=".37em" height=".6em" x="17.66em" y="4.5em" fill="#00f" stroke="#00f"/><text x="11.5em" y="5.1em" text-anchor="end"><tspan class="size">2,168 (<tspan fill="red">3</tspan>, <tspan fill="#f44">7</tspan>, <tspan fill="#f88">9</tspan>, <tspan fill="#ccc">16</tspan>, <tspan fill="#88f">10</tspan>, <tspan fill="#44f">11</tspan>, <tspan fill="#00f">4</tspan>%)</tspan></text><text x="18.53em" y="5.1em"><tspan class="size">The process of contributing to the Go project is clear to me (1.3:1)</tspan></text><rect width=".14em" height=".6em" x="12em" y="5.7em" fill="red" stroke="red"/><rect width=".24em" height=".6em" x="12.14em" y="5.7em" fill="#f44" stroke="#f44"/><rect width=".45em" height=".6em" x="12.39em" y="5.7em" fill="#f88" stroke="#f88"/><rect width="2.24em" height=".6em" x="12.84em" y="5.7em" fill="#ccc" stroke="#ccc"/><rect width=".8em" height=".6em" x="15.08em" y="5.7em" fill="#88f" stroke="#88f"/><rect width="1.11em" height=".6em" x="15.88em" y="5.7em" fill="#44f" stroke="#44f"/><rect width=".29em" height=".6em" x="16.99em" y="5.7em" fill="#00f" stroke="#00f"/><text x="11.5em" y="6.3em" text-anchor="end"><tspan class="size">1,900 (<tspan fill="red">1</tspan>, <tspan fill="#f44">2</tspan>, <tspan fill="#f88">5</tspan>, <tspan fill="#ccc">22</tspan>, <tspan fill="#88f">8</tspan>, <tspan fill="#44f">11</tspan>, <tspan fill="#00f">3</tspan>%)</tspan></text><text x="17.79em" y="6.3em"><tspan class="size">The Go project leadership understands my needs (2.6:1)</tspan></text><rect width=".2em" height=".6em" x="12em" y="6.9em" fill="red" stroke="red"/><rect width=".44em" height=".6em" x="12.2em" y="6.9em" fill="#f44" stroke="#f44"/><rect width=".65em" height=".6em" x="12.64em" y="6.9em" fill="#f88" stroke="#f88"/><rect width="1.76em" height=".6em" x="13.29em" y="6.9em" fill="#ccc" stroke="#ccc"/><rect width=".96em" height=".6em" x="15.04em" y="6.9em" fill="#88f" stroke="#88f"/><rect width="1.38em" height=".6em" x="16em" y="6.9em" fill="#44f" stroke="#44f"/><rect width=".5em" height=".6em" x="17.38em" y="6.9em" fill="#00f" stroke="#00f"/><text x="11.5em" y="7.5em" text-anchor="end"><tspan class="size">2,114 (<tspan fill="red">2</tspan>, <tspan fill="#f44">4</tspan>, <tspan fill="#f88">6</tspan>, <tspan fill="#ccc">18</tspan>, <tspan fill="#88f">10</tspan>, <tspan fill="#44f">14</tspan>, <tspan fill="#00f">5</tspan>%)</tspan></text><text x="18.38em" y="7.5em"><tspan class="size">I feel comfortable approaching the Go project leadership with questions and feedback (2.2:1)</tspan></text><rect width=".11em" height=".6em" x="12em" y="8.1em" fill="red" stroke="red"/><rect width=".13em" height=".6em" x="12.11em" y="8.1em" fill="#f44" stroke="#f44"/><rect width=".3em" height=".6em" x="12.24em" y="8.1em" fill="#f88" stroke="#f88"/><rect width="1.2em" height=".6em" x="12.54em" y="8.1em" fill="#ccc" stroke="#ccc"/><rect width=".95em" height=".6em" x="13.74em" y="8.1em" fill="#88f" stroke="#88f"/><rect width="2.45em" height=".6em" x="14.68em" y="8.1em" fill="#44f" stroke="#44f"/><rect width="1.47em" height=".6em" x="17.13em" y="8.1em" fill="#00f" stroke="#00f"/><text x="11.5em" y="8.7em" text-anchor="end"><tspan class="size">2,374 (<tspan fill="red">1</tspan>, <tspan fill="#f44">1</tspan>, <tspan fill="#f88">3</tspan>, <tspan fill="#ccc">12</tspan>, <tspan fill="#88f">9</tspan>, <tspan fill="#44f">24</tspan>, <tspan fill="#00f">15</tspan>%)</tspan></text><text x="19.1em" y="8.7em"><tspan class="size">I am confident in the leadership of Go (9.0:1)</tspan></text></svg>