<svg xmlns="http://www.w3.org/2000/svg" width="60em" height="18.8em" version="1.1"><defs><style type="text/css">svg{font-family:&quot;Helvetica Neue&quot;,Arial,sans-serif}tspan.size{font-size:.8em}tspan.head{font-weight:700}tspan.paren{font-weight:400!important}</style></defs><text x="0em" y="1.2em" class="head"><tspan class="size">Rank the following in terms of where you get Go answers from: <tspan class="paren">(ordered choice, up to 5)</tspan></tspan></text><rect width="2.27em" height=".6em" x="12em" y="2.1em" fill="#00f" stroke="#00f"/><rect width="1.76em" height=".6em" x="14.27em" y="2.1em" fill="#2828ff" stroke="#2828ff"/><rect width="1.2em" height=".6em" x="16.03em" y="2.1em" fill="#5151ff" stroke="#5151ff"/><rect width=".65em" height=".6em" x="17.24em" y="2.1em" fill="#7a7aff" stroke="#7a7aff"/><rect width=".3em" height=".6em" x="17.89em" y="2.1em" fill="#a3a3ff" stroke="#a3a3ff"/><text x="11.5em" y="2.7em" text-anchor="end"><tspan class="size">2,226 (<tspan fill="#00f">23</tspan>, <tspan fill="#2828ff">18</tspan>, <tspan fill="#5151ff">12</tspan>, <tspan fill="#7a7aff">7</tspan>, <tspan fill="#a3a3ff">3</tspan>%)</tspan></text><text x="18.69em" y="2.7em"><tspan class="size">Stack Overflow</tspan></text><rect width="3.03em" height=".6em" x="12em" y="3.3em" fill="#00f" stroke="#00f"/><rect width="1.54em" height=".6em" x="15.03em" y="3.3em" fill="#2828ff" stroke="#2828ff"/><rect width=".78em" height=".6em" x="16.57em" y="3.3em" fill="#5151ff" stroke="#5151ff"/><rect width=".35em" height=".6em" x="17.35em" y="3.3em" fill="#7a7aff" stroke="#7a7aff"/><rect width=".14em" height=".6em" x="17.71em" y="3.3em" fill="#a3a3ff" stroke="#a3a3ff"/><text x="11.5em" y="3.9em" text-anchor="end"><tspan class="size">2,101 (<tspan fill="#00f">30</tspan>, <tspan fill="#2828ff">15</tspan>, <tspan fill="#5151ff">8</tspan>, <tspan fill="#7a7aff">4</tspan>, <tspan fill="#a3a3ff">1</tspan>%)</tspan></text><text x="18.34em" y="3.9em"><tspan class="size">golang.org</tspan></text><rect width="1.25em" height=".6em" x="12em" y="4.5em" fill="#00f" stroke="#00f"/><rect width="1.65em" height=".6em" x="13.25em" y="4.5em" fill="#2828ff" stroke="#2828ff"/><rect width="1.22em" height=".6em" x="14.91em" y="4.5em" fill="#5151ff" stroke="#5151ff"/><rect width=".7em" height=".6em" x="16.13em" y="4.5em" fill="#7a7aff" stroke="#7a7aff"/><rect width=".22em" height=".6em" x="16.83em" y="4.5em" fill="#a3a3ff" stroke="#a3a3ff"/><text x="11.5em" y="5.1em" text-anchor="end"><tspan class="size">1,814 (<tspan fill="#00f">13</tspan>, <tspan fill="#2828ff">17</tspan>, <tspan fill="#5151ff">12</tspan>, <tspan fill="#7a7aff">7</tspan>, <tspan fill="#a3a3ff">2</tspan>%)</tspan></text><text x="17.55em" y="5.1em"><tspan class="size">Reading source code (e.g., standard library, open-source packages)</tspan></text><rect width=".27em" height=".6em" x="12em" y="5.7em" fill="#00f" stroke="#00f"/><rect width=".8em" height=".6em" x="12.27em" y="5.7em" fill="#2828ff" stroke="#2828ff"/><rect width="1.17em" height=".6em" x="13.07em" y="5.7em" fill="#5151ff" stroke="#5151ff"/><rect width=".74em" height=".6em" x="14.23em" y="5.7em" fill="#7a7aff" stroke="#7a7aff"/><rect width=".36em" height=".6em" x="14.98em" y="5.7em" fill="#a3a3ff" stroke="#a3a3ff"/><text x="11.5em" y="6.3em" text-anchor="end"><tspan class="size">1,200 (<tspan fill="#00f">3</tspan>, <tspan fill="#2828ff">8</tspan>, <tspan fill="#5151ff">12</tspan>, <tspan fill="#7a7aff">7</tspan>, <tspan fill="#a3a3ff">4</tspan>%)</tspan></text><text x="15.84em" y="6.3em"><tspan class="size">GitHub</tspan></text><rect width=".25em" height=".6em" x="12em" y="6.9em" fill="#00f" stroke="#00f"/><rect width=".65em" height=".6em" x="12.25em" y="6.9em" fill="#2828ff" stroke="#2828ff"/><rect width=".7em" height=".6em" x="12.9em" y="6.9em" fill="#5151ff" stroke="#5151ff"/><rect width=".48em" height=".6em" x="13.6em" y="6.9em" fill="#7a7aff" stroke="#7a7aff"/><rect width=".29em" height=".6em" x="14.09em" y="6.9em" fill="#a3a3ff" stroke="#a3a3ff"/><text x="11.5em" y="7.5em" text-anchor="end"><tspan class="size">854 (<tspan fill="#00f">3</tspan>, <tspan fill="#2828ff">7</tspan>, <tspan fill="#5151ff">7</tspan>, <tspan fill="#7a7aff">5</tspan>, <tspan fill="#a3a3ff">3</tspan>%)</tspan></text><text x="14.88em" y="7.5em"><tspan class="size">golang-nuts mailing list (groups.google.com/d/forum/golang-nuts)</tspan></text><rect width=".18em" height=".6em" x="12em" y="8.1em" fill="#00f" stroke="#00f"/><rect width=".34em" height=".6em" x="12.18em" y="8.1em" fill="#2828ff" stroke="#2828ff"/><rect width=".53em" height=".6em" x="12.52em" y="8.1em" fill="#5151ff" stroke="#5151ff"/><rect width=".53em" height=".6em" x="13.05em" y="8.1em" fill="#7a7aff" stroke="#7a7aff"/><rect width=".32em" height=".6em" x="13.58em" y="8.1em" fill="#a3a3ff" stroke="#a3a3ff"/><text x="11.5em" y="8.7em" text-anchor="end"><tspan class="size">682 (<tspan fill="#00f">2</tspan>, <tspan fill="#2828ff">3</tspan>, <tspan fill="#5151ff">5</tspan>, <tspan fill="#7a7aff">5</tspan>, <tspan fill="#a3a3ff">3</tspan>%)</tspan></text><text x="14.4em" y="8.7em"><tspan class="size">Reddit (r/golang)</tspan></text><rect width=".33em" height=".6em" x="12em" y="9.3em" fill="#00f" stroke="#00f"/><rect width=".42em" height=".6em" x="12.33em" y="9.3em" fill="#2828ff" stroke="#2828ff"/><rect width=".52em" height=".6em" x="12.74em" y="9.3em" fill="#5151ff" stroke="#5151ff"/><rect width=".32em" height=".6em" x="13.27em" y="9.3em" fill="#7a7aff" stroke="#7a7aff"/><rect width=".17em" height=".6em" x="13.58em" y="9.3em" fill="#a3a3ff" stroke="#a3a3ff"/><text x="11.5em" y="9.9em" text-anchor="end"><tspan class="size">630 (<tspan fill="#00f">3</tspan>, <tspan fill="#2828ff">4</tspan>, <tspan fill="#5151ff">5</tspan>, <tspan fill="#7a7aff">3</tspan>, <tspan fill="#a3a3ff">2</tspan>%)</tspan></text><text x="14.25em" y="9.9em"><tspan class="size">Coworkers</tspan></text><rect width=".19em" height=".6em" x="12em" y="10.5em" fill="#00f" stroke="#00f"/><rect width=".18em" height=".6em" x="12.19em" y="10.5em" fill="#2828ff" stroke="#2828ff"/><rect width=".21em" height=".6em" x="12.37em" y="10.5em" fill="#5151ff" stroke="#5151ff"/><rect width=".2em" height=".6em" x="12.58em" y="10.5em" fill="#7a7aff" stroke="#7a7aff"/><rect width=".15em" height=".6em" x="12.78em" y="10.5em" fill="#a3a3ff" stroke="#a3a3ff"/><text x="11.5em" y="11.1em" text-anchor="end"><tspan class="size">334 (<tspan fill="#00f">2</tspan>, <tspan fill="#2828ff">2</tspan>, <tspan fill="#5151ff">2</tspan>, <tspan fill="#7a7aff">2</tspan>, <tspan fill="#a3a3ff">2</tspan>%)</tspan></text><text x="13.43em" y="11.1em"><tspan class="size">Gopher Slack (invite.slack.golangbridge.org)</tspan></text><rect width=".07em" height=".6em" x="12em" y="11.7em" fill="#00f" stroke="#00f"/><rect width=".14em" height=".6em" x="12.07em" y="11.7em" fill="#2828ff" stroke="#2828ff"/><rect width=".18em" height=".6em" x="12.21em" y="11.7em" fill="#5151ff" stroke="#5151ff"/><rect width=".12em" height=".6em" x="12.39em" y="11.7em" fill="#7a7aff" stroke="#7a7aff"/><rect width=".08em" height=".6em" x="12.51em" y="11.7em" fill="#a3a3ff" stroke="#a3a3ff"/><text x="11.5em" y="12.3em" text-anchor="end"><tspan class="size">214 (<tspan fill="#00f">1</tspan>, <tspan fill="#2828ff">1</tspan>, <tspan fill="#5151ff">2</tspan>, <tspan fill="#7a7aff">1</tspan>, <tspan fill="#a3a3ff">1</tspan>%)</tspan></text><text x="13.1em" y="12.3em"><tspan class="size">Friends</tspan></text><rect width=".04em" height=".6em" x="12em" y="12.9em" fill="#00f" stroke="#00f"/><rect width=".05em" height=".6em" x="12.04em" y="12.9em" fill="#2828ff" stroke="#2828ff"/><rect width=".14em" height=".6em" x="12.09em" y="12.9em" fill="#5151ff" stroke="#5151ff"/><rect width=".12em" height=".6em" x="12.22em" y="12.9em" fill="#7a7aff" stroke="#7a7aff"/><rect width=".11em" height=".6em" x="12.34em" y="12.9em" fill="#a3a3ff" stroke="#a3a3ff"/><text x="11.5em" y="13.5em" text-anchor="end"><tspan class="size">161 (<tspan fill="#00f">0</tspan>, <tspan fill="#2828ff">0</tspan>, <tspan fill="#5151ff">1</tspan>, <tspan fill="#7a7aff">1</tspan>, <tspan fill="#a3a3ff">1</tspan>%)</tspan></text><text x="12.95em" y="13.5em"><tspan class="size">Twitter</tspan></text><rect width=".06em" height=".6em" x="12em" y="14.1em" fill="#00f" stroke="#00f"/><rect width=".11em" height=".6em" x="12.06em" y="14.1em" fill="#2828ff" stroke="#2828ff"/><rect width=".1em" height=".6em" x="12.18em" y="14.1em" fill="#5151ff" stroke="#5151ff"/><rect width=".11em" height=".6em" x="12.28em" y="14.1em" fill="#7a7aff" stroke="#7a7aff"/><rect width=".04em" height=".6em" x="12.39em" y="14.1em" fill="#a3a3ff" stroke="#a3a3ff"/><text x="11.5em" y="14.7em" text-anchor="end"><tspan class="size">156 (<tspan fill="#00f">1</tspan>, <tspan fill="#2828ff">1</tspan>, <tspan fill="#5151ff">1</tspan>, <tspan fill="#7a7aff">1</tspan>, <tspan fill="#a3a3ff">0</tspan>%)</tspan></text><text x="12.93em" y="14.7em"><tspan class="size">IRC</tspan></text><rect width=".03em" height=".6em" x="12em" y="15.3em" fill="#00f" stroke="#00f"/><rect width=".08em" height=".6em" x="12.03em" y="15.3em" fill="#2828ff" stroke="#2828ff"/><rect width=".08em" height=".6em" x="12.11em" y="15.3em" fill="#5151ff" stroke="#5151ff"/><rect width=".1em" height=".6em" x="12.18em" y="15.3em" fill="#7a7aff" stroke="#7a7aff"/><rect width=".07em" height=".6em" x="12.28em" y="15.3em" fill="#a3a3ff" stroke="#a3a3ff"/><text x="11.5em" y="15.9em" text-anchor="end"><tspan class="size">126 (<tspan fill="#00f">0</tspan>, <tspan fill="#2828ff">1</tspan>, <tspan fill="#5151ff">1</tspan>, <tspan fill="#7a7aff">1</tspan>, <tspan fill="#a3a3ff">1</tspan>%)</tspan></text><text x="12.85em" y="15.9em"><tspan class="size">Go Forum (forum.golangbridge.org)</tspan></text><rect width=".24em" height=".6em" x="12em" y="16.5em" fill="#777" stroke="#777"/><rect width=".2em" height=".6em" x="12.24em" y="16.5em" fill="#888" stroke="#888"/><rect width=".14em" height=".6em" x="12.43em" y="16.5em" fill="#999" stroke="#999"/><rect width=".08em" height=".6em" x="12.58em" y="16.5em" fill="#aaa" stroke="#aaa"/><rect width=".07em" height=".6em" x="12.66em" y="16.5em" fill="#bbb" stroke="#bbb"/><text x="11.5em" y="17.1em" text-anchor="end"><tspan class="size">262 (<tspan fill="#777">2</tspan>, <tspan fill="#888">2</tspan>, <tspan fill="#999">1</tspan>, <tspan fill="#aaa">1</tspan>, <tspan fill="#bbb">1</tspan>%)</tspan></text><text x="13.23em" y="17.1em"><tspan class="size">Other</tspan></text><rect width="1.79em" height=".6em" x="12em" y="17.7em" fill="#fff" stroke="#000"/><text x="11.5em" y="18.3em" text-anchor="end"><tspan class="size">643 (18%)</tspan></text><text x="14.29em" y="18.3em"><tspan class="size">No response</tspan></text></svg>