<svg xmlns="http://www.w3.org/2000/svg" width="60em" height="20em" version="1.1"><defs><style type="text/css">svg{font-family:&quot;Helvetica Neue&quot;,Arial,sans-serif}tspan.size{font-size:.8em}tspan.head{font-weight:700}tspan.paren{font-weight:400!important}</style></defs><text x="0em" y="1.2em" class="head"><tspan class="size">I work in the following areas: <tspan class="paren">(multiple choice)</tspan></tspan></text><rect width="6.32em" height=".6em" x="7.25em" y="2.1em" fill="#00f" stroke="#00f"/><text x="6.75em" y="2.7em" text-anchor="end"><tspan class="size">2,272 (63%)</tspan></text><text x="14.07em" y="2.7em"><tspan class="size">Web development</tspan></text><rect width="3.78em" height=".6em" x="7.25em" y="3.3em" fill="#00f" stroke="#00f"/><text x="6.75em" y="3.9em" text-anchor="end"><tspan class="size">1,359 (38%)</tspan></text><text x="11.53em" y="3.9em"><tspan class="size">Systems programming</tspan></text><rect width="3.48em" height=".6em" x="7.25em" y="4.5em" fill="#00f" stroke="#00f"/><text x="6.75em" y="5.1em" text-anchor="end"><tspan class="size">1,251 (35%)</tspan></text><text x="11.23em" y="5.1em"><tspan class="size">DevOps</tspan></text><rect width="3.25em" height=".6em" x="7.25em" y="5.7em" fill="#00f" stroke="#00f"/><text x="6.75em" y="6.3em" text-anchor="end"><tspan class="size">1,169 (33%)</tspan></text><text x="11em" y="6.3em"><tspan class="size">Network programming</tspan></text><rect width="2.8em" height=".6em" x="7.25em" y="6.9em" fill="#00f" stroke="#00f"/><text x="6.75em" y="7.5em" text-anchor="end"><tspan class="size">1,006 (28%)</tspan></text><text x="10.55em" y="7.5em"><tspan class="size">Databases</tspan></text><rect width="1.48em" height=".6em" x="7.25em" y="8.1em" fill="#00f" stroke="#00f"/><text x="6.75em" y="8.7em" text-anchor="end"><tspan class="size">533 (15%)</tspan></text><text x="9.23em" y="8.7em"><tspan class="size">Mobile</tspan></text><rect width="1.36em" height=".6em" x="7.25em" y="9.3em" fill="#00f" stroke="#00f"/><text x="6.75em" y="9.9em" text-anchor="end"><tspan class="size">490 (14%)</tspan></text><text x="9.11em" y="9.9em"><tspan class="size">Desktop/GUI applications</tspan></text><rect width="1.27em" height=".6em" x="7.25em" y="10.5em" fill="#00f" stroke="#00f"/><text x="6.75em" y="11.1em" text-anchor="end"><tspan class="size">457 (13%)</tspan></text><text x="9.02em" y="11.1em"><tspan class="size">Security</tspan></text><rect width="1.21em" height=".6em" x="7.25em" y="11.7em" fill="#00f" stroke="#00f"/><text x="6.75em" y="12.3em" text-anchor="end"><tspan class="size">435 (12%)</tspan></text><text x="8.96em" y="12.3em"><tspan class="size">Data Science</tspan></text><rect width="1.16em" height=".6em" x="7.25em" y="12.9em" fill="#00f" stroke="#00f"/><text x="6.75em" y="13.5em" text-anchor="end"><tspan class="size">417 (12%)</tspan></text><text x="8.91em" y="13.5em"><tspan class="size">Finance/Commerce</tspan></text><rect width="1.1em" height=".6em" x="7.25em" y="14.1em" fill="#00f" stroke="#00f"/><text x="6.75em" y="14.7em" text-anchor="end"><tspan class="size">394 (11%)</tspan></text><text x="8.85em" y="14.7em"><tspan class="size">Embedded devices/Internet of Things</tspan></text><rect width="1.05em" height=".6em" x="7.25em" y="15.3em" fill="#00f" stroke="#00f"/><text x="6.75em" y="15.9em" text-anchor="end"><tspan class="size">379 (11%)</tspan></text><text x="8.8em" y="15.9em"><tspan class="size">Academic/Scientific/Numeric</tspan></text><rect width=".63em" height=".6em" x="7.25em" y="16.5em" fill="#00f" stroke="#00f"/><text x="6.75em" y="17.1em" text-anchor="end"><tspan class="size">228 (6%)</tspan></text><text x="8.38em" y="17.1em"><tspan class="size">Gaming</tspan></text><rect width=".66em" height=".6em" x="7.25em" y="17.7em" fill="#777" stroke="#777"/><text x="6.75em" y="18.3em" text-anchor="end"><tspan class="size">238 (7%)</tspan></text><text x="8.41em" y="18.3em"><tspan class="size">Other</tspan></text><rect width=".21em" height=".6em" x="7.25em" y="18.9em" fill="#fff" stroke="#000"/><text x="6.75em" y="19.5em" text-anchor="end"><tspan class="size">74 (2%)</tspan></text><text x="7.96em" y="19.5em"><tspan class="size">No response</tspan></text></svg>