<svg xmlns="http://www.w3.org/2000/svg" width="60em" height="14em" version="1.1"><defs><style type="text/css">svg{font-family:&quot;Helvetica Neue&quot;,Arial,sans-serif}tspan.size{font-size:.8em}tspan.head{font-weight:700}tspan.paren{font-weight:400!important}</style></defs><text x="0em" y="1.2em" class="head"><tspan class="size">I have attended: <tspan class="paren">(multiple choice)</tspan></tspan></text><rect width="3.66em" height=".6em" x="7.25em" y="2.1em" fill="#00f" stroke="#00f"/><text x="6.75em" y="2.7em" text-anchor="end"><tspan class="size">1,315 (37%)</tspan></text><text x="11.41em" y="2.7em"><tspan class="size">None</tspan></text><rect width="2.45em" height=".6em" x="7.25em" y="3.3em" fill="#00f" stroke="#00f"/><text x="6.75em" y="3.9em" text-anchor="end"><tspan class="size">879 (24%)</tspan></text><text x="10.2em" y="3.9em"><tspan class="size">A Go meetup</tspan></text><rect width="1.45em" height=".6em" x="7.25em" y="4.5em" fill="#00f" stroke="#00f"/><text x="6.75em" y="5.1em" text-anchor="end"><tspan class="size">523 (15%)</tspan></text><text x="9.2em" y="5.1em"><tspan class="size">A Go themed conference (GopherCon, GothamGo, etc)</tspan></text><rect width=".77em" height=".6em" x="7.25em" y="5.7em" fill="#00f" stroke="#00f"/><text x="6.75em" y="6.3em" text-anchor="end"><tspan class="size">276 (8%)</tspan></text><text x="8.52em" y="6.3em"><tspan class="size">A Go remote meetup / online event</tspan></text><rect width=".52em" height=".6em" x="7.25em" y="6.9em" fill="#00f" stroke="#00f"/><text x="6.75em" y="7.5em" text-anchor="end"><tspan class="size">186 (5%)</tspan></text><text x="8.27em" y="7.5em"><tspan class="size">Go training</tspan></text><rect width=".46em" height=".6em" x="7.25em" y="8.1em" fill="#00f" stroke="#00f"/><text x="6.75em" y="8.7em" text-anchor="end"><tspan class="size">165 (5%)</tspan></text><text x="8.21em" y="8.7em"><tspan class="size">A technical conference for it&apos;s Go content</tspan></text><rect width=".12em" height=".6em" x="7.25em" y="9.3em" fill="#00f" stroke="#00f"/><text x="6.75em" y="9.9em" text-anchor="end"><tspan class="size">43 (1%)</tspan></text><text x="7.87em" y="9.9em"><tspan class="size">A GoBridge event</tspan></text><rect width=".1em" height=".6em" x="7.25em" y="10.5em" fill="#00f" stroke="#00f"/><text x="6.75em" y="11.1em" text-anchor="end"><tspan class="size">37 (1%)</tspan></text><text x="7.85em" y="11.1em"><tspan class="size">A Women Who Go event</tspan></text><rect width=".18em" height=".6em" x="7.25em" y="11.7em" fill="#777" stroke="#777"/><text x="6.75em" y="12.3em" text-anchor="end"><tspan class="size">65 (2%)</tspan></text><text x="7.93em" y="12.3em"><tspan class="size">Other</tspan></text><rect width="2.76em" height=".6em" x="7.25em" y="12.9em" fill="#fff" stroke="#000"/><text x="6.75em" y="13.5em" text-anchor="end"><tspan class="size">993 (28%)</tspan></text><text x="10.51em" y="13.5em"><tspan class="size">No response</tspan></text></svg>