<svg xmlns="http://www.w3.org/2000/svg" width="60em" height="16.4em" version="1.1"><defs><style type="text/css">svg{font-family:&quot;Helvetica Neue&quot;,Arial,sans-serif}tspan.size{font-size:.8em}tspan.head{font-weight:700}</style></defs><text x="0em" y="1.2em" class="head"><tspan class="size">What is the biggest challenge facing the Go project today?</tspan></text><rect width=".2em" height=".6em" x="7.25em" y="2.1em" fill="#00f" stroke="#00f"/><text x="6.75em" y="2.7em" text-anchor="end"><tspan class="size">71 (2.0%)</tspan></text><text x="7.95em" y="2.7em"><tspan class="size">community</tspan></text><rect width=".19em" height=".6em" x="7.25em" y="3.3em" fill="#00f" stroke="#00f"/><text x="6.75em" y="3.9em" text-anchor="end"><tspan class="size">68 (1.9%)</tspan></text><text x="7.94em" y="3.9em"><tspan class="size">google</tspan></text><rect width=".18em" height=".6em" x="7.25em" y="4.5em" fill="#00f" stroke="#00f"/><text x="6.75em" y="5.1em" text-anchor="end"><tspan class="size">63 (1.8%)</tspan></text><text x="7.93em" y="5.1em"><tspan class="size">generics</tspan></text><rect width=".17em" height=".6em" x="7.25em" y="5.7em" fill="#00f" stroke="#00f"/><text x="6.75em" y="6.3em" text-anchor="end"><tspan class="size">62 (1.7%)</tspan></text><text x="7.92em" y="6.3em"><tspan class="size">management</tspan></text><rect width=".14em" height=".6em" x="7.25em" y="6.9em" fill="#00f" stroke="#00f"/><text x="6.75em" y="7.5em" text-anchor="end"><tspan class="size">49 (1.4%)</tspan></text><text x="7.89em" y="7.5em"><tspan class="size">adoption</tspan></text><rect width=".13em" height=".6em" x="7.25em" y="8.1em" fill="#00f" stroke="#00f"/><text x="6.75em" y="8.7em" text-anchor="end"><tspan class="size">45 (1.3%)</tspan></text><text x="7.88em" y="8.7em"><tspan class="size">lack</tspan></text><rect width=".12em" height=".6em" x="7.25em" y="9.3em" fill="#00f" stroke="#00f"/><text x="6.75em" y="9.9em" text-anchor="end"><tspan class="size">43 (1.2%)</tspan></text><text x="7.87em" y="9.9em"><tspan class="size">features</tspan></text><rect width=".12em" height=".6em" x="7.25em" y="10.5em" fill="#00f" stroke="#00f"/><text x="6.75em" y="11.1em" text-anchor="end"><tspan class="size">43 (1.2%)</tspan></text><text x="7.87em" y="11.1em"><tspan class="size">people</tspan></text><rect width=".11em" height=".6em" x="7.25em" y="11.7em" fill="#00f" stroke="#00f"/><text x="6.75em" y="12.3em" text-anchor="end"><tspan class="size">40 (1.1%)</tspan></text><text x="7.86em" y="12.3em"><tspan class="size">dependency management</tspan></text><rect width=".1em" height=".6em" x="7.25em" y="12.9em" fill="#00f" stroke="#00f"/><text x="6.75em" y="13.5em" text-anchor="end"><tspan class="size">37 (1.0%)</tspan></text><text x="7.85em" y="13.5em"><tspan class="size">java</tspan></text><rect width=".09em" height=".6em" x="7.25em" y="14.1em" fill="#00f" stroke="#00f"/><text x="6.75em" y="14.7em" text-anchor="end"><tspan class="size">32 (0.9%)</tspan></text><text x="7.84em" y="14.7em"><tspan class="size">languages</tspan></text><rect width=".09em" height=".6em" x="7.25em" y="15.3em" fill="#00f" stroke="#00f"/><text x="6.75em" y="15.9em" text-anchor="end"><tspan class="size">31 (0.9%)</tspan></text><text x="7.84em" y="15.9em"><tspan class="size">keeping</tspan></text><rect width=".08em" height=".6em" x="22.25em" y="2.1em" fill="#00f" stroke="#00f"/><text x="21.75em" y="2.7em" text-anchor="end"><tspan class="size">29 (0.8%)</tspan></text><text x="22.83em" y="2.7em"><tspan class="size">c</tspan></text><rect width=".08em" height=".6em" x="22.25em" y="3.3em" fill="#00f" stroke="#00f"/><text x="21.75em" y="3.9em" text-anchor="end"><tspan class="size">27 (0.8%)</tspan></text><text x="22.83em" y="3.9em"><tspan class="size">developers</tspan></text><rect width=".08em" height=".6em" x="22.25em" y="4.5em" fill="#00f" stroke="#00f"/><text x="21.75em" y="5.1em" text-anchor="end"><tspan class="size">27 (0.8%)</tspan></text><text x="22.83em" y="5.1em"><tspan class="size">leadership</tspan></text><rect width=".07em" height=".6em" x="22.25em" y="5.7em" fill="#00f" stroke="#00f"/><text x="21.75em" y="6.3em" text-anchor="end"><tspan class="size">24 (0.7%)</tspan></text><text x="22.82em" y="6.3em"><tspan class="size">good</tspan></text><rect width=".07em" height=".6em" x="22.25em" y="6.9em" fill="#00f" stroke="#00f"/><text x="21.75em" y="7.5em" text-anchor="end"><tspan class="size">24 (0.7%)</tspan></text><text x="22.82em" y="7.5em"><tspan class="size">libraries</tspan></text><rect width=".07em" height=".6em" x="22.25em" y="8.1em" fill="#00f" stroke="#00f"/><text x="21.75em" y="8.7em" text-anchor="end"><tspan class="size">24 (0.7%)</tspan></text><text x="22.82em" y="8.7em"><tspan class="size">package</tspan></text><rect width=".06em" height=".6em" x="22.25em" y="9.3em" fill="#00f" stroke="#00f"/><text x="21.75em" y="9.9em" text-anchor="end"><tspan class="size">23 (0.6%)</tspan></text><text x="22.81em" y="9.9em"><tspan class="size">simple</tspan></text><rect width=".06em" height=".6em" x="22.25em" y="10.5em" fill="#00f" stroke="#00f"/><text x="21.75em" y="11.1em" text-anchor="end"><tspan class="size">21 (0.6%)</tspan></text><text x="22.81em" y="11.1em"><tspan class="size">core</tspan></text><rect width=".06em" height=".6em" x="22.25em" y="11.7em" fill="#00f" stroke="#00f"/><text x="21.75em" y="12.3em" text-anchor="end"><tspan class="size">21 (0.6%)</tspan></text><text x="22.81em" y="12.3em"><tspan class="size">feature</tspan></text><rect width=".06em" height=".6em" x="22.25em" y="12.9em" fill="#00f" stroke="#00f"/><text x="21.75em" y="13.5em" text-anchor="end"><tspan class="size">20 (0.6%)</tspan></text><text x="22.81em" y="13.5em"><tspan class="size">programming</tspan></text><rect width=".06em" height=".6em" x="22.25em" y="14.1em" fill="#00f" stroke="#00f"/><text x="21.75em" y="14.7em" text-anchor="end"><tspan class="size">20 (0.6%)</tspan></text><text x="22.81em" y="14.7em"><tspan class="size">team</tspan></text><rect width="7.71em" height=".6em" x="22.25em" y="15.3em" fill="#fff" stroke="#000"/><text x="21.75em" y="15.9em" text-anchor="end"><tspan class="size">2,771 (77.1%)</tspan></text><text x="30.46em" y="15.9em"><tspan class="size">No response</tspan></text></svg>