<svg xmlns="http://www.w3.org/2000/svg" width="60em" height="26em" version="1.1"><defs><style type="text/css">svg{font-family:&quot;Helvetica Neue&quot;,Arial,sans-serif}tspan.size{font-size:.8em}tspan.head{font-weight:700}</style></defs><text x="0em" y="1.2em" class="head"><tspan class="size">What is the biggest challenge you personally face using Go today?</tspan></text><rect width=".69em" height=".6em" x="7.25em" y="2.1em" fill="#00f" stroke="#00f"/><text x="6.75em" y="2.7em" text-anchor="end"><tspan class="size">249 (6.9%)</tspan></text><text x="8.44em" y="2.7em"><tspan class="size">lack</tspan></text><rect width=".57em" height=".6em" x="7.25em" y="3.3em" fill="#00f" stroke="#00f"/><text x="6.75em" y="3.9em" text-anchor="end"><tspan class="size">206 (5.7%)</tspan></text><text x="8.32em" y="3.9em"><tspan class="size">management</tspan></text><rect width=".41em" height=".6em" x="7.25em" y="4.5em" fill="#00f" stroke="#00f"/><text x="6.75em" y="5.1em" text-anchor="end"><tspan class="size">146 (4.1%)</tspan></text><text x="8.16em" y="5.1em"><tspan class="size">libraries</tspan></text><rect width=".36em" height=".6em" x="7.25em" y="5.7em" fill="#00f" stroke="#00f"/><text x="6.75em" y="6.3em" text-anchor="end"><tspan class="size">129 (3.6%)</tspan></text><text x="8.11em" y="6.3em"><tspan class="size">generics</tspan></text><rect width=".35em" height=".6em" x="7.25em" y="6.9em" fill="#00f" stroke="#00f"/><text x="6.75em" y="7.5em" text-anchor="end"><tspan class="size">127 (3.5%)</tspan></text><text x="8.1em" y="7.5em"><tspan class="size">dependency management</tspan></text><rect width=".23em" height=".6em" x="7.25em" y="8.1em" fill="#00f" stroke="#00f"/><text x="6.75em" y="8.7em" text-anchor="end"><tspan class="size">84 (2.3%)</tspan></text><text x="7.98em" y="8.7em"><tspan class="size">work</tspan></text><rect width=".22em" height=".6em" x="7.25em" y="9.3em" fill="#00f" stroke="#00f"/><text x="6.75em" y="9.9em" text-anchor="end"><tspan class="size">78 (2.2%)</tspan></text><text x="7.97em" y="9.9em"><tspan class="size">package</tspan></text><rect width=".21em" height=".6em" x="7.25em" y="10.5em" fill="#00f" stroke="#00f"/><text x="6.75em" y="11.1em" text-anchor="end"><tspan class="size">76 (2.1%)</tspan></text><text x="7.96em" y="11.1em"><tspan class="size">hard</tspan></text><rect width=".19em" height=".6em" x="7.25em" y="11.7em" fill="#00f" stroke="#00f"/><text x="6.75em" y="12.3em" text-anchor="end"><tspan class="size">68 (1.9%)</tspan></text><text x="7.94em" y="12.3em"><tspan class="size">time</tspan></text><rect width=".19em" height=".6em" x="7.25em" y="12.9em" fill="#00f" stroke="#00f"/><text x="6.75em" y="13.5em" text-anchor="end"><tspan class="size">67 (1.9%)</tspan></text><text x="7.94em" y="13.5em"><tspan class="size">good</tspan></text><rect width=".19em" height=".6em" x="7.25em" y="14.1em" fill="#00f" stroke="#00f"/><text x="6.75em" y="14.7em" text-anchor="end"><tspan class="size">67 (1.9%)</tspan></text><text x="7.94em" y="14.7em"><tspan class="size">java</tspan></text><rect width=".18em" height=".6em" x="7.25em" y="15.3em" fill="#00f" stroke="#00f"/><text x="6.75em" y="15.9em" text-anchor="end"><tspan class="size">66 (1.8%)</tspan></text><text x="7.93em" y="15.9em"><tspan class="size">gui</tspan></text><rect width=".17em" height=".6em" x="7.25em" y="16.5em" fill="#00f" stroke="#00f"/><text x="6.75em" y="17.1em" text-anchor="end"><tspan class="size">61 (1.7%)</tspan></text><text x="7.92em" y="17.1em"><tspan class="size">web</tspan></text><rect width=".17em" height=".6em" x="7.25em" y="17.7em" fill="#00f" stroke="#00f"/><text x="6.75em" y="18.3em" text-anchor="end"><tspan class="size">60 (1.7%)</tspan></text><text x="7.92em" y="18.3em"><tspan class="size">c</tspan></text><rect width=".17em" height=".6em" x="7.25em" y="18.9em" fill="#00f" stroke="#00f"/><text x="6.75em" y="19.5em" text-anchor="end"><tspan class="size">60 (1.7%)</tspan></text><text x="7.92em" y="19.5em"><tspan class="size">debugging</tspan></text><rect width=".16em" height=".6em" x="7.25em" y="20.1em" fill="#00f" stroke="#00f"/><text x="6.75em" y="20.7em" text-anchor="end"><tspan class="size">59 (1.6%)</tspan></text><text x="7.91em" y="20.7em"><tspan class="size">vendoring</tspan></text><rect width=".16em" height=".6em" x="7.25em" y="21.3em" fill="#00f" stroke="#00f"/><text x="6.75em" y="21.9em" text-anchor="end"><tspan class="size">58 (1.6%)</tspan></text><text x="7.91em" y="21.9em"><tspan class="size">projects</tspan></text><rect width=".16em" height=".6em" x="7.25em" y="22.5em" fill="#00f" stroke="#00f"/><text x="6.75em" y="23.1em" text-anchor="end"><tspan class="size">56 (1.6%)</tspan></text><text x="7.91em" y="23.1em"><tspan class="size">lack of generics</tspan></text><rect width=".16em" height=".6em" x="7.25em" y="23.7em" fill="#00f" stroke="#00f"/><text x="6.75em" y="24.3em" text-anchor="end"><tspan class="size">56 (1.6%)</tspan></text><text x="7.91em" y="24.3em"><tspan class="size">library</tspan></text><rect width=".14em" height=".6em" x="7.25em" y="24.9em" fill="#00f" stroke="#00f"/><text x="6.75em" y="25.5em" text-anchor="end"><tspan class="size">51 (1.4%)</tspan></text><text x="7.89em" y="25.5em"><tspan class="size">type</tspan></text><rect width=".14em" height=".6em" x="22.25em" y="2.1em" fill="#00f" stroke="#00f"/><text x="21.75em" y="2.7em" text-anchor="end"><tspan class="size">51 (1.4%)</tspan></text><text x="22.89em" y="2.7em"><tspan class="size">write</tspan></text><rect width=".14em" height=".6em" x="22.25em" y="3.3em" fill="#00f" stroke="#00f"/><text x="21.75em" y="3.9em" text-anchor="end"><tspan class="size">50 (1.4%)</tspan></text><text x="22.89em" y="3.9em"><tspan class="size">finding</tspan></text><rect width=".14em" height=".6em" x="22.25em" y="4.5em" fill="#00f" stroke="#00f"/><text x="21.75em" y="5.1em" text-anchor="end"><tspan class="size">49 (1.4%)</tspan></text><text x="22.89em" y="5.1em"><tspan class="size">ide</tspan></text><rect width=".14em" height=".6em" x="22.25em" y="5.7em" fill="#00f" stroke="#00f"/><text x="21.75em" y="6.3em" text-anchor="end"><tspan class="size">49 (1.4%)</tspan></text><text x="22.89em" y="6.3em"><tspan class="size">packages</tspan></text><rect width=".13em" height=".6em" x="22.25em" y="6.9em" fill="#00f" stroke="#00f"/><text x="21.75em" y="7.5em" text-anchor="end"><tspan class="size">48 (1.3%)</tspan></text><text x="22.88em" y="7.5em"><tspan class="size">dependencies</tspan></text><rect width=".13em" height=".6em" x="22.25em" y="8.1em" fill="#00f" stroke="#00f"/><text x="21.75em" y="8.7em" text-anchor="end"><tspan class="size">46 (1.3%)</tspan></text><text x="22.88em" y="8.7em"><tspan class="size">package management</tspan></text><rect width=".13em" height=".6em" x="22.25em" y="9.3em" fill="#00f" stroke="#00f"/><text x="21.75em" y="9.9em" text-anchor="end"><tspan class="size">45 (1.3%)</tspan></text><text x="22.88em" y="9.9em"><tspan class="size">debugger</tspan></text><rect width=".12em" height=".6em" x="22.25em" y="10.5em" fill="#00f" stroke="#00f"/><text x="21.75em" y="11.1em" text-anchor="end"><tspan class="size">44 (1.2%)</tspan></text><text x="22.87em" y="11.1em"><tspan class="size">adoption</tspan></text><rect width=".12em" height=".6em" x="22.25em" y="11.7em" fill="#00f" stroke="#00f"/><text x="21.75em" y="12.3em" text-anchor="end"><tspan class="size">42 (1.2%)</tspan></text><text x="22.87em" y="12.3em"><tspan class="size">people</tspan></text><rect width=".11em" height=".6em" x="22.25em" y="12.9em" fill="#00f" stroke="#00f"/><text x="21.75em" y="13.5em" text-anchor="end"><tspan class="size">41 (1.1%)</tspan></text><text x="22.86em" y="13.5em"><tspan class="size">learning</tspan></text><rect width=".11em" height=".6em" x="22.25em" y="14.1em" fill="#00f" stroke="#00f"/><text x="21.75em" y="14.7em" text-anchor="end"><tspan class="size">41 (1.1%)</tspan></text><text x="22.86em" y="14.7em"><tspan class="size">team</tspan></text><rect width=".11em" height=".6em" x="22.25em" y="15.3em" fill="#00f" stroke="#00f"/><text x="21.75em" y="15.9em" text-anchor="end"><tspan class="size">40 (1.1%)</tspan></text><text x="22.86em" y="15.9em"><tspan class="size">convincing</tspan></text><rect width=".11em" height=".6em" x="22.25em" y="16.5em" fill="#00f" stroke="#00f"/><text x="21.75em" y="17.1em" text-anchor="end"><tspan class="size">40 (1.1%)</tspan></text><text x="22.86em" y="17.1em"><tspan class="size">tools</tspan></text><rect width=".11em" height=".6em" x="22.25em" y="17.7em" fill="#00f" stroke="#00f"/><text x="21.75em" y="18.3em" text-anchor="end"><tspan class="size">39 (1.1%)</tspan></text><text x="22.86em" y="18.3em"><tspan class="size">error handling</tspan></text><rect width=".11em" height=".6em" x="22.25em" y="18.9em" fill="#00f" stroke="#00f"/><text x="21.75em" y="19.5em" text-anchor="end"><tspan class="size">39 (1.1%)</tspan></text><text x="22.86em" y="19.5em"><tspan class="size">interfaces</tspan></text><rect width=".11em" height=".6em" x="22.25em" y="20.1em" fill="#00f" stroke="#00f"/><text x="21.75em" y="20.7em" text-anchor="end"><tspan class="size">39 (1.1%)</tspan></text><text x="22.86em" y="20.7em"><tspan class="size">other languages</tspan></text><rect width=".11em" height=".6em" x="22.25em" y="21.3em" fill="#00f" stroke="#00f"/><text x="21.75em" y="21.9em" text-anchor="end"><tspan class="size">39 (1.1%)</tspan></text><text x="22.86em" y="21.9em"><tspan class="size">writing</tspan></text><rect width=".11em" height=".6em" x="22.25em" y="22.5em" fill="#00f" stroke="#00f"/><text x="21.75em" y="23.1em" text-anchor="end"><tspan class="size">38 (1.1%)</tspan></text><text x="22.86em" y="23.1em"><tspan class="size">interface</tspan></text><rect width=".11em" height=".6em" x="22.25em" y="23.7em" fill="#00f" stroke="#00f"/><text x="21.75em" y="24.3em" text-anchor="end"><tspan class="size">38 (1.1%)</tspan></text><text x="22.86em" y="24.3em"><tspan class="size">others</tspan></text><rect width=".1em" height=".6em" x="22.25em" y="24.9em" fill="#00f" stroke="#00f"/><text x="21.75em" y="25.5em" text-anchor="end"><tspan class="size">37 (1.0%)</tspan></text><text x="22.85em" y="25.5em"><tspan class="size">python</tspan></text><rect width=".1em" height=".6em" x="37.25em" y="2.1em" fill="#00f" stroke="#00f"/><text x="36.75em" y="2.7em" text-anchor="end"><tspan class="size">35 (1.0%)</tspan></text><text x="37.85em" y="2.7em"><tspan class="size">find</tspan></text><rect width=".1em" height=".6em" x="37.25em" y="3.3em" fill="#00f" stroke="#00f"/><text x="36.75em" y="3.9em" text-anchor="end"><tspan class="size">35 (1.0%)</tspan></text><text x="37.85em" y="3.9em"><tspan class="size">gopath</tspan></text><rect width=".1em" height=".6em" x="37.25em" y="4.5em" fill="#00f" stroke="#00f"/><text x="36.75em" y="5.1em" text-anchor="end"><tspan class="size">35 (1.0%)</tspan></text><text x="37.85em" y="5.1em"><tspan class="size">programming</tspan></text><rect width=".09em" height=".6em" x="37.25em" y="5.7em" fill="#00f" stroke="#00f"/><text x="36.75em" y="6.3em" text-anchor="end"><tspan class="size">34 (0.9%)</tspan></text><text x="37.84em" y="6.3em"><tspan class="size">can&apos;t</tspan></text><rect width=".09em" height=".6em" x="37.25em" y="6.9em" fill="#00f" stroke="#00f"/><text x="36.75em" y="7.5em" text-anchor="end"><tspan class="size">34 (0.9%)</tspan></text><text x="37.84em" y="7.5em"><tspan class="size">standard</tspan></text><rect width=".09em" height=".6em" x="37.25em" y="8.1em" fill="#00f" stroke="#00f"/><text x="36.75em" y="8.7em" text-anchor="end"><tspan class="size">33 (0.9%)</tspan></text><text x="37.84em" y="8.7em"><tspan class="size">build</tspan></text><rect width=".09em" height=".6em" x="37.25em" y="9.3em" fill="#00f" stroke="#00f"/><text x="36.75em" y="9.9em" text-anchor="end"><tspan class="size">33 (0.9%)</tspan></text><text x="37.84em" y="9.9em"><tspan class="size">tooling</tspan></text><rect width=".09em" height=".6em" x="37.25em" y="10.5em" fill="#00f" stroke="#00f"/><text x="36.75em" y="11.1em" text-anchor="end"><tspan class="size">32 (0.9%)</tspan></text><text x="37.84em" y="11.1em"><tspan class="size">generic</tspan></text><rect width=".09em" height=".6em" x="37.25em" y="11.7em" fill="#00f" stroke="#00f"/><text x="36.75em" y="12.3em" text-anchor="end"><tspan class="size">31 (0.9%)</tspan></text><text x="37.84em" y="12.3em"><tspan class="size">boilerplate</tspan></text><rect width=".08em" height=".6em" x="37.25em" y="12.9em" fill="#00f" stroke="#00f"/><text x="36.75em" y="13.5em" text-anchor="end"><tspan class="size">30 (0.8%)</tspan></text><text x="37.83em" y="13.5em"><tspan class="size">applications</tspan></text><rect width=".08em" height=".6em" x="37.25em" y="14.1em" fill="#00f" stroke="#00f"/><text x="36.75em" y="14.7em" text-anchor="end"><tspan class="size">30 (0.8%)</tspan></text><text x="37.83em" y="14.7em"><tspan class="size">developers</tspan></text><rect width=".08em" height=".6em" x="37.25em" y="15.3em" fill="#00f" stroke="#00f"/><text x="36.75em" y="15.9em" text-anchor="end"><tspan class="size">30 (0.8%)</tspan></text><text x="37.83em" y="15.9em"><tspan class="size">having</tspan></text><rect width=".08em" height=".6em" x="37.25em" y="16.5em" fill="#00f" stroke="#00f"/><text x="36.75em" y="17.1em" text-anchor="end"><tspan class="size">30 (0.8%)</tspan></text><text x="37.83em" y="17.1em"><tspan class="size">types</tspan></text><rect width=".08em" height=".6em" x="37.25em" y="17.7em" fill="#00f" stroke="#00f"/><text x="36.75em" y="18.3em" text-anchor="end"><tspan class="size">30 (0.8%)</tspan></text><text x="37.83em" y="18.3em"><tspan class="size">working</tspan></text><rect width=".07em" height=".6em" x="37.25em" y="18.9em" fill="#00f" stroke="#00f"/><text x="36.75em" y="19.5em" text-anchor="end"><tspan class="size">26 (0.7%)</tspan></text><text x="37.82em" y="19.5em"><tspan class="size">at work</tspan></text><rect width=".07em" height=".6em" x="37.25em" y="20.1em" fill="#00f" stroke="#00f"/><text x="36.75em" y="20.7em" text-anchor="end"><tspan class="size">26 (0.7%)</tspan></text><text x="37.82em" y="20.7em"><tspan class="size">using go</tspan></text><rect width=".06em" height=".6em" x="37.25em" y="21.3em" fill="#00f" stroke="#00f"/><text x="36.75em" y="21.9em" text-anchor="end"><tspan class="size">22 (0.6%)</tspan></text><text x="37.81em" y="21.9em"><tspan class="size">no generics</tspan></text><rect width=".06em" height=".6em" x="37.25em" y="22.5em" fill="#00f" stroke="#00f"/><text x="36.75em" y="23.1em" text-anchor="end"><tspan class="size">20 (0.6%)</tspan></text><text x="37.81em" y="23.1em"><tspan class="size">not enough</tspan></text><rect width="4.4em" height=".6em" x="37.25em" y="23.7em" fill="#fff" stroke="#000"/><text x="36.75em" y="24.3em" text-anchor="end"><tspan class="size">1,581 (44.0%)</tspan></text><text x="42.15em" y="24.3em"><tspan class="size">No response</tspan></text></svg>