<svg xmlns="http://www.w3.org/2000/svg" width="60em" height="20em" version="1.1"><defs><style type="text/css">svg{font-family:&quot;Helvetica Neue&quot;,Arial,sans-serif}tspan.size{font-size:.8em}tspan.head{font-weight:700}tspan.paren{font-weight:400!important}</style></defs><text x="0em" y="1.2em" class="head"><tspan class="size">I have contributed or am interested in contributing in the following ways to the Go community and Projects: <tspan class="paren">(multiple choice)</tspan></tspan></text><rect width="2.48em" height=".6em" x="7.25em" y="2.1em" fill="#00f" stroke="#00f"/><text x="6.75em" y="2.7em" text-anchor="end"><tspan class="size">892 (25%)</tspan></text><text x="10.23em" y="2.7em"><tspan class="size">Standard library</tspan></text><rect width="1.84em" height=".6em" x="7.25em" y="3.3em" fill="#00f" stroke="#00f"/><text x="6.75em" y="3.9em" text-anchor="end"><tspan class="size">663 (18%)</tspan></text><text x="9.59em" y="3.9em"><tspan class="size">Tools (go guru, go vet, go doc, etc)</tspan></text><rect width="1.67em" height=".6em" x="7.25em" y="4.5em" fill="#00f" stroke="#00f"/><text x="6.75em" y="5.1em" text-anchor="end"><tspan class="size">602 (17%)</tspan></text><text x="9.42em" y="5.1em"><tspan class="size">Tutorials</tspan></text><rect width="1.56em" height=".6em" x="7.25em" y="5.7em" fill="#00f" stroke="#00f"/><text x="6.75em" y="6.3em" text-anchor="end"><tspan class="size">560 (16%)</tspan></text><text x="9.31em" y="6.3em"><tspan class="size">Documentation</tspan></text><rect width="1.55em" height=".6em" x="7.25em" y="6.9em" fill="#00f" stroke="#00f"/><text x="6.75em" y="7.5em" text-anchor="end"><tspan class="size">557 (15%)</tspan></text><text x="9.3em" y="7.5em"><tspan class="size">Community support via Stack Overflow, Slack, mailing list, etc</tspan></text><rect width="1.31em" height=".6em" x="7.25em" y="8.1em" fill="#00f" stroke="#00f"/><text x="6.75em" y="8.7em" text-anchor="end"><tspan class="size">472 (13%)</tspan></text><text x="9.06em" y="8.7em"><tspan class="size">Community involvement (workgroups, meetup attendance)</tspan></text><rect width="1.22em" height=".6em" x="7.25em" y="9.3em" fill="#00f" stroke="#00f"/><text x="6.75em" y="9.9em" text-anchor="end"><tspan class="size">440 (12%)</tspan></text><text x="8.97em" y="9.9em"><tspan class="size">Being a technical mentor</tspan></text><rect width="1.04em" height=".6em" x="7.25em" y="10.5em" fill="#00f" stroke="#00f"/><text x="6.75em" y="11.1em" text-anchor="end"><tspan class="size">374 (10%)</tspan></text><text x="8.79em" y="11.1em"><tspan class="size">Toolchain (compiler, linker, etc)</tspan></text><rect width=".76em" height=".6em" x="7.25em" y="11.7em" fill="#00f" stroke="#00f"/><text x="6.75em" y="12.3em" text-anchor="end"><tspan class="size">275 (8%)</tspan></text><text x="8.51em" y="12.3em"><tspan class="size">Go Project maintenance (issue triage)</tspan></text><rect width=".68em" height=".6em" x="7.25em" y="12.9em" fill="#00f" stroke="#00f"/><text x="6.75em" y="13.5em" text-anchor="end"><tspan class="size">246 (7%)</tspan></text><text x="8.43em" y="13.5em"><tspan class="size">Event planning (meetup, conference, etc)</tspan></text><rect width=".66em" height=".6em" x="7.25em" y="14.1em" fill="#00f" stroke="#00f"/><text x="6.75em" y="14.7em" text-anchor="end"><tspan class="size">236 (7%)</tspan></text><text x="8.41em" y="14.7em"><tspan class="size">Language translation</tspan></text><rect width=".46em" height=".6em" x="7.25em" y="15.3em" fill="#00f" stroke="#00f"/><text x="6.75em" y="15.9em" text-anchor="end"><tspan class="size">165 (5%)</tspan></text><text x="8.21em" y="15.9em"><tspan class="size">General UX &amp; Design contributions</tspan></text><rect width=".43em" height=".6em" x="7.25em" y="16.5em" fill="#00f" stroke="#00f"/><text x="6.75em" y="17.1em" text-anchor="end"><tspan class="size">154 (4%)</tspan></text><text x="8.18em" y="17.1em"><tspan class="size">golang.org website (code, UX, IA, content, etc)</tspan></text><rect width=".26em" height=".6em" x="7.25em" y="17.7em" fill="#777" stroke="#777"/><text x="6.75em" y="18.3em" text-anchor="end"><tspan class="size">92 (3%)</tspan></text><text x="8.01em" y="18.3em"><tspan class="size">Other</tspan></text><rect width="4.51em" height=".6em" x="7.25em" y="18.9em" fill="#fff" stroke="#000"/><text x="6.75em" y="19.5em" text-anchor="end"><tspan class="size">1,621 (45%)</tspan></text><text x="12.26em" y="19.5em"><tspan class="size">No response</tspan></text></svg>