<svg xmlns="http://www.w3.org/2000/svg" width="60em" height="28.4em" version="1.1"><defs><style type="text/css">svg{font-family:&quot;Helvetica Neue&quot;,Arial,sans-serif}tspan.size{font-size:.8em}tspan.head{font-weight:700}tspan.paren{font-weight:400!important}</style></defs><text x="0em" y="1.2em" class="head"><tspan class="size">In which country do you currently reside? <tspan class="paren">(single choice)</tspan></tspan></text><rect width="2.58em" height=".6em" x="7.25em" y="2.1em" fill="#00f" stroke="#00f"/><text x="6.75em" y="2.7em" text-anchor="end"><tspan class="size">928 (26%)</tspan></text><text x="10.33em" y="2.7em"><tspan class="size">United States of America</tspan></text><rect width=".7em" height=".6em" x="7.25em" y="3.3em" fill="#00f" stroke="#00f"/><text x="6.75em" y="3.9em" text-anchor="end"><tspan class="size">253 (7%)</tspan></text><text x="8.45em" y="3.9em"><tspan class="size">Germany</tspan></text><rect width=".47em" height=".6em" x="7.25em" y="4.5em" fill="#00f" stroke="#00f"/><text x="6.75em" y="5.1em" text-anchor="end"><tspan class="size">168 (5%)</tspan></text><text x="8.22em" y="5.1em"><tspan class="size">United Kingdom</tspan></text><rect width=".41em" height=".6em" x="7.25em" y="5.7em" fill="#00f" stroke="#00f"/><text x="6.75em" y="6.3em" text-anchor="end"><tspan class="size">148 (4%)</tspan></text><text x="8.16em" y="6.3em"><tspan class="size">Russia</tspan></text><rect width=".33em" height=".6em" x="7.25em" y="6.9em" fill="#00f" stroke="#00f"/><text x="6.75em" y="7.5em" text-anchor="end"><tspan class="size">119 (3%)</tspan></text><text x="8.08em" y="7.5em"><tspan class="size">France</tspan></text><rect width=".31em" height=".6em" x="7.25em" y="8.1em" fill="#00f" stroke="#00f"/><text x="6.75em" y="8.7em" text-anchor="end"><tspan class="size">112 (3%)</tspan></text><text x="8.06em" y="8.7em"><tspan class="size">Canada</tspan></text><rect width=".25em" height=".6em" x="7.25em" y="9.3em" fill="#00f" stroke="#00f"/><text x="6.75em" y="9.9em" text-anchor="end"><tspan class="size">91 (3%)</tspan></text><text x="8em" y="9.9em"><tspan class="size">India</tspan></text><rect width=".2em" height=".6em" x="7.25em" y="10.5em" fill="#00f" stroke="#00f"/><text x="6.75em" y="11.1em" text-anchor="end"><tspan class="size">73 (2%)</tspan></text><text x="7.95em" y="11.1em"><tspan class="size">China</tspan></text><rect width=".2em" height=".6em" x="7.25em" y="11.7em" fill="#00f" stroke="#00f"/><text x="6.75em" y="12.3em" text-anchor="end"><tspan class="size">72 (2%)</tspan></text><text x="7.95em" y="12.3em"><tspan class="size">Australia</tspan></text><rect width=".15em" height=".6em" x="7.25em" y="12.9em" fill="#00f" stroke="#00f"/><text x="6.75em" y="13.5em" text-anchor="end"><tspan class="size">55 (2%)</tspan></text><text x="7.9em" y="13.5em"><tspan class="size">Netherlands</tspan></text><rect width=".15em" height=".6em" x="7.25em" y="14.1em" fill="#00f" stroke="#00f"/><text x="6.75em" y="14.7em" text-anchor="end"><tspan class="size">54 (2%)</tspan></text><text x="7.9em" y="14.7em"><tspan class="size">Spain</tspan></text><rect width=".13em" height=".6em" x="7.25em" y="15.3em" fill="#00f" stroke="#00f"/><text x="6.75em" y="15.9em" text-anchor="end"><tspan class="size">45 (1%)</tspan></text><text x="7.88em" y="15.9em"><tspan class="size">Sweden</tspan></text><rect width=".12em" height=".6em" x="7.25em" y="16.5em" fill="#00f" stroke="#00f"/><text x="6.75em" y="17.1em" text-anchor="end"><tspan class="size">43 (1%)</tspan></text><text x="7.87em" y="17.1em"><tspan class="size">Poland</tspan></text><rect width=".11em" height=".6em" x="7.25em" y="17.7em" fill="#00f" stroke="#00f"/><text x="6.75em" y="18.3em" text-anchor="end"><tspan class="size">40 (1%)</tspan></text><text x="7.86em" y="18.3em"><tspan class="size">Italy</tspan></text><rect width=".1em" height=".6em" x="7.25em" y="18.9em" fill="#00f" stroke="#00f"/><text x="6.75em" y="19.5em" text-anchor="end"><tspan class="size">36 (1%)</tspan></text><text x="7.85em" y="19.5em"><tspan class="size">Brazil</tspan></text><rect width=".1em" height=".6em" x="7.25em" y="20.1em" fill="#00f" stroke="#00f"/><text x="6.75em" y="20.7em" text-anchor="end"><tspan class="size">36 (1%)</tspan></text><text x="7.85em" y="20.7em"><tspan class="size">Switzerland</tspan></text><rect width=".1em" height=".6em" x="7.25em" y="21.3em" fill="#00f" stroke="#00f"/><text x="6.75em" y="21.9em" text-anchor="end"><tspan class="size">35 (1%)</tspan></text><text x="7.85em" y="21.9em"><tspan class="size">Ukraine</tspan></text><rect width=".08em" height=".6em" x="7.25em" y="22.5em" fill="#00f" stroke="#00f"/><text x="6.75em" y="23.1em" text-anchor="end"><tspan class="size">27 (1%)</tspan></text><text x="7.83em" y="23.1em"><tspan class="size">Japan</tspan></text><rect width=".07em" height=".6em" x="7.25em" y="23.7em" fill="#00f" stroke="#00f"/><text x="6.75em" y="24.3em" text-anchor="end"><tspan class="size">24 (1%)</tspan></text><text x="7.82em" y="24.3em"><tspan class="size">Czech Republic</tspan></text><rect width=".06em" height=".6em" x="7.25em" y="24.9em" fill="#00f" stroke="#00f"/><text x="6.75em" y="25.5em" text-anchor="end"><tspan class="size">23 (1%)</tspan></text><text x="7.81em" y="25.5em"><tspan class="size">Belgium</tspan></text><rect width="1.23em" height=".6em" x="7.25em" y="26.1em" fill="#fff" stroke="#000"/><text x="6.75em" y="26.7em" text-anchor="end"><tspan class="size">441 (12%)</tspan></text><text x="8.98em" y="26.7em"><tspan class="size">Other</tspan></text><rect width="2.15em" height=".6em" x="7.25em" y="27.3em" fill="#fff" stroke="#000"/><text x="6.75em" y="27.9em" text-anchor="end"><tspan class="size">772 (21%)</tspan></text><text x="9.9em" y="27.9em"><tspan class="size">No response</tspan></text></svg>