<svg xmlns="http://www.w3.org/2000/svg" width="60em" height="35.6em" version="1.1"><defs><style type="text/css">svg{font-family:&quot;Helvetica Neue&quot;,Arial,sans-serif}tspan.size{font-size:.8em}tspan.head{font-weight:700}tspan.paren{font-weight:400!important}</style></defs><text x="0em" y="1.2em" class="head"><tspan class="size">My team deploys Go/non-Go programs to: <tspan class="paren">(multiple choice)</tspan></tspan></text><rect width="4.14em" height=".6em" x="7.25em" y="2.1em" fill="#00f" stroke="#00f"/><text x="6.75em" y="2.7em" text-anchor="end"><tspan class="size">1,489 (41%)</tspan></text><text x="11.89em" y="2.7em"><tspan class="size">Self/Company Owned Servers (Go)</tspan></text><rect width="4.77em" height=".6em" x="7.25em" y="3.3em" fill="#88f" stroke="#88f"/><text x="6.75em" y="3.9em" text-anchor="end"><tspan class="size">1,714 (48%)</tspan></text><text x="12.52em" y="3.9em"><tspan class="size">(non-Go)</tspan></text><rect width="2.58em" height=".6em" x="7.25em" y="4.5em" fill="#00f" stroke="#00f"/><text x="6.75em" y="5.1em" text-anchor="end"><tspan class="size">928 (26%)</tspan></text><text x="10.33em" y="5.1em"><tspan class="size">AWS EC2</tspan></text><rect width="3.12em" height=".6em" x="7.25em" y="5.7em" fill="#88f" stroke="#88f"/><text x="6.75em" y="6.3em" text-anchor="end"><tspan class="size">1,122 (31%)</tspan></text><rect width="1.4em" height=".6em" x="7.25em" y="6.9em" fill="#00f" stroke="#00f"/><text x="6.75em" y="7.5em" text-anchor="end"><tspan class="size">503 (14%)</tspan></text><text x="9.15em" y="7.5em"><tspan class="size">None</tspan></text><rect width=".69em" height=".6em" x="7.25em" y="8.1em" fill="#88f" stroke="#88f"/><text x="6.75em" y="8.7em" text-anchor="end"><tspan class="size">249 (7%)</tspan></text><rect width="1.15em" height=".6em" x="7.25em" y="9.3em" fill="#00f" stroke="#00f"/><text x="6.75em" y="9.9em" text-anchor="end"><tspan class="size">412 (11%)</tspan></text><text x="8.9em" y="9.9em"><tspan class="size">Digital Ocean</tspan></text><rect width="1em" height=".6em" x="7.25em" y="10.5em" fill="#88f" stroke="#88f"/><text x="6.75em" y="11.1em" text-anchor="end"><tspan class="size">360 (10%)</tspan></text><rect width=".81em" height=".6em" x="7.25em" y="11.7em" fill="#00f" stroke="#00f"/><text x="6.75em" y="12.3em" text-anchor="end"><tspan class="size">292 (8%)</tspan></text><text x="8.56em" y="12.3em"><tspan class="size">AWS Container</tspan></text><rect width=".95em" height=".6em" x="7.25em" y="12.9em" fill="#88f" stroke="#88f"/><text x="6.75em" y="13.5em" text-anchor="end"><tspan class="size">343 (10%)</tspan></text><rect width=".61em" height=".6em" x="7.25em" y="14.1em" fill="#00f" stroke="#00f"/><text x="6.75em" y="14.7em" text-anchor="end"><tspan class="size">221 (6%)</tspan></text><text x="8.36em" y="14.7em"><tspan class="size">Google Compute Engine</tspan></text><rect width=".52em" height=".6em" x="7.25em" y="15.3em" fill="#88f" stroke="#88f"/><text x="6.75em" y="15.9em" text-anchor="end"><tspan class="size">186 (5%)</tspan></text><rect width=".52em" height=".6em" x="7.25em" y="16.5em" fill="#00f" stroke="#00f"/><text x="6.75em" y="17.1em" text-anchor="end"><tspan class="size">188 (5%)</tspan></text><text x="8.27em" y="17.1em"><tspan class="size">Google App Engine</tspan></text><rect width=".26em" height=".6em" x="7.25em" y="17.7em" fill="#88f" stroke="#88f"/><text x="6.75em" y="18.3em" text-anchor="end"><tspan class="size">94 (3%)</tspan></text><rect width=".45em" height=".6em" x="7.25em" y="18.9em" fill="#00f" stroke="#00f"/><text x="6.75em" y="19.5em" text-anchor="end"><tspan class="size">161 (4%)</tspan></text><text x="8.2em" y="19.5em"><tspan class="size">Google Container Engine (GKE)</tspan></text><rect width=".32em" height=".6em" x="7.25em" y="20.1em" fill="#88f" stroke="#88f"/><text x="6.75em" y="20.7em" text-anchor="end"><tspan class="size">115 (3%)</tspan></text><rect width=".34em" height=".6em" x="7.25em" y="21.3em" fill="#00f" stroke="#00f"/><text x="6.75em" y="21.9em" text-anchor="end"><tspan class="size">121 (3%)</tspan></text><text x="8.09em" y="21.9em"><tspan class="size">Heroku</tspan></text><rect width=".51em" height=".6em" x="7.25em" y="22.5em" fill="#88f" stroke="#88f"/><text x="6.75em" y="23.1em" text-anchor="end"><tspan class="size">185 (5%)</tspan></text><rect width=".32em" height=".6em" x="7.25em" y="23.7em" fill="#00f" stroke="#00f"/><text x="6.75em" y="24.3em" text-anchor="end"><tspan class="size">114 (3%)</tspan></text><text x="8.07em" y="24.3em"><tspan class="size">Microsoft Azure</tspan></text><rect width=".58em" height=".6em" x="7.25em" y="24.9em" fill="#88f" stroke="#88f"/><text x="6.75em" y="25.5em" text-anchor="end"><tspan class="size">210 (6%)</tspan></text><rect width=".29em" height=".6em" x="7.25em" y="26.1em" fill="#00f" stroke="#00f"/><text x="6.75em" y="26.7em" text-anchor="end"><tspan class="size">104 (3%)</tspan></text><text x="8.04em" y="26.7em"><tspan class="size">Linode</tspan></text><rect width=".28em" height=".6em" x="7.25em" y="27.3em" fill="#88f" stroke="#88f"/><text x="6.75em" y="27.9em" text-anchor="end"><tspan class="size">100 (3%)</tspan></text><rect width=".26em" height=".6em" x="7.25em" y="28.5em" fill="#00f" stroke="#00f"/><text x="6.75em" y="29.1em" text-anchor="end"><tspan class="size">94 (3%)</tspan></text><text x="8.01em" y="29.1em"><tspan class="size">AWS Lambda</tspan></text><rect width=".65em" height=".6em" x="7.25em" y="29.7em" fill="#88f" stroke="#88f"/><text x="6.75em" y="30.3em" text-anchor="end"><tspan class="size">233 (6%)</tspan></text><rect width=".84em" height=".6em" x="7.25em" y="30.9em" fill="#00f" stroke="#00f"/><text x="6.75em" y="31.5em" text-anchor="end"><tspan class="size">301 (8%)</tspan></text><text x="8.59em" y="31.5em"><tspan class="size">Other</tspan></text><rect width=".83em" height=".6em" x="7.25em" y="32.1em" fill="#88f" stroke="#88f"/><text x="6.75em" y="32.7em" text-anchor="end"><tspan class="size">297 (8%)</tspan></text><rect width="1.78em" height=".6em" x="7.25em" y="33.3em" fill="#fff" stroke="#000"/><text x="6.75em" y="33.9em" text-anchor="end"><tspan class="size">639 (18%)</tspan></text><text x="9.53em" y="33.9em"><tspan class="size">No response</tspan></text><rect width="1.84em" height=".6em" x="7.25em" y="34.5em" fill="#fff" stroke="#000"/><text x="6.75em" y="35.1em" text-anchor="end"><tspan class="size">660 (18%)</tspan></text></svg>