<svg xmlns="http://www.w3.org/2000/svg" width="60em" height="16.4em" version="1.1"><defs><style type="text/css">svg{font-family:&quot;Helvetica Neue&quot;,Arial,sans-serif}tspan.size{font-size:.8em}tspan.head{font-weight:700}</style></defs><text x="0em" y="1.2em" class="head"><tspan class="size">What changes would most improve the Go documentation?</tspan></text><rect width="1.42em" height=".6em" x="7.25em" y="2.1em" fill="#00f" stroke="#00f"/><text x="6.75em" y="2.7em" text-anchor="end"><tspan class="size">512 (14%)</tspan></text><text x="9.17em" y="2.7em"><tspan class="size">examples</tspan></text><rect width=".83em" height=".6em" x="7.25em" y="3.3em" fill="#00f" stroke="#00f"/><text x="6.75em" y="3.9em" text-anchor="end"><tspan class="size">300 (8%)</tspan></text><text x="8.58em" y="3.9em"><tspan class="size">more examples</tspan></text><rect width=".37em" height=".6em" x="7.25em" y="4.5em" fill="#00f" stroke="#00f"/><text x="6.75em" y="5.1em" text-anchor="end"><tspan class="size">134 (4%)</tspan></text><text x="8.12em" y="5.1em"><tspan class="size">documentation</tspan></text><rect width=".19em" height=".6em" x="7.25em" y="5.7em" fill="#00f" stroke="#00f"/><text x="6.75em" y="6.3em" text-anchor="end"><tspan class="size">69 (2%)</tspan></text><text x="7.94em" y="6.3em"><tspan class="size">example</tspan></text><rect width=".17em" height=".6em" x="7.25em" y="6.9em" fill="#00f" stroke="#00f"/><text x="6.75em" y="7.5em" text-anchor="end"><tspan class="size">62 (2%)</tspan></text><text x="7.92em" y="7.5em"><tspan class="size">docs</tspan></text><rect width=".14em" height=".6em" x="7.25em" y="8.1em" fill="#00f" stroke="#00f"/><text x="6.75em" y="8.7em" text-anchor="end"><tspan class="size">49 (1%)</tspan></text><text x="7.89em" y="8.7em"><tspan class="size">godoc</tspan></text><rect width=".09em" height=".6em" x="7.25em" y="9.3em" fill="#00f" stroke="#00f"/><text x="6.75em" y="9.9em" text-anchor="end"><tspan class="size">34 (1%)</tspan></text><text x="7.84em" y="9.9em"><tspan class="size">usage</tspan></text><rect width=".09em" height=".6em" x="7.25em" y="10.5em" fill="#00f" stroke="#00f"/><text x="6.75em" y="11.1em" text-anchor="end"><tspan class="size">32 (1%)</tspan></text><text x="7.84em" y="11.1em"><tspan class="size">functions</tspan></text><rect width=".09em" height=".6em" x="7.25em" y="11.7em" fill="#00f" stroke="#00f"/><text x="6.75em" y="12.3em" text-anchor="end"><tspan class="size">32 (1%)</tspan></text><text x="7.84em" y="12.3em"><tspan class="size">package</tspan></text><rect width=".09em" height=".6em" x="7.25em" y="12.9em" fill="#00f" stroke="#00f"/><text x="6.75em" y="13.5em" text-anchor="end"><tspan class="size">31 (1%)</tspan></text><text x="7.84em" y="13.5em"><tspan class="size">good</tspan></text><rect width=".08em" height=".6em" x="7.25em" y="14.1em" fill="#00f" stroke="#00f"/><text x="6.75em" y="14.7em" text-anchor="end"><tspan class="size">29 (1%)</tspan></text><text x="7.83em" y="14.7em"><tspan class="size">function</tspan></text><rect width=".08em" height=".6em" x="7.25em" y="15.3em" fill="#00f" stroke="#00f"/><text x="6.75em" y="15.9em" text-anchor="end"><tspan class="size">29 (1%)</tspan></text><text x="7.83em" y="15.9em"><tspan class="size">great</tspan></text><rect width=".08em" height=".6em" x="22.25em" y="2.1em" fill="#00f" stroke="#00f"/><text x="21.75em" y="2.7em" text-anchor="end"><tspan class="size">29 (1%)</tspan></text><text x="22.83em" y="2.7em"><tspan class="size">packages</tspan></text><rect width=".08em" height=".6em" x="22.25em" y="3.3em" fill="#00f" stroke="#00f"/><text x="21.75em" y="3.9em" text-anchor="end"><tspan class="size">29 (1%)</tspan></text><text x="22.83em" y="3.9em"><tspan class="size">search</tspan></text><rect width=".08em" height=".6em" x="22.25em" y="4.5em" fill="#00f" stroke="#00f"/><text x="21.75em" y="5.1em" text-anchor="end"><tspan class="size">28 (1%)</tspan></text><text x="22.83em" y="5.1em"><tspan class="size">cases</tspan></text><rect width=".07em" height=".6em" x="22.25em" y="5.7em" fill="#00f" stroke="#00f"/><text x="21.75em" y="6.3em" text-anchor="end"><tspan class="size">26 (1%)</tspan></text><text x="22.82em" y="6.3em"><tspan class="size">best practices</tspan></text><rect width=".07em" height=".6em" x="22.25em" y="6.9em" fill="#00f" stroke="#00f"/><text x="21.75em" y="7.5em" text-anchor="end"><tspan class="size">26 (1%)</tspan></text><text x="22.82em" y="7.5em"><tspan class="size">libraries</tspan></text><rect width=".06em" height=".6em" x="22.25em" y="8.1em" fill="#00f" stroke="#00f"/><text x="21.75em" y="8.7em" text-anchor="end"><tspan class="size">23 (1%)</tspan></text><text x="22.81em" y="8.7em"><tspan class="size">doc</tspan></text><rect width=".06em" height=".6em" x="22.25em" y="9.3em" fill="#00f" stroke="#00f"/><text x="21.75em" y="9.9em" text-anchor="end"><tspan class="size">23 (1%)</tspan></text><text x="22.81em" y="9.9em"><tspan class="size">more example</tspan></text><rect width=".06em" height=".6em" x="22.25em" y="10.5em" fill="#00f" stroke="#00f"/><text x="21.75em" y="11.1em" text-anchor="end"><tspan class="size">22 (1%)</tspan></text><text x="22.81em" y="11.1em"><tspan class="size">code examples</tspan></text><rect width=".06em" height=".6em" x="22.25em" y="11.7em" fill="#00f" stroke="#00f"/><text x="21.75em" y="12.3em" text-anchor="end"><tspan class="size">21 (1%)</tspan></text><text x="22.81em" y="12.3em"><tspan class="size">syntax</tspan></text><rect width=".06em" height=".6em" x="22.25em" y="12.9em" fill="#00f" stroke="#00f"/><text x="21.75em" y="13.5em" text-anchor="end"><tspan class="size">20 (1%)</tspan></text><text x="22.81em" y="13.5em"><tspan class="size">interface</tspan></text><rect width="7.04em" height=".6em" x="22.25em" y="14.1em" fill="#fff" stroke="#000"/><text x="21.75em" y="14.7em" text-anchor="end"><tspan class="size">2,532 (70%)</tspan></text><text x="29.79em" y="14.7em"><tspan class="size">No response</tspan></text></svg>