<svg xmlns="http://www.w3.org/2000/svg" width="60em" height="26em" version="1.1"><defs><style type="text/css">svg{font-family:&quot;Helvetica Neue&quot;,Arial,sans-serif}tspan.size{font-size:.8em}tspan.head{font-weight:700}</style></defs><text x="0em" y="1.2em" class="head"><tspan class="size">What one addition would make the biggest improvement to Go editing in your preferred editor?</tspan></text><rect width=".5em" height=".6em" x="7.25em" y="2.1em" fill="#00f" stroke="#00f"/><text x="6.75em" y="2.7em" text-anchor="end"><tspan class="size">180 (5.0%)</tspan></text><text x="8.25em" y="2.7em"><tspan class="size">debugging</tspan></text><rect width=".38em" height=".6em" x="7.25em" y="3.3em" fill="#00f" stroke="#00f"/><text x="6.75em" y="3.9em" text-anchor="end"><tspan class="size">136 (3.8%)</tspan></text><text x="8.13em" y="3.9em"><tspan class="size">debugger</tspan></text><rect width=".32em" height=".6em" x="7.25em" y="4.5em" fill="#00f" stroke="#00f"/><text x="6.75em" y="5.1em" text-anchor="end"><tspan class="size">116 (3.2%)</tspan></text><text x="8.07em" y="5.1em"><tspan class="size">refactoring</tspan></text><rect width=".22em" height=".6em" x="7.25em" y="5.7em" fill="#00f" stroke="#00f"/><text x="6.75em" y="6.3em" text-anchor="end"><tspan class="size">79 (2.2%)</tspan></text><text x="7.97em" y="6.3em"><tspan class="size">integration</tspan></text><rect width=".2em" height=".6em" x="7.25em" y="6.9em" fill="#00f" stroke="#00f"/><text x="6.75em" y="7.5em" text-anchor="end"><tspan class="size">72 (2.0%)</tspan></text><text x="7.95em" y="7.5em"><tspan class="size">tools</tspan></text><rect width=".19em" height=".6em" x="7.25em" y="8.1em" fill="#00f" stroke="#00f"/><text x="6.75em" y="8.7em" text-anchor="end"><tspan class="size">68 (1.9%)</tspan></text><text x="7.94em" y="8.7em"><tspan class="size">completion</tspan></text><rect width=".16em" height=".6em" x="7.25em" y="9.3em" fill="#00f" stroke="#00f"/><text x="6.75em" y="9.9em" text-anchor="end"><tspan class="size">58 (1.6%)</tspan></text><text x="7.91em" y="9.9em"><tspan class="size">editor</tspan></text><rect width=".13em" height=".6em" x="7.25em" y="10.5em" fill="#00f" stroke="#00f"/><text x="6.75em" y="11.1em" text-anchor="end"><tspan class="size">46 (1.3%)</tspan></text><text x="7.88em" y="11.1em"><tspan class="size">debug</tspan></text><rect width=".12em" height=".6em" x="7.25em" y="11.7em" fill="#00f" stroke="#00f"/><text x="6.75em" y="12.3em" text-anchor="end"><tspan class="size">43 (1.2%)</tspan></text><text x="7.87em" y="12.3em"><tspan class="size">code completion</tspan></text><rect width=".12em" height=".6em" x="7.25em" y="12.9em" fill="#00f" stroke="#00f"/><text x="6.75em" y="13.5em" text-anchor="end"><tspan class="size">43 (1.2%)</tspan></text><text x="7.87em" y="13.5em"><tspan class="size">work</tspan></text><rect width=".11em" height=".6em" x="7.25em" y="14.1em" fill="#00f" stroke="#00f"/><text x="6.75em" y="14.7em" text-anchor="end"><tspan class="size">41 (1.1%)</tspan></text><text x="7.86em" y="14.7em"><tspan class="size">vim</tspan></text><rect width=".11em" height=".6em" x="7.25em" y="15.3em" fill="#00f" stroke="#00f"/><text x="6.75em" y="15.9em" text-anchor="end"><tspan class="size">40 (1.1%)</tspan></text><text x="7.86em" y="15.9em"><tspan class="size">autocomplete</tspan></text><rect width=".11em" height=".6em" x="7.25em" y="16.5em" fill="#00f" stroke="#00f"/><text x="6.75em" y="17.1em" text-anchor="end"><tspan class="size">40 (1.1%)</tspan></text><text x="7.86em" y="17.1em"><tspan class="size">vscode</tspan></text><rect width=".1em" height=".6em" x="7.25em" y="17.7em" fill="#00f" stroke="#00f"/><text x="6.75em" y="18.3em" text-anchor="end"><tspan class="size">37 (1.0%)</tspan></text><text x="7.85em" y="18.3em"><tspan class="size">package</tspan></text><rect width=".1em" height=".6em" x="7.25em" y="18.9em" fill="#00f" stroke="#00f"/><text x="6.75em" y="19.5em" text-anchor="end"><tspan class="size">37 (1.0%)</tspan></text><text x="7.85em" y="19.5em"><tspan class="size">plugin</tspan></text><rect width=".1em" height=".6em" x="7.25em" y="20.1em" fill="#00f" stroke="#00f"/><text x="6.75em" y="20.7em" text-anchor="end"><tspan class="size">36 (1.0%)</tspan></text><text x="7.85em" y="20.7em"><tspan class="size">definition</tspan></text><rect width=".1em" height=".6em" x="7.25em" y="21.3em" fill="#00f" stroke="#00f"/><text x="6.75em" y="21.9em" text-anchor="end"><tspan class="size">36 (1.0%)</tspan></text><text x="7.85em" y="21.9em"><tspan class="size">easier</tspan></text><rect width=".1em" height=".6em" x="7.25em" y="22.5em" fill="#00f" stroke="#00f"/><text x="6.75em" y="23.1em" text-anchor="end"><tspan class="size">36 (1.0%)</tspan></text><text x="7.85em" y="23.1em"><tspan class="size">good</tspan></text><rect width=".1em" height=".6em" x="7.25em" y="23.7em" fill="#00f" stroke="#00f"/><text x="6.75em" y="24.3em" text-anchor="end"><tspan class="size">36 (1.0%)</tspan></text><text x="7.85em" y="24.3em"><tspan class="size">ide</tspan></text><rect width=".1em" height=".6em" x="7.25em" y="24.9em" fill="#00f" stroke="#00f"/><text x="6.75em" y="25.5em" text-anchor="end"><tspan class="size">36 (1.0%)</tspan></text><text x="7.85em" y="25.5em"><tspan class="size">intellij</tspan></text><rect width=".1em" height=".6em" x="22.25em" y="2.1em" fill="#00f" stroke="#00f"/><text x="21.75em" y="2.7em" text-anchor="end"><tspan class="size">35 (1.0%)</tspan></text><text x="22.85em" y="2.7em"><tspan class="size">faster</tspan></text><rect width=".1em" height=".6em" x="22.25em" y="3.3em" fill="#00f" stroke="#00f"/><text x="21.75em" y="3.9em" text-anchor="end"><tspan class="size">35 (1.0%)</tspan></text><text x="22.85em" y="3.9em"><tspan class="size">function</tspan></text><rect width=".09em" height=".6em" x="22.25em" y="4.5em" fill="#00f" stroke="#00f"/><text x="21.75em" y="5.1em" text-anchor="end"><tspan class="size">34 (0.9%)</tspan></text><text x="22.84em" y="5.1em"><tspan class="size">atom</tspan></text><rect width=".09em" height=".6em" x="22.25em" y="5.7em" fill="#00f" stroke="#00f"/><text x="21.75em" y="6.3em" text-anchor="end"><tspan class="size">34 (0.9%)</tspan></text><text x="22.84em" y="6.3em"><tspan class="size">interface</tspan></text><rect width=".09em" height=".6em" x="22.25em" y="6.9em" fill="#00f" stroke="#00f"/><text x="21.75em" y="7.5em" text-anchor="end"><tspan class="size">33 (0.9%)</tspan></text><text x="22.84em" y="7.5em"><tspan class="size">vim-go</tspan></text><rect width=".09em" height=".6em" x="22.25em" y="8.1em" fill="#00f" stroke="#00f"/><text x="21.75em" y="8.7em" text-anchor="end"><tspan class="size">32 (0.9%)</tspan></text><text x="22.84em" y="8.7em"><tspan class="size">gopath</tspan></text><rect width=".09em" height=".6em" x="22.25em" y="9.3em" fill="#00f" stroke="#00f"/><text x="21.75em" y="9.9em" text-anchor="end"><tspan class="size">31 (0.9%)</tspan></text><text x="22.84em" y="9.9em"><tspan class="size">integrated</tspan></text><rect width=".08em" height=".6em" x="22.25em" y="10.5em" fill="#00f" stroke="#00f"/><text x="21.75em" y="11.1em" text-anchor="end"><tspan class="size">30 (0.8%)</tspan></text><text x="22.83em" y="11.1em"><tspan class="size">working</tspan></text><rect width=".08em" height=".6em" x="22.25em" y="11.7em" fill="#00f" stroke="#00f"/><text x="21.75em" y="12.3em" text-anchor="end"><tspan class="size">29 (0.8%)</tspan></text><text x="22.83em" y="12.3em"><tspan class="size">auto</tspan></text><rect width=".08em" height=".6em" x="22.25em" y="12.9em" fill="#00f" stroke="#00f"/><text x="21.75em" y="13.5em" text-anchor="end"><tspan class="size">28 (0.8%)</tspan></text><text x="22.83em" y="13.5em"><tspan class="size">refactoring support</tspan></text><rect width=".08em" height=".6em" x="22.25em" y="14.1em" fill="#00f" stroke="#00f"/><text x="21.75em" y="14.7em" text-anchor="end"><tspan class="size">27 (0.8%)</tspan></text><text x="22.83em" y="14.7em"><tspan class="size">delve</tspan></text><rect width=".08em" height=".6em" x="22.25em" y="15.3em" fill="#00f" stroke="#00f"/><text x="21.75em" y="15.9em" text-anchor="end"><tspan class="size">27 (0.8%)</tspan></text><text x="22.83em" y="15.9em"><tspan class="size">type</tspan></text><rect width=".07em" height=".6em" x="22.25em" y="16.5em" fill="#00f" stroke="#00f"/><text x="21.75em" y="17.1em" text-anchor="end"><tspan class="size">26 (0.7%)</tspan></text><text x="22.82em" y="17.1em"><tspan class="size">guru</tspan></text><rect width=".07em" height=".6em" x="22.25em" y="17.7em" fill="#00f" stroke="#00f"/><text x="21.75em" y="18.3em" text-anchor="end"><tspan class="size">26 (0.7%)</tspan></text><text x="22.82em" y="18.3em"><tspan class="size">syntax</tspan></text><rect width=".07em" height=".6em" x="22.25em" y="18.9em" fill="#00f" stroke="#00f"/><text x="21.75em" y="19.5em" text-anchor="end"><tspan class="size">25 (0.7%)</tspan></text><text x="22.82em" y="19.5em"><tspan class="size">error</tspan></text><rect width=".07em" height=".6em" x="22.25em" y="20.1em" fill="#00f" stroke="#00f"/><text x="21.75em" y="20.7em" text-anchor="end"><tspan class="size">25 (0.7%)</tspan></text><text x="22.82em" y="20.7em"><tspan class="size">method</tspan></text><rect width=".07em" height=".6em" x="22.25em" y="21.3em" fill="#00f" stroke="#00f"/><text x="21.75em" y="21.9em" text-anchor="end"><tspan class="size">25 (0.7%)</tspan></text><text x="22.82em" y="21.9em"><tspan class="size">packages</tspan></text><rect width=".07em" height=".6em" x="22.25em" y="22.5em" fill="#00f" stroke="#00f"/><text x="21.75em" y="23.1em" text-anchor="end"><tspan class="size">25 (0.7%)</tspan></text><text x="22.82em" y="23.1em"><tspan class="size">plugins</tspan></text><rect width=".07em" height=".6em" x="22.25em" y="23.7em" fill="#00f" stroke="#00f"/><text x="21.75em" y="24.3em" text-anchor="end"><tspan class="size">24 (0.7%)</tspan></text><text x="22.82em" y="24.3em"><tspan class="size">compile</tspan></text><rect width=".07em" height=".6em" x="22.25em" y="24.9em" fill="#00f" stroke="#00f"/><text x="21.75em" y="25.5em" text-anchor="end"><tspan class="size">24 (0.7%)</tspan></text><text x="22.82em" y="25.5em"><tspan class="size">jump</tspan></text><rect width=".06em" height=".6em" x="37.25em" y="2.1em" fill="#00f" stroke="#00f"/><text x="36.75em" y="2.7em" text-anchor="end"><tspan class="size">23 (0.6%)</tspan></text><text x="37.81em" y="2.7em"><tspan class="size">features</tspan></text><rect width=".06em" height=".6em" x="37.25em" y="3.3em" fill="#00f" stroke="#00f"/><text x="36.75em" y="3.9em" text-anchor="end"><tspan class="size">23 (0.6%)</tspan></text><text x="37.81em" y="3.9em"><tspan class="size">find</tspan></text><rect width=".06em" height=".6em" x="37.25em" y="4.5em" fill="#00f" stroke="#00f"/><text x="36.75em" y="5.1em" text-anchor="end"><tspan class="size">23 (0.6%)</tspan></text><text x="37.81em" y="5.1em"><tspan class="size">goimports</tspan></text><rect width=".06em" height=".6em" x="37.25em" y="5.7em" fill="#00f" stroke="#00f"/><text x="36.75em" y="6.3em" text-anchor="end"><tspan class="size">23 (0.6%)</tspan></text><text x="37.81em" y="6.3em"><tspan class="size">navigation</tspan></text><rect width=".06em" height=".6em" x="37.25em" y="6.9em" fill="#00f" stroke="#00f"/><text x="36.75em" y="7.5em" text-anchor="end"><tspan class="size">23 (0.6%)</tspan></text><text x="37.81em" y="7.5em"><tspan class="size">performance</tspan></text><rect width=".06em" height=".6em" x="37.25em" y="8.1em" fill="#00f" stroke="#00f"/><text x="36.75em" y="8.7em" text-anchor="end"><tspan class="size">23 (0.6%)</tspan></text><text x="37.81em" y="8.7em"><tspan class="size">refactoring tools</tspan></text><rect width=".06em" height=".6em" x="37.25em" y="9.3em" fill="#00f" stroke="#00f"/><text x="36.75em" y="9.9em" text-anchor="end"><tspan class="size">23 (0.6%)</tspan></text><text x="37.81em" y="9.9em"><tspan class="size">works</tspan></text><rect width=".06em" height=".6em" x="37.25em" y="10.5em" fill="#00f" stroke="#00f"/><text x="36.75em" y="11.1em" text-anchor="end"><tspan class="size">22 (0.6%)</tspan></text><text x="37.81em" y="11.1em"><tspan class="size">autocompletion</tspan></text><rect width=".06em" height=".6em" x="37.25em" y="11.7em" fill="#00f" stroke="#00f"/><text x="36.75em" y="12.3em" text-anchor="end"><tspan class="size">22 (0.6%)</tspan></text><text x="37.81em" y="12.3em"><tspan class="size">debugging support</tspan></text><rect width=".06em" height=".6em" x="37.25em" y="12.9em" fill="#00f" stroke="#00f"/><text x="36.75em" y="13.5em" text-anchor="end"><tspan class="size">22 (0.6%)</tspan></text><text x="37.81em" y="13.5em"><tspan class="size">errors</tspan></text><rect width=".06em" height=".6em" x="37.25em" y="14.1em" fill="#00f" stroke="#00f"/><text x="36.75em" y="14.7em" text-anchor="end"><tspan class="size">22 (0.6%)</tspan></text><text x="37.81em" y="14.7em"><tspan class="size">gofmt</tspan></text><rect width=".06em" height=".6em" x="37.25em" y="15.3em" fill="#00f" stroke="#00f"/><text x="36.75em" y="15.9em" text-anchor="end"><tspan class="size">22 (0.6%)</tspan></text><text x="37.81em" y="15.9em"><tspan class="size">run</tspan></text><rect width=".06em" height=".6em" x="37.25em" y="16.5em" fill="#00f" stroke="#00f"/><text x="36.75em" y="17.1em" text-anchor="end"><tspan class="size">21 (0.6%)</tspan></text><text x="37.81em" y="17.1em"><tspan class="size">highlighting</tspan></text><rect width=".06em" height=".6em" x="37.25em" y="17.7em" fill="#00f" stroke="#00f"/><text x="36.75em" y="18.3em" text-anchor="end"><tspan class="size">21 (0.6%)</tspan></text><text x="37.81em" y="18.3em"><tspan class="size">save</tspan></text><rect width=".06em" height=".6em" x="37.25em" y="18.9em" fill="#00f" stroke="#00f"/><text x="36.75em" y="19.5em" text-anchor="end"><tspan class="size">21 (0.6%)</tspan></text><text x="37.81em" y="19.5em"><tspan class="size">setup</tspan></text><rect width=".06em" height=".6em" x="37.25em" y="20.1em" fill="#00f" stroke="#00f"/><text x="36.75em" y="20.7em" text-anchor="end"><tspan class="size">21 (0.6%)</tspan></text><text x="37.81em" y="20.7em"><tspan class="size">visual</tspan></text><rect width=".06em" height=".6em" x="37.25em" y="21.3em" fill="#00f" stroke="#00f"/><text x="36.75em" y="21.9em" text-anchor="end"><tspan class="size">20 (0.6%)</tspan></text><text x="37.81em" y="21.9em"><tspan class="size">documentation</tspan></text><rect width=".06em" height=".6em" x="37.25em" y="22.5em" fill="#00f" stroke="#00f"/><text x="36.75em" y="23.1em" text-anchor="end"><tspan class="size">20 (0.6%)</tspan></text><text x="37.81em" y="23.1em"><tspan class="size">great</tspan></text><rect width="6.37em" height=".6em" x="37.25em" y="23.7em" fill="#fff" stroke="#000"/><text x="36.75em" y="24.3em" text-anchor="end"><tspan class="size">2,291 (63.7%)</tspan></text><text x="44.12em" y="24.3em"><tspan class="size">No response</tspan></text></svg>