<svg xmlns="http://www.w3.org/2000/svg" width="60em" height="11.6em" version="1.1"><defs><style type="text/css">svg{font-family:&quot;Helvetica Neue&quot;,Arial,sans-serif}tspan.size{font-size:.8em}tspan.head{font-weight:700}tspan.paren{font-weight:400!important}</style></defs><text x="0em" y="1.2em" class="head"><tspan class="size">How satisfied are you with Go support in your preferred editor: <tspan class="paren">(single choice)</tspan></tspan></text><rect width=".19em" height=".6em" x="7.25em" y="2.1em" fill="#00f" stroke="#00f"/><text x="6.75em" y="2.7em" text-anchor="end"><tspan class="size">69 (1.9%)</tspan></text><text x="7.94em" y="2.7em"><tspan class="size">Very Dissatisfied</tspan></text><rect width=".14em" height=".6em" x="7.25em" y="3.3em" fill="#00f" stroke="#00f"/><text x="6.75em" y="3.9em" text-anchor="end"><tspan class="size">52 (1.4%)</tspan></text><text x="7.89em" y="3.9em"><tspan class="size">Dissatisfied</tspan></text><rect width=".46em" height=".6em" x="7.25em" y="4.5em" fill="#00f" stroke="#00f"/><text x="6.75em" y="5.1em" text-anchor="end"><tspan class="size">164 (4.6%)</tspan></text><text x="8.21em" y="5.1em"><tspan class="size">Somewhat Dissatisfied</tspan></text><rect width=".37em" height=".6em" x="7.25em" y="5.7em" fill="#00f" stroke="#00f"/><text x="6.75em" y="6.3em" text-anchor="end"><tspan class="size">134 (3.7%)</tspan></text><text x="8.12em" y="6.3em"><tspan class="size">Neither Satisfied or Unsatisfied</tspan></text><rect width="1.69em" height=".6em" x="7.25em" y="6.9em" fill="#00f" stroke="#00f"/><text x="6.75em" y="7.5em" text-anchor="end"><tspan class="size">609 (16.9%)</tspan></text><text x="9.44em" y="7.5em"><tspan class="size">Somewhat Satisfied</tspan></text><rect width="3.5em" height=".6em" x="7.25em" y="8.1em" fill="#00f" stroke="#00f"/><text x="6.75em" y="8.7em" text-anchor="end"><tspan class="size">1,258 (35.0%)</tspan></text><text x="11.25em" y="8.7em"><tspan class="size">Satisfied</tspan></text><rect width="2.33em" height=".6em" x="7.25em" y="9.3em" fill="#00f" stroke="#00f"/><text x="6.75em" y="9.9em" text-anchor="end"><tspan class="size">838 (23.3%)</tspan></text><text x="10.08em" y="9.9em"><tspan class="size">Very Satisfied</tspan></text><rect width="1.31em" height=".6em" x="7.25em" y="10.5em" fill="#fff" stroke="#000"/><text x="6.75em" y="11.1em" text-anchor="end"><tspan class="size">471 (13.1%)</tspan></text><text x="9.06em" y="11.1em"><tspan class="size">No response</tspan></text></svg>