<svg xmlns="http://www.w3.org/2000/svg" width="60em" height="16.4em" version="1.1"><defs><style type="text/css">svg{font-family:&quot;Helvetica Neue&quot;,Arial,sans-serif}tspan.size{font-size:.8em}tspan.head{font-weight:700}tspan.paren{font-weight:400!important}</style></defs><text x="0em" y="1.2em" class="head"><tspan class="size">My preferred code editor: <tspan class="paren">(ordered choice, up to 2)</tspan></tspan></text><rect width="2.45em" height=".6em" x="7.25em" y="2.1em" fill="#00f" stroke="#00f"/><rect width="1.33em" height=".6em" x="9.7em" y="2.1em" fill="#66f" stroke="#66f"/><text x="6.75em" y="2.7em" text-anchor="end"><tspan class="size">1,359 (<tspan fill="#00f">25</tspan>, <tspan fill="#66f">13</tspan>%)</tspan></text><text x="11.53em" y="2.7em"><tspan class="size">Vim</tspan></text><rect width="1.38em" height=".6em" x="7.25em" y="3.3em" fill="#00f" stroke="#00f"/><rect width=".88em" height=".6em" x="8.63em" y="3.3em" fill="#66f" stroke="#66f"/><text x="6.75em" y="3.9em" text-anchor="end"><tspan class="size">814 (<tspan fill="#00f">14</tspan>, <tspan fill="#66f">9</tspan>%)</tspan></text><text x="10.01em" y="3.9em"><tspan class="size">VSCode</tspan></text><rect width="1.02em" height=".6em" x="7.25em" y="4.5em" fill="#00f" stroke="#00f"/><rect width=".86em" height=".6em" x="8.27em" y="4.5em" fill="#66f" stroke="#66f"/><text x="6.75em" y="5.1em" text-anchor="end"><tspan class="size">676 (<tspan fill="#00f">10</tspan>, <tspan fill="#66f">9</tspan>%)</tspan></text><text x="9.63em" y="5.1em"><tspan class="size">Atom</tspan></text><rect width="1.33em" height=".6em" x="7.25em" y="5.7em" fill="#00f" stroke="#00f"/><rect width=".58em" height=".6em" x="8.58em" y="5.7em" fill="#66f" stroke="#66f"/><text x="6.75em" y="6.3em" text-anchor="end"><tspan class="size">687 (<tspan fill="#00f">13</tspan>, <tspan fill="#66f">6</tspan>%)</tspan></text><text x="9.66em" y="6.3em"><tspan class="size">IntelliJ</tspan></text><rect width=".99em" height=".6em" x="7.25em" y="6.9em" fill="#00f" stroke="#00f"/><rect width=".83em" height=".6em" x="8.24em" y="6.9em" fill="#66f" stroke="#66f"/><text x="6.75em" y="7.5em" text-anchor="end"><tspan class="size">655 (<tspan fill="#00f">10</tspan>, <tspan fill="#66f">8</tspan>%)</tspan></text><text x="9.57em" y="7.5em"><tspan class="size">Sublime Text</tspan></text><rect width=".65em" height=".6em" x="7.25em" y="8.1em" fill="#00f" stroke="#00f"/><rect width=".2em" height=".6em" x="7.9em" y="8.1em" fill="#66f" stroke="#66f"/><text x="6.75em" y="8.7em" text-anchor="end"><tspan class="size">305 (<tspan fill="#00f">6</tspan>, <tspan fill="#66f">2</tspan>%)</tspan></text><text x="8.6em" y="8.7em"><tspan class="size">Emacs</tspan></text><rect width=".19em" height=".6em" x="7.25em" y="9.3em" fill="#00f" stroke="#00f"/><rect width=".19em" height=".6em" x="7.44em" y="9.3em" fill="#66f" stroke="#66f"/><text x="6.75em" y="9.9em" text-anchor="end"><tspan class="size">137 (<tspan fill="#00f">2</tspan>, <tspan fill="#66f">2</tspan>%)</tspan></text><text x="8.13em" y="9.9em"><tspan class="size">Visual Studio</tspan></text><rect width=".25em" height=".6em" x="7.25em" y="10.5em" fill="#00f" stroke="#00f"/><rect width=".17em" height=".6em" x="7.5em" y="10.5em" fill="#66f" stroke="#66f"/><text x="6.75em" y="11.1em" text-anchor="end"><tspan class="size">153 (<tspan fill="#00f">3</tspan>, <tspan fill="#66f">2</tspan>%)</tspan></text><text x="8.18em" y="11.1em"><tspan class="size">LiteIDE</tspan></text><rect width=".12em" height=".6em" x="7.25em" y="11.7em" fill="#00f" stroke="#00f"/><rect width=".16em" height=".6em" x="7.37em" y="11.7em" fill="#66f" stroke="#66f"/><text x="6.75em" y="12.3em" text-anchor="end"><tspan class="size">99 (<tspan fill="#00f">1</tspan>, <tspan fill="#66f">2</tspan>%)</tspan></text><text x="8.03em" y="12.3em"><tspan class="size">Eclipse</tspan></text><rect width=".05em" height=".6em" x="7.25em" y="12.9em" fill="#00f" stroke="#00f"/><rect width=".05em" height=".6em" x="7.3em" y="12.9em" fill="#66f" stroke="#66f"/><text x="6.75em" y="13.5em" text-anchor="end"><tspan class="size">37 (<tspan fill="#00f">1</tspan>, <tspan fill="#66f">1</tspan>%)</tspan></text><text x="7.85em" y="13.5em"><tspan class="size">Acme</tspan></text><rect width=".38em" height=".6em" x="7.25em" y="14.1em" fill="#777" stroke="#777"/><rect width=".28em" height=".6em" x="7.63em" y="14.1em" fill="#a1a1a1" stroke="#a1a1a1"/><text x="6.75em" y="14.7em" text-anchor="end"><tspan class="size">238 (<tspan fill="#777">4</tspan>, <tspan fill="#a1a1a1">3</tspan>%)</tspan></text><text x="8.41em" y="14.7em"><tspan class="size">Other</tspan></text><rect width="1.18em" height=".6em" x="7.25em" y="15.3em" fill="#fff" stroke="#000"/><text x="6.75em" y="15.9em" text-anchor="end"><tspan class="size">425 (12%)</tspan></text><text x="8.93em" y="15.9em"><tspan class="size">No response</tspan></text></svg>