<svg xmlns="http://www.w3.org/2000/svg" width="60em" height="8em" version="1.1"><defs><style type="text/css">svg{font-family:&quot;Helvetica Neue&quot;,Arial,sans-serif}tspan.size{font-size:.8em}tspan.head{font-weight:700}</style></defs><text x="0em" y="1.2em" class="head"><tspan class="size">To what extent do you agree or disagree with the following statements:</tspan></text><text x="0em" y="2.4em"><tspan class="size">(<tspan fill="red">strongly disagree</tspan>, <tspan fill="#f44">disagree</tspan>, <tspan fill="#f88">somewhat disagree</tspan>, <tspan fill="#ccc">neutral</tspan>, <tspan fill="#88f">somewhat agree</tspan>, <tspan fill="#44f">agree</tspan>, <tspan fill="#00f">strongly agree</tspan>)</tspan></text><rect width=".09em" height=".6em" x="12em" y="3.3em" fill="red" stroke="red"/><rect width=".23em" height=".6em" x="12.09em" y="3.3em" fill="#f44" stroke="#f44"/><rect width=".63em" height=".6em" x="12.31em" y="3.3em" fill="#f88" stroke="#f88"/><rect width=".68em" height=".6em" x="12.94em" y="3.3em" fill="#ccc" stroke="#ccc"/><rect width="2.26em" height=".6em" x="13.62em" y="3.3em" fill="#88f" stroke="#88f"/><rect width="3.37em" height=".6em" x="15.87em" y="3.3em" fill="#44f" stroke="#44f"/><rect width="1.1em" height=".6em" x="19.25em" y="3.3em" fill="#00f" stroke="#00f"/><text x="11.5em" y="3.9em" text-anchor="end"><tspan class="size">3,002 (<tspan fill="red">1</tspan>, <tspan fill="#f44">2</tspan>, <tspan fill="#f88">6</tspan>, <tspan fill="#ccc">7</tspan>, <tspan fill="#88f">23</tspan>, <tspan fill="#44f">34</tspan>, <tspan fill="#00f">11</tspan>%)</tspan></text><text x="20.85em" y="3.9em"><tspan class="size">I am able to effectively diagnose bugs in my Go programs. (7.2:1)</tspan></text><rect width=".08em" height=".6em" x="12em" y="4.5em" fill="red" stroke="red"/><rect width=".24em" height=".6em" x="12.08em" y="4.5em" fill="#f44" stroke="#f44"/><rect width=".6em" height=".6em" x="12.32em" y="4.5em" fill="#f88" stroke="#f88"/><rect width="1.33em" height=".6em" x="12.92em" y="4.5em" fill="#ccc" stroke="#ccc"/><rect width="2.19em" height=".6em" x="14.26em" y="4.5em" fill="#88f" stroke="#88f"/><rect width="2.4em" height=".6em" x="16.45em" y="4.5em" fill="#44f" stroke="#44f"/><rect width=".73em" height=".6em" x="18.85em" y="4.5em" fill="#00f" stroke="#00f"/><text x="11.5em" y="5.1em" text-anchor="end"><tspan class="size">2,725 (<tspan fill="red">1</tspan>, <tspan fill="#f44">2</tspan>, <tspan fill="#f88">6</tspan>, <tspan fill="#ccc">13</tspan>, <tspan fill="#88f">22</tspan>, <tspan fill="#44f">24</tspan>, <tspan fill="#00f">7</tspan>%)</tspan></text><text x="20.08em" y="5.1em"><tspan class="size">I am able to effectively diagnose performance issues in my Go programs. (5.8:1)</tspan></text><rect width=".05em" height=".6em" x="12em" y="5.7em" fill="red" stroke="red"/><rect width=".15em" height=".6em" x="12.05em" y="5.7em" fill="#f44" stroke="#f44"/><rect width=".29em" height=".6em" x="12.2em" y="5.7em" fill="#f88" stroke="#f88"/><rect width=".53em" height=".6em" x="12.5em" y="5.7em" fill="#ccc" stroke="#ccc"/><rect width="1.67em" height=".6em" x="13.03em" y="5.7em" fill="#88f" stroke="#88f"/><rect width="3.25em" height=".6em" x="14.7em" y="5.7em" fill="#44f" stroke="#44f"/><rect width="2.2em" height=".6em" x="17.96em" y="5.7em" fill="#00f" stroke="#00f"/><text x="11.5em" y="6.3em" text-anchor="end"><tspan class="size">2,932 (<tspan fill="red">1</tspan>, <tspan fill="#f44">2</tspan>, <tspan fill="#f88">3</tspan>, <tspan fill="#ccc">5</tspan>, <tspan fill="#88f">17</tspan>, <tspan fill="#44f">33</tspan>, <tspan fill="#00f">22</tspan>%)</tspan></text><text x="20.66em" y="6.3em"><tspan class="size">I am able to effectively use Go&apos;s concurrency features (goroutines, channels, select). (14:1)</tspan></text><rect width=".21em" height=".6em" x="12em" y="6.9em" fill="red" stroke="red"/><rect width=".46em" height=".6em" x="12.21em" y="6.9em" fill="#f44" stroke="#f44"/><rect width="1.05em" height=".6em" x="12.68em" y="6.9em" fill="#f88" stroke="#f88"/><rect width="1.42em" height=".6em" x="13.73em" y="6.9em" fill="#ccc" stroke="#ccc"/><rect width="2.33em" height=".6em" x="15.15em" y="6.9em" fill="#88f" stroke="#88f"/><rect width="1.78em" height=".6em" x="17.48em" y="6.9em" fill="#44f" stroke="#44f"/><rect width=".53em" height=".6em" x="19.26em" y="6.9em" fill="#00f" stroke="#00f"/><text x="11.5em" y="7.5em" text-anchor="end"><tspan class="size">2,801 (<tspan fill="red">2</tspan>, <tspan fill="#f44">5</tspan>, <tspan fill="#f88">11</tspan>, <tspan fill="#ccc">14</tspan>, <tspan fill="#88f">23</tspan>, <tspan fill="#44f">18</tspan>, <tspan fill="#00f">5</tspan>%)</tspan></text><text x="20.29em" y="7.5em"><tspan class="size">I am able to effectively debug uses of Go&apos;s concurrency features (goroutines, channels, select). (2.7:1)</tspan></text></svg>