<svg xmlns="http://www.w3.org/2000/svg" width="60em" height="10.4em" version="1.1"><defs><style type="text/css">svg{font-family:&quot;Helvetica Neue&quot;,Arial,sans-serif}tspan.size{font-size:.8em}tspan.head{font-weight:700}tspan.paren{font-weight:400!important}</style></defs><text x="0em" y="1.2em" class="head"><tspan class="size">I&apos;ve used Go for: <tspan class="paren">(single choice)</tspan></tspan></text><rect width="1.2em" height=".6em" x="7.25em" y="2.1em" fill="#00f" stroke="#00f"/><text x="6.75em" y="2.7em" text-anchor="end"><tspan class="size">432 (12%)</tspan></text><text x="8.95em" y="2.7em"><tspan class="size">Less than 3 months</tspan></text><rect width="2.81em" height=".6em" x="7.25em" y="3.3em" fill="#00f" stroke="#00f"/><text x="6.75em" y="3.9em" text-anchor="end"><tspan class="size">1,009 (28%)</tspan></text><text x="10.56em" y="3.9em"><tspan class="size">3 - 12 months</tspan></text><rect width="2.31em" height=".6em" x="7.25em" y="4.5em" fill="#00f" stroke="#00f"/><text x="6.75em" y="5.1em" text-anchor="end"><tspan class="size">829 (23%)</tspan></text><text x="10.06em" y="5.1em"><tspan class="size">13 - 24 months</tspan></text><rect width="2.51em" height=".6em" x="7.25em" y="5.7em" fill="#00f" stroke="#00f"/><text x="6.75em" y="6.3em" text-anchor="end"><tspan class="size">903 (25%)</tspan></text><text x="10.26em" y="6.3em"><tspan class="size">2 - 4 years</tspan></text><rect width=".89em" height=".6em" x="7.25em" y="6.9em" fill="#00f" stroke="#00f"/><text x="6.75em" y="7.5em" text-anchor="end"><tspan class="size">321 (9%)</tspan></text><text x="8.64em" y="7.5em"><tspan class="size">4+ years</tspan></text><rect width=".21em" height=".6em" x="7.25em" y="8.1em" fill="#00f" stroke="#00f"/><text x="6.75em" y="8.7em" text-anchor="end"><tspan class="size">77 (2%)</tspan></text><text x="7.96em" y="8.7em"><tspan class="size">I&apos;ve never used Go</tspan></text><rect width=".07em" height=".6em" x="7.25em" y="9.3em" fill="#fff" stroke="#000"/><text x="6.75em" y="9.9em" text-anchor="end"><tspan class="size">24 (1%)</tspan></text><text x="7.82em" y="9.9em"><tspan class="size">No response</tspan></text></svg>