<svg xmlns="http://www.w3.org/2000/svg" width="60em" height="15.2em" version="1.1"><defs><style type="text/css">svg{font-family:&quot;Helvetica Neue&quot;,Arial,sans-serif}tspan.size{font-size:.8em}tspan.head{font-weight:700}tspan.paren{font-weight:400!important}</style></defs><text x="0em" y="1.2em" class="head"><tspan class="size">We want the Go community to be inclusive; we want to see how we&apos;re doing and how to improve.</tspan></text><text x="0em" y="2.4em" class="head"><tspan class="size">Please select the groups you identify with: <tspan class="paren">(multiple choice)</tspan></tspan></text><rect width="4.17em" height=".6em" x="7.25em" y="3.3em" fill="#00f" stroke="#00f"/><text x="6.75em" y="3.9em" text-anchor="end"><tspan class="size">1,499 (42%)</tspan></text><text x="11.92em" y="3.9em"><tspan class="size">I do not identify as part of an underrepresented group</tspan></text><rect width="1.22em" height=".6em" x="7.25em" y="4.5em" fill="#00f" stroke="#00f"/><text x="6.75em" y="5.1em" text-anchor="end"><tspan class="size">438 (12%)</tspan></text><text x="8.97em" y="5.1em"><tspan class="size">I prefer not to answer</tspan></text><rect width=".28em" height=".6em" x="7.25em" y="5.7em" fill="#00f" stroke="#00f"/><text x="6.75em" y="6.3em" text-anchor="end"><tspan class="size">101 (3%)</tspan></text><text x="8.03em" y="6.3em"><tspan class="size">I identify as LGBTQIA</tspan></text><rect width=".26em" height=".6em" x="7.25em" y="6.9em" fill="#00f" stroke="#00f"/><text x="6.75em" y="7.5em" text-anchor="end"><tspan class="size">95 (3%)</tspan></text><text x="8.01em" y="7.5em"><tspan class="size">I identify as ethnically or racially underrepresented</tspan></text><rect width=".21em" height=".6em" x="7.25em" y="8.1em" fill="#00f" stroke="#00f"/><text x="6.75em" y="8.7em" text-anchor="end"><tspan class="size">77 (2%)</tspan></text><text x="7.96em" y="8.7em"><tspan class="size">I identify as neurodiverse or as having a disability</tspan></text><rect width=".14em" height=".6em" x="7.25em" y="9.3em" fill="#00f" stroke="#00f"/><text x="6.75em" y="9.9em" text-anchor="end"><tspan class="size">49 (1%)</tspan></text><text x="7.89em" y="9.9em"><tspan class="size">I identify as a woman</tspan></text><rect width=".13em" height=".6em" x="7.25em" y="10.5em" fill="#00f" stroke="#00f"/><text x="6.75em" y="11.1em" text-anchor="end"><tspan class="size">47 (1%)</tspan></text><text x="7.88em" y="11.1em"><tspan class="size">Write-in: objection to the question.</tspan></text><rect width=".11em" height=".6em" x="7.25em" y="11.7em" fill="#00f" stroke="#00f"/><text x="6.75em" y="12.3em" text-anchor="end"><tspan class="size">38 (1%)</tspan></text><text x="7.86em" y="12.3em"><tspan class="size">I identify as part of an underrepresented group, but I prefer not to specify</tspan></text><rect width=".09em" height=".6em" x="7.25em" y="12.9em" fill="#00f" stroke="#00f"/><text x="6.75em" y="13.5em" text-anchor="end"><tspan class="size">34 (1%)</tspan></text><text x="7.84em" y="13.5em"><tspan class="size">I identify with an underrepresented group not listed.</tspan></text><rect width="3.71em" height=".6em" x="7.25em" y="14.1em" fill="#fff" stroke="#000"/><text x="6.75em" y="14.7em" text-anchor="end"><tspan class="size">1,332 (37%)</tspan></text><text x="11.46em" y="14.7em"><tspan class="size">No response</tspan></text></svg>