<svg xmlns="http://www.w3.org/2000/svg" width="60em" height="26em" version="1.1"><defs><style type="text/css">svg{font-family:&quot;Helvetica Neue&quot;,Arial,sans-serif}tspan.size{font-size:.8em}tspan.head{font-weight:700}</style></defs><text x="0em" y="1.2em" class="head"><tspan class="size">What changes would improve Go most?</tspan></text><rect width="1.59em" height=".6em" x="7.25em" y="2.1em" fill="#00f" stroke="#00f"/><text x="6.75em" y="2.7em" text-anchor="end"><tspan class="size">572 (16%)</tspan></text><text x="9.34em" y="2.7em"><tspan class="size">generics</tspan></text><rect width="1.25em" height=".6em" x="7.25em" y="3.3em" fill="#00f" stroke="#00f"/><text x="6.75em" y="3.9em" text-anchor="end"><tspan class="size">451 (13%)</tspan></text><text x="9em" y="3.9em"><tspan class="size">management</tspan></text><rect width=".92em" height=".6em" x="7.25em" y="4.5em" fill="#00f" stroke="#00f"/><text x="6.75em" y="5.1em" text-anchor="end"><tspan class="size">330 (9%)</tspan></text><text x="8.67em" y="5.1em"><tspan class="size">dependency</tspan></text><rect width=".87em" height=".6em" x="7.25em" y="5.7em" fill="#00f" stroke="#00f"/><text x="6.75em" y="6.3em" text-anchor="end"><tspan class="size">314 (9%)</tspan></text><text x="8.62em" y="6.3em"><tspan class="size">package</tspan></text><rect width=".74em" height=".6em" x="7.25em" y="6.9em" fill="#00f" stroke="#00f"/><text x="6.75em" y="7.5em" text-anchor="end"><tspan class="size">266 (7%)</tspan></text><text x="8.49em" y="7.5em"><tspan class="size">dependency management</tspan></text><rect width=".46em" height=".6em" x="7.25em" y="8.1em" fill="#00f" stroke="#00f"/><text x="6.75em" y="8.7em" text-anchor="end"><tspan class="size">164 (5%)</tspan></text><text x="8.21em" y="8.7em"><tspan class="size">library</tspan></text><rect width=".44em" height=".6em" x="7.25em" y="9.3em" fill="#00f" stroke="#00f"/><text x="6.75em" y="9.9em" text-anchor="end"><tspan class="size">159 (4%)</tspan></text><text x="8.19em" y="9.9em"><tspan class="size">gui</tspan></text><rect width=".37em" height=".6em" x="7.25em" y="10.5em" fill="#00f" stroke="#00f"/><text x="6.75em" y="11.1em" text-anchor="end"><tspan class="size">134 (4%)</tspan></text><text x="8.12em" y="11.1em"><tspan class="size">package management</tspan></text><rect width=".37em" height=".6em" x="7.25em" y="11.7em" fill="#00f" stroke="#00f"/><text x="6.75em" y="12.3em" text-anchor="end"><tspan class="size">134 (4%)</tspan></text><text x="8.12em" y="12.3em"><tspan class="size">vendoring</tspan></text><rect width=".36em" height=".6em" x="7.25em" y="12.9em" fill="#00f" stroke="#00f"/><text x="6.75em" y="13.5em" text-anchor="end"><tspan class="size">128 (4%)</tspan></text><text x="8.11em" y="13.5em"><tspan class="size">debugger</tspan></text><rect width=".35em" height=".6em" x="7.25em" y="14.1em" fill="#00f" stroke="#00f"/><text x="6.75em" y="14.7em" text-anchor="end"><tspan class="size">126 (4%)</tspan></text><text x="8.1em" y="14.7em"><tspan class="size">libraries</tspan></text><rect width=".34em" height=".6em" x="7.25em" y="15.3em" fill="#00f" stroke="#00f"/><text x="6.75em" y="15.9em" text-anchor="end"><tspan class="size">122 (3%)</tspan></text><text x="8.09em" y="15.9em"><tspan class="size">standard</tspan></text><rect width=".33em" height=".6em" x="7.25em" y="16.5em" fill="#00f" stroke="#00f"/><text x="6.75em" y="17.1em" text-anchor="end"><tspan class="size">117 (3%)</tspan></text><text x="8.08em" y="17.1em"><tspan class="size">type</tspan></text><rect width=".3em" height=".6em" x="7.25em" y="17.7em" fill="#00f" stroke="#00f"/><text x="6.75em" y="18.3em" text-anchor="end"><tspan class="size">109 (3%)</tspan></text><text x="8.05em" y="18.3em"><tspan class="size">error</tspan></text><rect width=".26em" height=".6em" x="7.25em" y="18.9em" fill="#00f" stroke="#00f"/><text x="6.75em" y="19.5em" text-anchor="end"><tspan class="size">94 (3%)</tspan></text><text x="8.01em" y="19.5em"><tspan class="size">system</tspan></text><rect width=".25em" height=".6em" x="7.25em" y="20.1em" fill="#00f" stroke="#00f"/><text x="6.75em" y="20.7em" text-anchor="end"><tspan class="size">89 (2%)</tspan></text><text x="8em" y="20.7em"><tspan class="size">types</tspan></text><rect width=".24em" height=".6em" x="7.25em" y="21.3em" fill="#00f" stroke="#00f"/><text x="6.75em" y="21.9em" text-anchor="end"><tspan class="size">88 (2%)</tspan></text><text x="7.99em" y="21.9em"><tspan class="size">official</tspan></text><rect width=".24em" height=".6em" x="7.25em" y="22.5em" fill="#00f" stroke="#00f"/><text x="6.75em" y="23.1em" text-anchor="end"><tspan class="size">85 (2%)</tspan></text><text x="7.99em" y="23.1em"><tspan class="size">tools</tspan></text><rect width=".23em" height=".6em" x="7.25em" y="23.7em" fill="#00f" stroke="#00f"/><text x="6.75em" y="24.3em" text-anchor="end"><tspan class="size">84 (2%)</tspan></text><text x="7.98em" y="24.3em"><tspan class="size">c</tspan></text><rect width=".23em" height=".6em" x="7.25em" y="24.9em" fill="#00f" stroke="#00f"/><text x="6.75em" y="25.5em" text-anchor="end"><tspan class="size">82 (2%)</tspan></text><text x="7.98em" y="25.5em"><tspan class="size">gopath</tspan></text><rect width=".22em" height=".6em" x="22.25em" y="2.1em" fill="#00f" stroke="#00f"/><text x="21.75em" y="2.7em" text-anchor="end"><tspan class="size">78 (2%)</tspan></text><text x="22.97em" y="2.7em"><tspan class="size">performance</tspan></text><rect width=".19em" height=".6em" x="22.25em" y="3.3em" fill="#00f" stroke="#00f"/><text x="21.75em" y="3.9em" text-anchor="end"><tspan class="size">70 (2%)</tspan></text><text x="22.94em" y="3.9em"><tspan class="size">error handling</tspan></text><rect width=".19em" height=".6em" x="22.25em" y="4.5em" fill="#00f" stroke="#00f"/><text x="21.75em" y="5.1em" text-anchor="end"><tspan class="size">70 (2%)</tspan></text><text x="22.94em" y="5.1em"><tspan class="size">ide</tspan></text><rect width=".19em" height=".6em" x="22.25em" y="5.7em" fill="#00f" stroke="#00f"/><text x="21.75em" y="6.3em" text-anchor="end"><tspan class="size">69 (2%)</tspan></text><text x="22.94em" y="6.3em"><tspan class="size">package manager</tspan></text><rect width=".18em" height=".6em" x="22.25em" y="6.9em" fill="#00f" stroke="#00f"/><text x="21.75em" y="7.5em" text-anchor="end"><tspan class="size">66 (2%)</tspan></text><text x="22.93em" y="7.5em"><tspan class="size">documentation</tspan></text><rect width=".18em" height=".6em" x="22.25em" y="8.1em" fill="#00f" stroke="#00f"/><text x="21.75em" y="8.7em" text-anchor="end"><tspan class="size">66 (2%)</tspan></text><text x="22.93em" y="8.7em"><tspan class="size">faster</tspan></text><rect width=".18em" height=".6em" x="22.25em" y="9.3em" fill="#00f" stroke="#00f"/><text x="21.75em" y="9.9em" text-anchor="end"><tspan class="size">64 (2%)</tspan></text><text x="22.93em" y="9.9em"><tspan class="size">good</tspan></text><rect width=".18em" height=".6em" x="22.25em" y="10.5em" fill="#00f" stroke="#00f"/><text x="21.75em" y="11.1em" text-anchor="end"><tspan class="size">63 (2%)</tspan></text><text x="22.93em" y="11.1em"><tspan class="size">simple</tspan></text><rect width=".18em" height=".6em" x="22.25em" y="11.7em" fill="#00f" stroke="#00f"/><text x="21.75em" y="12.3em" text-anchor="end"><tspan class="size">63 (2%)</tspan></text><text x="22.93em" y="12.3em"><tspan class="size">tool</tspan></text><rect width=".17em" height=".6em" x="22.25em" y="12.9em" fill="#00f" stroke="#00f"/><text x="21.75em" y="13.5em" text-anchor="end"><tspan class="size">62 (2%)</tspan></text><text x="22.92em" y="13.5em"><tspan class="size">mobile</tspan></text><rect width=".17em" height=".6em" x="22.25em" y="14.1em" fill="#00f" stroke="#00f"/><text x="21.75em" y="14.7em" text-anchor="end"><tspan class="size">60 (2%)</tspan></text><text x="22.92em" y="14.7em"><tspan class="size">debugging</tspan></text><rect width=".16em" height=".6em" x="22.25em" y="15.3em" fill="#00f" stroke="#00f"/><text x="21.75em" y="15.9em" text-anchor="end"><tspan class="size">57 (2%)</tspan></text><text x="22.91em" y="15.9em"><tspan class="size">build</tspan></text><rect width=".16em" height=".6em" x="22.25em" y="16.5em" fill="#00f" stroke="#00f"/><text x="21.75em" y="17.1em" text-anchor="end"><tspan class="size">56 (2%)</tspan></text><text x="22.91em" y="17.1em"><tspan class="size">packages</tspan></text><rect width=".15em" height=".6em" x="22.25em" y="17.7em" fill="#00f" stroke="#00f"/><text x="21.75em" y="18.3em" text-anchor="end"><tspan class="size">55 (2%)</tspan></text><text x="22.9em" y="18.3em"><tspan class="size">easier</tspan></text><rect width=".15em" height=".6em" x="22.25em" y="18.9em" fill="#00f" stroke="#00f"/><text x="21.75em" y="19.5em" text-anchor="end"><tspan class="size">55 (2%)</tspan></text><text x="22.9em" y="19.5em"><tspan class="size">standard library</tspan></text><rect width=".15em" height=".6em" x="22.25em" y="20.1em" fill="#00f" stroke="#00f"/><text x="21.75em" y="20.7em" text-anchor="end"><tspan class="size">55 (2%)</tspan></text><text x="22.9em" y="20.7em"><tspan class="size">tooling</tspan></text><rect width=".15em" height=".6em" x="22.25em" y="21.3em" fill="#00f" stroke="#00f"/><text x="21.75em" y="21.9em" text-anchor="end"><tspan class="size">54 (2%)</tspan></text><text x="22.9em" y="21.9em"><tspan class="size">interface</tspan></text><rect width=".14em" height=".6em" x="22.25em" y="22.5em" fill="#00f" stroke="#00f"/><text x="21.75em" y="23.1em" text-anchor="end"><tspan class="size">51 (1%)</tspan></text><text x="22.89em" y="23.1em"><tspan class="size">dependencies</tspan></text><rect width=".14em" height=".6em" x="22.25em" y="23.7em" fill="#00f" stroke="#00f"/><text x="21.75em" y="24.3em" text-anchor="end"><tspan class="size">51 (1%)</tspan></text><text x="22.89em" y="24.3em"><tspan class="size">generic</tspan></text><rect width=".13em" height=".6em" x="22.25em" y="24.9em" fill="#00f" stroke="#00f"/><text x="21.75em" y="25.5em" text-anchor="end"><tspan class="size">48 (1%)</tspan></text><text x="22.88em" y="25.5em"><tspan class="size">programming</tspan></text><rect width=".13em" height=".6em" x="37.25em" y="2.1em" fill="#00f" stroke="#00f"/><text x="36.75em" y="2.7em" text-anchor="end"><tspan class="size">48 (1%)</tspan></text><text x="37.88em" y="2.7em"><tspan class="size">versioning</tspan></text><rect width=".13em" height=".6em" x="37.25em" y="3.3em" fill="#00f" stroke="#00f"/><text x="36.75em" y="3.9em" text-anchor="end"><tspan class="size">47 (1%)</tspan></text><text x="37.88em" y="3.9em"><tspan class="size">syntax</tspan></text><rect width=".13em" height=".6em" x="37.25em" y="4.5em" fill="#00f" stroke="#00f"/><text x="36.75em" y="5.1em" text-anchor="end"><tspan class="size">45 (1%)</tspan></text><text x="37.88em" y="5.1em"><tspan class="size">compile</tspan></text><rect width=".13em" height=".6em" x="37.25em" y="5.7em" fill="#00f" stroke="#00f"/><text x="36.75em" y="6.3em" text-anchor="end"><tspan class="size">45 (1%)</tspan></text><text x="37.88em" y="6.3em"><tspan class="size">solution</tspan></text><rect width=".12em" height=".6em" x="37.25em" y="6.9em" fill="#00f" stroke="#00f"/><text x="36.75em" y="7.5em" text-anchor="end"><tspan class="size">44 (1%)</tspan></text><text x="37.87em" y="7.5em"><tspan class="size">framework</tspan></text><rect width=".12em" height=".6em" x="37.25em" y="8.1em" fill="#00f" stroke="#00f"/><text x="36.75em" y="8.7em" text-anchor="end"><tspan class="size">43 (1%)</tspan></text><text x="37.87em" y="8.7em"><tspan class="size">examples</tspan></text><rect width=".12em" height=".6em" x="37.25em" y="9.3em" fill="#00f" stroke="#00f"/><text x="36.75em" y="9.9em" text-anchor="end"><tspan class="size">43 (1%)</tspan></text><text x="37.87em" y="9.9em"><tspan class="size">gc</tspan></text><rect width=".12em" height=".6em" x="37.25em" y="10.5em" fill="#00f" stroke="#00f"/><text x="36.75em" y="11.1em" text-anchor="end"><tspan class="size">43 (1%)</tspan></text><text x="37.87em" y="11.1em"><tspan class="size">type system</tspan></text><rect width=".12em" height=".6em" x="37.25em" y="11.7em" fill="#00f" stroke="#00f"/><text x="36.75em" y="12.3em" text-anchor="end"><tspan class="size">42 (1%)</tspan></text><text x="37.87em" y="12.3em"><tspan class="size">gui library</tspan></text><rect width=".11em" height=".6em" x="37.25em" y="12.9em" fill="#00f" stroke="#00f"/><text x="36.75em" y="13.5em" text-anchor="end"><tspan class="size">41 (1%)</tspan></text><text x="37.86em" y="13.5em"><tspan class="size">templates</tspan></text><rect width=".11em" height=".6em" x="37.25em" y="14.1em" fill="#00f" stroke="#00f"/><text x="36.75em" y="14.7em" text-anchor="end"><tspan class="size">40 (1%)</tspan></text><text x="37.86em" y="14.7em"><tspan class="size">android</tspan></text><rect width=".11em" height=".6em" x="37.25em" y="15.3em" fill="#00f" stroke="#00f"/><text x="36.75em" y="15.9em" text-anchor="end"><tspan class="size">40 (1%)</tspan></text><text x="37.86em" y="15.9em"><tspan class="size">community</tspan></text><rect width=".11em" height=".6em" x="37.25em" y="16.5em" fill="#00f" stroke="#00f"/><text x="36.75em" y="17.1em" text-anchor="end"><tspan class="size">40 (1%)</tspan></text><text x="37.86em" y="17.1em"><tspan class="size">function</tspan></text><rect width=".11em" height=".6em" x="37.25em" y="17.7em" fill="#00f" stroke="#00f"/><text x="36.75em" y="18.3em" text-anchor="end"><tspan class="size">40 (1%)</tspan></text><text x="37.86em" y="18.3em"><tspan class="size">native</tspan></text><rect width=".11em" height=".6em" x="37.25em" y="18.9em" fill="#00f" stroke="#00f"/><text x="36.75em" y="19.5em" text-anchor="end"><tspan class="size">40 (1%)</tspan></text><text x="37.86em" y="19.5em"><tspan class="size">ui</tspan></text><rect width=".11em" height=".6em" x="37.25em" y="20.1em" fill="#00f" stroke="#00f"/><text x="36.75em" y="20.7em" text-anchor="end"><tspan class="size">40 (1%)</tspan></text><text x="37.86em" y="20.7em"><tspan class="size">web</tspan></text><rect width=".11em" height=".6em" x="37.25em" y="21.3em" fill="#00f" stroke="#00f"/><text x="36.75em" y="21.9em" text-anchor="end"><tspan class="size">39 (1%)</tspan></text><text x="37.86em" y="21.9em"><tspan class="size">functions</tspan></text><rect width=".06em" height=".6em" x="37.25em" y="22.5em" fill="#00f" stroke="#00f"/><text x="36.75em" y="23.1em" text-anchor="end"><tspan class="size">21 (1%)</tspan></text><text x="37.81em" y="23.1em"><tspan class="size">cross platform</tspan></text><rect width="3.38em" height=".6em" x="37.25em" y="23.7em" fill="#fff" stroke="#000"/><text x="36.75em" y="24.3em" text-anchor="end"><tspan class="size">1,215 (34%)</tspan></text><text x="41.13em" y="24.3em"><tspan class="size">No response</tspan></text></svg>