<svg xmlns="http://www.w3.org/2000/svg" width="60em" height="33.2em" version="1.1"><defs><style type="text/css">svg{font-family:&quot;Helvetica Neue&quot;,Arial,sans-serif}tspan.size{font-size:.8em}tspan.head{font-weight:700}</style></defs><text x="0em" y="1.2em" class="head"><tspan class="size">Just for fun: What is your favorite Go keyword?</tspan></text><rect width="2.38em" height=".6em" x="7.25em" y="2.1em" fill="#00f" stroke="#00f"/><text x="6.75em" y="2.7em" text-anchor="end"><tspan class="size">854 (24%)</tspan></text><text x="10.13em" y="2.7em"><tspan class="size">go</tspan></text><rect width="1.27em" height=".6em" x="7.25em" y="3.3em" fill="#00f" stroke="#00f"/><text x="6.75em" y="3.9em" text-anchor="end"><tspan class="size">455 (13%)</tspan></text><text x="9.02em" y="3.9em"><tspan class="size">defer</tspan></text><rect width=".7em" height=".6em" x="7.25em" y="4.5em" fill="#00f" stroke="#00f"/><text x="6.75em" y="5.1em" text-anchor="end"><tspan class="size">253 (7%)</tspan></text><text x="8.45em" y="5.1em"><tspan class="size">func</tspan></text><rect width=".67em" height=".6em" x="7.25em" y="5.7em" fill="#00f" stroke="#00f"/><text x="6.75em" y="6.3em" text-anchor="end"><tspan class="size">240 (7%)</tspan></text><text x="8.42em" y="6.3em"><tspan class="size">select</tspan></text><rect width=".63em" height=".6em" x="7.25em" y="6.9em" fill="#00f" stroke="#00f"/><text x="6.75em" y="7.5em" text-anchor="end"><tspan class="size">227 (6%)</tspan></text><text x="8.38em" y="7.5em"><tspan class="size">interface</tspan></text><rect width=".4em" height=".6em" x="7.25em" y="8.1em" fill="#00f" stroke="#00f"/><text x="6.75em" y="8.7em" text-anchor="end"><tspan class="size">145 (4%)</tspan></text><text x="8.15em" y="8.7em"><tspan class="size">struct</tspan></text><rect width=".39em" height=".6em" x="7.25em" y="9.3em" fill="#00f" stroke="#00f"/><text x="6.75em" y="9.9em" text-anchor="end"><tspan class="size">139 (4%)</tspan></text><text x="8.14em" y="9.9em"><tspan class="size">chan</tspan></text><rect width=".36em" height=".6em" x="7.25em" y="10.5em" fill="#00f" stroke="#00f"/><text x="6.75em" y="11.1em" text-anchor="end"><tspan class="size">129 (4%)</tspan></text><text x="8.11em" y="11.1em"><tspan class="size">range</tspan></text><rect width=".19em" height=".6em" x="7.25em" y="11.7em" fill="#00f" stroke="#00f"/><text x="6.75em" y="12.3em" text-anchor="end"><tspan class="size">67 (2%)</tspan></text><text x="7.94em" y="12.3em"><tspan class="size">fallthrough</tspan></text><rect width=".16em" height=".6em" x="7.25em" y="12.9em" fill="#00f" stroke="#00f"/><text x="6.75em" y="13.5em" text-anchor="end"><tspan class="size">56 (2%)</tspan></text><text x="7.91em" y="13.5em"><tspan class="size">switch</tspan></text><rect width=".15em" height=".6em" x="7.25em" y="14.1em" fill="#00f" stroke="#00f"/><text x="6.75em" y="14.7em" text-anchor="end"><tspan class="size">53 (1%)</tspan></text><text x="7.9em" y="14.7em"><tspan class="size">for</tspan></text><rect width=".13em" height=".6em" x="7.25em" y="15.3em" fill="#00f" stroke="#00f"/><text x="6.75em" y="15.9em" text-anchor="end"><tspan class="size">48 (1%)</tspan></text><text x="7.88em" y="15.9em"><tspan class="size">type</tspan></text><rect width=".13em" height=".6em" x="7.25em" y="16.5em" fill="#00f" stroke="#00f"/><text x="6.75em" y="17.1em" text-anchor="end"><tspan class="size">47 (1%)</tspan></text><text x="7.88em" y="17.1em"><tspan class="size">map</tspan></text><rect width=".12em" height=".6em" x="7.25em" y="17.7em" fill="#00f" stroke="#00f"/><text x="6.75em" y="18.3em" text-anchor="end"><tspan class="size">44 (1%)</tspan></text><text x="7.87em" y="18.3em"><tspan class="size">goto</tspan></text><rect width=".1em" height=".6em" x="7.25em" y="18.9em" fill="#00f" stroke="#00f"/><text x="6.75em" y="19.5em" text-anchor="end"><tspan class="size">36 (1%)</tspan></text><text x="7.85em" y="19.5em"><tspan class="size">import</tspan></text><rect width=".06em" height=".6em" x="7.25em" y="20.1em" fill="#00f" stroke="#00f"/><text x="6.75em" y="20.7em" text-anchor="end"><tspan class="size">22 (1%)</tspan></text><text x="7.81em" y="20.7em"><tspan class="size">if</tspan></text><rect width=".06em" height=".6em" x="7.25em" y="21.3em" fill="#00f" stroke="#00f"/><text x="6.75em" y="21.9em" text-anchor="end"><tspan class="size">20 (1%)</tspan></text><text x="7.81em" y="21.9em"><tspan class="size">package</tspan></text><rect width=".05em" height=".6em" x="7.25em" y="22.5em" fill="#00f" stroke="#00f"/><text x="6.75em" y="23.1em" text-anchor="end"><tspan class="size">19 (1%)</tspan></text><text x="7.8em" y="23.1em"><tspan class="size">var</tspan></text><rect width=".05em" height=".6em" x="7.25em" y="23.7em" fill="#00f" stroke="#00f"/><text x="6.75em" y="24.3em" text-anchor="end"><tspan class="size">17 (0%)</tspan></text><text x="7.8em" y="24.3em"><tspan class="size">const</tspan></text><rect width=".04em" height=".6em" x="7.25em" y="24.9em" fill="#00f" stroke="#00f"/><text x="6.75em" y="25.5em" text-anchor="end"><tspan class="size">14 (0%)</tspan></text><text x="7.79em" y="25.5em"><tspan class="size">continue</tspan></text><rect width=".04em" height=".6em" x="7.25em" y="26.1em" fill="#00f" stroke="#00f"/><text x="6.75em" y="26.7em" text-anchor="end"><tspan class="size">13 (0%)</tspan></text><text x="7.79em" y="26.7em"><tspan class="size">return</tspan></text><rect width=".03em" height=".6em" x="7.25em" y="27.3em" fill="#00f" stroke="#00f"/><text x="6.75em" y="27.9em" text-anchor="end"><tspan class="size">12 (0%)</tspan></text><text x="7.78em" y="27.9em"><tspan class="size">break</tspan></text><rect width=".01em" height=".6em" x="7.25em" y="28.5em" fill="#00f" stroke="#00f"/><text x="6.75em" y="29.1em" text-anchor="end"><tspan class="size">3 (0%)</tspan></text><text x="7.76em" y="29.1em"><tspan class="size">else</tspan></text><rect width=".01em" height=".6em" x="7.25em" y="29.7em" fill="#00f" stroke="#00f"/><text x="6.75em" y="30.3em" text-anchor="end"><tspan class="size">2 (0%)</tspan></text><text x="7.76em" y="30.3em"><tspan class="size">case</tspan></text><rect width=".01em" height=".6em" x="7.25em" y="30.9em" fill="#00f" stroke="#00f"/><text x="6.75em" y="31.5em" text-anchor="end"><tspan class="size">2 (0%)</tspan></text><text x="7.76em" y="31.5em"><tspan class="size">default</tspan></text><rect width="1.89em" height=".6em" x="7.25em" y="32.1em" fill="#fff" stroke="#000"/><text x="6.75em" y="32.7em" text-anchor="end"><tspan class="size">678 (19%)</tspan></text><text x="9.64em" y="32.7em"><tspan class="size">No response</tspan></text></svg>