<svg xmlns="http://www.w3.org/2000/svg" width="60em" height="27.2em" version="1.1"><defs><style type="text/css">svg{font-family:&quot;Helvetica Neue&quot;,Arial,sans-serif}tspan.size{font-size:.8em}tspan.head{font-weight:700}tspan.paren{font-weight:400!important}</style></defs><text x="0em" y="1.2em" class="head"><tspan class="size">Rank the following languages in terms of your expertise: <tspan class="paren">(ordered choice, up to 5)</tspan></tspan></text><rect width="2.61em" height=".6em" x="12em" y="2.1em" fill="#00f" stroke="#00f"/><rect width="2.56em" height=".6em" x="14.61em" y="2.1em" fill="#2828ff" stroke="#2828ff"/><rect width="1.9em" height=".6em" x="17.17em" y="2.1em" fill="#5151ff" stroke="#5151ff"/><rect width="1.05em" height=".6em" x="19.07em" y="2.1em" fill="#7a7aff" stroke="#7a7aff"/><rect width=".54em" height=".6em" x="20.11em" y="2.1em" fill="#a3a3ff" stroke="#a3a3ff"/><text x="11.5em" y="2.7em" text-anchor="end"><tspan class="size">3,111 (<tspan fill="#00f">26</tspan>, <tspan fill="#2828ff">26</tspan>, <tspan fill="#5151ff">19</tspan>, <tspan fill="#7a7aff">10</tspan>, <tspan fill="#a3a3ff">5</tspan>%)</tspan></text><text x="21.15em" y="2.7em"><tspan class="size">Go</tspan></text><rect width=".8em" height=".6em" x="12em" y="3.3em" fill="#00f" stroke="#00f"/><rect width="1.52em" height=".6em" x="12.8em" y="3.3em" fill="#2828ff" stroke="#2828ff"/><rect width="1.41em" height=".6em" x="14.32em" y="3.3em" fill="#5151ff" stroke="#5151ff"/><rect width="1.13em" height=".6em" x="15.73em" y="3.3em" fill="#7a7aff" stroke="#7a7aff"/><rect width=".83em" height=".6em" x="16.87em" y="3.3em" fill="#a3a3ff" stroke="#a3a3ff"/><text x="11.5em" y="3.9em" text-anchor="end"><tspan class="size">2,048 (<tspan fill="#00f">8</tspan>, <tspan fill="#2828ff">15</tspan>, <tspan fill="#5151ff">14</tspan>, <tspan fill="#7a7aff">11</tspan>, <tspan fill="#a3a3ff">8</tspan>%)</tspan></text><text x="18.2em" y="3.9em"><tspan class="size">JavaScript</tspan></text><rect width="1.22em" height=".6em" x="12em" y="4.5em" fill="#00f" stroke="#00f"/><rect width="1.23em" height=".6em" x="13.22em" y="4.5em" fill="#2828ff" stroke="#2828ff"/><rect width="1.05em" height=".6em" x="14.45em" y="4.5em" fill="#5151ff" stroke="#5151ff"/><rect width="1.04em" height=".6em" x="15.5em" y="4.5em" fill="#7a7aff" stroke="#7a7aff"/><rect width=".73em" height=".6em" x="16.54em" y="4.5em" fill="#a3a3ff" stroke="#a3a3ff"/><text x="11.5em" y="5.1em" text-anchor="end"><tspan class="size">1,896 (<tspan fill="#00f">12</tspan>, <tspan fill="#2828ff">12</tspan>, <tspan fill="#5151ff">10</tspan>, <tspan fill="#7a7aff">10</tspan>, <tspan fill="#a3a3ff">7</tspan>%)</tspan></text><text x="17.77em" y="5.1em"><tspan class="size">Python</tspan></text><rect width="1.32em" height=".6em" x="12em" y="5.7em" fill="#00f" stroke="#00f"/><rect width=".82em" height=".6em" x="13.32em" y="5.7em" fill="#2828ff" stroke="#2828ff"/><rect width=".81em" height=".6em" x="14.14em" y="5.7em" fill="#5151ff" stroke="#5151ff"/><rect width=".76em" height=".6em" x="14.95em" y="5.7em" fill="#7a7aff" stroke="#7a7aff"/><rect width=".79em" height=".6em" x="15.71em" y="5.7em" fill="#a3a3ff" stroke="#a3a3ff"/><text x="11.5em" y="6.3em" text-anchor="end"><tspan class="size">1,618 (<tspan fill="#00f">13</tspan>, <tspan fill="#2828ff">8</tspan>, <tspan fill="#5151ff">8</tspan>, <tspan fill="#7a7aff">8</tspan>, <tspan fill="#a3a3ff">8</tspan>%)</tspan></text><text x="17em" y="6.3em"><tspan class="size">Java</tspan></text><rect width=".79em" height=".6em" x="12em" y="6.9em" fill="#00f" stroke="#00f"/><rect width=".82em" height=".6em" x="12.79em" y="6.9em" fill="#2828ff" stroke="#2828ff"/><rect width=".94em" height=".6em" x="13.61em" y="6.9em" fill="#5151ff" stroke="#5151ff"/><rect width=".93em" height=".6em" x="14.55em" y="6.9em" fill="#7a7aff" stroke="#7a7aff"/><rect width=".73em" height=".6em" x="15.48em" y="6.9em" fill="#a3a3ff" stroke="#a3a3ff"/><text x="11.5em" y="7.5em" text-anchor="end"><tspan class="size">1,512 (<tspan fill="#00f">8</tspan>, <tspan fill="#2828ff">8</tspan>, <tspan fill="#5151ff">9</tspan>, <tspan fill="#7a7aff">9</tspan>, <tspan fill="#a3a3ff">7</tspan>%)</tspan></text><text x="16.71em" y="7.5em"><tspan class="size">C</tspan></text><rect width=".17em" height=".6em" x="12em" y="8.1em" fill="#00f" stroke="#00f"/><rect width=".39em" height=".6em" x="12.17em" y="8.1em" fill="#2828ff" stroke="#2828ff"/><rect width=".71em" height=".6em" x="12.57em" y="8.1em" fill="#5151ff" stroke="#5151ff"/><rect width=".85em" height=".6em" x="13.28em" y="8.1em" fill="#7a7aff" stroke="#7a7aff"/><rect width=".83em" height=".6em" x="14.13em" y="8.1em" fill="#a3a3ff" stroke="#a3a3ff"/><text x="11.5em" y="8.7em" text-anchor="end"><tspan class="size">1,064 (<tspan fill="#00f">2</tspan>, <tspan fill="#2828ff">4</tspan>, <tspan fill="#5151ff">7</tspan>, <tspan fill="#7a7aff">8</tspan>, <tspan fill="#a3a3ff">8</tspan>%)</tspan></text><text x="15.46em" y="8.7em"><tspan class="size">Bash</tspan></text><rect width=".5em" height=".6em" x="12em" y="9.3em" fill="#00f" stroke="#00f"/><rect width=".48em" height=".6em" x="12.5em" y="9.3em" fill="#2828ff" stroke="#2828ff"/><rect width=".66em" height=".6em" x="12.99em" y="9.3em" fill="#5151ff" stroke="#5151ff"/><rect width=".62em" height=".6em" x="13.65em" y="9.3em" fill="#7a7aff" stroke="#7a7aff"/><rect width=".61em" height=".6em" x="14.28em" y="9.3em" fill="#a3a3ff" stroke="#a3a3ff"/><text x="11.5em" y="9.9em" text-anchor="end"><tspan class="size">1,039 (<tspan fill="#00f">5</tspan>, <tspan fill="#2828ff">5</tspan>, <tspan fill="#5151ff">7</tspan>, <tspan fill="#7a7aff">6</tspan>, <tspan fill="#a3a3ff">6</tspan>%)</tspan></text><text x="15.39em" y="9.9em"><tspan class="size">C++</tspan></text><rect width=".63em" height=".6em" x="12em" y="10.5em" fill="#00f" stroke="#00f"/><rect width=".38em" height=".6em" x="12.63em" y="10.5em" fill="#2828ff" stroke="#2828ff"/><rect width=".44em" height=".6em" x="13.01em" y="10.5em" fill="#5151ff" stroke="#5151ff"/><rect width=".45em" height=".6em" x="13.45em" y="10.5em" fill="#7a7aff" stroke="#7a7aff"/><rect width=".41em" height=".6em" x="13.9em" y="10.5em" fill="#a3a3ff" stroke="#a3a3ff"/><text x="11.5em" y="11.1em" text-anchor="end"><tspan class="size">830 (<tspan fill="#00f">6</tspan>, <tspan fill="#2828ff">4</tspan>, <tspan fill="#5151ff">4</tspan>, <tspan fill="#7a7aff">5</tspan>, <tspan fill="#a3a3ff">4</tspan>%)</tspan></text><text x="14.81em" y="11.1em"><tspan class="size">PHP</tspan></text><rect width=".52em" height=".6em" x="12em" y="11.7em" fill="#00f" stroke="#00f"/><rect width=".36em" height=".6em" x="12.52em" y="11.7em" fill="#2828ff" stroke="#2828ff"/><rect width=".3em" height=".6em" x="12.88em" y="11.7em" fill="#5151ff" stroke="#5151ff"/><rect width=".36em" height=".6em" x="13.18em" y="11.7em" fill="#7a7aff" stroke="#7a7aff"/><rect width=".31em" height=".6em" x="13.54em" y="11.7em" fill="#a3a3ff" stroke="#a3a3ff"/><text x="11.5em" y="12.3em" text-anchor="end"><tspan class="size">668 (<tspan fill="#00f">5</tspan>, <tspan fill="#2828ff">4</tspan>, <tspan fill="#5151ff">3</tspan>, <tspan fill="#7a7aff">4</tspan>, <tspan fill="#a3a3ff">3</tspan>%)</tspan></text><text x="14.36em" y="12.3em"><tspan class="size">Ruby</tspan></text><rect width=".46em" height=".6em" x="12em" y="12.9em" fill="#00f" stroke="#00f"/><rect width=".32em" height=".6em" x="12.46em" y="12.9em" fill="#2828ff" stroke="#2828ff"/><rect width=".32em" height=".6em" x="12.77em" y="12.9em" fill="#5151ff" stroke="#5151ff"/><rect width=".38em" height=".6em" x="13.1em" y="12.9em" fill="#7a7aff" stroke="#7a7aff"/><rect width=".26em" height=".6em" x="13.47em" y="12.9em" fill="#a3a3ff" stroke="#a3a3ff"/><text x="11.5em" y="13.5em" text-anchor="end"><tspan class="size">622 (<tspan fill="#00f">5</tspan>, <tspan fill="#2828ff">3</tspan>, <tspan fill="#5151ff">3</tspan>, <tspan fill="#7a7aff">4</tspan>, <tspan fill="#a3a3ff">3</tspan>%)</tspan></text><text x="14.23em" y="13.5em"><tspan class="size">C#</tspan></text><rect width=".19em" height=".6em" x="12em" y="14.1em" fill="#00f" stroke="#00f"/><rect width=".14em" height=".6em" x="12.19em" y="14.1em" fill="#2828ff" stroke="#2828ff"/><rect width=".15em" height=".6em" x="12.33em" y="14.1em" fill="#5151ff" stroke="#5151ff"/><rect width=".18em" height=".6em" x="12.49em" y="14.1em" fill="#7a7aff" stroke="#7a7aff"/><rect width=".16em" height=".6em" x="12.66em" y="14.1em" fill="#a3a3ff" stroke="#a3a3ff"/><text x="11.5em" y="14.7em" text-anchor="end"><tspan class="size">294 (<tspan fill="#00f">2</tspan>, <tspan fill="#2828ff">1</tspan>, <tspan fill="#5151ff">2</tspan>, <tspan fill="#7a7aff">2</tspan>, <tspan fill="#a3a3ff">2</tspan>%)</tspan></text><text x="13.32em" y="14.7em"><tspan class="size">Perl</tspan></text><rect width=".07em" height=".6em" x="12em" y="15.3em" fill="#00f" stroke="#00f"/><rect width=".09em" height=".6em" x="12.07em" y="15.3em" fill="#2828ff" stroke="#2828ff"/><rect width=".08em" height=".6em" x="12.16em" y="15.3em" fill="#5151ff" stroke="#5151ff"/><rect width=".14em" height=".6em" x="12.25em" y="15.3em" fill="#7a7aff" stroke="#7a7aff"/><rect width=".13em" height=".6em" x="12.39em" y="15.3em" fill="#a3a3ff" stroke="#a3a3ff"/><text x="11.5em" y="15.9em" text-anchor="end"><tspan class="size">184 (<tspan fill="#00f">1</tspan>, <tspan fill="#2828ff">1</tspan>, <tspan fill="#5151ff">1</tspan>, <tspan fill="#7a7aff">1</tspan>, <tspan fill="#a3a3ff">1</tspan>%)</tspan></text><text x="13.01em" y="15.9em"><tspan class="size">Scala</tspan></text><rect width=".03em" height=".6em" x="12em" y="16.5em" fill="#00f" stroke="#00f"/><rect width=".03em" height=".6em" x="12.03em" y="16.5em" fill="#2828ff" stroke="#2828ff"/><rect width=".08em" height=".6em" x="12.06em" y="16.5em" fill="#5151ff" stroke="#5151ff"/><rect width=".09em" height=".6em" x="12.13em" y="16.5em" fill="#7a7aff" stroke="#7a7aff"/><rect width=".21em" height=".6em" x="12.23em" y="16.5em" fill="#a3a3ff" stroke="#a3a3ff"/><text x="11.5em" y="17.1em" text-anchor="end"><tspan class="size">156 (<tspan fill="#00f">0</tspan>, <tspan fill="#2828ff">0</tspan>, <tspan fill="#5151ff">1</tspan>, <tspan fill="#7a7aff">1</tspan>, <tspan fill="#a3a3ff">2</tspan>%)</tspan></text><text x="12.93em" y="17.1em"><tspan class="size">Rust</tspan></text><rect width=".02em" height=".6em" x="12em" y="17.7em" fill="#00f" stroke="#00f"/><rect width=".03em" height=".6em" x="12.02em" y="17.7em" fill="#2828ff" stroke="#2828ff"/><rect width=".08em" height=".6em" x="12.05em" y="17.7em" fill="#5151ff" stroke="#5151ff"/><rect width=".12em" height=".6em" x="12.13em" y="17.7em" fill="#7a7aff" stroke="#7a7aff"/><rect width=".14em" height=".6em" x="12.25em" y="17.7em" fill="#a3a3ff" stroke="#a3a3ff"/><text x="11.5em" y="18.3em" text-anchor="end"><tspan class="size">142 (<tspan fill="#00f">0</tspan>, <tspan fill="#2828ff">0</tspan>, <tspan fill="#5151ff">1</tspan>, <tspan fill="#7a7aff">1</tspan>, <tspan fill="#a3a3ff">1</tspan>%)</tspan></text><text x="12.89em" y="18.3em"><tspan class="size">Lua</tspan></text><rect width=".02em" height=".6em" x="12em" y="18.9em" fill="#00f" stroke="#00f"/><rect width=".04em" height=".6em" x="12.02em" y="18.9em" fill="#2828ff" stroke="#2828ff"/><rect width=".04em" height=".6em" x="12.06em" y="18.9em" fill="#5151ff" stroke="#5151ff"/><rect width=".09em" height=".6em" x="12.1em" y="18.9em" fill="#7a7aff" stroke="#7a7aff"/><rect width=".19em" height=".6em" x="12.19em" y="18.9em" fill="#a3a3ff" stroke="#a3a3ff"/><text x="11.5em" y="19.5em" text-anchor="end"><tspan class="size">136 (<tspan fill="#00f">0</tspan>, <tspan fill="#2828ff">0</tspan>, <tspan fill="#5151ff">0</tspan>, <tspan fill="#7a7aff">1</tspan>, <tspan fill="#a3a3ff">2</tspan>%)</tspan></text><text x="12.88em" y="19.5em"><tspan class="size">Haskell</tspan></text><rect width=".01em" height=".6em" x="12em" y="20.1em" fill="#00f" stroke="#00f"/><rect width=".04em" height=".6em" x="12.01em" y="20.1em" fill="#2828ff" stroke="#2828ff"/><rect width=".03em" height=".6em" x="12.05em" y="20.1em" fill="#5151ff" stroke="#5151ff"/><rect width=".08em" height=".6em" x="12.08em" y="20.1em" fill="#7a7aff" stroke="#7a7aff"/><rect width=".09em" height=".6em" x="12.17em" y="20.1em" fill="#a3a3ff" stroke="#a3a3ff"/><text x="11.5em" y="20.7em" text-anchor="end"><tspan class="size">94 (<tspan fill="#00f">0</tspan>, <tspan fill="#2828ff">0</tspan>, <tspan fill="#5151ff">0</tspan>, <tspan fill="#7a7aff">1</tspan>, <tspan fill="#a3a3ff">1</tspan>%)</tspan></text><text x="12.76em" y="20.7em"><tspan class="size">R</tspan></text><rect width=".02em" height=".6em" x="12em" y="21.3em" fill="#00f" stroke="#00f"/><rect width=".02em" height=".6em" x="12.02em" y="21.3em" fill="#2828ff" stroke="#2828ff"/><rect width=".03em" height=".6em" x="12.04em" y="21.3em" fill="#5151ff" stroke="#5151ff"/><rect width=".09em" height=".6em" x="12.08em" y="21.3em" fill="#7a7aff" stroke="#7a7aff"/><rect width=".09em" height=".6em" x="12.17em" y="21.3em" fill="#a3a3ff" stroke="#a3a3ff"/><text x="11.5em" y="21.9em" text-anchor="end"><tspan class="size">93 (<tspan fill="#00f">0</tspan>, <tspan fill="#2828ff">0</tspan>, <tspan fill="#5151ff">0</tspan>, <tspan fill="#7a7aff">1</tspan>, <tspan fill="#a3a3ff">1</tspan>%)</tspan></text><text x="12.76em" y="21.9em"><tspan class="size">Clojure</tspan></text><rect width=".02em" height=".6em" x="12em" y="22.5em" fill="#00f" stroke="#00f"/><rect width=".03em" height=".6em" x="12.02em" y="22.5em" fill="#2828ff" stroke="#2828ff"/><rect width=".04em" height=".6em" x="12.05em" y="22.5em" fill="#5151ff" stroke="#5151ff"/><rect width=".04em" height=".6em" x="12.09em" y="22.5em" fill="#7a7aff" stroke="#7a7aff"/><rect width=".07em" height=".6em" x="12.13em" y="22.5em" fill="#a3a3ff" stroke="#a3a3ff"/><text x="11.5em" y="23.1em" text-anchor="end"><tspan class="size">72 (<tspan fill="#00f">0</tspan>, <tspan fill="#2828ff">0</tspan>, <tspan fill="#5151ff">0</tspan>, <tspan fill="#7a7aff">0</tspan>, <tspan fill="#a3a3ff">1</tspan>%)</tspan></text><text x="12.7em" y="23.1em"><tspan class="size">Erlang</tspan></text><rect width="0em" height=".6em" x="12em" y="23.7em" fill="#00f" stroke="#00f"/><rect width="0em" height=".6em" x="12em" y="23.7em" fill="#2828ff" stroke="#2828ff"/><rect width=".01em" height=".6em" x="12em" y="23.7em" fill="#5151ff" stroke="#5151ff"/><rect width=".01em" height=".6em" x="12.02em" y="23.7em" fill="#7a7aff" stroke="#7a7aff"/><rect width=".03em" height=".6em" x="12.03em" y="23.7em" fill="#a3a3ff" stroke="#a3a3ff"/><text x="11.5em" y="24.3em" text-anchor="end"><tspan class="size">18 (<tspan fill="#00f">0</tspan>, <tspan fill="#2828ff">0</tspan>, <tspan fill="#5151ff">0</tspan>, <tspan fill="#7a7aff">0</tspan>, <tspan fill="#a3a3ff">0</tspan>%)</tspan></text><text x="12.55em" y="24.3em"><tspan class="size">Julia</tspan></text><rect width=".21em" height=".6em" x="12em" y="24.9em" fill="#777" stroke="#777"/><rect width=".3em" height=".6em" x="12.21em" y="24.9em" fill="#888" stroke="#888"/><rect width=".33em" height=".6em" x="12.51em" y="24.9em" fill="#999" stroke="#999"/><rect width=".29em" height=".6em" x="12.84em" y="24.9em" fill="#aaa" stroke="#aaa"/><rect width=".26em" height=".6em" x="13.13em" y="24.9em" fill="#bbb" stroke="#bbb"/><text x="11.5em" y="25.5em" text-anchor="end"><tspan class="size">499 (<tspan fill="#777">2</tspan>, <tspan fill="#888">3</tspan>, <tspan fill="#999">3</tspan>, <tspan fill="#aaa">3</tspan>, <tspan fill="#bbb">3</tspan>%)</tspan></text><text x="13.89em" y="25.5em"><tspan class="size">Other</tspan></text><rect width=".37em" height=".6em" x="12em" y="26.1em" fill="#fff" stroke="#000"/><text x="11.5em" y="26.7em" text-anchor="end"><tspan class="size">134 (3.7%)</tspan></text><text x="12.87em" y="26.7em"><tspan class="size">No response</tspan></text></svg>