<svg xmlns="http://www.w3.org/2000/svg" width="60em" height="27.2em" version="1.1"><defs><style type="text/css">svg{font-family:&quot;Helvetica Neue&quot;,Arial,sans-serif}tspan.size{font-size:.8em}tspan.head{font-weight:700}tspan.paren{font-weight:400!important}</style></defs><text x="0em" y="1.2em" class="head"><tspan class="size">Rank the following languages in terms of your preference: <tspan class="paren">(ordered choice, up to 5)</tspan></tspan></text><rect width="6.21em" height=".6em" x="12em" y="2.1em" fill="#00f" stroke="#00f"/><rect width="1.89em" height=".6em" x="18.21em" y="2.1em" fill="#2828ff" stroke="#2828ff"/><rect width=".61em" height=".6em" x="20.11em" y="2.1em" fill="#5151ff" stroke="#5151ff"/><rect width=".19em" height=".6em" x="20.72em" y="2.1em" fill="#7a7aff" stroke="#7a7aff"/><rect width=".13em" height=".6em" x="20.9em" y="2.1em" fill="#a3a3ff" stroke="#a3a3ff"/><text x="11.5em" y="2.7em" text-anchor="end"><tspan class="size">3,248 (<tspan fill="#00f">62</tspan>, <tspan fill="#2828ff">19</tspan>, <tspan fill="#5151ff">6</tspan>, <tspan fill="#7a7aff">2</tspan>, <tspan fill="#a3a3ff">1</tspan>%)</tspan></text><text x="21.53em" y="2.7em"><tspan class="size">Go</tspan></text><rect width=".74em" height=".6em" x="12em" y="3.3em" fill="#00f" stroke="#00f"/><rect width="1.7em" height=".6em" x="12.74em" y="3.3em" fill="#2828ff" stroke="#2828ff"/><rect width="1.22em" height=".6em" x="14.44em" y="3.3em" fill="#5151ff" stroke="#5151ff"/><rect width=".86em" height=".6em" x="15.66em" y="3.3em" fill="#7a7aff" stroke="#7a7aff"/><rect width=".48em" height=".6em" x="16.52em" y="3.3em" fill="#a3a3ff" stroke="#a3a3ff"/><text x="11.5em" y="3.9em" text-anchor="end"><tspan class="size">1,796 (<tspan fill="#00f">7</tspan>, <tspan fill="#2828ff">17</tspan>, <tspan fill="#5151ff">12</tspan>, <tspan fill="#7a7aff">9</tspan>, <tspan fill="#a3a3ff">5</tspan>%)</tspan></text><text x="17.5em" y="3.9em"><tspan class="size">Python</tspan></text><rect width=".27em" height=".6em" x="12em" y="4.5em" fill="#00f" stroke="#00f"/><rect width=".85em" height=".6em" x="12.27em" y="4.5em" fill="#2828ff" stroke="#2828ff"/><rect width="1.27em" height=".6em" x="13.12em" y="4.5em" fill="#5151ff" stroke="#5151ff"/><rect width=".98em" height=".6em" x="14.39em" y="4.5em" fill="#7a7aff" stroke="#7a7aff"/><rect width=".75em" height=".6em" x="15.37em" y="4.5em" fill="#a3a3ff" stroke="#a3a3ff"/><text x="11.5em" y="5.1em" text-anchor="end"><tspan class="size">1,482 (<tspan fill="#00f">3</tspan>, <tspan fill="#2828ff">9</tspan>, <tspan fill="#5151ff">13</tspan>, <tspan fill="#7a7aff">10</tspan>, <tspan fill="#a3a3ff">8</tspan>%)</tspan></text><text x="16.62em" y="5.1em"><tspan class="size">JavaScript</tspan></text><rect width=".2em" height=".6em" x="12em" y="5.7em" fill="#00f" stroke="#00f"/><rect width=".82em" height=".6em" x="12.2em" y="5.7em" fill="#2828ff" stroke="#2828ff"/><rect width=".92em" height=".6em" x="13.03em" y="5.7em" fill="#5151ff" stroke="#5151ff"/><rect width=".87em" height=".6em" x="13.94em" y="5.7em" fill="#7a7aff" stroke="#7a7aff"/><rect width=".62em" height=".6em" x="14.81em" y="5.7em" fill="#a3a3ff" stroke="#a3a3ff"/><text x="11.5em" y="6.3em" text-anchor="end"><tspan class="size">1,235 (<tspan fill="#00f">2</tspan>, <tspan fill="#2828ff">8</tspan>, <tspan fill="#5151ff">9</tspan>, <tspan fill="#7a7aff">9</tspan>, <tspan fill="#a3a3ff">6</tspan>%)</tspan></text><text x="15.94em" y="6.3em"><tspan class="size">C</tspan></text><rect width=".32em" height=".6em" x="12em" y="6.9em" fill="#00f" stroke="#00f"/><rect width=".72em" height=".6em" x="12.32em" y="6.9em" fill="#2828ff" stroke="#2828ff"/><rect width=".76em" height=".6em" x="13.05em" y="6.9em" fill="#5151ff" stroke="#5151ff"/><rect width=".72em" height=".6em" x="13.81em" y="6.9em" fill="#7a7aff" stroke="#7a7aff"/><rect width=".71em" height=".6em" x="14.53em" y="6.9em" fill="#a3a3ff" stroke="#a3a3ff"/><text x="11.5em" y="7.5em" text-anchor="end"><tspan class="size">1,167 (<tspan fill="#00f">3</tspan>, <tspan fill="#2828ff">7</tspan>, <tspan fill="#5151ff">8</tspan>, <tspan fill="#7a7aff">7</tspan>, <tspan fill="#a3a3ff">7</tspan>%)</tspan></text><text x="15.75em" y="7.5em"><tspan class="size">Java</tspan></text><rect width=".18em" height=".6em" x="12em" y="8.1em" fill="#00f" stroke="#00f"/><rect width=".39em" height=".6em" x="12.18em" y="8.1em" fill="#2828ff" stroke="#2828ff"/><rect width=".6em" height=".6em" x="12.57em" y="8.1em" fill="#5151ff" stroke="#5151ff"/><rect width=".6em" height=".6em" x="13.17em" y="8.1em" fill="#7a7aff" stroke="#7a7aff"/><rect width=".48em" height=".6em" x="13.77em" y="8.1em" fill="#a3a3ff" stroke="#a3a3ff"/><text x="11.5em" y="8.7em" text-anchor="end"><tspan class="size">809 (<tspan fill="#00f">2</tspan>, <tspan fill="#2828ff">4</tspan>, <tspan fill="#5151ff">6</tspan>, <tspan fill="#7a7aff">6</tspan>, <tspan fill="#a3a3ff">5</tspan>%)</tspan></text><text x="14.75em" y="8.7em"><tspan class="size">C++</tspan></text><rect width=".06em" height=".6em" x="12em" y="9.3em" fill="#00f" stroke="#00f"/><rect width=".31em" height=".6em" x="12.06em" y="9.3em" fill="#2828ff" stroke="#2828ff"/><rect width=".49em" height=".6em" x="12.37em" y="9.3em" fill="#5151ff" stroke="#5151ff"/><rect width=".49em" height=".6em" x="12.86em" y="9.3em" fill="#7a7aff" stroke="#7a7aff"/><rect width=".46em" height=".6em" x="13.34em" y="9.3em" fill="#a3a3ff" stroke="#a3a3ff"/><text x="11.5em" y="9.9em" text-anchor="end"><tspan class="size">647 (<tspan fill="#00f">1</tspan>, <tspan fill="#2828ff">3</tspan>, <tspan fill="#5151ff">5</tspan>, <tspan fill="#7a7aff">5</tspan>, <tspan fill="#a3a3ff">5</tspan>%)</tspan></text><text x="14.3em" y="9.9em"><tspan class="size">Bash</tspan></text><rect width=".28em" height=".6em" x="12em" y="10.5em" fill="#00f" stroke="#00f"/><rect width=".46em" height=".6em" x="12.28em" y="10.5em" fill="#2828ff" stroke="#2828ff"/><rect width=".4em" height=".6em" x="12.74em" y="10.5em" fill="#5151ff" stroke="#5151ff"/><rect width=".25em" height=".6em" x="13.14em" y="10.5em" fill="#7a7aff" stroke="#7a7aff"/><rect width=".17em" height=".6em" x="13.39em" y="10.5em" fill="#a3a3ff" stroke="#a3a3ff"/><text x="11.5em" y="11.1em" text-anchor="end"><tspan class="size">563 (<tspan fill="#00f">3</tspan>, <tspan fill="#2828ff">5</tspan>, <tspan fill="#5151ff">4</tspan>, <tspan fill="#7a7aff">3</tspan>, <tspan fill="#a3a3ff">2</tspan>%)</tspan></text><text x="14.07em" y="11.1em"><tspan class="size">Ruby</tspan></text><rect width=".23em" height=".6em" x="12em" y="11.7em" fill="#00f" stroke="#00f"/><rect width=".45em" height=".6em" x="12.23em" y="11.7em" fill="#2828ff" stroke="#2828ff"/><rect width=".37em" height=".6em" x="12.68em" y="11.7em" fill="#5151ff" stroke="#5151ff"/><rect width=".29em" height=".6em" x="13.05em" y="11.7em" fill="#7a7aff" stroke="#7a7aff"/><rect width=".21em" height=".6em" x="13.34em" y="11.7em" fill="#a3a3ff" stroke="#a3a3ff"/><text x="11.5em" y="12.3em" text-anchor="end"><tspan class="size">557 (<tspan fill="#00f">2</tspan>, <tspan fill="#2828ff">4</tspan>, <tspan fill="#5151ff">4</tspan>, <tspan fill="#7a7aff">3</tspan>, <tspan fill="#a3a3ff">2</tspan>%)</tspan></text><text x="14.05em" y="12.3em"><tspan class="size">C#</tspan></text><rect width=".21em" height=".6em" x="12em" y="12.9em" fill="#00f" stroke="#00f"/><rect width=".38em" height=".6em" x="12.21em" y="12.9em" fill="#2828ff" stroke="#2828ff"/><rect width=".3em" height=".6em" x="12.59em" y="12.9em" fill="#5151ff" stroke="#5151ff"/><rect width=".25em" height=".6em" x="12.88em" y="12.9em" fill="#7a7aff" stroke="#7a7aff"/><rect width=".19em" height=".6em" x="13.13em" y="12.9em" fill="#a3a3ff" stroke="#a3a3ff"/><text x="11.5em" y="13.5em" text-anchor="end"><tspan class="size">475 (<tspan fill="#00f">2</tspan>, <tspan fill="#2828ff">4</tspan>, <tspan fill="#5151ff">3</tspan>, <tspan fill="#7a7aff">3</tspan>, <tspan fill="#a3a3ff">2</tspan>%)</tspan></text><text x="13.82em" y="13.5em"><tspan class="size">Rust</tspan></text><rect width=".11em" height=".6em" x="12em" y="14.1em" fill="#00f" stroke="#00f"/><rect width=".25em" height=".6em" x="12.11em" y="14.1em" fill="#2828ff" stroke="#2828ff"/><rect width=".29em" height=".6em" x="12.36em" y="14.1em" fill="#5151ff" stroke="#5151ff"/><rect width=".27em" height=".6em" x="12.65em" y="14.1em" fill="#7a7aff" stroke="#7a7aff"/><rect width=".34em" height=".6em" x="12.91em" y="14.1em" fill="#a3a3ff" stroke="#a3a3ff"/><text x="11.5em" y="14.7em" text-anchor="end"><tspan class="size">449 (<tspan fill="#00f">1</tspan>, <tspan fill="#2828ff">2</tspan>, <tspan fill="#5151ff">3</tspan>, <tspan fill="#7a7aff">3</tspan>, <tspan fill="#a3a3ff">3</tspan>%)</tspan></text><text x="13.75em" y="14.7em"><tspan class="size">PHP</tspan></text><rect width=".14em" height=".6em" x="12em" y="15.3em" fill="#00f" stroke="#00f"/><rect width=".16em" height=".6em" x="12.14em" y="15.3em" fill="#2828ff" stroke="#2828ff"/><rect width=".2em" height=".6em" x="12.29em" y="15.3em" fill="#5151ff" stroke="#5151ff"/><rect width=".17em" height=".6em" x="12.5em" y="15.3em" fill="#7a7aff" stroke="#7a7aff"/><rect width=".11em" height=".6em" x="12.67em" y="15.3em" fill="#a3a3ff" stroke="#a3a3ff"/><text x="11.5em" y="15.9em" text-anchor="end"><tspan class="size">278 (<tspan fill="#00f">1</tspan>, <tspan fill="#2828ff">2</tspan>, <tspan fill="#5151ff">2</tspan>, <tspan fill="#7a7aff">2</tspan>, <tspan fill="#a3a3ff">1</tspan>%)</tspan></text><text x="13.27em" y="15.9em"><tspan class="size">Haskell</tspan></text><rect width=".06em" height=".6em" x="12em" y="16.5em" fill="#00f" stroke="#00f"/><rect width=".14em" height=".6em" x="12.06em" y="16.5em" fill="#2828ff" stroke="#2828ff"/><rect width=".13em" height=".6em" x="12.21em" y="16.5em" fill="#5151ff" stroke="#5151ff"/><rect width=".12em" height=".6em" x="12.34em" y="16.5em" fill="#7a7aff" stroke="#7a7aff"/><rect width=".14em" height=".6em" x="12.46em" y="16.5em" fill="#a3a3ff" stroke="#a3a3ff"/><text x="11.5em" y="17.1em" text-anchor="end"><tspan class="size">215 (<tspan fill="#00f">1</tspan>, <tspan fill="#2828ff">1</tspan>, <tspan fill="#5151ff">1</tspan>, <tspan fill="#7a7aff">1</tspan>, <tspan fill="#a3a3ff">1</tspan>%)</tspan></text><text x="13.1em" y="17.1em"><tspan class="size">Perl</tspan></text><rect width=".09em" height=".6em" x="12em" y="17.7em" fill="#00f" stroke="#00f"/><rect width=".14em" height=".6em" x="12.09em" y="17.7em" fill="#2828ff" stroke="#2828ff"/><rect width=".14em" height=".6em" x="12.23em" y="17.7em" fill="#5151ff" stroke="#5151ff"/><rect width=".12em" height=".6em" x="12.37em" y="17.7em" fill="#7a7aff" stroke="#7a7aff"/><rect width=".11em" height=".6em" x="12.49em" y="17.7em" fill="#a3a3ff" stroke="#a3a3ff"/><text x="11.5em" y="18.3em" text-anchor="end"><tspan class="size">214 (<tspan fill="#00f">1</tspan>, <tspan fill="#2828ff">1</tspan>, <tspan fill="#5151ff">1</tspan>, <tspan fill="#7a7aff">1</tspan>, <tspan fill="#a3a3ff">1</tspan>%)</tspan></text><text x="13.1em" y="18.3em"><tspan class="size">Scala</tspan></text><rect width=".01em" height=".6em" x="12em" y="18.9em" fill="#00f" stroke="#00f"/><rect width=".05em" height=".6em" x="12.01em" y="18.9em" fill="#2828ff" stroke="#2828ff"/><rect width=".16em" height=".6em" x="12.06em" y="18.9em" fill="#5151ff" stroke="#5151ff"/><rect width=".16em" height=".6em" x="12.23em" y="18.9em" fill="#7a7aff" stroke="#7a7aff"/><rect width=".11em" height=".6em" x="12.39em" y="18.9em" fill="#a3a3ff" stroke="#a3a3ff"/><text x="11.5em" y="19.5em" text-anchor="end"><tspan class="size">178 (<tspan fill="#00f">0</tspan>, <tspan fill="#2828ff">1</tspan>, <tspan fill="#5151ff">2</tspan>, <tspan fill="#7a7aff">2</tspan>, <tspan fill="#a3a3ff">1</tspan>%)</tspan></text><text x="13em" y="19.5em"><tspan class="size">Lua</tspan></text><rect width=".04em" height=".6em" x="12em" y="20.1em" fill="#00f" stroke="#00f"/><rect width=".09em" height=".6em" x="12.04em" y="20.1em" fill="#2828ff" stroke="#2828ff"/><rect width=".09em" height=".6em" x="12.14em" y="20.1em" fill="#5151ff" stroke="#5151ff"/><rect width=".13em" height=".6em" x="12.23em" y="20.1em" fill="#7a7aff" stroke="#7a7aff"/><rect width=".11em" height=".6em" x="12.35em" y="20.1em" fill="#a3a3ff" stroke="#a3a3ff"/><text x="11.5em" y="20.7em" text-anchor="end"><tspan class="size">168 (<tspan fill="#00f">0</tspan>, <tspan fill="#2828ff">1</tspan>, <tspan fill="#5151ff">1</tspan>, <tspan fill="#7a7aff">1</tspan>, <tspan fill="#a3a3ff">1</tspan>%)</tspan></text><text x="12.97em" y="20.7em"><tspan class="size">Erlang</tspan></text><rect width=".07em" height=".6em" x="12em" y="21.3em" fill="#00f" stroke="#00f"/><rect width=".08em" height=".6em" x="12.07em" y="21.3em" fill="#2828ff" stroke="#2828ff"/><rect width=".12em" height=".6em" x="12.15em" y="21.3em" fill="#5151ff" stroke="#5151ff"/><rect width=".1em" height=".6em" x="12.26em" y="21.3em" fill="#7a7aff" stroke="#7a7aff"/><rect width=".07em" height=".6em" x="12.37em" y="21.3em" fill="#a3a3ff" stroke="#a3a3ff"/><text x="11.5em" y="21.9em" text-anchor="end"><tspan class="size">156 (<tspan fill="#00f">1</tspan>, <tspan fill="#2828ff">1</tspan>, <tspan fill="#5151ff">1</tspan>, <tspan fill="#7a7aff">1</tspan>, <tspan fill="#a3a3ff">1</tspan>%)</tspan></text><text x="12.93em" y="21.9em"><tspan class="size">Clojure</tspan></text><rect width=".03em" height=".6em" x="12em" y="22.5em" fill="#00f" stroke="#00f"/><rect width=".04em" height=".6em" x="12.03em" y="22.5em" fill="#2828ff" stroke="#2828ff"/><rect width=".04em" height=".6em" x="12.06em" y="22.5em" fill="#5151ff" stroke="#5151ff"/><rect width=".06em" height=".6em" x="12.1em" y="22.5em" fill="#7a7aff" stroke="#7a7aff"/><rect width=".06em" height=".6em" x="12.16em" y="22.5em" fill="#a3a3ff" stroke="#a3a3ff"/><text x="11.5em" y="23.1em" text-anchor="end"><tspan class="size">79 (<tspan fill="#00f">0</tspan>, <tspan fill="#2828ff">0</tspan>, <tspan fill="#5151ff">0</tspan>, <tspan fill="#7a7aff">1</tspan>, <tspan fill="#a3a3ff">1</tspan>%)</tspan></text><text x="12.72em" y="23.1em"><tspan class="size">R</tspan></text><rect width=".01em" height=".6em" x="12em" y="23.7em" fill="#00f" stroke="#00f"/><rect width=".03em" height=".6em" x="12.01em" y="23.7em" fill="#2828ff" stroke="#2828ff"/><rect width=".04em" height=".6em" x="12.03em" y="23.7em" fill="#5151ff" stroke="#5151ff"/><rect width=".04em" height=".6em" x="12.07em" y="23.7em" fill="#7a7aff" stroke="#7a7aff"/><rect width=".01em" height=".6em" x="12.11em" y="23.7em" fill="#a3a3ff" stroke="#a3a3ff"/><text x="11.5em" y="24.3em" text-anchor="end"><tspan class="size">43 (<tspan fill="#00f">0</tspan>, <tspan fill="#2828ff">0</tspan>, <tspan fill="#5151ff">0</tspan>, <tspan fill="#7a7aff">0</tspan>, <tspan fill="#a3a3ff">0</tspan>%)</tspan></text><text x="12.62em" y="24.3em"><tspan class="size">Julia</tspan></text><rect width=".26em" height=".6em" x="12em" y="24.9em" fill="#777" stroke="#777"/><rect width=".36em" height=".6em" x="12.26em" y="24.9em" fill="#888" stroke="#888"/><rect width=".4em" height=".6em" x="12.63em" y="24.9em" fill="#999" stroke="#999"/><rect width=".25em" height=".6em" x="13.03em" y="24.9em" fill="#aaa" stroke="#aaa"/><rect width=".13em" height=".6em" x="13.28em" y="24.9em" fill="#bbb" stroke="#bbb"/><text x="11.5em" y="25.5em" text-anchor="end"><tspan class="size">507 (<tspan fill="#777">3</tspan>, <tspan fill="#888">4</tspan>, <tspan fill="#999">4</tspan>, <tspan fill="#aaa">2</tspan>, <tspan fill="#bbb">1</tspan>%)</tspan></text><text x="13.91em" y="25.5em"><tspan class="size">Other</tspan></text><rect width=".46em" height=".6em" x="12em" y="26.1em" fill="#fff" stroke="#000"/><text x="11.5em" y="26.7em" text-anchor="end"><tspan class="size">166 (4.6%)</tspan></text><text x="12.96em" y="26.7em"><tspan class="size">No response</tspan></text></svg>