<svg xmlns="http://www.w3.org/2000/svg" width="60em" height="15.2em" version="1.1"><defs><style type="text/css">svg{font-family:&quot;Helvetica Neue&quot;,Arial,sans-serif}tspan.size{font-size:.8em}tspan.head{font-weight:700}</style></defs><text x="0em" y="1.2em" class="head"><tspan class="size">What Go libraries do you need that aren&apos;t available today?</tspan></text><rect width=".58em" height=".6em" x="7.25em" y="2.1em" fill="#00f" stroke="#00f"/><text x="6.75em" y="2.7em" text-anchor="end"><tspan class="size">208 (5.8%)</tspan></text><text x="8.33em" y="2.7em"><tspan class="size">gui</tspan></text><rect width=".4em" height=".6em" x="7.25em" y="3.3em" fill="#00f" stroke="#00f"/><text x="6.75em" y="3.9em" text-anchor="end"><tspan class="size">144 (4.0%)</tspan></text><text x="8.15em" y="3.9em"><tspan class="size">library</tspan></text><rect width=".34em" height=".6em" x="7.25em" y="4.5em" fill="#00f" stroke="#00f"/><text x="6.75em" y="5.1em" text-anchor="end"><tspan class="size">121 (3.4%)</tspan></text><text x="8.09em" y="5.1em"><tspan class="size">libraries</tspan></text><rect width=".18em" height=".6em" x="7.25em" y="5.7em" fill="#00f" stroke="#00f"/><text x="6.75em" y="6.3em" text-anchor="end"><tspan class="size">63 (1.8%)</tspan></text><text x="7.93em" y="6.3em"><tspan class="size">native</tspan></text><rect width=".17em" height=".6em" x="7.25em" y="6.9em" fill="#00f" stroke="#00f"/><text x="6.75em" y="7.5em" text-anchor="end"><tspan class="size">60 (1.7%)</tspan></text><text x="7.92em" y="7.5em"><tspan class="size">ui</tspan></text><rect width=".15em" height=".6em" x="7.25em" y="8.1em" fill="#00f" stroke="#00f"/><text x="6.75em" y="8.7em" text-anchor="end"><tspan class="size">53 (1.5%)</tspan></text><text x="7.9em" y="8.7em"><tspan class="size">good</tspan></text><rect width=".09em" height=".6em" x="7.25em" y="9.3em" fill="#00f" stroke="#00f"/><text x="6.75em" y="9.9em" text-anchor="end"><tspan class="size">33 (0.9%)</tspan></text><text x="7.84em" y="9.9em"><tspan class="size">orm</tspan></text><rect width=".09em" height=".6em" x="7.25em" y="10.5em" fill="#00f" stroke="#00f"/><text x="6.75em" y="11.1em" text-anchor="end"><tspan class="size">33 (0.9%)</tspan></text><text x="7.84em" y="11.1em"><tspan class="size">standard</tspan></text><rect width=".09em" height=".6em" x="7.25em" y="11.7em" fill="#00f" stroke="#00f"/><text x="6.75em" y="12.3em" text-anchor="end"><tspan class="size">33 (0.9%)</tspan></text><text x="7.84em" y="12.3em"><tspan class="size">web</tspan></text><rect width=".09em" height=".6em" x="7.25em" y="12.9em" fill="#00f" stroke="#00f"/><text x="6.75em" y="13.5em" text-anchor="end"><tspan class="size">32 (0.9%)</tspan></text><text x="7.84em" y="13.5em"><tspan class="size">framework</tspan></text><rect width=".09em" height=".6em" x="7.25em" y="14.1em" fill="#00f" stroke="#00f"/><text x="6.75em" y="14.7em" text-anchor="end"><tspan class="size">32 (0.9%)</tspan></text><text x="7.84em" y="14.7em"><tspan class="size">gui library</tspan></text><rect width=".09em" height=".6em" x="22.25em" y="2.1em" fill="#00f" stroke="#00f"/><text x="21.75em" y="2.7em" text-anchor="end"><tspan class="size">31 (0.9%)</tspan></text><text x="22.84em" y="2.7em"><tspan class="size">mobile</tspan></text><rect width=".08em" height=".6em" x="22.25em" y="3.3em" fill="#00f" stroke="#00f"/><text x="21.75em" y="3.9em" text-anchor="end"><tspan class="size">28 (0.8%)</tspan></text><text x="22.83em" y="3.9em"><tspan class="size">android</tspan></text><rect width=".08em" height=".6em" x="22.25em" y="4.5em" fill="#00f" stroke="#00f"/><text x="21.75em" y="5.1em" text-anchor="end"><tspan class="size">28 (0.8%)</tspan></text><text x="22.83em" y="5.1em"><tspan class="size">database</tspan></text><rect width=".08em" height=".6em" x="22.25em" y="5.7em" fill="#00f" stroke="#00f"/><text x="21.75em" y="6.3em" text-anchor="end"><tspan class="size">28 (0.8%)</tspan></text><text x="22.83em" y="6.3em"><tspan class="size">desktop</tspan></text><rect width=".08em" height=".6em" x="22.25em" y="6.9em" fill="#00f" stroke="#00f"/><text x="21.75em" y="7.5em" text-anchor="end"><tspan class="size">28 (0.8%)</tspan></text><text x="22.83em" y="7.5em"><tspan class="size">libs</tspan></text><rect width=".08em" height=".6em" x="22.25em" y="8.1em" fill="#00f" stroke="#00f"/><text x="21.75em" y="8.7em" text-anchor="end"><tspan class="size">28 (0.8%)</tspan></text><text x="22.83em" y="8.7em"><tspan class="size">sql</tspan></text><rect width=".07em" height=".6em" x="22.25em" y="9.3em" fill="#00f" stroke="#00f"/><text x="21.75em" y="9.9em" text-anchor="end"><tspan class="size">26 (0.7%)</tspan></text><text x="22.82em" y="9.9em"><tspan class="size">cross platform</tspan></text><rect width=".07em" height=".6em" x="22.25em" y="10.5em" fill="#00f" stroke="#00f"/><text x="21.75em" y="11.1em" text-anchor="end"><tspan class="size">25 (0.7%)</tspan></text><text x="22.82em" y="11.1em"><tspan class="size">processing</tspan></text><rect width=".07em" height=".6em" x="22.25em" y="11.7em" fill="#00f" stroke="#00f"/><text x="21.75em" y="12.3em" text-anchor="end"><tspan class="size">25 (0.7%)</tspan></text><text x="22.82em" y="12.3em"><tspan class="size">xml</tspan></text><rect width=".07em" height=".6em" x="22.25em" y="12.9em" fill="#00f" stroke="#00f"/><text x="21.75em" y="13.5em" text-anchor="end"><tspan class="size">24 (0.7%)</tspan></text><text x="22.82em" y="13.5em"><tspan class="size">api</tspan></text><rect width=".07em" height=".6em" x="22.25em" y="14.1em" fill="#00f" stroke="#00f"/><text x="21.75em" y="14.7em" text-anchor="end"><tspan class="size">24 (0.7%)</tspan></text><text x="22.82em" y="14.7em"><tspan class="size">machine learning</tspan></text><rect width=".07em" height=".6em" x="37.25em" y="2.1em" fill="#00f" stroke="#00f"/><text x="36.75em" y="2.7em" text-anchor="end"><tspan class="size">24 (0.7%)</tspan></text><text x="37.82em" y="2.7em"><tspan class="size">official</tspan></text><rect width=".07em" height=".6em" x="37.25em" y="3.3em" fill="#00f" stroke="#00f"/><text x="36.75em" y="3.9em" text-anchor="end"><tspan class="size">24 (0.7%)</tspan></text><text x="37.82em" y="3.9em"><tspan class="size">windows</tspan></text><rect width=".06em" height=".6em" x="37.25em" y="4.5em" fill="#00f" stroke="#00f"/><text x="36.75em" y="5.1em" text-anchor="end"><tspan class="size">23 (0.6%)</tspan></text><text x="37.81em" y="5.1em"><tspan class="size">soap</tspan></text><rect width=".06em" height=".6em" x="37.25em" y="5.7em" fill="#00f" stroke="#00f"/><text x="36.75em" y="6.3em" text-anchor="end"><tspan class="size">22 (0.6%)</tspan></text><text x="37.81em" y="6.3em"><tspan class="size">toolkit</tspan></text><rect width=".06em" height=".6em" x="37.25em" y="6.9em" fill="#00f" stroke="#00f"/><text x="36.75em" y="7.5em" text-anchor="end"><tspan class="size">21 (0.6%)</tspan></text><text x="37.81em" y="7.5em"><tspan class="size">pdf</tspan></text><rect width=".06em" height=".6em" x="37.25em" y="8.1em" fill="#00f" stroke="#00f"/><text x="36.75em" y="8.7em" text-anchor="end"><tspan class="size">21 (0.6%)</tspan></text><text x="37.81em" y="8.7em"><tspan class="size">python</tspan></text><rect width=".06em" height=".6em" x="37.25em" y="9.3em" fill="#00f" stroke="#00f"/><text x="36.75em" y="9.9em" text-anchor="end"><tspan class="size">20 (0.6%)</tspan></text><text x="37.81em" y="9.9em"><tspan class="size">bindings</tspan></text><rect width=".06em" height=".6em" x="37.25em" y="10.5em" fill="#00f" stroke="#00f"/><text x="36.75em" y="11.1em" text-anchor="end"><tspan class="size">20 (0.6%)</tspan></text><text x="37.81em" y="11.1em"><tspan class="size">graphics</tspan></text><rect width=".06em" height=".6em" x="37.25em" y="11.7em" fill="#00f" stroke="#00f"/><text x="36.75em" y="12.3em" text-anchor="end"><tspan class="size">20 (0.6%)</tspan></text><text x="37.81em" y="12.3em"><tspan class="size">package</tspan></text><rect width="6.95em" height=".6em" x="37.25em" y="12.9em" fill="#fff" stroke="#000"/><text x="36.75em" y="13.5em" text-anchor="end"><tspan class="size">2,498 (69.5%)</tspan></text><text x="44.7em" y="13.5em"><tspan class="size">No response</tspan></text></svg>