<svg xmlns="http://www.w3.org/2000/svg" width="60em" height="26em" version="1.1"><defs><style type="text/css">svg{font-family:&quot;Helvetica Neue&quot;,Arial,sans-serif}tspan.size{font-size:.8em}tspan.head{font-weight:700}</style></defs><text x="0em" y="1.2em" class="head"><tspan class="size">What do you like most about Go?</tspan></text><rect width="1.66em" height=".6em" x="7.25em" y="2.1em" fill="#00f" stroke="#00f"/><text x="6.75em" y="2.7em" text-anchor="end"><tspan class="size">595 (17%)</tspan></text><text x="9.41em" y="2.7em"><tspan class="size">simplicity</tspan></text><rect width="1.51em" height=".6em" x="7.25em" y="3.3em" fill="#00f" stroke="#00f"/><text x="6.75em" y="3.9em" text-anchor="end"><tspan class="size">543 (15%)</tspan></text><text x="9.26em" y="3.9em"><tspan class="size">easy</tspan></text><rect width="1.45em" height=".6em" x="7.25em" y="4.5em" fill="#00f" stroke="#00f"/><text x="6.75em" y="5.1em" text-anchor="end"><tspan class="size">523 (15%)</tspan></text><text x="9.2em" y="5.1em"><tspan class="size">concurrency</tspan></text><rect width="1.38em" height=".6em" x="7.25em" y="5.7em" fill="#00f" stroke="#00f"/><text x="6.75em" y="6.3em" text-anchor="end"><tspan class="size">495 (14%)</tspan></text><text x="9.13em" y="6.3em"><tspan class="size">simple</tspan></text><rect width="1.26em" height=".6em" x="7.25em" y="6.9em" fill="#00f" stroke="#00f"/><text x="6.75em" y="7.5em" text-anchor="end"><tspan class="size">454 (13%)</tspan></text><text x="9.01em" y="7.5em"><tspan class="size">fast</tspan></text><rect width=".82em" height=".6em" x="7.25em" y="8.1em" fill="#00f" stroke="#00f"/><text x="6.75em" y="8.7em" text-anchor="end"><tspan class="size">293 (8%)</tspan></text><text x="8.57em" y="8.7em"><tspan class="size">syntax</tspan></text><rect width=".8em" height=".6em" x="7.25em" y="9.3em" fill="#00f" stroke="#00f"/><text x="6.75em" y="9.9em" text-anchor="end"><tspan class="size">287 (8%)</tspan></text><text x="8.55em" y="9.9em"><tspan class="size">standard library</tspan></text><rect width=".8em" height=".6em" x="7.25em" y="10.5em" fill="#00f" stroke="#00f"/><text x="6.75em" y="11.1em" text-anchor="end"><tspan class="size">286 (8%)</tspan></text><text x="8.55em" y="11.1em"><tspan class="size">tooling</tspan></text><rect width=".75em" height=".6em" x="7.25em" y="11.7em" fill="#00f" stroke="#00f"/><text x="6.75em" y="12.3em" text-anchor="end"><tspan class="size">270 (8%)</tspan></text><text x="8.5em" y="12.3em"><tspan class="size">static</tspan></text><rect width=".74em" height=".6em" x="7.25em" y="12.9em" fill="#00f" stroke="#00f"/><text x="6.75em" y="13.5em" text-anchor="end"><tspan class="size">266 (7%)</tspan></text><text x="8.49em" y="13.5em"><tspan class="size">performance</tspan></text><rect width=".65em" height=".6em" x="7.25em" y="14.1em" fill="#00f" stroke="#00f"/><text x="6.75em" y="14.7em" text-anchor="end"><tspan class="size">235 (7%)</tspan></text><text x="8.4em" y="14.7em"><tspan class="size">speed</tspan></text><rect width=".56em" height=".6em" x="7.25em" y="15.3em" fill="#00f" stroke="#00f"/><text x="6.75em" y="15.9em" text-anchor="end"><tspan class="size">202 (6%)</tspan></text><text x="8.31em" y="15.9em"><tspan class="size">interfaces</tspan></text><rect width=".51em" height=".6em" x="7.25em" y="16.5em" fill="#00f" stroke="#00f"/><text x="6.75em" y="17.1em" text-anchor="end"><tspan class="size">184 (5%)</tspan></text><text x="8.26em" y="17.1em"><tspan class="size">channels</tspan></text><rect width=".51em" height=".6em" x="7.25em" y="17.7em" fill="#00f" stroke="#00f"/><text x="6.75em" y="18.3em" text-anchor="end"><tspan class="size">183 (5%)</tspan></text><text x="8.26em" y="18.3em"><tspan class="size">community</tspan></text><rect width=".5em" height=".6em" x="7.25em" y="18.9em" fill="#00f" stroke="#00f"/><text x="6.75em" y="19.5em" text-anchor="end"><tspan class="size">180 (5%)</tspan></text><text x="8.25em" y="19.5em"><tspan class="size">good</tspan></text><rect width=".49em" height=".6em" x="7.25em" y="20.1em" fill="#00f" stroke="#00f"/><text x="6.75em" y="20.7em" text-anchor="end"><tspan class="size">177 (5%)</tspan></text><text x="8.24em" y="20.7em"><tspan class="size">compilation</tspan></text><rect width=".49em" height=".6em" x="7.25em" y="21.3em" fill="#00f" stroke="#00f"/><text x="6.75em" y="21.9em" text-anchor="end"><tspan class="size">177 (5%)</tspan></text><text x="8.24em" y="21.9em"><tspan class="size">goroutines</tspan></text><rect width=".46em" height=".6em" x="7.25em" y="22.5em" fill="#00f" stroke="#00f"/><text x="6.75em" y="23.1em" text-anchor="end"><tspan class="size">167 (5%)</tspan></text><text x="8.21em" y="23.1em"><tspan class="size">binary</tspan></text><rect width=".43em" height=".6em" x="7.25em" y="23.7em" fill="#00f" stroke="#00f"/><text x="6.75em" y="24.3em" text-anchor="end"><tspan class="size">156 (4%)</tspan></text><text x="8.18em" y="24.3em"><tspan class="size">great</tspan></text><rect width=".41em" height=".6em" x="7.25em" y="24.9em" fill="#00f" stroke="#00f"/><text x="6.75em" y="25.5em" text-anchor="end"><tspan class="size">148 (4%)</tspan></text><text x="8.16em" y="25.5em"><tspan class="size">tools</tspan></text><rect width=".41em" height=".6em" x="22.25em" y="2.1em" fill="#00f" stroke="#00f"/><text x="21.75em" y="2.7em" text-anchor="end"><tspan class="size">146 (4%)</tspan></text><text x="23.16em" y="2.7em"><tspan class="size">compiled</tspan></text><rect width=".38em" height=".6em" x="22.25em" y="3.3em" fill="#00f" stroke="#00f"/><text x="21.75em" y="3.9em" text-anchor="end"><tspan class="size">137 (4%)</tspan></text><text x="23.13em" y="3.9em"><tspan class="size">compile</tspan></text><rect width=".35em" height=".6em" x="22.25em" y="4.5em" fill="#00f" stroke="#00f"/><text x="21.75em" y="5.1em" text-anchor="end"><tspan class="size">127 (4%)</tspan></text><text x="23.1em" y="5.1em"><tspan class="size">type</tspan></text><rect width=".34em" height=".6em" x="22.25em" y="5.7em" fill="#00f" stroke="#00f"/><text x="21.75em" y="6.3em" text-anchor="end"><tspan class="size">124 (3%)</tspan></text><text x="23.09em" y="6.3em"><tspan class="size">small</tspan></text><rect width=".33em" height=".6em" x="22.25em" y="6.9em" fill="#00f" stroke="#00f"/><text x="21.75em" y="7.5em" text-anchor="end"><tspan class="size">118 (3%)</tspan></text><text x="23.08em" y="7.5em"><tspan class="size">c</tspan></text><rect width=".32em" height=".6em" x="22.25em" y="8.1em" fill="#00f" stroke="#00f"/><text x="21.75em" y="8.7em" text-anchor="end"><tspan class="size">114 (3%)</tspan></text><text x="23.07em" y="8.7em"><tspan class="size">gofmt</tspan></text><rect width=".32em" height=".6em" x="22.25em" y="9.3em" fill="#00f" stroke="#00f"/><text x="21.75em" y="9.9em" text-anchor="end"><tspan class="size">114 (3%)</tspan></text><text x="23.07em" y="9.9em"><tspan class="size">libraries</tspan></text><rect width=".24em" height=".6em" x="22.25em" y="10.5em" fill="#00f" stroke="#00f"/><text x="21.75em" y="11.1em" text-anchor="end"><tspan class="size">88 (2%)</tspan></text><text x="22.99em" y="11.1em"><tspan class="size">clean</tspan></text><rect width=".24em" height=".6em" x="22.25em" y="11.7em" fill="#00f" stroke="#00f"/><text x="21.75em" y="12.3em" text-anchor="end"><tspan class="size">87 (2%)</tspan></text><text x="22.99em" y="12.3em"><tspan class="size">easy to learn</tspan></text><rect width=".23em" height=".6em" x="22.25em" y="12.9em" fill="#00f" stroke="#00f"/><text x="21.75em" y="13.5em" text-anchor="end"><tspan class="size">82 (2%)</tspan></text><text x="22.98em" y="13.5em"><tspan class="size">deployment</tspan></text><rect width=".22em" height=".6em" x="22.25em" y="14.1em" fill="#00f" stroke="#00f"/><text x="21.75em" y="14.7em" text-anchor="end"><tspan class="size">78 (2%)</tspan></text><text x="22.97em" y="14.7em"><tspan class="size">memory</tspan></text><rect width=".22em" height=".6em" x="22.25em" y="15.3em" fill="#00f" stroke="#00f"/><text x="21.75em" y="15.9em" text-anchor="end"><tspan class="size">78 (2%)</tspan></text><text x="22.97em" y="15.9em"><tspan class="size">strong</tspan></text><rect width=".21em" height=".6em" x="22.25em" y="16.5em" fill="#00f" stroke="#00f"/><text x="21.75em" y="17.1em" text-anchor="end"><tspan class="size">76 (2%)</tspan></text><text x="22.96em" y="17.1em"><tspan class="size">concise</tspan></text><rect width=".21em" height=".6em" x="22.25em" y="17.7em" fill="#00f" stroke="#00f"/><text x="21.75em" y="18.3em" text-anchor="end"><tspan class="size">76 (2%)</tspan></text><text x="22.96em" y="18.3em"><tspan class="size">single binary</tspan></text><rect width=".2em" height=".6em" x="22.25em" y="18.9em" fill="#00f" stroke="#00f"/><text x="21.75em" y="19.5em" text-anchor="end"><tspan class="size">73 (2%)</tspan></text><text x="22.95em" y="19.5em"><tspan class="size">low</tspan></text><rect width=".2em" height=".6em" x="22.25em" y="20.1em" fill="#00f" stroke="#00f"/><text x="21.75em" y="20.7em" text-anchor="end"><tspan class="size">73 (2%)</tspan></text><text x="22.95em" y="20.7em"><tspan class="size">static typing</tspan></text><rect width=".2em" height=".6em" x="22.25em" y="21.3em" fill="#00f" stroke="#00f"/><text x="21.75em" y="21.9em" text-anchor="end"><tspan class="size">71 (2%)</tspan></text><text x="22.95em" y="21.9em"><tspan class="size">build</tspan></text><rect width=".19em" height=".6em" x="22.25em" y="22.5em" fill="#00f" stroke="#00f"/><text x="21.75em" y="23.1em" text-anchor="end"><tspan class="size">68 (2%)</tspan></text><text x="22.94em" y="23.1em"><tspan class="size">easy to read</tspan></text><rect width=".18em" height=".6em" x="22.25em" y="23.7em" fill="#00f" stroke="#00f"/><text x="21.75em" y="24.3em" text-anchor="end"><tspan class="size">63 (2%)</tspan></text><text x="22.93em" y="24.3em"><tspan class="size">fast compilation</tspan></text><rect width=".16em" height=".6em" x="22.25em" y="24.9em" fill="#00f" stroke="#00f"/><text x="21.75em" y="25.5em" text-anchor="end"><tspan class="size">56 (2%)</tspan></text><text x="22.91em" y="25.5em"><tspan class="size">simple syntax</tspan></text><rect width=".15em" height=".6em" x="37.25em" y="2.1em" fill="#00f" stroke="#00f"/><text x="36.75em" y="2.7em" text-anchor="end"><tspan class="size">55 (2%)</tspan></text><text x="37.9em" y="2.7em"><tspan class="size">type system</tspan></text><rect width=".15em" height=".6em" x="37.25em" y="3.3em" fill="#00f" stroke="#00f"/><text x="36.75em" y="3.9em" text-anchor="end"><tspan class="size">54 (2%)</tspan></text><text x="37.9em" y="3.9em"><tspan class="size">simple language</tspan></text><rect width=".14em" height=".6em" x="37.25em" y="4.5em" fill="#00f" stroke="#00f"/><text x="36.75em" y="5.1em" text-anchor="end"><tspan class="size">51 (1%)</tspan></text><text x="37.89em" y="5.1em"><tspan class="size">easy concurrency</tspan></text><rect width=".13em" height=".6em" x="37.25em" y="5.7em" fill="#00f" stroke="#00f"/><text x="36.75em" y="6.3em" text-anchor="end"><tspan class="size">47 (1%)</tspan></text><text x="37.88em" y="6.3em"><tspan class="size">static binaries</tspan></text><rect width=".13em" height=".6em" x="37.25em" y="6.9em" fill="#00f" stroke="#00f"/><text x="36.75em" y="7.5em" text-anchor="end"><tspan class="size">46 (1%)</tspan></text><text x="37.88em" y="7.5em"><tspan class="size">go fmt</tspan></text><rect width=".13em" height=".6em" x="37.25em" y="8.1em" fill="#00f" stroke="#00f"/><text x="36.75em" y="8.7em" text-anchor="end"><tspan class="size">45 (1%)</tspan></text><text x="37.88em" y="8.7em"><tspan class="size">fast compile</tspan></text><rect width=".12em" height=".6em" x="37.25em" y="9.3em" fill="#00f" stroke="#00f"/><text x="36.75em" y="9.9em" text-anchor="end"><tspan class="size">43 (1%)</tspan></text><text x="37.87em" y="9.9em"><tspan class="size">small language</tspan></text><rect width=".11em" height=".6em" x="37.25em" y="10.5em" fill="#00f" stroke="#00f"/><text x="36.75em" y="11.1em" text-anchor="end"><tspan class="size">41 (1%)</tspan></text><text x="37.86em" y="11.1em"><tspan class="size">error handling</tspan></text><rect width=".11em" height=".6em" x="37.25em" y="11.7em" fill="#00f" stroke="#00f"/><text x="36.75em" y="12.3em" text-anchor="end"><tspan class="size">39 (1%)</tspan></text><text x="37.86em" y="12.3em"><tspan class="size">concurrency model</tspan></text><rect width=".11em" height=".6em" x="37.25em" y="12.9em" fill="#00f" stroke="#00f"/><text x="36.75em" y="13.5em" text-anchor="end"><tspan class="size">39 (1%)</tspan></text><text x="37.86em" y="13.5em"><tspan class="size">go routines</tspan></text><rect width=".11em" height=".6em" x="37.25em" y="14.1em" fill="#00f" stroke="#00f"/><text x="36.75em" y="14.7em" text-anchor="end"><tspan class="size">38 (1%)</tspan></text><text x="37.86em" y="14.7em"><tspan class="size">easy to use</tspan></text><rect width=".11em" height=".6em" x="37.25em" y="15.3em" fill="#00f" stroke="#00f"/><text x="36.75em" y="15.9em" text-anchor="end"><tspan class="size">38 (1%)</tspan></text><text x="37.86em" y="15.9em"><tspan class="size">statically typed</tspan></text><rect width=".1em" height=".6em" x="37.25em" y="16.5em" fill="#00f" stroke="#00f"/><text x="36.75em" y="17.1em" text-anchor="end"><tspan class="size">36 (1%)</tspan></text><text x="37.85em" y="17.1em"><tspan class="size">cross platform</tspan></text><rect width=".1em" height=".6em" x="37.25em" y="17.7em" fill="#00f" stroke="#00f"/><text x="36.75em" y="18.3em" text-anchor="end"><tspan class="size">35 (1%)</tspan></text><text x="37.85em" y="18.3em"><tspan class="size">concurrency primitives</tspan></text><rect width=".1em" height=".6em" x="37.25em" y="18.9em" fill="#00f" stroke="#00f"/><text x="36.75em" y="19.5em" text-anchor="end"><tspan class="size">35 (1%)</tspan></text><text x="37.85em" y="19.5em"><tspan class="size">goroutines channels</tspan></text><rect width=".09em" height=".6em" x="37.25em" y="20.1em" fill="#00f" stroke="#00f"/><text x="36.75em" y="20.7em" text-anchor="end"><tspan class="size">33 (1%)</tspan></text><text x="37.84em" y="20.7em"><tspan class="size">easy to write</tspan></text><rect width=".08em" height=".6em" x="37.25em" y="21.3em" fill="#00f" stroke="#00f"/><text x="36.75em" y="21.9em" text-anchor="end"><tspan class="size">27 (1%)</tspan></text><text x="37.83em" y="21.9em"><tspan class="size">great standard library</tspan></text><rect width=".06em" height=".6em" x="37.25em" y="22.5em" fill="#00f" stroke="#00f"/><text x="36.75em" y="23.1em" text-anchor="end"><tspan class="size">23 (1%)</tspan></text><text x="37.81em" y="23.1em"><tspan class="size">ease of use</tspan></text><rect width="2.61em" height=".6em" x="37.25em" y="23.7em" fill="#fff" stroke="#000"/><text x="36.75em" y="24.3em" text-anchor="end"><tspan class="size">940 (26%)</tspan></text><text x="40.36em" y="24.3em"><tspan class="size">No response</tspan></text></svg>