<svg xmlns="http://www.w3.org/2000/svg" width="60em" height="22.4em" version="1.1"><defs><style type="text/css">svg{font-family:&quot;Helvetica Neue&quot;,Arial,sans-serif}tspan.size{font-size:.8em}tspan.head{font-weight:700}tspan.paren{font-weight:400!important}</style></defs><text x="0em" y="1.2em" class="head"><tspan class="size">Rank the following in terms of where you get Go news from: <tspan class="paren">(ordered choice, up to 5)</tspan></tspan></text><rect width="1.75em" height=".6em" x="12em" y="2.1em" fill="#00f" stroke="#00f"/><rect width="1.38em" height=".6em" x="13.75em" y="2.1em" fill="#2828ff" stroke="#2828ff"/><rect width=".85em" height=".6em" x="15.12em" y="2.1em" fill="#5151ff" stroke="#5151ff"/><rect width=".43em" height=".6em" x="15.98em" y="2.1em" fill="#7a7aff" stroke="#7a7aff"/><rect width=".21em" height=".6em" x="16.41em" y="2.1em" fill="#a3a3ff" stroke="#a3a3ff"/><text x="11.5em" y="2.7em" text-anchor="end"><tspan class="size">1,659 (<tspan fill="#00f">17</tspan>, <tspan fill="#2828ff">14</tspan>, <tspan fill="#5151ff">9</tspan>, <tspan fill="#7a7aff">4</tspan>, <tspan fill="#a3a3ff">2</tspan>%)</tspan></text><text x="17.11em" y="2.7em"><tspan class="size">blog.Golang.org</tspan></text><rect width="1.71em" height=".6em" x="12em" y="3.3em" fill="#00f" stroke="#00f"/><rect width=".8em" height=".6em" x="13.71em" y="3.3em" fill="#2828ff" stroke="#2828ff"/><rect width=".41em" height=".6em" x="14.51em" y="3.3em" fill="#5151ff" stroke="#5151ff"/><rect width=".2em" height=".6em" x="14.92em" y="3.3em" fill="#7a7aff" stroke="#7a7aff"/><rect width=".09em" height=".6em" x="15.12em" y="3.3em" fill="#a3a3ff" stroke="#a3a3ff"/><text x="11.5em" y="3.9em" text-anchor="end"><tspan class="size">1,153 (<tspan fill="#00f">17</tspan>, <tspan fill="#2828ff">8</tspan>, <tspan fill="#5151ff">4</tspan>, <tspan fill="#7a7aff">2</tspan>, <tspan fill="#a3a3ff">1</tspan>%)</tspan></text><text x="15.71em" y="3.9em"><tspan class="size">Reddit (r/golang)</tspan></text><rect width="1.36em" height=".6em" x="12em" y="4.5em" fill="#00f" stroke="#00f"/><rect width=".78em" height=".6em" x="13.36em" y="4.5em" fill="#2828ff" stroke="#2828ff"/><rect width=".38em" height=".6em" x="14.14em" y="4.5em" fill="#5151ff" stroke="#5151ff"/><rect width=".28em" height=".6em" x="14.51em" y="4.5em" fill="#7a7aff" stroke="#7a7aff"/><rect width=".13em" height=".6em" x="14.8em" y="4.5em" fill="#a3a3ff" stroke="#a3a3ff"/><text x="11.5em" y="5.1em" text-anchor="end"><tspan class="size">1,053 (<tspan fill="#00f">14</tspan>, <tspan fill="#2828ff">8</tspan>, <tspan fill="#5151ff">4</tspan>, <tspan fill="#7a7aff">3</tspan>, <tspan fill="#a3a3ff">1</tspan>%)</tspan></text><text x="15.43em" y="5.1em"><tspan class="size">Twitter</tspan></text><rect width=".62em" height=".6em" x="12em" y="5.7em" fill="#00f" stroke="#00f"/><rect width=".81em" height=".6em" x="12.62em" y="5.7em" fill="#2828ff" stroke="#2828ff"/><rect width=".61em" height=".6em" x="13.43em" y="5.7em" fill="#5151ff" stroke="#5151ff"/><rect width=".33em" height=".6em" x="14.04em" y="5.7em" fill="#7a7aff" stroke="#7a7aff"/><rect width=".15em" height=".6em" x="14.36em" y="5.7em" fill="#a3a3ff" stroke="#a3a3ff"/><text x="11.5em" y="6.3em" text-anchor="end"><tspan class="size">903 (<tspan fill="#00f">6</tspan>, <tspan fill="#2828ff">8</tspan>, <tspan fill="#5151ff">6</tspan>, <tspan fill="#7a7aff">3</tspan>, <tspan fill="#a3a3ff">1</tspan>%)</tspan></text><text x="15.01em" y="6.3em"><tspan class="size">Hacker News</tspan></text><rect width=".9em" height=".6em" x="12em" y="6.9em" fill="#00f" stroke="#00f"/><rect width=".61em" height=".6em" x="12.9em" y="6.9em" fill="#2828ff" stroke="#2828ff"/><rect width=".43em" height=".6em" x="13.51em" y="6.9em" fill="#5151ff" stroke="#5151ff"/><rect width=".17em" height=".6em" x="13.94em" y="6.9em" fill="#7a7aff" stroke="#7a7aff"/><rect width=".04em" height=".6em" x="14.12em" y="6.9em" fill="#a3a3ff" stroke="#a3a3ff"/><text x="11.5em" y="7.5em" text-anchor="end"><tspan class="size">777 (<tspan fill="#00f">9</tspan>, <tspan fill="#2828ff">6</tspan>, <tspan fill="#5151ff">4</tspan>, <tspan fill="#7a7aff">2</tspan>, <tspan fill="#a3a3ff">0</tspan>%)</tspan></text><text x="14.66em" y="7.5em"><tspan class="size">Golangweekly.com</tspan></text><rect width=".2em" height=".6em" x="12em" y="8.1em" fill="#00f" stroke="#00f"/><rect width=".59em" height=".6em" x="12.2em" y="8.1em" fill="#2828ff" stroke="#2828ff"/><rect width=".48em" height=".6em" x="12.79em" y="8.1em" fill="#5151ff" stroke="#5151ff"/><rect width=".35em" height=".6em" x="13.27em" y="8.1em" fill="#7a7aff" stroke="#7a7aff"/><rect width=".13em" height=".6em" x="13.63em" y="8.1em" fill="#a3a3ff" stroke="#a3a3ff"/><text x="11.5em" y="8.7em" text-anchor="end"><tspan class="size">633 (<tspan fill="#00f">2</tspan>, <tspan fill="#2828ff">6</tspan>, <tspan fill="#5151ff">5</tspan>, <tspan fill="#7a7aff">4</tspan>, <tspan fill="#a3a3ff">1</tspan>%)</tspan></text><text x="14.26em" y="8.7em"><tspan class="size">Community Blogs</tspan></text><rect width=".18em" height=".6em" x="12em" y="9.3em" fill="#00f" stroke="#00f"/><rect width=".31em" height=".6em" x="12.18em" y="9.3em" fill="#2828ff" stroke="#2828ff"/><rect width=".36em" height=".6em" x="12.49em" y="9.3em" fill="#5151ff" stroke="#5151ff"/><rect width=".21em" height=".6em" x="12.85em" y="9.3em" fill="#7a7aff" stroke="#7a7aff"/><rect width=".14em" height=".6em" x="13.06em" y="9.3em" fill="#a3a3ff" stroke="#a3a3ff"/><text x="11.5em" y="9.9em" text-anchor="end"><tspan class="size">430 (<tspan fill="#00f">2</tspan>, <tspan fill="#2828ff">3</tspan>, <tspan fill="#5151ff">4</tspan>, <tspan fill="#7a7aff">2</tspan>, <tspan fill="#a3a3ff">1</tspan>%)</tspan></text><text x="13.7em" y="9.9em"><tspan class="size">GitHub</tspan></text><rect width=".29em" height=".6em" x="12em" y="10.5em" fill="#00f" stroke="#00f"/><rect width=".32em" height=".6em" x="12.29em" y="10.5em" fill="#2828ff" stroke="#2828ff"/><rect width=".3em" height=".6em" x="12.6em" y="10.5em" fill="#5151ff" stroke="#5151ff"/><rect width=".17em" height=".6em" x="12.9em" y="10.5em" fill="#7a7aff" stroke="#7a7aff"/><rect width=".09em" height=".6em" x="13.07em" y="10.5em" fill="#a3a3ff" stroke="#a3a3ff"/><text x="11.5em" y="11.1em" text-anchor="end"><tspan class="size">418 (<tspan fill="#00f">3</tspan>, <tspan fill="#2828ff">3</tspan>, <tspan fill="#5151ff">3</tspan>, <tspan fill="#7a7aff">2</tspan>, <tspan fill="#a3a3ff">1</tspan>%)</tspan></text><text x="13.66em" y="11.1em"><tspan class="size">golang-nuts mailing list (groups.google.com/d/forum/golang-nuts)</tspan></text><rect width=".32em" height=".6em" x="12em" y="11.7em" fill="#00f" stroke="#00f"/><rect width=".31em" height=".6em" x="12.32em" y="11.7em" fill="#2828ff" stroke="#2828ff"/><rect width=".29em" height=".6em" x="12.63em" y="11.7em" fill="#5151ff" stroke="#5151ff"/><rect width=".1em" height=".6em" x="12.92em" y="11.7em" fill="#7a7aff" stroke="#7a7aff"/><rect width=".08em" height=".6em" x="13.02em" y="11.7em" fill="#a3a3ff" stroke="#a3a3ff"/><text x="11.5em" y="12.3em" text-anchor="end"><tspan class="size">394 (<tspan fill="#00f">3</tspan>, <tspan fill="#2828ff">3</tspan>, <tspan fill="#5151ff">3</tspan>, <tspan fill="#7a7aff">1</tspan>, <tspan fill="#a3a3ff">1</tspan>%)</tspan></text><text x="13.6em" y="12.3em"><tspan class="size">Coworkers</tspan></text><rect width=".09em" height=".6em" x="12em" y="12.9em" fill="#00f" stroke="#00f"/><rect width=".13em" height=".6em" x="12.09em" y="12.9em" fill="#2828ff" stroke="#2828ff"/><rect width=".18em" height=".6em" x="12.22em" y="12.9em" fill="#5151ff" stroke="#5151ff"/><rect width=".12em" height=".6em" x="12.4em" y="12.9em" fill="#7a7aff" stroke="#7a7aff"/><rect width=".07em" height=".6em" x="12.52em" y="12.9em" fill="#a3a3ff" stroke="#a3a3ff"/><text x="11.5em" y="13.5em" text-anchor="end"><tspan class="size">212 (<tspan fill="#00f">1</tspan>, <tspan fill="#2828ff">1</tspan>, <tspan fill="#5151ff">2</tspan>, <tspan fill="#7a7aff">1</tspan>, <tspan fill="#a3a3ff">1</tspan>%)</tspan></text><text x="13.09em" y="13.5em"><tspan class="size">Gopher Slack (invite.slack.golangbridge.org)</tspan></text><rect width=".12em" height=".6em" x="12em" y="14.1em" fill="#00f" stroke="#00f"/><rect width=".17em" height=".6em" x="12.12em" y="14.1em" fill="#2828ff" stroke="#2828ff"/><rect width=".13em" height=".6em" x="12.29em" y="14.1em" fill="#5151ff" stroke="#5151ff"/><rect width=".09em" height=".6em" x="12.41em" y="14.1em" fill="#7a7aff" stroke="#7a7aff"/><rect width=".06em" height=".6em" x="12.51em" y="14.1em" fill="#a3a3ff" stroke="#a3a3ff"/><text x="11.5em" y="14.7em" text-anchor="end"><tspan class="size">203 (<tspan fill="#00f">1</tspan>, <tspan fill="#2828ff">2</tspan>, <tspan fill="#5151ff">1</tspan>, <tspan fill="#7a7aff">1</tspan>, <tspan fill="#a3a3ff">1</tspan>%)</tspan></text><text x="13.06em" y="14.7em"><tspan class="size">Golangnews.com</tspan></text><rect width=".11em" height=".6em" x="12em" y="15.3em" fill="#00f" stroke="#00f"/><rect width=".18em" height=".6em" x="12.11em" y="15.3em" fill="#2828ff" stroke="#2828ff"/><rect width=".14em" height=".6em" x="12.28em" y="15.3em" fill="#5151ff" stroke="#5151ff"/><rect width=".07em" height=".6em" x="12.43em" y="15.3em" fill="#7a7aff" stroke="#7a7aff"/><rect width=".06em" height=".6em" x="12.5em" y="15.3em" fill="#a3a3ff" stroke="#a3a3ff"/><text x="11.5em" y="15.9em" text-anchor="end"><tspan class="size">199 (<tspan fill="#00f">1</tspan>, <tspan fill="#2828ff">2</tspan>, <tspan fill="#5151ff">1</tspan>, <tspan fill="#7a7aff">1</tspan>, <tspan fill="#a3a3ff">1</tspan>%)</tspan></text><text x="13.05em" y="15.9em"><tspan class="size">golang-announce (groups.google.com/d/forum/golang-announce)</tspan></text><rect width=".11em" height=".6em" x="12em" y="16.5em" fill="#00f" stroke="#00f"/><rect width=".11em" height=".6em" x="12.11em" y="16.5em" fill="#2828ff" stroke="#2828ff"/><rect width=".13em" height=".6em" x="12.22em" y="16.5em" fill="#5151ff" stroke="#5151ff"/><rect width=".08em" height=".6em" x="12.35em" y="16.5em" fill="#7a7aff" stroke="#7a7aff"/><rect width=".06em" height=".6em" x="12.43em" y="16.5em" fill="#a3a3ff" stroke="#a3a3ff"/><text x="11.5em" y="17.1em" text-anchor="end"><tspan class="size">176 (<tspan fill="#00f">1</tspan>, <tspan fill="#2828ff">1</tspan>, <tspan fill="#5151ff">1</tspan>, <tspan fill="#7a7aff">1</tspan>, <tspan fill="#a3a3ff">1</tspan>%)</tspan></text><text x="12.99em" y="17.1em"><tspan class="size">Go Time podcast</tspan></text><rect width=".02em" height=".6em" x="12em" y="17.7em" fill="#00f" stroke="#00f"/><rect width=".04em" height=".6em" x="12.02em" y="17.7em" fill="#2828ff" stroke="#2828ff"/><rect width=".04em" height=".6em" x="12.06em" y="17.7em" fill="#5151ff" stroke="#5151ff"/><rect width=".05em" height=".6em" x="12.1em" y="17.7em" fill="#7a7aff" stroke="#7a7aff"/><rect width=".03em" height=".6em" x="12.15em" y="17.7em" fill="#a3a3ff" stroke="#a3a3ff"/><text x="11.5em" y="18.3em" text-anchor="end"><tspan class="size">65 (<tspan fill="#00f">0</tspan>, <tspan fill="#2828ff">0</tspan>, <tspan fill="#5151ff">0</tspan>, <tspan fill="#7a7aff">1</tspan>, <tspan fill="#a3a3ff">0</tspan>%)</tspan></text><text x="12.68em" y="18.3em"><tspan class="size">Go Forum (forum.golangbridge.org)</tspan></text><rect width=".02em" height=".6em" x="12em" y="18.9em" fill="#00f" stroke="#00f"/><rect width=".02em" height=".6em" x="12.02em" y="18.9em" fill="#2828ff" stroke="#2828ff"/><rect width=".04em" height=".6em" x="12.04em" y="18.9em" fill="#5151ff" stroke="#5151ff"/><rect width=".02em" height=".6em" x="12.08em" y="18.9em" fill="#7a7aff" stroke="#7a7aff"/><rect width=".01em" height=".6em" x="12.11em" y="18.9em" fill="#a3a3ff" stroke="#a3a3ff"/><text x="11.5em" y="19.5em" text-anchor="end"><tspan class="size">42 (<tspan fill="#00f">0</tspan>, <tspan fill="#2828ff">0</tspan>, <tspan fill="#5151ff">0</tspan>, <tspan fill="#7a7aff">0</tspan>, <tspan fill="#a3a3ff">0</tspan>%)</tspan></text><text x="12.62em" y="19.5em"><tspan class="size">Facebook</tspan></text><rect width=".15em" height=".6em" x="12em" y="20.1em" fill="#777" stroke="#777"/><rect width=".13em" height=".6em" x="12.15em" y="20.1em" fill="#888" stroke="#888"/><rect width=".11em" height=".6em" x="12.28em" y="20.1em" fill="#999" stroke="#999"/><rect width=".04em" height=".6em" x="12.38em" y="20.1em" fill="#aaa" stroke="#aaa"/><rect width=".02em" height=".6em" x="12.42em" y="20.1em" fill="#bbb" stroke="#bbb"/><text x="11.5em" y="20.7em" text-anchor="end"><tspan class="size">160 (<tspan fill="#777">1</tspan>, <tspan fill="#888">1</tspan>, <tspan fill="#999">1</tspan>, <tspan fill="#aaa">0</tspan>, <tspan fill="#bbb">0</tspan>%)</tspan></text><text x="12.95em" y="20.7em"><tspan class="size">Other</tspan></text><rect width="2.08em" height=".6em" x="12em" y="21.3em" fill="#fff" stroke="#000"/><text x="11.5em" y="21.9em" text-anchor="end"><tspan class="size">747 (21%)</tspan></text><text x="14.58em" y="21.9em"><tspan class="size">No response</tspan></text></svg>