<svg xmlns="http://www.w3.org/2000/svg" width="60em" height="8em" version="1.1"><defs><style type="text/css">svg{font-family:&quot;Helvetica Neue&quot;,Arial,sans-serif}tspan.size{font-size:.8em}tspan.head{font-weight:700}</style></defs><text x="0em" y="1.2em" class="head"><tspan class="size">To what extent do you agree or disagree with the following statements:</tspan></text><text x="0em" y="2.4em"><tspan class="size">(<tspan fill="red">strongly disagree</tspan>, <tspan fill="#f44">disagree</tspan>, <tspan fill="#f88">somewhat disagree</tspan>, <tspan fill="#ccc">neutral</tspan>, <tspan fill="#88f">somewhat agree</tspan>, <tspan fill="#44f">agree</tspan>, <tspan fill="#00f">strongly agree</tspan>)</tspan></text><rect width=".24em" height=".6em" x="12em" y="3.3em" fill="red" stroke="red"/><rect width=".08em" height=".6em" x="12.24em" y="3.3em" fill="#f44" stroke="#f44"/><rect width=".11em" height=".6em" x="12.33em" y="3.3em" fill="#f88" stroke="#f88"/><rect width=".23em" height=".6em" x="12.43em" y="3.3em" fill="#ccc" stroke="#ccc"/><rect width=".54em" height=".6em" x="12.67em" y="3.3em" fill="#88f" stroke="#88f"/><rect width="2.11em" height=".6em" x="13.21em" y="3.3em" fill="#44f" stroke="#44f"/><rect width="5.72em" height=".6em" x="15.32em" y="3.3em" fill="#00f" stroke="#00f"/><text x="11.5em" y="3.9em" text-anchor="end"><tspan class="size">3,250 (<tspan fill="red">2</tspan>, <tspan fill="#f44">1</tspan>, <tspan fill="#f88">1</tspan>, <tspan fill="#ccc">2</tspan>, <tspan fill="#88f">5</tspan>, <tspan fill="#44f">21</tspan>, <tspan fill="#00f">57</tspan>%)</tspan></text><text x="21.54em" y="3.9em"><tspan class="size">I would recommend using Go to others (19:1)</tspan></text><rect width=".28em" height=".6em" x="12em" y="4.5em" fill="red" stroke="red"/><rect width=".13em" height=".6em" x="12.28em" y="4.5em" fill="#f44" stroke="#f44"/><rect width=".16em" height=".6em" x="12.42em" y="4.5em" fill="#f88" stroke="#f88"/><rect width=".4em" height=".6em" x="12.58em" y="4.5em" fill="#ccc" stroke="#ccc"/><rect width=".81em" height=".6em" x="12.98em" y="4.5em" fill="#88f" stroke="#88f"/><rect width="1.94em" height=".6em" x="13.79em" y="4.5em" fill="#44f" stroke="#44f"/><rect width="5.23em" height=".6em" x="15.73em" y="4.5em" fill="#00f" stroke="#00f"/><text x="11.5em" y="5.1em" text-anchor="end"><tspan class="size">3,219 (<tspan fill="red">3</tspan>, <tspan fill="#f44">1</tspan>, <tspan fill="#f88">2</tspan>, <tspan fill="#ccc">4</tspan>, <tspan fill="#88f">8</tspan>, <tspan fill="#44f">19</tspan>, <tspan fill="#00f">52</tspan>%)</tspan></text><text x="21.45em" y="5.1em"><tspan class="size">I would prefer to use Go for my next new project (14:1)</tspan></text><rect width=".06em" height=".6em" x="12em" y="5.7em" fill="red" stroke="red"/><rect width=".1em" height=".6em" x="12.06em" y="5.7em" fill="#f44" stroke="#f44"/><rect width=".14em" height=".6em" x="12.16em" y="5.7em" fill="#f88" stroke="#f88"/><rect width=".67em" height=".6em" x="12.3em" y="5.7em" fill="#ccc" stroke="#ccc"/><rect width=".78em" height=".6em" x="12.97em" y="5.7em" fill="#88f" stroke="#88f"/><rect width="2.51em" height=".6em" x="13.76em" y="5.7em" fill="#44f" stroke="#44f"/><rect width="2.21em" height=".6em" x="16.26em" y="5.7em" fill="#00f" stroke="#00f"/><text x="11.5em" y="6.3em" text-anchor="end"><tspan class="size">2,325 (<tspan fill="red">1</tspan>, <tspan fill="#f44">1</tspan>, <tspan fill="#f88">1</tspan>, <tspan fill="#ccc">7</tspan>, <tspan fill="#88f">8</tspan>, <tspan fill="#44f">25</tspan>, <tspan fill="#00f">22</tspan>%)</tspan></text><text x="18.97em" y="6.3em"><tspan class="size">Go is working well for my team. (18:1)</tspan></text><rect width=".44em" height=".6em" x="12em" y="6.9em" fill="red" stroke="red"/><rect width=".68em" height=".6em" x="12.44em" y="6.9em" fill="#f44" stroke="#f44"/><rect width=".31em" height=".6em" x="13.12em" y="6.9em" fill="#f88" stroke="#f88"/><rect width="1.45em" height=".6em" x="13.44em" y="6.9em" fill="#ccc" stroke="#ccc"/><rect width="1.16em" height=".6em" x="14.88em" y="6.9em" fill="#88f" stroke="#88f"/><rect width="1.24em" height=".6em" x="16.04em" y="6.9em" fill="#44f" stroke="#44f"/><rect width="1.22em" height=".6em" x="17.28em" y="6.9em" fill="#00f" stroke="#00f"/><text x="11.5em" y="7.5em" text-anchor="end"><tspan class="size">2,336 (<tspan fill="red">4</tspan>, <tspan fill="#f44">7</tspan>, <tspan fill="#f88">3</tspan>, <tspan fill="#ccc">14</tspan>, <tspan fill="#88f">12</tspan>, <tspan fill="#44f">12</tspan>, <tspan fill="#00f">12</tspan>%)</tspan></text><text x="19em" y="7.5em"><tspan class="size">Go is critical to my company&apos;s success. (2.5:1)</tspan></text></svg>