<svg xmlns="http://www.w3.org/2000/svg" width="60em" height="14em" version="1.1"><defs><style type="text/css">svg{font-family:&quot;Helvetica Neue&quot;,Arial,sans-serif}tspan.size{font-size:.8em}tspan.head{font-weight:700}tspan.paren{font-weight:400!important}</style></defs><text x="0em" y="1.2em" class="head"><tspan class="size">I write the following in Go: <tspan class="paren">(multiple choice)</tspan></tspan></text><rect width="6.25em" height=".6em" x="7.25em" y="2.1em" fill="#00f" stroke="#00f"/><text x="6.75em" y="2.7em" text-anchor="end"><tspan class="size">2,247 (63%)</tspan></text><text x="14em" y="2.7em"><tspan class="size">A runnable/interactive program (CLI)</tspan></text><rect width="6.05em" height=".6em" x="7.25em" y="3.3em" fill="#00f" stroke="#00f"/><text x="6.75em" y="3.9em" text-anchor="end"><tspan class="size">2,174 (60%)</tspan></text><text x="13.8em" y="3.9em"><tspan class="size">API/RPC services (returning non-HTML)</tspan></text><rect width="5.25em" height=".6em" x="7.25em" y="4.5em" fill="#00f" stroke="#00f"/><text x="6.75em" y="5.1em" text-anchor="end"><tspan class="size">1,886 (52%)</tspan></text><text x="13em" y="5.1em"><tspan class="size">Web services (returning HTML)</tspan></text><rect width="4.4em" height=".6em" x="7.25em" y="5.7em" fill="#00f" stroke="#00f"/><text x="6.75em" y="6.3em" text-anchor="end"><tspan class="size">1,583 (44%)</tspan></text><text x="12.15em" y="6.3em"><tspan class="size">Agents and daemons (e.g, monitoring)</tspan></text><rect width="3.94em" height=".6em" x="7.25em" y="6.9em" fill="#00f" stroke="#00f"/><text x="6.75em" y="7.5em" text-anchor="end"><tspan class="size">1,417 (39%)</tspan></text><text x="11.69em" y="7.5em"><tspan class="size">Libraries or Frameworks</tspan></text><rect width="3.36em" height=".6em" x="7.25em" y="8.1em" fill="#00f" stroke="#00f"/><text x="6.75em" y="8.7em" text-anchor="end"><tspan class="size">1,209 (34%)</tspan></text><text x="11.11em" y="8.7em"><tspan class="size">Data processing (pipeline, aggregation)</tspan></text><rect width="3.12em" height=".6em" x="7.25em" y="9.3em" fill="#00f" stroke="#00f"/><text x="6.75em" y="9.9em" text-anchor="end"><tspan class="size">1,120 (31%)</tspan></text><text x="10.87em" y="9.9em"><tspan class="size">Automation/scripts (e.g, deployment, configuration management)</tspan></text><rect width=".3em" height=".6em" x="7.25em" y="10.5em" fill="#00f" stroke="#00f"/><text x="6.75em" y="11.1em" text-anchor="end"><tspan class="size">107 (3%)</tspan></text><text x="8.05em" y="11.1em"><tspan class="size">I don&apos;t write in Go</tspan></text><rect width=".38em" height=".6em" x="7.25em" y="11.7em" fill="#777" stroke="#777"/><text x="6.75em" y="12.3em" text-anchor="end"><tspan class="size">137 (4%)</tspan></text><text x="8.13em" y="12.3em"><tspan class="size">Other</tspan></text><rect width=".13em" height=".6em" x="7.25em" y="12.9em" fill="#fff" stroke="#000"/><text x="6.75em" y="13.5em" text-anchor="end"><tspan class="size">45 (1%)</tspan></text><text x="7.88em" y="13.5em"><tspan class="size">No response</tspan></text></svg>