<svg xmlns="http://www.w3.org/2000/svg" width="60em" height="17.6em" version="1.1"><defs><style type="text/css">svg{font-family:&quot;Helvetica Neue&quot;,Arial,sans-serif}tspan.size{font-size:.8em}tspan.head{font-weight:700}</style></defs><text x="0em" y="1.2em" class="head"><tspan class="size">What changes would make the Go community more welcoming?</tspan></text><rect width=".32em" height=".6em" x="7.25em" y="2.1em" fill="#00f" stroke="#00f"/><text x="6.75em" y="2.7em" text-anchor="end"><tspan class="size">115 (3.2%)</tspan></text><text x="8.07em" y="2.7em"><tspan class="size">community</tspan></text><rect width=".14em" height=".6em" x="7.25em" y="3.3em" fill="#00f" stroke="#00f"/><text x="6.75em" y="3.9em" text-anchor="end"><tspan class="size">52 (1.4%)</tspan></text><text x="7.89em" y="3.9em"><tspan class="size">people</tspan></text><rect width=".09em" height=".6em" x="7.25em" y="4.5em" fill="#00f" stroke="#00f"/><text x="6.75em" y="5.1em" text-anchor="end"><tspan class="size">32 (0.9%)</tspan></text><text x="7.84em" y="5.1em"><tspan class="size">r/golang</tspan></text><rect width=".09em" height=".6em" x="7.25em" y="5.7em" fill="#00f" stroke="#00f"/><text x="6.75em" y="6.3em" text-anchor="end"><tspan class="size">31 (0.9%)</tspan></text><text x="7.84em" y="6.3em"><tspan class="size">go community</tspan></text><rect width=".08em" height=".6em" x="7.25em" y="6.9em" fill="#00f" stroke="#00f"/><text x="6.75em" y="7.5em" text-anchor="end"><tspan class="size">30 (0.8%)</tspan></text><text x="7.83em" y="7.5em"><tspan class="size">google</tspan></text><rect width=".08em" height=".6em" x="7.25em" y="8.1em" fill="#00f" stroke="#00f"/><text x="6.75em" y="8.7em" text-anchor="end"><tspan class="size">30 (0.8%)</tspan></text><text x="7.83em" y="8.7em"><tspan class="size">reddit</tspan></text><rect width=".07em" height=".6em" x="7.25em" y="9.3em" fill="#00f" stroke="#00f"/><text x="6.75em" y="9.9em" text-anchor="end"><tspan class="size">24 (0.7%)</tspan></text><text x="7.82em" y="9.9em"><tspan class="size">welcoming</tspan></text><rect width=".06em" height=".6em" x="7.25em" y="10.5em" fill="#00f" stroke="#00f"/><text x="6.75em" y="11.1em" text-anchor="end"><tspan class="size">23 (0.6%)</tspan></text><text x="7.81em" y="11.1em"><tspan class="size">official</tspan></text><rect width=".06em" height=".6em" x="7.25em" y="11.7em" fill="#00f" stroke="#00f"/><text x="6.75em" y="12.3em" text-anchor="end"><tspan class="size">23 (0.6%)</tspan></text><text x="7.81em" y="12.3em"><tspan class="size">open</tspan></text><rect width=".06em" height=".6em" x="7.25em" y="12.9em" fill="#00f" stroke="#00f"/><text x="6.75em" y="13.5em" text-anchor="end"><tspan class="size">22 (0.6%)</tspan></text><text x="7.81em" y="13.5em"><tspan class="size">code of conduct</tspan></text><rect width=".06em" height=".6em" x="7.25em" y="14.1em" fill="#00f" stroke="#00f"/><text x="6.75em" y="14.7em" text-anchor="end"><tspan class="size">21 (0.6%)</tspan></text><text x="7.81em" y="14.7em"><tspan class="size">golang</tspan></text><rect width=".06em" height=".6em" x="7.25em" y="15.3em" fill="#00f" stroke="#00f"/><text x="6.75em" y="15.9em" text-anchor="end"><tspan class="size">21 (0.6%)</tspan></text><text x="7.81em" y="15.9em"><tspan class="size">team</tspan></text><rect width="8.39em" height=".6em" x="7.25em" y="16.5em" fill="#fff" stroke="#000"/><text x="6.75em" y="17.1em" text-anchor="end"><tspan class="size">3,017 (83.9%)</tspan></text><text x="16.14em" y="17.1em"><tspan class="size">No response</tspan></text></svg>