<svg xmlns="http://www.w3.org/2000/svg" width="60em" height="18.8em" version="1.1"><defs><style type="text/css">svg{font-family:&quot;Helvetica Neue&quot;,Arial,sans-serif}tspan.size{font-size:.8em}tspan.head{font-weight:700}</style></defs><text x="0em" y="1.2em" class="head"><tspan class="size">If you desire, please elaborate on your reasons above.</tspan></text><rect width=".16em" height=".6em" x="7.25em" y="2.1em" fill="#00f" stroke="#00f"/><text x="6.75em" y="2.7em" text-anchor="end"><tspan class="size">58 (1.6%)</tspan></text><text x="7.91em" y="2.7em"><tspan class="size">c</tspan></text><rect width=".16em" height=".6em" x="7.25em" y="3.3em" fill="#00f" stroke="#00f"/><text x="6.75em" y="3.9em" text-anchor="end"><tspan class="size">58 (1.6%)</tspan></text><text x="7.91em" y="3.9em"><tspan class="size">java</tspan></text><rect width=".16em" height=".6em" x="7.25em" y="4.5em" fill="#00f" stroke="#00f"/><text x="6.75em" y="5.1em" text-anchor="end"><tspan class="size">58 (1.6%)</tspan></text><text x="7.91em" y="5.1em"><tspan class="size">libraries</tspan></text><rect width=".14em" height=".6em" x="7.25em" y="5.7em" fill="#00f" stroke="#00f"/><text x="6.75em" y="6.3em" text-anchor="end"><tspan class="size">50 (1.4%)</tspan></text><text x="7.89em" y="6.3em"><tspan class="size">python</tspan></text><rect width=".13em" height=".6em" x="7.25em" y="6.9em" fill="#00f" stroke="#00f"/><text x="6.75em" y="7.5em" text-anchor="end"><tspan class="size">47 (1.3%)</tspan></text><text x="7.88em" y="7.5em"><tspan class="size">web</tspan></text><rect width=".13em" height=".6em" x="7.25em" y="8.1em" fill="#00f" stroke="#00f"/><text x="6.75em" y="8.7em" text-anchor="end"><tspan class="size">45 (1.3%)</tspan></text><text x="7.88em" y="8.7em"><tspan class="size">generics</tspan></text><rect width=".13em" height=".6em" x="7.25em" y="9.3em" fill="#00f" stroke="#00f"/><text x="6.75em" y="9.9em" text-anchor="end"><tspan class="size">45 (1.3%)</tspan></text><text x="7.88em" y="9.9em"><tspan class="size">work</tspan></text><rect width=".11em" height=".6em" x="7.25em" y="10.5em" fill="#00f" stroke="#00f"/><text x="6.75em" y="11.1em" text-anchor="end"><tspan class="size">40 (1.1%)</tspan></text><text x="7.86em" y="11.1em"><tspan class="size">projects</tspan></text><rect width=".09em" height=".6em" x="7.25em" y="11.7em" fill="#00f" stroke="#00f"/><text x="6.75em" y="12.3em" text-anchor="end"><tspan class="size">34 (0.9%)</tspan></text><text x="7.84em" y="12.3em"><tspan class="size">languages</tspan></text><rect width=".09em" height=".6em" x="7.25em" y="12.9em" fill="#00f" stroke="#00f"/><text x="6.75em" y="13.5em" text-anchor="end"><tspan class="size">33 (0.9%)</tspan></text><text x="7.84em" y="13.5em"><tspan class="size">hard</tspan></text><rect width=".09em" height=".6em" x="7.25em" y="14.1em" fill="#00f" stroke="#00f"/><text x="6.75em" y="14.7em" text-anchor="end"><tspan class="size">32 (0.9%)</tspan></text><text x="7.84em" y="14.7em"><tspan class="size">lack</tspan></text><rect width=".09em" height=".6em" x="7.25em" y="15.3em" fill="#00f" stroke="#00f"/><text x="6.75em" y="15.9em" text-anchor="end"><tspan class="size">32 (0.9%)</tspan></text><text x="7.84em" y="15.9em"><tspan class="size">team</tspan></text><rect width=".09em" height=".6em" x="7.25em" y="16.5em" fill="#00f" stroke="#00f"/><text x="6.75em" y="17.1em" text-anchor="end"><tspan class="size">31 (0.9%)</tspan></text><text x="7.84em" y="17.1em"><tspan class="size">library</tspan></text><rect width=".09em" height=".6em" x="7.25em" y="17.7em" fill="#00f" stroke="#00f"/><text x="6.75em" y="18.3em" text-anchor="end"><tspan class="size">31 (0.9%)</tspan></text><text x="7.84em" y="18.3em"><tspan class="size">people</tspan></text><rect width=".08em" height=".6em" x="22.25em" y="2.1em" fill="#00f" stroke="#00f"/><text x="21.75em" y="2.7em" text-anchor="end"><tspan class="size">29 (0.8%)</tspan></text><text x="22.83em" y="2.7em"><tspan class="size">gui</tspan></text><rect width=".07em" height=".6em" x="22.25em" y="3.3em" fill="#00f" stroke="#00f"/><text x="21.75em" y="3.9em" text-anchor="end"><tspan class="size">25 (0.7%)</tspan></text><text x="22.82em" y="3.9em"><tspan class="size">good</tspan></text><rect width=".07em" height=".6em" x="22.25em" y="4.5em" fill="#00f" stroke="#00f"/><text x="21.75em" y="5.1em" text-anchor="end"><tspan class="size">25 (0.7%)</tspan></text><text x="22.82em" y="5.1em"><tspan class="size">performance</tspan></text><rect width=".07em" height=".6em" x="22.25em" y="5.7em" fill="#00f" stroke="#00f"/><text x="21.75em" y="6.3em" text-anchor="end"><tspan class="size">24 (0.7%)</tspan></text><text x="22.82em" y="6.3em"><tspan class="size">mobile</tspan></text><rect width=".07em" height=".6em" x="22.25em" y="6.9em" fill="#00f" stroke="#00f"/><text x="21.75em" y="7.5em" text-anchor="end"><tspan class="size">24 (0.7%)</tspan></text><text x="22.82em" y="7.5em"><tspan class="size">written</tspan></text><rect width=".06em" height=".6em" x="22.25em" y="8.1em" fill="#00f" stroke="#00f"/><text x="21.75em" y="8.7em" text-anchor="end"><tspan class="size">23 (0.6%)</tspan></text><text x="22.81em" y="8.7em"><tspan class="size">programming</tspan></text><rect width=".06em" height=".6em" x="22.25em" y="9.3em" fill="#00f" stroke="#00f"/><text x="21.75em" y="9.9em" text-anchor="end"><tspan class="size">23 (0.6%)</tspan></text><text x="22.81em" y="9.9em"><tspan class="size">time</tspan></text><rect width=".06em" height=".6em" x="22.25em" y="10.5em" fill="#00f" stroke="#00f"/><text x="21.75em" y="11.1em" text-anchor="end"><tspan class="size">22 (0.6%)</tspan></text><text x="22.81em" y="11.1em"><tspan class="size">golang</tspan></text><rect width=".06em" height=".6em" x="22.25em" y="11.7em" fill="#00f" stroke="#00f"/><text x="21.75em" y="12.3em" text-anchor="end"><tspan class="size">20 (0.6%)</tspan></text><text x="22.81em" y="12.3em"><tspan class="size">company</tspan></text><rect width=".06em" height=".6em" x="22.25em" y="12.9em" fill="#00f" stroke="#00f"/><text x="21.75em" y="13.5em" text-anchor="end"><tspan class="size">20 (0.6%)</tspan></text><text x="22.81em" y="13.5em"><tspan class="size">existing</tspan></text><rect width=".06em" height=".6em" x="22.25em" y="14.1em" fill="#00f" stroke="#00f"/><text x="21.75em" y="14.7em" text-anchor="end"><tspan class="size">20 (0.6%)</tspan></text><text x="22.81em" y="14.7em"><tspan class="size">great</tspan></text><rect width=".06em" height=".6em" x="22.25em" y="15.3em" fill="#00f" stroke="#00f"/><text x="21.75em" y="15.9em" text-anchor="end"><tspan class="size">20 (0.6%)</tspan></text><text x="22.81em" y="15.9em"><tspan class="size">php</tspan></text><rect width=".06em" height=".6em" x="22.25em" y="16.5em" fill="#00f" stroke="#00f"/><text x="21.75em" y="17.1em" text-anchor="end"><tspan class="size">20 (0.6%)</tspan></text><text x="22.81em" y="17.1em"><tspan class="size">tools</tspan></text><rect width="8.44em" height=".6em" x="22.25em" y="17.7em" fill="#fff" stroke="#000"/><text x="21.75em" y="18.3em" text-anchor="end"><tspan class="size">3,033 (84.4%)</tspan></text><text x="31.19em" y="18.3em"><tspan class="size">No response</tspan></text></svg>