<svg xmlns="http://www.w3.org/2000/svg" xmlns:xlink="http://www.w3.org/1999/xlink" width="944.88" height="944.88" class="svglite" viewBox="0 0 708.66 708.66"><defs><style type="text/css">.svglite circle,.svglite polygon,.svglite polyline,.svglite rect{fill:none;stroke:#000;stroke-linecap:round;stroke-linejoin:round;stroke-miterlimit:10}.svglite text{white-space:pre}</style></defs><rect width="100%" height="100%" style="stroke:none;fill:none"/><defs><clipPath id="cpMC4wMHw3MDguNjZ8MC4wMHw3MDguNjY="><rect width="708.66" height="708.66" x="0" y="0"/></clipPath></defs><defs><clipPath id="cpNzkuNTR8Njk5LjcwfDM4LjE2fDY1Ni43OQ=="><rect width="620.16" height="618.62" x="79.54" y="38.16"/></clipPath></defs><g clip-path="url(#cpNzkuNTR8Njk5LjcwfDM4LjE2fDY1Ni43OQ==)"><polyline points="79.54 558.37 699.7 558.37" style="stroke-width:.87;stroke:#ebebeb;stroke-linecap:butt"/><polyline points="79.54 417.77 699.7 417.77" style="stroke-width:.87;stroke:#ebebeb;stroke-linecap:butt"/><polyline points="79.54 277.18 699.7 277.18" style="stroke-width:.87;stroke:#ebebeb;stroke-linecap:butt"/><polyline points="79.54 136.58 699.7 136.58" style="stroke-width:.87;stroke:#ebebeb;stroke-linecap:butt"/><polyline points="178.2 656.79 178.2 38.16" style="stroke-width:.87;stroke:#ebebeb;stroke-linecap:butt"/><polyline points="319.14 656.79 319.14 38.16" style="stroke-width:.87;stroke:#ebebeb;stroke-linecap:butt"/><polyline points="460.09 656.79 460.09 38.16" style="stroke-width:.87;stroke:#ebebeb;stroke-linecap:butt"/><polyline points="601.03 656.79 601.03 38.16" style="stroke-width:.87;stroke:#ebebeb;stroke-linecap:butt"/><polyline points="79.54 628.67 699.7 628.67" style="stroke-width:1.75;stroke:#ebebeb;stroke-linecap:butt"/><polyline points="79.54 488.07 699.7 488.07" style="stroke-width:1.75;stroke:#ebebeb;stroke-linecap:butt"/><polyline points="79.54 347.48 699.7 347.48" style="stroke-width:1.75;stroke:#ebebeb;stroke-linecap:butt"/><polyline points="79.54 206.88 699.7 206.88" style="stroke-width:1.75;stroke:#ebebeb;stroke-linecap:butt"/><polyline points="79.54 66.28 699.7 66.28" style="stroke-width:1.75;stroke:#ebebeb;stroke-linecap:butt"/><polyline points="107.73 656.79 107.73 38.16" style="stroke-width:1.75;stroke:#ebebeb;stroke-linecap:butt"/><polyline points="248.67 656.79 248.67 38.16" style="stroke-width:1.75;stroke:#ebebeb;stroke-linecap:butt"/><polyline points="389.62 656.79 389.62 38.16" style="stroke-width:1.75;stroke:#ebebeb;stroke-linecap:butt"/><polyline points="530.56 656.79 530.56 38.16" style="stroke-width:1.75;stroke:#ebebeb;stroke-linecap:butt"/><polyline points="671.51 656.79 671.51 38.16" style="stroke-width:1.75;stroke:#ebebeb;stroke-linecap:butt"/><circle cx="250.99" cy="254.02" r="5.69" style="stroke-width:.71;stroke:#5cacee;fill:#5cacee"/><circle cx="422.21" cy="150.81" r="5.69" style="stroke-width:.71;stroke:#5cacee;fill:#5cacee"/><circle cx="446.13" cy="218.37" r="5.69" style="stroke-width:.71;stroke:#5cacee;fill:#5cacee"/><circle cx="482.27" cy="167.07" r="5.69" style="stroke-width:.71;stroke:#5cacee;fill:#5cacee"/><circle cx="578.68" cy="244.25" r="5.69" style="stroke-width:.71;stroke:#5cacee;fill:#5cacee"/><circle cx="528.72" cy="250.99" r="5.69" style="stroke-width:.71;stroke:#5cacee;fill:#5cacee"/><circle cx="432.89" cy="197.62" r="5.69" style="stroke-width:.71;stroke:#5cacee;fill:#5cacee"/><circle cx="636.27" cy="155.32" r="5.69" style="stroke-width:.71;stroke:#5cacee;fill:#5cacee"/><circle cx="560.72" cy="198.92" r="5.69" style="stroke-width:.71;stroke:#5cacee;fill:#5cacee"/><polygon points="234.33 249.39 296.67 249.39 296.58 249.38 296.93 249.37 297.27 249.3 297.6 249.18 297.9 249 298.17 248.78 298.4 248.52 298.58 248.23 298.72 247.91 298.8 247.57 298.83 247.23 298.83 247.23 298.83 231.9 298.83 231.9 298.8 231.56 298.72 231.22 298.58 230.9 298.4 230.61 298.17 230.35 297.9 230.13 297.6 229.95 297.27 229.83 296.93 229.76 296.67 229.74 234.33 229.74 234.59 229.76 234.24 229.75 233.89 229.79 233.56 229.88 233.25 230.03 232.96 230.23 232.71 230.47 232.5 230.75 232.34 231.06 232.23 231.39 232.17 231.73 232.17 231.9 232.17 247.23 232.17 247.05 232.17 247.4 232.23 247.74 232.34 248.07 232.5 248.38 232.71 248.66 232.96 248.9 233.25 249.1 233.56 249.25 233.89 249.34 234.24 249.38" style="stroke-width:.53;fill:#fff"/><text x="265.5" y="245.79" lengthAdjust="spacingAndGlyphs" text-anchor="middle" style="font-size:17.07px;font-family:&quot;Arial&quot;" textLength="59.46">binsize</text><polygon points="359.56 146.12 455.93 146.12 455.84 146.12 456.19 146.1 456.53 146.03 456.85 145.91 457.15 145.74 457.42 145.52 457.65 145.26 457.84 144.96 457.98 144.64 458.06 144.31 458.09 143.96 458.09 143.96 458.09 128.64 458.09 128.64 458.06 128.29 457.98 127.95 457.84 127.63 457.65 127.34 457.42 127.08 457.15 126.86 456.85 126.69 456.53 126.56 456.19 126.49 455.93 126.48 359.56 126.48 359.82 126.49 359.47 126.48 359.12 126.52 358.79 126.62 358.48 126.77 358.19 126.97 357.94 127.21 357.73 127.48 357.57 127.79 357.46 128.12 357.4 128.46 357.4 128.64 357.4 143.96 357.4 143.79 357.4 144.13 357.46 144.48 357.57 144.81 357.73 145.11 357.94 145.39 358.19 145.63 358.48 145.83 358.79 145.98 359.12 146.08 359.47 146.12" style="stroke-width:.53;fill:#fff"/><text x="407.74" y="142.52" lengthAdjust="spacingAndGlyphs" text-anchor="middle" style="font-size:17.07px;font-family:&quot;Arial&quot;" textLength="93.49">buildspeed</text><polygon points="435.98 242.59 485.07 242.59 484.98 242.58 485.33 242.57 485.67 242.5 485.99 242.38 486.29 242.2 486.56 241.98 486.79 241.72 486.98 241.43 487.12 241.11 487.2 240.77 487.23 240.43 487.23 240.43 487.23 225.1 487.23 225.1 487.2 224.76 487.12 224.42 486.98 224.1 486.79 223.81 486.56 223.55 486.29 223.33 485.99 223.15 485.67 223.03 485.33 222.96 485.07 222.94 435.98 222.94 436.24 222.96 435.9 222.95 435.55 222.99 435.22 223.09 434.9 223.23 434.62 223.43 434.37 223.67 434.16 223.95 434 224.26 433.89 224.59 433.83 224.93 433.82 225.1 433.82 240.43 433.83 240.25 433.83 240.6 433.89 240.94 434 241.27 434.16 241.58 434.37 241.86 434.62 242.1 434.9 242.3 435.22 242.45 435.55 242.54 435.9 242.58" style="stroke-width:.53;fill:#fff"/><text x="460.52" y="238.99" lengthAdjust="spacingAndGlyphs" text-anchor="middle" style="font-size:17.07px;font-family:&quot;Arial&quot;" textLength="46.2">cloud</text><polygon points="479.8 191.31 513.71 191.31 513.62 191.3 513.97 191.29 514.31 191.22 514.63 191.1 514.93 190.92 515.2 190.7 515.43 190.44 515.62 190.15 515.76 189.83 515.84 189.49 515.87 189.15 515.87 189.15 515.87 173.82 515.87 173.82 515.84 173.48 515.76 173.14 515.62 172.82 515.43 172.53 515.2 172.27 514.93 172.05 514.63 171.87 514.31 171.75 513.97 171.68 513.71 171.66 479.8 171.66 480.06 171.68 479.72 171.67 479.37 171.71 479.04 171.8 478.72 171.95 478.44 172.15 478.19 172.39 477.98 172.67 477.82 172.98 477.71 173.31 477.65 173.65 477.64 173.82 477.64 189.15 477.65 188.97 477.65 189.32 477.71 189.66 477.82 189.99 477.98 190.3 478.19 190.58 478.44 190.82 478.72 191.02 479.04 191.17 479.37 191.26 479.72 191.3" style="stroke-width:.53;fill:#fff"/><text x="496.76" y="187.71" lengthAdjust="spacingAndGlyphs" text-anchor="middle" style="font-size:17.07px;font-family:&quot;Arial&quot;" textLength="31.02">cpu</text><polygon points="585.28 250.26 641.96 250.26 641.87 250.26 642.22 250.24 642.56 250.17 642.89 250.05 643.19 249.88 643.46 249.66 643.69 249.4 643.87 249.1 644.01 248.78 644.09 248.44 644.12 248.1 644.12 248.1 644.12 232.78 644.12 232.78 644.09 232.43 644.01 232.09 643.87 231.77 643.69 231.48 643.46 231.22 643.19 231 642.89 230.83 642.56 230.7 642.22 230.63 641.96 230.62 585.28 230.62 585.54 230.63 585.2 230.62 584.85 230.66 584.52 230.76 584.2 230.91 583.92 231.1 583.67 231.34 583.46 231.62 583.3 231.93 583.19 232.26 583.13 232.6 583.12 232.78 583.12 248.1 583.13 247.92 583.13 248.27 583.19 248.62 583.3 248.94 583.46 249.25 583.67 249.53 583.92 249.77 584.2 249.97 584.52 250.12 584.85 250.21 585.2 250.26" style="stroke-width:.53;fill:#fff"/><text x="613.62" y="246.66" lengthAdjust="spacingAndGlyphs" text-anchor="middle" style="font-size:17.07px;font-family:&quot;Arial&quot;" textLength="53.8">debug</text><polygon points="476.31 275.34 552.03 275.34 551.94 275.34 552.29 275.33 552.63 275.26 552.95 275.13 553.25 274.96 553.52 274.74 553.75 274.48 553.94 274.19 554.07 273.87 554.16 273.53 554.19 273.18 554.19 273.18 554.19 257.86 554.19 257.86 554.16 257.51 554.07 257.18 553.94 256.86 553.75 256.56 553.52 256.3 553.25 256.08 552.95 255.91 552.63 255.79 552.29 255.72 552.03 255.7 476.31 255.7 476.57 255.72 476.22 255.7 475.88 255.74 475.54 255.84 475.23 255.99 474.94 256.19 474.69 256.43 474.48 256.71 474.32 257.01 474.21 257.34 474.16 257.69 474.15 257.86 474.15 273.18 474.16 273.01 474.16 273.36 474.21 273.7 474.32 274.03 474.48 274.34 474.69 274.62 474.94 274.86 475.23 275.05 475.54 275.2 475.88 275.3 476.22 275.34" style="stroke-width:.53;fill:#fff"/><text x="514.17" y="271.74" lengthAdjust="spacingAndGlyphs" text-anchor="middle" style="font-size:17.07px;font-family:&quot;Arial&quot;" textLength="72.84">modules</text><polygon points="399.88 192.9 436.85 192.9 436.76 192.9 437.11 192.88 437.45 192.81 437.77 192.69 438.07 192.51 438.34 192.29 438.57 192.03 438.76 191.74 438.9 191.42 438.98 191.08 439.01 190.74 439.01 190.74 439.01 175.42 439.01 175.42 438.98 175.07 438.9 174.73 438.76 174.41 438.57 174.12 438.34 173.86 438.07 173.64 437.77 173.46 437.45 173.34 437.11 173.27 436.85 173.26 399.88 173.26 400.14 173.27 399.79 173.26 399.44 173.3 399.11 173.4 398.8 173.54 398.51 173.74 398.26 173.98 398.05 174.26 397.89 174.57 397.78 174.9 397.72 175.24 397.72 175.42 397.72 190.74 397.72 190.56 397.72 190.91 397.78 191.25 397.89 191.58 398.05 191.89 398.26 192.17 398.51 192.41 398.8 192.61 399.11 192.76 399.44 192.85 399.79 192.9" style="stroke-width:.53;fill:#fff"/><text x="418.36" y="189.3" lengthAdjust="spacingAndGlyphs" text-anchor="middle" style="font-size:17.07px;font-family:&quot;Arial&quot;" textLength="34.09">ram</text><polygon points="580.94 179.58 662.72 179.58 662.63 179.58 662.98 179.57 663.32 179.5 663.64 179.38 663.94 179.2 664.21 178.98 664.44 178.72 664.63 178.43 664.76 178.11 664.85 177.77 664.88 177.42 664.88 177.42 664.88 162.1 664.88 162.1 664.85 161.76 664.76 161.42 664.63 161.1 664.44 160.81 664.21 160.55 663.94 160.33 663.64 160.15 663.32 160.03 662.98 159.96 662.72 159.94 580.94 159.94 581.2 159.96 580.85 159.94 580.51 159.99 580.17 160.08 579.86 160.23 579.57 160.43 579.32 160.67 579.11 160.95 578.95 161.26 578.84 161.59 578.79 161.93 578.78 162.1 578.78 177.42 578.79 177.25 578.79 177.6 578.84 177.94 578.95 178.27 579.11 178.58 579.32 178.86 579.57 179.1 579.86 179.3 580.17 179.44 580.51 179.54 580.85 179.58" style="stroke-width:.53;fill:#fff"/><text x="621.83" y="175.98" lengthAdjust="spacingAndGlyphs" text-anchor="middle" style="font-size:17.07px;font-family:&quot;Arial&quot;" textLength="78.9">reliability</text><polygon points="539.77 223.26 610.78 223.26 610.69 223.25 611.04 223.24 611.38 223.17 611.7 223.05 612 222.87 612.27 222.65 612.5 222.39 612.69 222.1 612.83 221.78 612.91 221.44 612.94 221.1 612.94 221.1 612.94 205.77 612.94 205.77 612.91 205.43 612.83 205.09 612.69 204.77 612.5 204.48 612.27 204.22 612 204 611.7 203.82 611.38 203.7 611.04 203.63 610.78 203.61 539.77 203.61 540.03 203.63 539.68 203.62 539.34 203.66 539 203.75 538.69 203.9 538.4 204.1 538.15 204.34 537.94 204.62 537.78 204.93 537.67 205.26 537.62 205.6 537.61 205.77 537.61 221.1 537.62 220.92 537.62 221.27 537.67 221.61 537.78 221.94 537.94 222.25 538.15 222.53 538.4 222.77 538.69 222.97 539 223.12 539.34 223.21 539.68 223.25" style="stroke-width:.53;fill:#fff"/><text x="575.27" y="219.66" lengthAdjust="spacingAndGlyphs" text-anchor="middle" style="font-size:17.07px;font-family:&quot;Arial&quot;" textLength="68.13">security</text></g><g clip-path="url(#cpMC4wMHw3MDguNjZ8MC4wMHw3MDguNjY=)"><text x="71.47" y="633.91" lengthAdjust="spacingAndGlyphs" text-anchor="end" style="font-size:14.4px;fill:#4d4d4d;font-family:&quot;Arial&quot;" textLength="22.83">0%</text><text x="71.47" y="493.32" lengthAdjust="spacingAndGlyphs" text-anchor="end" style="font-size:14.4px;fill:#4d4d4d;font-family:&quot;Arial&quot;" textLength="31.99">25%</text><text x="71.47" y="352.72" lengthAdjust="spacingAndGlyphs" text-anchor="end" style="font-size:14.4px;fill:#4d4d4d;font-family:&quot;Arial&quot;" textLength="31.99">50%</text><text x="71.47" y="212.13" lengthAdjust="spacingAndGlyphs" text-anchor="end" style="font-size:14.4px;fill:#4d4d4d;font-family:&quot;Arial&quot;" textLength="31.99">75%</text><text x="71.47" y="71.53" lengthAdjust="spacingAndGlyphs" text-anchor="end" style="font-size:14.4px;fill:#4d4d4d;font-family:&quot;Arial&quot;" textLength="41.15">100%</text><text x="107.73" y="675.35" lengthAdjust="spacingAndGlyphs" text-anchor="middle" style="font-size:14.4px;fill:#4d4d4d;font-family:&quot;Arial&quot;" textLength="22.83">0%</text><text x="248.67" y="675.35" lengthAdjust="spacingAndGlyphs" text-anchor="middle" style="font-size:14.4px;fill:#4d4d4d;font-family:&quot;Arial&quot;" textLength="31.99">25%</text><text x="389.62" y="675.35" lengthAdjust="spacingAndGlyphs" text-anchor="middle" style="font-size:14.4px;fill:#4d4d4d;font-family:&quot;Arial&quot;" textLength="31.99">50%</text><text x="530.56" y="675.35" lengthAdjust="spacingAndGlyphs" text-anchor="middle" style="font-size:14.4px;fill:#4d4d4d;font-family:&quot;Arial&quot;" textLength="31.99">75%</text><text x="671.51" y="675.35" lengthAdjust="spacingAndGlyphs" text-anchor="middle" style="font-size:14.4px;fill:#4d4d4d;font-family:&quot;Arial&quot;" textLength="41.15">100%</text><text x="389.62" y="695.95" lengthAdjust="spacingAndGlyphs" text-anchor="middle" style="font-size:18px;font-family:&quot;Arial&quot;" textLength="263.35">% Very or critically important</text><text lengthAdjust="spacingAndGlyphs" text-anchor="middle" textLength="269.14" transform="translate(22.09,347.48) rotate(-90)" style="font-size:18px;font-family:&quot;Arial&quot;">% Somewhat or very satisfied</text></g></svg>