<svg xmlns="http://www.w3.org/2000/svg" width="70em" height="10.4em" version="1.1"><defs><style type="text/css">svg{font-family:&quot;Helvetica Neue&quot;,Arial,sans-serif}tspan.size{font-size:.8em}tspan.head{font-weight:700}tspan.paren{font-weight:400!important}</style></defs><text x="0em" y="1.2em" class="head"><tspan class="size">The following apply to me: <tspan class="paren">(multiple choice)</tspan></tspan></text><rect width="6.75em" height=".6em" x="7.25em" y="2.1em" fill="#00ACD7" stroke="#00ACD7"/><text x="6.75em" y="2.7em" text-anchor="end"><tspan class="size">4,201 (67%)</tspan></text><text x="14.5em" y="2.7em"><tspan class="size">I program at work in Go</tspan></text><rect width="6.32em" height=".6em" x="7.25em" y="3.3em" fill="#00ACD7" stroke="#00ACD7"/><text x="6.75em" y="3.9em" text-anchor="end"><tspan class="size">3,935 (63%)</tspan></text><text x="14.07em" y="3.9em"><tspan class="size">I program in Go outside of work</tspan></text><rect width="5.43em" height=".6em" x="7.25em" y="4.5em" fill="#00ACD7" stroke="#00ACD7"/><text x="6.75em" y="5.1em" text-anchor="end"><tspan class="size">3,381 (54%)</tspan></text><text x="13.18em" y="5.1em"><tspan class="size">I program at work in another language</tspan></text><rect width="1.61em" height=".6em" x="7.25em" y="5.7em" fill="#00ACD7" stroke="#00ACD7"/><text x="6.75em" y="6.3em" text-anchor="end"><tspan class="size">1,001 (16%)</tspan></text><text x="9.36em" y="6.3em"><tspan class="size">I manage a programming team</tspan></text><rect width=".81em" height=".6em" x="7.25em" y="6.9em" fill="#00ACD7" stroke="#00ACD7"/><text x="6.75em" y="7.5em" text-anchor="end"><tspan class="size">506 (8%)</tspan></text><text x="8.56em" y="7.5em"><tspan class="size">I am a student</tspan></text><rect width=".18em" height=".6em" x="7.25em" y="8.1em" fill="#777" stroke="#777"/><text x="6.75em" y="8.7em" text-anchor="end"><tspan class="size">113 (2%)</tspan></text><text x="7.93em" y="8.7em"><tspan class="size">Other</tspan></text><rect width=".04em" height=".6em" x="7.25em" y="9.3em" fill="#fff" stroke="#000"/><text x="6.75em" y="9.9em" text-anchor="end"><tspan class="size">27 (0%)</tspan></text><text x="7.79em" y="9.9em"><tspan class="size">No response</tspan></text></svg>