<svg xmlns="http://www.w3.org/2000/svg" xmlns:xlink="http://www.w3.org/1999/xlink" width="100%" height="100%" version="1.1" viewBox="0 0 747 136" xml:space="preserve" style="fill-rule:evenodd;clip-rule:evenodd;stroke-linecap:round;stroke-linejoin:round;stroke-miterlimit:1.5"><path d="M312.757,53.887c0,-2.044 -1.659,-3.704 -3.703,-3.704l-293.481,0c-2.044,0 -3.704,1.66 -3.704,3.704l0,7.407c0,2.044 1.66,3.703 3.704,3.703l293.481,0c2.044,0 3.703,-1.659 3.703,-3.703l0,-7.407Z" style="fill:none;stroke:#e62626;stroke-width:1px"/><path d="M697.757,39.073c0,-2.044 -1.659,-3.703 -3.703,-3.703l-293.481,0c-2.044,0 -3.704,1.659 -3.704,3.703l0,7.407c0,2.044 1.66,3.703 3.704,3.703l293.481,0c2.044,0 3.703,-1.659 3.703,-3.703l0,-7.407Z" style="fill:none;stroke:#e62626;stroke-width:1px"/><path d="M334.419,58.906l-1.301,-5.019l40.745,-10.567l-1.209,-4.66l9.029,5.31l-5.31,9.029l-1.208,-4.66l-40.746,10.567Z" style="fill:none;stroke:#e62626;stroke-width:1px"/><text x="14.976" y="14.375" style="font-family:'Arial-BoldMT','Arial',sans-serif;font-weight:700;font-size:20px">2016</text><text x="398.976" y="14.375" style="font-family:'Arial-BoldMT','Arial',sans-serif;font-weight:700;font-size:20px">2017</text><text x="383.976" y="29.062" style="font-family:'HelveticaNeue','Helvetica Neue';font-size:12px">The following apply to me: (multiple choice)</text><rect width="81" height="7.2" x="470.976" y="39.862" style="fill:#00acd7;stroke:#00acd7;stroke-width:1px;stroke-linecap:butt;stroke-linejoin:miter;stroke-miterlimit:4"/><text x="400.056" y="47.062" style="font-family:'HelveticaNeue','Helvetica Neue';font-size:12px">4,201 (67%)</text><text x="557.976" y="47.062" style="font-family:'HelveticaNeue','Helvetica Neue';font-size:12px">I pr<tspan x="575.316 582.204" y="47.062 47.062">og</tspan>ram at work in Go</text><rect width="75.84" height="7.2" x="470.976" y="54.262" style="fill:#00acd7;stroke:#00acd7;stroke-width:1px;stroke-linecap:butt;stroke-linejoin:miter;stroke-miterlimit:4"/><text x="400.056" y="61.462" style="font-family:'HelveticaNeue','Helvetica Neue';font-size:12px">3,935 (63%)</text><text x="552.816" y="61.462" style="font-family:'HelveticaNeue','Helvetica Neue';font-size:12px">I pr<tspan x="570.156 577.044" y="61.462 61.462">og</tspan>ram in Go outside of work</text><rect width="65.16" height="7.2" x="470.976" y="68.662" style="fill:#00acd7;stroke:#00acd7;stroke-width:1px;stroke-linecap:butt;stroke-linejoin:miter;stroke-miterlimit:4"/><text x="400.056" y="75.862" style="font-family:'HelveticaNeue','Helvetica Neue';font-size:12px">3,381 (54%)</text><text x="542.136" y="75.862" style="font-family:'HelveticaNeue','Helvetica Neue';font-size:12px">I pr<tspan x="559.476 566.364" y="75.862 75.862">og</tspan>ram at work in another language</text><rect width="19.32" height="7.2" x="470.976" y="83.062" style="fill:#00acd7;stroke:#00acd7;stroke-width:1px;stroke-linecap:butt;stroke-linejoin:miter;stroke-miterlimit:4"/><text x="400.056" y="90.262" style="font-family:'HelveticaNeue','Helvetica Neue';font-size:12px">1,001 (16%)</text><text x="496.296" y="90.262" style="font-family:'HelveticaNeue','Helvetica Neue';font-size:12px">I manage a pr<tspan x="569.88 576.768" y="90.262 90.262">og</tspan>ramming team</text><rect width="9.72" height="7.2" x="470.976" y="97.462" style="fill:#00acd7;stroke:#00acd7;stroke-width:1px;stroke-linecap:butt;stroke-linejoin:miter;stroke-miterlimit:4"/><text x="410.064" y="104.662" style="font-family:'HelveticaNeue','Helvetica Neue';font-size:12px">506 (8%)</text><text x="486.696" y="104.662" style="font-family:'HelveticaNeue','Helvetica Neue';font-size:12px">I am a student</text><rect width="2.16" height="7.2" x="470.976" y="111.862" style="fill:#777;stroke:#777;stroke-width:1px;stroke-linecap:butt;stroke-linejoin:miter;stroke-miterlimit:4"/><text x="410.064" y="119.062" style="font-family:'HelveticaNeue','Helvetica Neue';font-size:12px">113 (2%)</text><text x="479.136" y="119.062" style="font-family:'HelveticaNeue','Helvetica Neue';font-size:12px">Other</text><rect width=".48" height="7.2" x="470.976" y="126.262" style="fill:#fff;stroke:#000;stroke-width:1px;stroke-linecap:butt;stroke-linejoin:miter;stroke-miterlimit:4"/><text x="416.736" y="133.462" style="font-family:'HelveticaNeue','Helvetica Neue';font-size:12px">27 (0%)</text><text x="477.456" y="133.462" style="font-family:'HelveticaNeue','Helvetica Neue';font-size:12px">No r<tspan x="500.124 506.568" y="133.462 133.462">es</tspan>ponse</text><text x="-.024" y="28.728" style="font-family:'HelveticaNeue','Helvetica Neue';font-size:12px">The following apply to me: (multiple choice)</text><rect width="79.68" height="7.2" x="86.976" y="39.528" style="fill:#00c4b3;stroke:#00c4b3;stroke-width:1px;stroke-linecap:butt;stroke-linejoin:miter;stroke-miterlimit:4"/><text x="16.056" y="46.728" style="font-family:'HelveticaNeue','Helvetica Neue';font-size:12px">2,386 (66%)</text><text x="172.656" y="46.728" style="font-family:'HelveticaNeue','Helvetica Neue';font-size:12px">I pr<tspan x="189.996 196.884" y="46.728 46.728">og</tspan>ram in Go outside of work</text><rect width="74.64" height="7.2" x="86.976" y="53.928" style="fill:#00c4b3;stroke:#00c4b3;stroke-width:1px;stroke-linecap:butt;stroke-linejoin:miter;stroke-miterlimit:4"/><text x="16.056" y="61.128" style="font-family:'HelveticaNeue','Helvetica Neue';font-size:12px">2,235 (62%)</text><text x="167.616" y="61.128" style="font-family:'HelveticaNeue','Helvetica Neue';font-size:12px">I pr<tspan x="184.956 191.844" y="61.128 61.128">og</tspan>ram at work in Go</text><rect width="66.84" height="7.2" x="86.976" y="68.328" style="fill:#00c4b3;stroke:#00c4b3;stroke-width:1px;stroke-linecap:butt;stroke-linejoin:miter;stroke-miterlimit:4"/><text x="16.056" y="75.528" style="font-family:'HelveticaNeue','Helvetica Neue';font-size:12px">2,004 (56%)</text><text x="159.816" y="75.528" style="font-family:'HelveticaNeue','Helvetica Neue';font-size:12px">I pr<tspan x="177.156 184.044" y="75.528 75.528">og</tspan>ram at work in another language</text><rect width="20.64" height="7.2" x="86.976" y="82.728" style="fill:#00c4b3;stroke:#00c4b3;stroke-width:1px;stroke-linecap:butt;stroke-linejoin:miter;stroke-miterlimit:4"/><text x="26.064" y="89.928" style="font-family:'HelveticaNeue','Helvetica Neue';font-size:12px">618 (17%)</text><text x="113.616" y="89.928" style="font-family:'HelveticaNeue','Helvetica Neue';font-size:12px">I manage a pr<tspan x="187.2 194.088" y="89.928 89.928">og</tspan>ramming team</text><rect width="11.28" height="7.2" x="86.976" y="97.128" style="fill:#00c4b3;stroke:#00c4b3;stroke-width:1px;stroke-linecap:butt;stroke-linejoin:miter;stroke-miterlimit:4"/><text x="26.064" y="104.328" style="font-family:'HelveticaNeue','Helvetica Neue';font-size:12px">337 (9%)</text><text x="104.256" y="104.328" style="font-family:'HelveticaNeue','Helvetica Neue';font-size:12px">I am a student</text><rect width="2.64" height="7.2" x="86.976" y="111.528" style="fill:#777;stroke:#777;stroke-width:1px;stroke-linecap:butt;stroke-linejoin:miter;stroke-miterlimit:4"/><text x="32.736" y="118.728" style="font-family:'HelveticaNeue','Helvetica Neue';font-size:12px">78 (2%)</text><text x="95.616" y="118.728" style="font-family:'HelveticaNeue','Helvetica Neue';font-size:12px">Other</text><rect width=".36" height="7.2" x="86.976" y="125.928" style="fill:#fff;stroke:#000;stroke-width:1px;stroke-linecap:butt;stroke-linejoin:miter;stroke-miterlimit:4"/><text x="32.736" y="133.128" style="font-family:'HelveticaNeue','Helvetica Neue';font-size:12px">10 (0%)</text><text x="93.336" y="133.128" style="font-family:'HelveticaNeue','Helvetica Neue';font-size:12px">No r<tspan x="116.004 122.448" y="133.128 133.128">es</tspan>ponse</text></svg>