<svg xmlns="http://www.w3.org/2000/svg" width="70em" height="12.8em" version="1.1"><defs><style type="text/css">svg{font-family:&quot;Helvetica Neue&quot;,Arial,sans-serif}tspan.size{font-size:.8em}tspan.head{font-weight:700}tspan.paren{font-weight:400!important}</style></defs><text x="0em" y="1.2em" class="head"><tspan class="size">Which of the following do you access from Go: <tspan class="paren">(multiple choice)</tspan></tspan></text><rect width="6.08em" height=".6em" x="7.25em" y="2.1em" fill="#00ACD7" stroke="#00ACD7"/><text x="6.75em" y="2.7em" text-anchor="end"><tspan class="size">3,784 (61%)</tspan></text><text x="13.83em" y="2.7em"><tspan class="size">Open Source Relational DB (MySQL/PostgreSQL/CockroachDB)</tspan></text><rect width="3.85em" height=".6em" x="7.25em" y="3.3em" fill="#00ACD7" stroke="#00ACD7"/><text x="6.75em" y="3.9em" text-anchor="end"><tspan class="size">2,400 (39%)</tspan></text><text x="11.6em" y="3.9em"><tspan class="size">Memory Cache (Redis/memcache)</tspan></text><rect width="3.22em" height=".6em" x="7.25em" y="4.5em" fill="#00ACD7" stroke="#00ACD7"/><text x="6.75em" y="5.1em" text-anchor="end"><tspan class="size">2,005 (32%)</tspan></text><text x="10.97em" y="5.1em"><tspan class="size">Cloud Storage (S3/Google Cloud Storage/Azure Storage/Minio)</tspan></text><rect width="3.04em" height=".6em" x="7.25em" y="5.7em" fill="#00ACD7" stroke="#00ACD7"/><text x="6.75em" y="6.3em" text-anchor="end"><tspan class="size">1,891 (30%)</tspan></text><text x="10.79em" y="6.3em"><tspan class="size">Open Source NoSQL DB (MongoDB/Cassandra)</tspan></text><rect width="2.58em" height=".6em" x="7.25em" y="6.9em" fill="#00ACD7" stroke="#00ACD7"/><text x="6.75em" y="7.5em" text-anchor="end"><tspan class="size">1,606 (26%)</tspan></text><text x="10.33em" y="7.5em"><tspan class="size">Authentication and federation (SSO/LDAP/OAuth)</tspan></text><rect width="2.48em" height=".6em" x="7.25em" y="8.1em" fill="#00ACD7" stroke="#00ACD7"/><text x="6.75em" y="8.7em" text-anchor="end"><tspan class="size">1,546 (25%)</tspan></text><text x="10.23em" y="8.7em"><tspan class="size">Distributed Key-Value store (etcd/consul)</tspan></text><rect width="1.06em" height=".6em" x="7.25em" y="9.3em" fill="#00ACD7" stroke="#00ACD7"/><text x="6.75em" y="9.9em" text-anchor="end"><tspan class="size">657 (11%)</tspan></text><text x="8.81em" y="9.9em"><tspan class="size">Proprietary Relational DB (Oracle/DB2/MSSQL/Sybase)</tspan></text><rect width=".74em" height=".6em" x="7.25em" y="10.5em" fill="#00ACD7" stroke="#00ACD7"/><text x="6.75em" y="11.1em" text-anchor="end"><tspan class="size">459 (7%)</tspan></text><text x="8.49em" y="11.1em"><tspan class="size">Distributed Lock Service (zookeeper)</tspan></text><rect width="2.2em" height=".6em" x="7.25em" y="11.7em" fill="#fff" stroke="#000"/><text x="6.75em" y="12.3em" text-anchor="end"><tspan class="size">1,367 (22%)</tspan></text><text x="9.95em" y="12.3em"><tspan class="size">No response</tspan></text></svg>