<svg xmlns="http://www.w3.org/2000/svg" width="70em" height="8em" version="1.1"><defs><style type="text/css">svg{font-family:&quot;Helvetica Neue&quot;,Arial,sans-serif}tspan.size{font-size:.8em}tspan.head{font-weight:700}</style></defs><text x="0em" y="1.2em" class="head"><tspan class="size">To what extent do you agree or disagree with the following statements:</tspan></text><text x="0em" y="2.4em"><tspan class="size">(<tspan fill="#CE3262">strongly disagree</tspan>, <tspan fill="#D77A95">disagree</tspan>, <tspan fill="#E6B1C1">somewhat disagree</tspan>, <tspan fill="#ccc">neither agree nor disagree</tspan>, <tspan fill="#77CCE9">somewhat agree</tspan>, <tspan fill="#50BFE2">agree</tspan>, <tspan fill="#00ACD7">strongly agree</tspan>)</tspan></text><rect width=".17em" height=".6em" x="14em" y="3.3em" fill="#CE3262" stroke="#CE3262"/><rect width=".08em" height=".6em" x="14.17em" y="3.3em" fill="#D77A95" stroke="#D77A95"/><rect width=".1em" height=".6em" x="14.25em" y="3.3em" fill="#E6B1C1" stroke="#E6B1C1"/><rect width=".17em" height=".6em" x="14.35em" y="3.3em" fill="#ccc" stroke="#ccc"/><rect width=".53em" height=".6em" x="14.52em" y="3.3em" fill="#77CCE9" stroke="#77CCE9"/><rect width="2.1em" height=".6em" x="15.05em" y="3.3em" fill="#50BFE2" stroke="#50BFE2"/><rect width="6.39em" height=".6em" x="17.14em" y="3.3em" fill="#00ACD7" stroke="#00ACD7"/><text x="13.5em" y="3.9em" text-anchor="end"><tspan class="size">5,938 (<tspan fill="#CE3262">2</tspan>, <tspan fill="#D77A95">0.8</tspan>, <tspan fill="#E6B1C1">1</tspan>, <tspan fill="#ccc">2</tspan>, <tspan fill="#77CCE9">5</tspan>, <tspan fill="#50BFE2">21</tspan>, <tspan fill="#00ACD7">64</tspan>%)</tspan></text><text x="24.04em" y="3.9em"><tspan class="size">I would recommend using Go to others (26:1) [32:1]</tspan></text><rect width=".2em" height=".6em" x="14em" y="4.5em" fill="#CE3262" stroke="#CE3262"/><rect width=".13em" height=".6em" x="14.2em" y="4.5em" fill="#D77A95" stroke="#D77A95"/><rect width=".17em" height=".6em" x="14.33em" y="4.5em" fill="#E6B1C1" stroke="#E6B1C1"/><rect width=".38em" height=".6em" x="14.5em" y="4.5em" fill="#ccc" stroke="#ccc"/><rect width=".79em" height=".6em" x="14.88em" y="4.5em" fill="#77CCE9" stroke="#77CCE9"/><rect width="2.03em" height=".6em" x="15.67em" y="4.5em" fill="#50BFE2" stroke="#50BFE2"/><rect width="5.82em" height=".6em" x="17.7em" y="4.5em" fill="#00ACD7" stroke="#00ACD7"/><text x="13.5em" y="5.1em" text-anchor="end"><tspan class="size">5,928 (<tspan fill="#CE3262">2</tspan>, <tspan fill="#D77A95">1</tspan>, <tspan fill="#E6B1C1">2</tspan>, <tspan fill="#ccc">4</tspan>, <tspan fill="#77CCE9">8</tspan>, <tspan fill="#50BFE2">20</tspan>, <tspan fill="#00ACD7">58</tspan>%)</tspan></text><text x="24.02em" y="5.1em"><tspan class="size">I would prefer to use Go for my next new project (17:1) [23:1]</tspan></text><rect width=".1em" height=".6em" x="14em" y="5.7em" fill="#CE3262" stroke="#CE3262"/><rect width=".08em" height=".6em" x="14.1em" y="5.7em" fill="#D77A95" stroke="#D77A95"/><rect width=".13em" height=".6em" x="14.18em" y="5.7em" fill="#E6B1C1" stroke="#E6B1C1"/><rect width=".72em" height=".6em" x="14.31em" y="5.7em" fill="#ccc" stroke="#ccc"/><rect width=".88em" height=".6em" x="15.02em" y="5.7em" fill="#77CCE9" stroke="#77CCE9"/><rect width="2.27em" height=".6em" x="15.91em" y="5.7em" fill="#50BFE2" stroke="#50BFE2"/><rect width="3.13em" height=".6em" x="18.17em" y="5.7em" fill="#00ACD7" stroke="#00ACD7"/><text x="13.5em" y="6.3em" text-anchor="end"><tspan class="size">4,548 (<tspan fill="#CE3262">1</tspan>, <tspan fill="#D77A95">0.8</tspan>, <tspan fill="#E6B1C1">1</tspan>, <tspan fill="#ccc">7</tspan>, <tspan fill="#77CCE9">9</tspan>, <tspan fill="#50BFE2">23</tspan>, <tspan fill="#00ACD7">31</tspan>%)</tspan></text><text x="21.8em" y="6.3em"><tspan class="size">Go is working well for my team (21:1) [26:1]</tspan></text><rect width=".48em" height=".6em" x="14em" y="6.9em" fill="#CE3262" stroke="#CE3262"/><rect width=".61em" height=".6em" x="14.48em" y="6.9em" fill="#D77A95" stroke="#D77A95"/><rect width=".36em" height=".6em" x="15.1em" y="6.9em" fill="#E6B1C1" stroke="#E6B1C1"/><rect width="1.67em" height=".6em" x="15.46em" y="6.9em" fill="#ccc" stroke="#ccc"/><rect width="1.38em" height=".6em" x="17.13em" y="6.9em" fill="#77CCE9" stroke="#77CCE9"/><rect width="1.37em" height=".6em" x="18.51em" y="6.9em" fill="#50BFE2" stroke="#50BFE2"/><rect width="1.69em" height=".6em" x="19.88em" y="6.9em" fill="#00ACD7" stroke="#00ACD7"/><text x="13.5em" y="7.5em" text-anchor="end"><tspan class="size">4,716 (<tspan fill="#CE3262">5</tspan>, <tspan fill="#D77A95">6</tspan>, <tspan fill="#E6B1C1">4</tspan>, <tspan fill="#ccc">17</tspan>, <tspan fill="#77CCE9">14</tspan>, <tspan fill="#50BFE2">14</tspan>, <tspan fill="#00ACD7">17</tspan>%)</tspan></text><text x="22.07em" y="7.5em"><tspan class="size">Go is critical to my company’s success (3.1:1) [3.1:1]</tspan></text></svg>