<svg xmlns="http://www.w3.org/2000/svg" width="70em" height="9.2em" version="1.1"><defs><style type="text/css">svg{font-family:&quot;Helvetica Neue&quot;,Arial,sans-serif}tspan.size{font-size:.8em}tspan.head{font-weight:700}</style></defs><text x="0em" y="1.2em" class="head"><tspan class="size">To what extent do you agree or disagree with the following statements:</tspan></text><text x="0em" y="2.4em"><tspan class="size">(<tspan fill="#CE3262">strongly disagree</tspan>, <tspan fill="#D77A95">disagree</tspan>, <tspan fill="#E6B1C1">somewhat disagree</tspan>, <tspan fill="#ccc">neither agree nor disagree</tspan>, <tspan fill="#77CCE9">somewhat agree</tspan>, <tspan fill="#50BFE2">agree</tspan>, <tspan fill="#00ACD7">strongly agree</tspan>)</tspan></text><rect width=".15em" height=".6em" x="14em" y="3.3em" fill="#CE3262" stroke="#CE3262"/><rect width=".3em" height=".6em" x="14.15em" y="3.3em" fill="#D77A95" stroke="#D77A95"/><rect width=".43em" height=".6em" x="14.45em" y="3.3em" fill="#E6B1C1" stroke="#E6B1C1"/><rect width="1.93em" height=".6em" x="14.88em" y="3.3em" fill="#ccc" stroke="#ccc"/><rect width="1.16em" height=".6em" x="16.8em" y="3.3em" fill="#77CCE9" stroke="#77CCE9"/><rect width="1.79em" height=".6em" x="17.97em" y="3.3em" fill="#50BFE2" stroke="#50BFE2"/><rect width=".82em" height=".6em" x="19.75em" y="3.3em" fill="#00ACD7" stroke="#00ACD7"/><text x="13.5em" y="3.9em" text-anchor="end"><tspan class="size">4,091 (<tspan fill="#CE3262">1</tspan>, <tspan fill="#D77A95">3</tspan>, <tspan fill="#E6B1C1">4</tspan>, <tspan fill="#ccc">19</tspan>, <tspan fill="#77CCE9">12</tspan>, <tspan fill="#50BFE2">18</tspan>, <tspan fill="#00ACD7">8</tspan>%)</tspan></text><text x="21.07em" y="3.9em"><tspan class="size">I feel welcome to contribute to Go (compiler, standard library, documentation, website) (4.3:1) [5.0:1]</tspan></text><rect width=".32em" height=".6em" x="14em" y="4.5em" fill="#CE3262" stroke="#CE3262"/><rect width=".82em" height=".6em" x="14.32em" y="4.5em" fill="#D77A95" stroke="#D77A95"/><rect width=".97em" height=".6em" x="15.14em" y="4.5em" fill="#E6B1C1" stroke="#E6B1C1"/><rect width="1.74em" height=".6em" x="16.11em" y="4.5em" fill="#ccc" stroke="#ccc"/><rect width="1.12em" height=".6em" x="17.85em" y="4.5em" fill="#77CCE9" stroke="#77CCE9"/><rect width="1.13em" height=".6em" x="18.96em" y="4.5em" fill="#50BFE2" stroke="#50BFE2"/><rect width=".46em" height=".6em" x="20.1em" y="4.5em" fill="#00ACD7" stroke="#00ACD7"/><text x="13.5em" y="5.1em" text-anchor="end"><tspan class="size">4,083 (<tspan fill="#CE3262">3</tspan>, <tspan fill="#D77A95">8</tspan>, <tspan fill="#E6B1C1">10</tspan>, <tspan fill="#ccc">17</tspan>, <tspan fill="#77CCE9">11</tspan>, <tspan fill="#50BFE2">11</tspan>, <tspan fill="#00ACD7">5</tspan>%)</tspan></text><text x="21.06em" y="5.1em"><tspan class="size">The process of contributing to the Go project is clear to me (1.3:1) [1.3:1]</tspan></text><rect width=".19em" height=".6em" x="14em" y="5.7em" fill="#CE3262" stroke="#CE3262"/><rect width=".29em" height=".6em" x="14.19em" y="5.7em" fill="#D77A95" stroke="#D77A95"/><rect width=".45em" height=".6em" x="14.49em" y="5.7em" fill="#E6B1C1" stroke="#E6B1C1"/><rect width="2.3em" height=".6em" x="14.94em" y="5.7em" fill="#ccc" stroke="#ccc"/><rect width=".95em" height=".6em" x="17.24em" y="5.7em" fill="#77CCE9" stroke="#77CCE9"/><rect width="1.26em" height=".6em" x="18.2em" y="5.7em" fill="#50BFE2" stroke="#50BFE2"/><rect width=".42em" height=".6em" x="19.46em" y="5.7em" fill="#00ACD7" stroke="#00ACD7"/><text x="13.5em" y="6.3em" text-anchor="end"><tspan class="size">3,657 (<tspan fill="#CE3262">2</tspan>, <tspan fill="#D77A95">3</tspan>, <tspan fill="#E6B1C1">5</tspan>, <tspan fill="#ccc">23</tspan>, <tspan fill="#77CCE9">10</tspan>, <tspan fill="#50BFE2">13</tspan>, <tspan fill="#00ACD7">4</tspan>%)</tspan></text><text x="20.37em" y="6.3em"><tspan class="size">The Go project leadership understands my needs (2.8:1) [2.8:1]</tspan></text><rect width=".21em" height=".6em" x="14em" y="6.9em" fill="#CE3262" stroke="#CE3262"/><rect width=".46em" height=".6em" x="14.21em" y="6.9em" fill="#D77A95" stroke="#D77A95"/><rect width=".57em" height=".6em" x="14.66em" y="6.9em" fill="#E6B1C1" stroke="#E6B1C1"/><rect width="2.02em" height=".6em" x="15.23em" y="6.9em" fill="#ccc" stroke="#ccc"/><rect width=".96em" height=".6em" x="17.25em" y="6.9em" fill="#77CCE9" stroke="#77CCE9"/><rect width="1.39em" height=".6em" x="18.21em" y="6.9em" fill="#50BFE2" stroke="#50BFE2"/><rect width=".61em" height=".6em" x="19.59em" y="6.9em" fill="#00ACD7" stroke="#00ACD7"/><text x="13.5em" y="7.5em" text-anchor="end"><tspan class="size">3,860 (<tspan fill="#CE3262">2</tspan>, <tspan fill="#D77A95">5</tspan>, <tspan fill="#E6B1C1">6</tspan>, <tspan fill="#ccc">20</tspan>, <tspan fill="#77CCE9">10</tspan>, <tspan fill="#50BFE2">14</tspan>, <tspan fill="#00ACD7">6</tspan>%)</tspan></text><text x="20.7em" y="7.5em"><tspan class="size">I feel comfortable approaching the Go project leadership with questions and feedback (2.4:1) [2.7:1]</tspan></text><rect width=".1em" height=".6em" x="14em" y="8.1em" fill="#CE3262" stroke="#CE3262"/><rect width=".16em" height=".6em" x="14.1em" y="8.1em" fill="#D77A95" stroke="#D77A95"/><rect width=".22em" height=".6em" x="14.27em" y="8.1em" fill="#E6B1C1" stroke="#E6B1C1"/><rect width="1.23em" height=".6em" x="14.49em" y="8.1em" fill="#ccc" stroke="#ccc"/><rect width=".96em" height=".6em" x="15.73em" y="8.1em" fill="#77CCE9" stroke="#77CCE9"/><rect width="2.55em" height=".6em" x="16.68em" y="8.1em" fill="#50BFE2" stroke="#50BFE2"/><rect width="1.76em" height=".6em" x="19.23em" y="8.1em" fill="#00ACD7" stroke="#00ACD7"/><text x="13.5em" y="8.7em" text-anchor="end"><tspan class="size">4,351 (<tspan fill="#CE3262">1</tspan>, <tspan fill="#D77A95">2</tspan>, <tspan fill="#E6B1C1">2</tspan>, <tspan fill="#ccc">12</tspan>, <tspan fill="#77CCE9">10</tspan>, <tspan fill="#50BFE2">26</tspan>, <tspan fill="#00ACD7">18</tspan>%)</tspan></text><text x="21.49em" y="8.7em"><tspan class="size">I am confident in the leadership of Go (11:1) [13:1]</tspan></text></svg>