<svg xmlns="http://www.w3.org/2000/svg" width="70em" height="11.6em" version="1.1"><defs><style type="text/css">svg{font-family:&quot;Helvetica Neue&quot;,Arial,sans-serif}tspan.size{font-size:.8em}tspan.head{font-weight:700}</style></defs><text x="0em" y="1.2em" class="head"><tspan class="size">To what extent do you agree or disagree with the following statements:</tspan></text><text x="0em" y="2.4em"><tspan class="size">(<tspan fill="#CE3262">strongly disagree</tspan>, <tspan fill="#D77A95">disagree</tspan>, <tspan fill="#E6B1C1">somewhat disagree</tspan>, <tspan fill="#ccc">neither agree nor disagree</tspan>, <tspan fill="#77CCE9">somewhat agree</tspan>, <tspan fill="#50BFE2">agree</tspan>, <tspan fill="#00ACD7">strongly agree</tspan>)</tspan></text><rect width=".1em" height=".6em" x="14em" y="3.3em" fill="#CE3262" stroke="#CE3262"/><rect width=".25em" height=".6em" x="14.1em" y="3.3em" fill="#D77A95" stroke="#D77A95"/><rect width=".44em" height=".6em" x="14.35em" y="3.3em" fill="#E6B1C1" stroke="#E6B1C1"/><rect width=".65em" height=".6em" x="14.79em" y="3.3em" fill="#ccc" stroke="#ccc"/><rect width="2.74em" height=".6em" x="15.44em" y="3.3em" fill="#77CCE9" stroke="#77CCE9"/><rect width="3.41em" height=".6em" x="18.19em" y="3.3em" fill="#50BFE2" stroke="#50BFE2"/><rect width="1.32em" height=".6em" x="21.6em" y="3.3em" fill="#00ACD7" stroke="#00ACD7"/><text x="13.5em" y="3.9em" text-anchor="end"><tspan class="size">5,555 (<tspan fill="#CE3262">1</tspan>, <tspan fill="#D77A95">2</tspan>, <tspan fill="#E6B1C1">4</tspan>, <tspan fill="#ccc">7</tspan>, <tspan fill="#77CCE9">27</tspan>, <tspan fill="#50BFE2">34</tspan>, <tspan fill="#00ACD7">13</tspan>%)</tspan></text><text x="23.42em" y="3.9em"><tspan class="size">I have a good understanding of Go best practices (9.5:1) [11:1]</tspan></text><rect width=".04em" height=".6em" x="14em" y="4.5em" fill="#CE3262" stroke="#CE3262"/><rect width=".09em" height=".6em" x="14.04em" y="4.5em" fill="#D77A95" stroke="#D77A95"/><rect width=".26em" height=".6em" x="14.13em" y="4.5em" fill="#E6B1C1" stroke="#E6B1C1"/><rect width=".38em" height=".6em" x="14.4em" y="4.5em" fill="#ccc" stroke="#ccc"/><rect width="1.71em" height=".6em" x="14.78em" y="4.5em" fill="#77CCE9" stroke="#77CCE9"/><rect width="4.17em" height=".6em" x="16.48em" y="4.5em" fill="#50BFE2" stroke="#50BFE2"/><rect width="2.26em" height=".6em" x="20.66em" y="4.5em" fill="#00ACD7" stroke="#00ACD7"/><text x="13.5em" y="5.1em" text-anchor="end"><tspan class="size">5,549 (<tspan fill="#CE3262">0.4</tspan>, <tspan fill="#D77A95">0.9</tspan>, <tspan fill="#E6B1C1">3</tspan>, <tspan fill="#ccc">4</tspan>, <tspan fill="#77CCE9">17</tspan>, <tspan fill="#50BFE2">42</tspan>, <tspan fill="#00ACD7">23</tspan>%)</tspan></text><text x="23.41em" y="5.1em"><tspan class="size">I am able to quickly find answers to my questions (21:1) [31:1]</tspan></text><rect width=".04em" height=".6em" x="14em" y="5.7em" fill="#CE3262" stroke="#CE3262"/><rect width=".04em" height=".6em" x="14.04em" y="5.7em" fill="#D77A95" stroke="#D77A95"/><rect width=".1em" height=".6em" x="14.08em" y="5.7em" fill="#E6B1C1" stroke="#E6B1C1"/><rect width=".17em" height=".6em" x="14.18em" y="5.7em" fill="#ccc" stroke="#ccc"/><rect width=".64em" height=".6em" x="14.35em" y="5.7em" fill="#77CCE9" stroke="#77CCE9"/><rect width="3.19em" height=".6em" x="14.99em" y="5.7em" fill="#50BFE2" stroke="#50BFE2"/><rect width="4.7em" height=".6em" x="18.18em" y="5.7em" fill="#00ACD7" stroke="#00ACD7"/><text x="13.5em" y="6.3em" text-anchor="end"><tspan class="size">5,528 (<tspan fill="#CE3262">0.4</tspan>, <tspan fill="#D77A95">0.4</tspan>, <tspan fill="#E6B1C1">1</tspan>, <tspan fill="#ccc">2</tspan>, <tspan fill="#77CCE9">6</tspan>, <tspan fill="#50BFE2">32</tspan>, <tspan fill="#00ACD7">47</tspan>%)</tspan></text><text x="23.38em" y="6.3em"><tspan class="size">Go&apos;s performance meets my needs (48:1) [80:1]</tspan></text><rect width=".11em" height=".6em" x="14em" y="6.9em" fill="#CE3262" stroke="#CE3262"/><rect width=".24em" height=".6em" x="14.11em" y="6.9em" fill="#D77A95" stroke="#D77A95"/><rect width=".44em" height=".6em" x="14.35em" y="6.9em" fill="#E6B1C1" stroke="#E6B1C1"/><rect width="1.21em" height=".6em" x="14.79em" y="6.9em" fill="#ccc" stroke="#ccc"/><rect width="1.47em" height=".6em" x="16em" y="6.9em" fill="#77CCE9" stroke="#77CCE9"/><rect width="2.6em" height=".6em" x="17.47em" y="6.9em" fill="#50BFE2" stroke="#50BFE2"/><rect width="1.34em" height=".6em" x="20.07em" y="6.9em" fill="#00ACD7" stroke="#00ACD7"/><text x="13.5em" y="7.5em" text-anchor="end"><tspan class="size">4,614 (<tspan fill="#CE3262">1</tspan>, <tspan fill="#D77A95">2</tspan>, <tspan fill="#E6B1C1">4</tspan>, <tspan fill="#ccc">12</tspan>, <tspan fill="#77CCE9">15</tspan>, <tspan fill="#50BFE2">26</tspan>, <tspan fill="#00ACD7">13</tspan>%)</tspan></text><text x="21.91em" y="7.5em"><tspan class="size">Go&apos;s support for language interoperability meets my needs (6.8:1) [8.8:1]</tspan></text><rect width=".08em" height=".6em" x="14em" y="8.1em" fill="#CE3262" stroke="#CE3262"/><rect width=".2em" height=".6em" x="14.08em" y="8.1em" fill="#D77A95" stroke="#D77A95"/><rect width=".55em" height=".6em" x="14.28em" y="8.1em" fill="#E6B1C1" stroke="#E6B1C1"/><rect width=".58em" height=".6em" x="14.83em" y="8.1em" fill="#ccc" stroke="#ccc"/><rect width="2.44em" height=".6em" x="15.41em" y="8.1em" fill="#77CCE9" stroke="#77CCE9"/><rect width="3.61em" height=".6em" x="17.85em" y="8.1em" fill="#50BFE2" stroke="#50BFE2"/><rect width="1.34em" height=".6em" x="21.46em" y="8.1em" fill="#00ACD7" stroke="#00ACD7"/><text x="13.5em" y="8.7em" text-anchor="end"><tspan class="size">5,478 (<tspan fill="#CE3262">0.8</tspan>, <tspan fill="#D77A95">2</tspan>, <tspan fill="#E6B1C1">5</tspan>, <tspan fill="#ccc">6</tspan>, <tspan fill="#77CCE9">24</tspan>, <tspan fill="#50BFE2">36</tspan>, <tspan fill="#00ACD7">13</tspan>%)</tspan></text><text x="23.3em" y="8.7em"><tspan class="size">I am able to quickly find libraries that I need (8.9:1) [12:1]</tspan></text><rect width=".09em" height=".6em" x="14em" y="9.3em" fill="#CE3262" stroke="#CE3262"/><rect width=".19em" height=".6em" x="14.09em" y="9.3em" fill="#D77A95" stroke="#D77A95"/><rect width=".51em" height=".6em" x="14.28em" y="9.3em" fill="#E6B1C1" stroke="#E6B1C1"/><rect width=".69em" height=".6em" x="14.8em" y="9.3em" fill="#ccc" stroke="#ccc"/><rect width="2.33em" height=".6em" x="15.49em" y="9.3em" fill="#77CCE9" stroke="#77CCE9"/><rect width="3.68em" height=".6em" x="17.81em" y="9.3em" fill="#50BFE2" stroke="#50BFE2"/><rect width="1.25em" height=".6em" x="21.49em" y="9.3em" fill="#00ACD7" stroke="#00ACD7"/><text x="13.5em" y="9.9em" text-anchor="end"><tspan class="size">5,443 (<tspan fill="#CE3262">0.9</tspan>, <tspan fill="#D77A95">2</tspan>, <tspan fill="#E6B1C1">5</tspan>, <tspan fill="#ccc">7</tspan>, <tspan fill="#77CCE9">23</tspan>, <tspan fill="#50BFE2">37</tspan>, <tspan fill="#00ACD7">12</tspan>%)</tspan></text><text x="23.24em" y="9.9em"><tspan class="size">The Go libraries I use have the stability and features I need (9.1:1) [12:1]</tspan></text><rect width=".08em" height=".6em" x="14em" y="10.5em" fill="#CE3262" stroke="#CE3262"/><rect width=".19em" height=".6em" x="14.08em" y="10.5em" fill="#D77A95" stroke="#D77A95"/><rect width=".42em" height=".6em" x="14.27em" y="10.5em" fill="#E6B1C1" stroke="#E6B1C1"/><rect width=".51em" height=".6em" x="14.7em" y="10.5em" fill="#ccc" stroke="#ccc"/><rect width="1.71em" height=".6em" x="15.21em" y="10.5em" fill="#77CCE9" stroke="#77CCE9"/><rect width="3.71em" height=".6em" x="16.92em" y="10.5em" fill="#50BFE2" stroke="#50BFE2"/><rect width="2.24em" height=".6em" x="20.63em" y="10.5em" fill="#00ACD7" stroke="#00ACD7"/><text x="13.5em" y="11.1em" text-anchor="end"><tspan class="size">5,521 (<tspan fill="#CE3262">0.8</tspan>, <tspan fill="#D77A95">2</tspan>, <tspan fill="#E6B1C1">4</tspan>, <tspan fill="#ccc">5</tspan>, <tspan fill="#77CCE9">17</tspan>, <tspan fill="#50BFE2">37</tspan>, <tspan fill="#00ACD7">22</tspan>%)</tspan></text><text x="23.37em" y="11.1em"><tspan class="size">Go language, library, and tool documentation meet my needs (11:1) [16:1]</tspan></text></svg>