<svg xmlns="http://www.w3.org/2000/svg" width="70em" height="18.8em" version="1.1"><defs><style type="text/css">svg{font-family:&quot;Helvetica Neue&quot;,Arial,sans-serif}tspan.size{font-size:.8em}tspan.head{font-weight:700}</style></defs><text x="0em" y="1.2em" class="head"><tspan class="size">Rank the following in terms of where you get Go answers from:</tspan></text><rect width="2.81em" height=".6em" x="12em" y="2.1em" fill="#00acd7" stroke="#00acd7"/><rect width="1.99em" height=".6em" x="14.81em" y="2.1em" fill="#2eb8da" stroke="#2eb8da"/><rect width="1.31em" height=".6em" x="16.8em" y="2.1em" fill="#5cc4dd" stroke="#5cc4dd"/><rect width=".6em" height=".6em" x="18.12em" y="2.1em" fill="#8ad0e0" stroke="#8ad0e0"/><rect width=".25em" height=".6em" x="18.72em" y="2.1em" fill="#b8dce3" stroke="#b8dce3"/><text x="11.5em" y="2.7em" text-anchor="end"><tspan class="size">4,337 (<tspan fill="#00acd7">28</tspan>, <tspan fill="#2eb8da">20</tspan>, <tspan fill="#5cc4dd">13</tspan>, <tspan fill="#8ad0e0">6</tspan>, <tspan fill="#b8dce3">2</tspan>%)</tspan></text><text x="19.47em" y="2.7em"><tspan class="size">Stack Overflow</tspan></text><rect width="2.9em" height=".6em" x="12em" y="3.3em" fill="#00acd7" stroke="#00acd7"/><rect width="1.73em" height=".6em" x="14.9em" y="3.3em" fill="#2eb8da" stroke="#2eb8da"/><rect width=".93em" height=".6em" x="16.64em" y="3.3em" fill="#5cc4dd" stroke="#5cc4dd"/><rect width=".39em" height=".6em" x="17.56em" y="3.3em" fill="#8ad0e0" stroke="#8ad0e0"/><rect width=".14em" height=".6em" x="17.95em" y="3.3em" fill="#b8dce3" stroke="#b8dce3"/><text x="11.5em" y="3.9em" text-anchor="end"><tspan class="size">3,791 (<tspan fill="#00acd7">29</tspan>, <tspan fill="#2eb8da">17</tspan>, <tspan fill="#5cc4dd">9</tspan>, <tspan fill="#8ad0e0">4</tspan>, <tspan fill="#b8dce3">1</tspan>%)</tspan></text><text x="18.59em" y="3.9em"><tspan class="size">golang.org</tspan></text><rect width="1.25em" height=".6em" x="12em" y="4.5em" fill="#00acd7" stroke="#00acd7"/><rect width="1.68em" height=".6em" x="13.25em" y="4.5em" fill="#2eb8da" stroke="#2eb8da"/><rect width="1.39em" height=".6em" x="14.94em" y="4.5em" fill="#5cc4dd" stroke="#5cc4dd"/><rect width=".83em" height=".6em" x="16.33em" y="4.5em" fill="#8ad0e0" stroke="#8ad0e0"/><rect width=".24em" height=".6em" x="17.16em" y="4.5em" fill="#b8dce3" stroke="#b8dce3"/><text x="11.5em" y="5.1em" text-anchor="end"><tspan class="size">3,362 (<tspan fill="#00acd7">13</tspan>, <tspan fill="#2eb8da">17</tspan>, <tspan fill="#5cc4dd">14</tspan>, <tspan fill="#8ad0e0">8</tspan>, <tspan fill="#b8dce3">2</tspan>%)</tspan></text><text x="17.9em" y="5.1em"><tspan class="size">Reading source code (e.g., standard library, open-source packages)</tspan></text><rect width=".37em" height=".6em" x="12em" y="5.7em" fill="#00acd7" stroke="#00acd7"/><rect width="1.11em" height=".6em" x="12.37em" y="5.7em" fill="#2eb8da" stroke="#2eb8da"/><rect width="1.33em" height=".6em" x="13.47em" y="5.7em" fill="#5cc4dd" stroke="#5cc4dd"/><rect width=".79em" height=".6em" x="14.81em" y="5.7em" fill="#8ad0e0" stroke="#8ad0e0"/><rect width=".3em" height=".6em" x="15.6em" y="5.7em" fill="#b8dce3" stroke="#b8dce3"/><text x="11.5em" y="6.3em" text-anchor="end"><tspan class="size">2,428 (<tspan fill="#00acd7">4</tspan>, <tspan fill="#2eb8da">11</tspan>, <tspan fill="#5cc4dd">13</tspan>, <tspan fill="#8ad0e0">8</tspan>, <tspan fill="#b8dce3">3</tspan>%)</tspan></text><text x="16.4em" y="6.3em"><tspan class="size">GitHub</tspan></text><rect width=".46em" height=".6em" x="12em" y="6.9em" fill="#00acd7" stroke="#00acd7"/><rect width=".55em" height=".6em" x="12.46em" y="6.9em" fill="#2eb8da" stroke="#2eb8da"/><rect width=".59em" height=".6em" x="13.01em" y="6.9em" fill="#5cc4dd" stroke="#5cc4dd"/><rect width=".48em" height=".6em" x="13.6em" y="6.9em" fill="#8ad0e0" stroke="#8ad0e0"/><rect width=".19em" height=".6em" x="14.07em" y="6.9em" fill="#b8dce3" stroke="#b8dce3"/><text x="11.5em" y="7.5em" text-anchor="end"><tspan class="size">1,408 (<tspan fill="#00acd7">5</tspan>, <tspan fill="#2eb8da">6</tspan>, <tspan fill="#5cc4dd">6</tspan>, <tspan fill="#8ad0e0">5</tspan>, <tspan fill="#b8dce3">2</tspan>%)</tspan></text><text x="14.76em" y="7.5em"><tspan class="size">Coworkers</tspan></text><rect width=".17em" height=".6em" x="12em" y="8.1em" fill="#00acd7" stroke="#00acd7"/><rect width=".41em" height=".6em" x="12.17em" y="8.1em" fill="#2eb8da" stroke="#2eb8da"/><rect width=".52em" height=".6em" x="12.58em" y="8.1em" fill="#5cc4dd" stroke="#5cc4dd"/><rect width=".38em" height=".6em" x="13.1em" y="8.1em" fill="#8ad0e0" stroke="#8ad0e0"/><rect width=".24em" height=".6em" x="13.48em" y="8.1em" fill="#b8dce3" stroke="#b8dce3"/><text x="11.5em" y="8.7em" text-anchor="end"><tspan class="size">1,071 (<tspan fill="#00acd7">2</tspan>, <tspan fill="#2eb8da">4</tspan>, <tspan fill="#5cc4dd">5</tspan>, <tspan fill="#8ad0e0">4</tspan>, <tspan fill="#b8dce3">2</tspan>%)</tspan></text><text x="14.22em" y="8.7em"><tspan class="size">golang-nuts mailing list (groups.google.com/d/forum/golang-nuts)</tspan></text><rect width=".12em" height=".6em" x="12em" y="9.3em" fill="#00acd7" stroke="#00acd7"/><rect width=".24em" height=".6em" x="12.12em" y="9.3em" fill="#2eb8da" stroke="#2eb8da"/><rect width=".38em" height=".6em" x="12.36em" y="9.3em" fill="#5cc4dd" stroke="#5cc4dd"/><rect width=".39em" height=".6em" x="12.74em" y="9.3em" fill="#8ad0e0" stroke="#8ad0e0"/><rect width=".31em" height=".6em" x="13.13em" y="9.3em" fill="#b8dce3" stroke="#b8dce3"/><text x="11.5em" y="9.9em" text-anchor="end"><tspan class="size">895 (<tspan fill="#00acd7">1</tspan>, <tspan fill="#2eb8da">2</tspan>, <tspan fill="#5cc4dd">4</tspan>, <tspan fill="#8ad0e0">4</tspan>, <tspan fill="#b8dce3">3</tspan>%)</tspan></text><text x="13.94em" y="9.9em"><tspan class="size">Reddit (r/golang)</tspan></text><rect width=".15em" height=".6em" x="12em" y="10.5em" fill="#00acd7" stroke="#00acd7"/><rect width=".17em" height=".6em" x="12.15em" y="10.5em" fill="#2eb8da" stroke="#2eb8da"/><rect width=".25em" height=".6em" x="12.32em" y="10.5em" fill="#5cc4dd" stroke="#5cc4dd"/><rect width=".2em" height=".6em" x="12.56em" y="10.5em" fill="#8ad0e0" stroke="#8ad0e0"/><rect width=".15em" height=".6em" x="12.76em" y="10.5em" fill="#b8dce3" stroke="#b8dce3"/><text x="11.5em" y="11.1em" text-anchor="end"><tspan class="size">569 (<tspan fill="#00acd7">1</tspan>, <tspan fill="#2eb8da">2</tspan>, <tspan fill="#5cc4dd">2</tspan>, <tspan fill="#8ad0e0">2</tspan>, <tspan fill="#b8dce3">2</tspan>%)</tspan></text><text x="13.41em" y="11.1em"><tspan class="size">Gopher Slack (invite.slack.golangbridge.org)</tspan></text><rect width=".09em" height=".6em" x="12em" y="11.7em" fill="#00acd7" stroke="#00acd7"/><rect width=".12em" height=".6em" x="12.09em" y="11.7em" fill="#2eb8da" stroke="#2eb8da"/><rect width=".18em" height=".6em" x="12.22em" y="11.7em" fill="#5cc4dd" stroke="#5cc4dd"/><rect width=".15em" height=".6em" x="12.39em" y="11.7em" fill="#8ad0e0" stroke="#8ad0e0"/><rect width=".15em" height=".6em" x="12.54em" y="11.7em" fill="#b8dce3" stroke="#b8dce3"/><text x="11.5em" y="12.3em" text-anchor="end"><tspan class="size">432 (<tspan fill="#00acd7">0.9</tspan>, <tspan fill="#2eb8da">1</tspan>, <tspan fill="#5cc4dd">2</tspan>, <tspan fill="#8ad0e0">2</tspan>, <tspan fill="#b8dce3">2</tspan>%)</tspan></text><text x="13.19em" y="12.3em"><tspan class="size">Friends</tspan></text><rect width=".05em" height=".6em" x="12em" y="12.9em" fill="#00acd7" stroke="#00acd7"/><rect width=".07em" height=".6em" x="12.05em" y="12.9em" fill="#2eb8da" stroke="#2eb8da"/><rect width=".09em" height=".6em" x="12.12em" y="12.9em" fill="#5cc4dd" stroke="#5cc4dd"/><rect width=".13em" height=".6em" x="12.21em" y="12.9em" fill="#8ad0e0" stroke="#8ad0e0"/><rect width=".11em" height=".6em" x="12.34em" y="12.9em" fill="#b8dce3" stroke="#b8dce3"/><text x="11.5em" y="13.5em" text-anchor="end"><tspan class="size">283 (<tspan fill="#00acd7">0.5</tspan>, <tspan fill="#2eb8da">0.7</tspan>, <tspan fill="#5cc4dd">0.9</tspan>, <tspan fill="#8ad0e0">1</tspan>, <tspan fill="#b8dce3">1</tspan>%)</tspan></text><text x="12.95em" y="13.5em"><tspan class="size">Twitter</tspan></text><rect width=".02em" height=".6em" x="12em" y="14.1em" fill="#00acd7" stroke="#00acd7"/><rect width=".08em" height=".6em" x="12.02em" y="14.1em" fill="#2eb8da" stroke="#2eb8da"/><rect width=".08em" height=".6em" x="12.1em" y="14.1em" fill="#5cc4dd" stroke="#5cc4dd"/><rect width=".1em" height=".6em" x="12.19em" y="14.1em" fill="#8ad0e0" stroke="#8ad0e0"/><rect width=".06em" height=".6em" x="12.29em" y="14.1em" fill="#b8dce3" stroke="#b8dce3"/><text x="11.5em" y="14.7em" text-anchor="end"><tspan class="size">214 (<tspan fill="#00acd7">0.2</tspan>, <tspan fill="#2eb8da">0.8</tspan>, <tspan fill="#5cc4dd">0.8</tspan>, <tspan fill="#8ad0e0">1</tspan>, <tspan fill="#b8dce3">0.6</tspan>%)</tspan></text><text x="12.84em" y="14.7em"><tspan class="size">Go Forum (forum.golangbridge.org)</tspan></text><rect width=".05em" height=".6em" x="12em" y="15.3em" fill="#00acd7" stroke="#00acd7"/><rect width=".07em" height=".6em" x="12.05em" y="15.3em" fill="#2eb8da" stroke="#2eb8da"/><rect width=".07em" height=".6em" x="12.11em" y="15.3em" fill="#5cc4dd" stroke="#5cc4dd"/><rect width=".06em" height=".6em" x="12.19em" y="15.3em" fill="#8ad0e0" stroke="#8ad0e0"/><rect width=".05em" height=".6em" x="12.25em" y="15.3em" fill="#b8dce3" stroke="#b8dce3"/><text x="11.5em" y="15.9em" text-anchor="end"><tspan class="size">186 (<tspan fill="#00acd7">0.5</tspan>, <tspan fill="#2eb8da">0.7</tspan>, <tspan fill="#5cc4dd">0.7</tspan>, <tspan fill="#8ad0e0">0.6</tspan>, <tspan fill="#b8dce3">0.5</tspan>%)</tspan></text><text x="12.8em" y="15.9em"><tspan class="size">IRC</tspan></text><rect width=".2em" height=".6em" x="12em" y="16.5em" fill="#777" stroke="#777"/><rect width=".14em" height=".6em" x="12.2em" y="16.5em" fill="#8e8e8e" stroke="#8e8e8e"/><rect width=".12em" height=".6em" x="12.34em" y="16.5em" fill="#a5a5a5" stroke="#a5a5a5"/><rect width=".09em" height=".6em" x="12.46em" y="16.5em" fill="#bcbcbc" stroke="#bcbcbc"/><rect width=".07em" height=".6em" x="12.55em" y="16.5em" fill="#d3d3d3" stroke="#d3d3d3"/><text x="11.5em" y="17.1em" text-anchor="end"><tspan class="size">386 (<tspan fill="#777">2</tspan>, <tspan fill="#8e8e8e">1</tspan>, <tspan fill="#a5a5a5">1</tspan>, <tspan fill="#bcbcbc">0.9</tspan>, <tspan fill="#d3d3d3">0.7</tspan>%)</tspan></text><text x="13.12em" y="17.1em"><tspan class="size">Other</tspan></text><rect width="1.36em" height=".6em" x="12em" y="17.7em" fill="#fff" stroke="#000"/><text x="11.5em" y="18.3em" text-anchor="end"><tspan class="size">844 (14%)</tspan></text><text x="13.86em" y="18.3em"><tspan class="size">No response</tspan></text></svg>