<svg xmlns="http://www.w3.org/2000/svg" xmlns:xlink="http://www.w3.org/1999/xlink" width="100%" height="100%" version="1.1" viewBox="0 0 700 266" xml:space="preserve" style="fill-rule:evenodd;clip-rule:evenodd;stroke-linecap:round;stroke-linejoin:round;stroke-miterlimit:1.5"><g><path d="M296.054,117.621c0,-3.812 -3.095,-6.906 -6.906,-6.906l-281.741,0c-3.812,0 -6.907,3.094 -6.907,6.906l0,13.814c0,3.812 3.095,6.906 6.907,6.906l281.741,0c3.811,0 6.906,-3.094 6.906,-6.906l0,-13.814Z" style="fill:none;stroke:#e62626;stroke-width:1px"/><path d="M681.054,158.282c0,-4.074 -3.307,-7.381 -7.381,-7.381l-286.125,0c-4.074,0 -7.381,3.307 -7.381,7.381l0,14.762c0,4.074 3.307,7.381 7.381,7.381l286.125,0c4.074,0 7.381,-3.307 7.381,-7.381l0,-14.762Z" style="fill:none;stroke:#e62626;stroke-width:1px"/><path d="M316.041,132.267l2.681,-4.438l36.027,21.77l2.49,-4.121l2.509,10.17l-10.17,2.509l2.49,-4.121l-36.027,-21.769Z" style="fill:none;stroke:#e62626;stroke-width:1px"/></g><g><text x="15.245" y="14.375" style="font-family:'Arial-BoldMT','Arial',sans-serif;font-weight:700;font-size:20px">2016</text><text x="399.245" y="14.375" style="font-family:'Arial-BoldMT','Arial',sans-serif;font-weight:700;font-size:20px">2017</text></g><g><text x="-.484" y="30.577" style="font-family:'HelveticaNeue','Helvetica Neue';font-size:12px">I work in the following ar<tspan x="129.944 136.388" y="30.577 30.577">ea</tspan>s: (multiple choice)</text><rect width="75.84" height="7.2" x="86.516" y="41.377" style="fill:#00c4b3;stroke:#00c4b3;stroke-width:1px;stroke-linecap:butt;stroke-linejoin:miter;stroke-miterlimit:4"/><text x="15.596" y="48.577" style="font-family:'HelveticaNeue','Helvetica Neue';font-size:12px">2,272 (63%)</text><text x="168.356" y="48.577" style="font-family:'HelveticaNeue','Helvetica Neue';font-size:12px">W<tspan x="178.784 185.228" y="48.577 48.577">eb</tspan> development</text><rect width="45.36" height="7.2" x="86.516" y="55.777" style="fill:#00c4b3;stroke:#00c4b3;stroke-width:1px;stroke-linecap:butt;stroke-linejoin:miter;stroke-miterlimit:4"/><text x="15.596" y="62.977" style="font-family:'HelveticaNeue','Helvetica Neue';font-size:12px">1,359 (38%)</text><text x="137.876" y="62.977" style="font-family:'HelveticaNeue','Helvetica Neue';font-size:12px">Systems pr<tspan x="198.344 205.232" y="62.977 62.977">og</tspan>ramming</text><rect width="41.76" height="7.2" x="86.516" y="70.177" style="fill:#00c4b3;stroke:#00c4b3;stroke-width:1px;stroke-linecap:butt;stroke-linejoin:miter;stroke-miterlimit:4"/><text x="15.596" y="77.377" style="font-family:'HelveticaNeue','Helvetica Neue';font-size:12px">1,251 (35%)</text><text x="134.276" y="77.377" style="font-family:'HelveticaNeue','Helvetica Neue';font-size:12px">DevOps</text><rect width="39" height="7.2" x="86.516" y="84.577" style="fill:#00c4b3;stroke:#00c4b3;stroke-width:1px;stroke-linecap:butt;stroke-linejoin:miter;stroke-miterlimit:4"/><text x="15.596" y="91.777" style="font-family:'HelveticaNeue','Helvetica Neue';font-size:12px">1,169 (33%)</text><text x="131.516" y="91.777" style="font-family:'HelveticaNeue','Helvetica Neue';font-size:12px">Network pr<tspan x="190.844 197.732" y="91.777 91.777">og</tspan>ramming</text><rect width="33.6" height="7.2" x="86.516" y="98.977" style="fill:#00c4b3;stroke:#00c4b3;stroke-width:1px;stroke-linecap:butt;stroke-linejoin:miter;stroke-miterlimit:4"/><text x="15.596" y="106.177" style="font-family:'HelveticaNeue','Helvetica Neue';font-size:12px">1,006 (28%)</text><text x="126.116" y="106.177" style="font-family:'HelveticaNeue','Helvetica Neue';font-size:12px">Databases</text><rect width="17.76" height="7.2" x="86.516" y="113.377" style="fill:#00c4b3;stroke:#00c4b3;stroke-width:1px;stroke-linecap:butt;stroke-linejoin:miter;stroke-miterlimit:4"/><text x="25.604" y="120.577" style="font-family:'HelveticaNeue','Helvetica Neue';font-size:12px">533 (15%)</text><text x="110.276" y="120.577" style="font-family:'HelveticaNeue','Helvetica Neue';font-size:12px">Mobile</text><rect width="16.32" height="7.2" x="86.516" y="127.777" style="fill:#00c4b3;stroke:#00c4b3;stroke-width:1px;stroke-linecap:butt;stroke-linejoin:miter;stroke-miterlimit:4"/><text x="25.604" y="134.977" style="font-family:'HelveticaNeue','Helvetica Neue';font-size:12px">490 (14%)</text><text x="108.836" y="134.977" style="font-family:'HelveticaNeue','Helvetica Neue';font-size:12px">Desktop/GUI applications</text><rect width="15.24" height="7.2" x="86.516" y="142.177" style="fill:#00c4b3;stroke:#00c4b3;stroke-width:1px;stroke-linecap:butt;stroke-linejoin:miter;stroke-miterlimit:4"/><text x="25.604" y="149.377" style="font-family:'HelveticaNeue','Helvetica Neue';font-size:12px">457 (13%)</text><text x="107.756" y="149.377" style="font-family:'HelveticaNeue','Helvetica Neue';font-size:12px">Security</text><rect width="14.52" height="7.2" x="86.516" y="156.577" style="fill:#00c4b3;stroke:#00c4b3;stroke-width:1px;stroke-linecap:butt;stroke-linejoin:miter;stroke-miterlimit:4"/><text x="25.604" y="163.777" style="font-family:'HelveticaNeue','Helvetica Neue';font-size:12px">435 (12%)</text><text x="107.036" y="163.777" style="font-family:'HelveticaNeue','Helvetica Neue';font-size:12px">Data Science</text><rect width="13.92" height="7.2" x="86.516" y="170.977" style="fill:#00c4b3;stroke:#00c4b3;stroke-width:1px;stroke-linecap:butt;stroke-linejoin:miter;stroke-miterlimit:4"/><text x="25.604" y="178.177" style="font-family:'HelveticaNeue','Helvetica Neue';font-size:12px">417 (12%)</text><text x="106.436" y="178.177" style="font-family:'HelveticaNeue','Helvetica Neue';font-size:12px">Finance/Commer<tspan x="198.908 205.352" y="178.177 178.177">ce</tspan></text><rect width="13.2" height="7.2" x="86.516" y="185.377" style="fill:#00c4b3;stroke:#00c4b3;stroke-width:1px;stroke-linecap:butt;stroke-linejoin:miter;stroke-miterlimit:4"/><text x="25.604" y="192.577" style="font-family:'HelveticaNeue','Helvetica Neue';font-size:12px">394 (11%)</text><text x="105.716" y="192.577" style="font-family:'HelveticaNeue','Helvetica Neue';font-size:12px">Embedded devices/Inter<tspan x="237.296 243.968" y="192.577 192.577">ne</tspan>t of Things</text><rect width="12.6" height="7.2" x="86.516" y="199.777" style="fill:#00c4b3;stroke:#00c4b3;stroke-width:1px;stroke-linecap:butt;stroke-linejoin:miter;stroke-miterlimit:4"/><text x="25.604" y="206.977" style="font-family:'HelveticaNeue','Helvetica Neue';font-size:12px">379 (11%)</text><text x="105.116" y="206.977" style="font-family:'HelveticaNeue','Helvetica Neue';font-size:12px">Academic/Scientiﬁc/Numeric</text><rect width="7.56" height="7.2" x="86.516" y="214.177" style="fill:#00c4b3;stroke:#00c4b3;stroke-width:1px;stroke-linecap:butt;stroke-linejoin:miter;stroke-miterlimit:4"/><text x="25.604" y="221.377" style="font-family:'HelveticaNeue','Helvetica Neue';font-size:12px">228 (6%)</text><text x="100.076" y="221.377" style="font-family:'HelveticaNeue','Helvetica Neue';font-size:12px">Gaming</text><rect width="7.92" height="7.2" x="86.516" y="228.577" style="fill:#777;stroke:#777;stroke-width:1px;stroke-linecap:butt;stroke-linejoin:miter;stroke-miterlimit:4"/><text x="25.604" y="235.777" style="font-family:'HelveticaNeue','Helvetica Neue';font-size:12px">238 (7%)</text><text x="100.436" y="235.777" style="font-family:'HelveticaNeue','Helvetica Neue';font-size:12px">Other</text><rect width="2.52" height="7.2" x="86.516" y="242.977" style="fill:#fff;stroke:#000;stroke-width:1px;stroke-linecap:butt;stroke-linejoin:miter;stroke-miterlimit:4"/><text x="32.276" y="250.177" style="font-family:'HelveticaNeue','Helvetica Neue';font-size:12px">74 (2%)</text><text x="95.036" y="250.177" style="font-family:'HelveticaNeue','Helvetica Neue';font-size:12px">No r<tspan x="117.704 124.148" y="250.177 250.177">es</tspan>ponse</text></g><g><text x="389.261" y="29.197" style="font-family:'HelveticaNeue','Helvetica Neue';font-size:12px">I work in the following ar<tspan x="519.689 526.133" y="29.197 29.197">ea</tspan>s: (multiple choice)</text><rect width="73.32" height="7.2" x="476.261" y="39.997" style="fill:#00acd7;stroke:#00acd7;stroke-width:1px;stroke-linecap:butt;stroke-linejoin:miter;stroke-miterlimit:4"/><text x="405.341" y="47.197" style="font-family:'HelveticaNeue','Helvetica Neue';font-size:12px">3,807 (61%)</text><text x="555.581" y="47.197" style="font-family:'HelveticaNeue','Helvetica Neue';font-size:12px">W<tspan x="566.009 572.453" y="47.197 47.197">eb</tspan> development</text><rect width="44.64" height="7.2" x="476.261" y="54.397" style="fill:#00acd7;stroke:#00acd7;stroke-width:1px;stroke-linecap:butt;stroke-linejoin:miter;stroke-miterlimit:4"/><text x="405.341" y="61.597" style="font-family:'HelveticaNeue','Helvetica Neue';font-size:12px">2,319 (37%)</text><text x="526.901" y="61.597" style="font-family:'HelveticaNeue','Helvetica Neue';font-size:12px">Systems pr<tspan x="587.369 594.257" y="61.597 61.597">og</tspan>ramming</text><rect width="43.32" height="7.2" x="476.261" y="68.797" style="fill:#00acd7;stroke:#00acd7;stroke-width:1px;stroke-linecap:butt;stroke-linejoin:miter;stroke-miterlimit:4"/><text x="405.341" y="75.997" style="font-family:'HelveticaNeue','Helvetica Neue';font-size:12px">2,250 (36%)</text><text x="525.581" y="75.997" style="font-family:'HelveticaNeue','Helvetica Neue';font-size:12px">DevOps</text><rect width="37.92" height="7.2" x="476.261" y="83.197" style="fill:#00acd7;stroke:#00acd7;stroke-width:1px;stroke-linecap:butt;stroke-linejoin:miter;stroke-miterlimit:4"/><text x="405.341" y="90.397" style="font-family:'HelveticaNeue','Helvetica Neue';font-size:12px">1,969 (32%)</text><text x="520.181" y="90.397" style="font-family:'HelveticaNeue','Helvetica Neue';font-size:12px">Network pr<tspan x="579.509 586.397" y="90.397 90.397">og</tspan>ramming</text><rect width="33.72" height="7.2" x="476.261" y="97.597" style="fill:#00acd7;stroke:#00acd7;stroke-width:1px;stroke-linecap:butt;stroke-linejoin:miter;stroke-miterlimit:4"/><text x="405.341" y="104.797" style="font-family:'HelveticaNeue','Helvetica Neue';font-size:12px">1,751 (28%)</text><text x="515.981" y="104.797" style="font-family:'HelveticaNeue','Helvetica Neue';font-size:12px">Databases</text><rect width="16.32" height="7.2" x="476.261" y="111.997" style="fill:#00acd7;stroke:#00acd7;stroke-width:1px;stroke-linecap:butt;stroke-linejoin:miter;stroke-miterlimit:4"/><text x="415.349" y="119.197" style="font-family:'HelveticaNeue','Helvetica Neue';font-size:12px">848 (14%)</text><text x="498.581" y="119.197" style="font-family:'HelveticaNeue','Helvetica Neue';font-size:12px">Security</text><rect width="15" height="7.2" x="476.261" y="126.397" style="fill:#00acd7;stroke:#00acd7;stroke-width:1px;stroke-linecap:butt;stroke-linejoin:miter;stroke-miterlimit:4"/><text x="415.349" y="133.597" style="font-family:'HelveticaNeue','Helvetica Neue';font-size:12px">777 (12%)</text><text x="497.261" y="133.597" style="font-family:'HelveticaNeue','Helvetica Neue';font-size:12px">Finance/Commer<tspan x="589.733 596.177" y="133.597 133.597">ce</tspan></text><rect width="13.92" height="7.2" x="476.261" y="140.797" style="fill:#00acd7;stroke:#00acd7;stroke-width:1px;stroke-linecap:butt;stroke-linejoin:miter;stroke-miterlimit:4"/><text x="415.349" y="147.997" style="font-family:'HelveticaNeue','Helvetica Neue';font-size:12px">724 (12%)</text><text x="496.181" y="147.997" style="font-family:'HelveticaNeue','Helvetica Neue';font-size:12px">Data Science</text><rect width="13.44" height="7.2" x="476.261" y="155.197" style="fill:#00acd7;stroke:#00acd7;stroke-width:1px;stroke-linecap:butt;stroke-linejoin:miter;stroke-miterlimit:4"/><text x="415.349" y="162.397" style="font-family:'HelveticaNeue','Helvetica Neue';font-size:12px">696 (11%)</text><text x="495.701" y="162.397" style="font-family:'HelveticaNeue','Helvetica Neue';font-size:12px">Mobile</text><rect width="13.32" height="7.2" x="476.261" y="169.597" style="fill:#00acd7;stroke:#00acd7;stroke-width:1px;stroke-linecap:butt;stroke-linejoin:miter;stroke-miterlimit:4"/><text x="415.349" y="176.797" style="font-family:'HelveticaNeue','Helvetica Neue';font-size:12px">694 (11%)</text><text x="495.581" y="176.797" style="font-family:'HelveticaNeue','Helvetica Neue';font-size:12px">Desktop/GUI applications</text><rect width="12.48" height="7.2" x="476.261" y="183.997" style="fill:#00acd7;stroke:#00acd7;stroke-width:1px;stroke-linecap:butt;stroke-linejoin:miter;stroke-miterlimit:4"/><text x="415.349" y="191.197" style="font-family:'HelveticaNeue','Helvetica Neue';font-size:12px">647 (10%)</text><text x="494.741" y="191.197" style="font-family:'HelveticaNeue','Helvetica Neue';font-size:12px">Embedded devices/Inter<tspan x="626.321 632.993" y="191.197 191.197">ne</tspan>t of Things</text><rect width="11.16" height="7.2" x="476.261" y="198.397" style="fill:#00acd7;stroke:#00acd7;stroke-width:1px;stroke-linecap:butt;stroke-linejoin:miter;stroke-miterlimit:4"/><text x="415.349" y="205.597" style="font-family:'HelveticaNeue','Helvetica Neue';font-size:12px">581 (9%)</text><text x="493.421" y="205.597" style="font-family:'HelveticaNeue','Helvetica Neue';font-size:12px">Academic/Scientiﬁc/Numeric</text><rect width="11.16" height="7.2" x="476.261" y="212.797" style="fill:#00acd7;stroke:#00acd7;stroke-width:1px;stroke-linecap:butt;stroke-linejoin:miter;stroke-miterlimit:4"/><text x="415.349" y="219.997" style="font-family:'HelveticaNeue','Helvetica Neue';font-size:12px">581 (9%)</text><text x="493.421" y="219.997" style="font-family:'HelveticaNeue','Helvetica Neue';font-size:12px">Machine Lear<tspan x="566.321 572.993" y="219.997 219.997">ni</tspan>ng/Artiﬁcial Intelligence</text><rect width="6.48" height="7.2" x="476.261" y="227.197" style="fill:#00acd7;stroke:#00acd7;stroke-width:1px;stroke-linecap:butt;stroke-linejoin:miter;stroke-miterlimit:4"/><text x="415.349" y="234.397" style="font-family:'HelveticaNeue','Helvetica Neue';font-size:12px">334 (5%)</text><text x="488.741" y="234.397" style="font-family:'HelveticaNeue','Helvetica Neue';font-size:12px">Gaming</text><rect width="7.32" height="7.2" x="476.261" y="241.597" style="fill:#777;stroke:#777;stroke-width:1px;stroke-linecap:butt;stroke-linejoin:miter;stroke-miterlimit:4"/><text x="415.349" y="248.797" style="font-family:'HelveticaNeue','Helvetica Neue';font-size:12px">381 (6%)</text><text x="489.581" y="248.797" style="font-family:'HelveticaNeue','Helvetica Neue';font-size:12px">Other</text><rect width="2.16" height="7.2" x="476.261" y="255.997" style="fill:#fff;stroke:#000;stroke-width:1px;stroke-linecap:butt;stroke-linejoin:miter;stroke-miterlimit:4"/><text x="415.349" y="263.197" style="font-family:'HelveticaNeue','Helvetica Neue';font-size:12px">111 (2%)</text><text x="484.421" y="263.197" style="font-family:'HelveticaNeue','Helvetica Neue';font-size:12px">No r<tspan x="507.089 513.533" y="263.197 263.197">es</tspan>ponse</text></g></svg>