<svg xmlns="http://www.w3.org/2000/svg" width="70em" height="21.2em" version="1.1"><defs><style type="text/css">svg{font-family:&quot;Helvetica Neue&quot;,Arial,sans-serif}tspan.size{font-size:.8em}tspan.head{font-weight:700}tspan.paren{font-weight:400!important}</style></defs><text x="0em" y="1.2em" class="head"><tspan class="size">I work in the following areas: <tspan class="paren">(multiple choice)</tspan></tspan></text><rect width="6.11em" height=".6em" x="7.25em" y="2.1em" fill="#00ACD7" stroke="#00ACD7"/><text x="6.75em" y="2.7em" text-anchor="end"><tspan class="size">3,807 (61%)</tspan></text><text x="13.86em" y="2.7em"><tspan class="size">Web development</tspan></text><rect width="3.72em" height=".6em" x="7.25em" y="3.3em" fill="#00ACD7" stroke="#00ACD7"/><text x="6.75em" y="3.9em" text-anchor="end"><tspan class="size">2,319 (37%)</tspan></text><text x="11.47em" y="3.9em"><tspan class="size">Systems programming</tspan></text><rect width="3.61em" height=".6em" x="7.25em" y="4.5em" fill="#00ACD7" stroke="#00ACD7"/><text x="6.75em" y="5.1em" text-anchor="end"><tspan class="size">2,250 (36%)</tspan></text><text x="11.36em" y="5.1em"><tspan class="size">DevOps</tspan></text><rect width="3.16em" height=".6em" x="7.25em" y="5.7em" fill="#00ACD7" stroke="#00ACD7"/><text x="6.75em" y="6.3em" text-anchor="end"><tspan class="size">1,969 (32%)</tspan></text><text x="10.91em" y="6.3em"><tspan class="size">Network programming</tspan></text><rect width="2.81em" height=".6em" x="7.25em" y="6.9em" fill="#00ACD7" stroke="#00ACD7"/><text x="6.75em" y="7.5em" text-anchor="end"><tspan class="size">1,751 (28%)</tspan></text><text x="10.56em" y="7.5em"><tspan class="size">Databases</tspan></text><rect width="1.36em" height=".6em" x="7.25em" y="8.1em" fill="#00ACD7" stroke="#00ACD7"/><text x="6.75em" y="8.7em" text-anchor="end"><tspan class="size">848 (14%)</tspan></text><text x="9.11em" y="8.7em"><tspan class="size">Security</tspan></text><rect width="1.25em" height=".6em" x="7.25em" y="9.3em" fill="#00ACD7" stroke="#00ACD7"/><text x="6.75em" y="9.9em" text-anchor="end"><tspan class="size">777 (12%)</tspan></text><text x="9em" y="9.9em"><tspan class="size">Finance/Commerce</tspan></text><rect width="1.16em" height=".6em" x="7.25em" y="10.5em" fill="#00ACD7" stroke="#00ACD7"/><text x="6.75em" y="11.1em" text-anchor="end"><tspan class="size">724 (12%)</tspan></text><text x="8.91em" y="11.1em"><tspan class="size">Data Science</tspan></text><rect width="1.12em" height=".6em" x="7.25em" y="11.7em" fill="#00ACD7" stroke="#00ACD7"/><text x="6.75em" y="12.3em" text-anchor="end"><tspan class="size">696 (11%)</tspan></text><text x="8.87em" y="12.3em"><tspan class="size">Mobile</tspan></text><rect width="1.11em" height=".6em" x="7.25em" y="12.9em" fill="#00ACD7" stroke="#00ACD7"/><text x="6.75em" y="13.5em" text-anchor="end"><tspan class="size">694 (11%)</tspan></text><text x="8.86em" y="13.5em"><tspan class="size">Desktop/GUI applications</tspan></text><rect width="1.04em" height=".6em" x="7.25em" y="14.1em" fill="#00ACD7" stroke="#00ACD7"/><text x="6.75em" y="14.7em" text-anchor="end"><tspan class="size">647 (10%)</tspan></text><text x="8.79em" y="14.7em"><tspan class="size">Embedded devices/Internet of Things</tspan></text><rect width=".93em" height=".6em" x="7.25em" y="15.3em" fill="#00ACD7" stroke="#00ACD7"/><text x="6.75em" y="15.9em" text-anchor="end"><tspan class="size">581 (9%)</tspan></text><text x="8.68em" y="15.9em"><tspan class="size">Academic/Scientific/Numeric</tspan></text><rect width=".93em" height=".6em" x="7.25em" y="16.5em" fill="#00ACD7" stroke="#00ACD7"/><text x="6.75em" y="17.1em" text-anchor="end"><tspan class="size">581 (9%)</tspan></text><text x="8.68em" y="17.1em"><tspan class="size">Machine Learning/Artificial Intelligence</tspan></text><rect width=".54em" height=".6em" x="7.25em" y="17.7em" fill="#00ACD7" stroke="#00ACD7"/><text x="6.75em" y="18.3em" text-anchor="end"><tspan class="size">334 (5%)</tspan></text><text x="8.29em" y="18.3em"><tspan class="size">Gaming</tspan></text><rect width=".61em" height=".6em" x="7.25em" y="18.9em" fill="#777" stroke="#777"/><text x="6.75em" y="19.5em" text-anchor="end"><tspan class="size">381 (6%)</tspan></text><text x="8.36em" y="19.5em"><tspan class="size">Other</tspan></text><rect width=".18em" height=".6em" x="7.25em" y="20.1em" fill="#fff" stroke="#000"/><text x="6.75em" y="20.7em" text-anchor="end"><tspan class="size">111 (2%)</tspan></text><text x="7.93em" y="20.7em"><tspan class="size">No response</tspan></text></svg>