<svg xmlns="http://www.w3.org/2000/svg" width="70em" height="26em" version="1.1"><defs><style type="text/css">svg{font-family:&quot;Helvetica Neue&quot;,Arial,sans-serif}tspan.size{font-size:.8em}tspan.head{font-weight:700}</style></defs><text x="0em" y="1.2em" class="head"><tspan class="size">What is the biggest challenge you personally face using Go today?</tspan></text><rect width=".93em" height=".6em" x="7.25em" y="2.1em" fill="#00ACD7" stroke="#00ACD7"/><text x="6.75em" y="2.7em" text-anchor="end"><tspan class="size">582 (9.3%)</tspan></text><text x="8.68em" y="2.7em"><tspan class="size">lack</tspan></text><rect width=".79em" height=".6em" x="7.25em" y="3.3em" fill="#00ACD7" stroke="#00ACD7"/><text x="6.75em" y="3.9em" text-anchor="end"><tspan class="size">489 (7.9%)</tspan></text><text x="8.54em" y="3.9em"><tspan class="size">generics</tspan></text><rect width=".65em" height=".6em" x="7.25em" y="4.5em" fill="#00ACD7" stroke="#00ACD7"/><text x="6.75em" y="5.1em" text-anchor="end"><tspan class="size">402 (6.5%)</tspan></text><text x="8.4em" y="5.1em"><tspan class="size">management</tspan></text><rect width=".44em" height=".6em" x="7.25em" y="5.7em" fill="#00ACD7" stroke="#00ACD7"/><text x="6.75em" y="6.3em" text-anchor="end"><tspan class="size">277 (4.4%)</tspan></text><text x="8.19em" y="6.3em"><tspan class="size">libraries</tspan></text><rect width=".43em" height=".6em" x="7.25em" y="6.9em" fill="#00ACD7" stroke="#00ACD7"/><text x="6.75em" y="7.5em" text-anchor="end"><tspan class="size">266 (4.3%)</tspan></text><text x="8.18em" y="7.5em"><tspan class="size">dependency management</tspan></text><rect width=".31em" height=".6em" x="7.25em" y="8.1em" fill="#00ACD7" stroke="#00ACD7"/><text x="6.75em" y="8.7em" text-anchor="end"><tspan class="size">194 (3.1%)</tspan></text><text x="8.06em" y="8.7em"><tspan class="size">lack of generics</tspan></text><rect width=".26em" height=".6em" x="7.25em" y="9.3em" fill="#00ACD7" stroke="#00ACD7"/><text x="6.75em" y="9.9em" text-anchor="end"><tspan class="size">159 (2.6%)</tspan></text><text x="8.01em" y="9.9em"><tspan class="size">package</tspan></text><rect width=".22em" height=".6em" x="7.25em" y="10.5em" fill="#00ACD7" stroke="#00ACD7"/><text x="6.75em" y="11.1em" text-anchor="end"><tspan class="size">137 (2.2%)</tspan></text><text x="7.97em" y="11.1em"><tspan class="size">gui</tspan></text><rect width=".22em" height=".6em" x="7.25em" y="11.7em" fill="#00ACD7" stroke="#00ACD7"/><text x="6.75em" y="12.3em" text-anchor="end"><tspan class="size">137 (2.2%)</tspan></text><text x="7.97em" y="12.3em"><tspan class="size">library</tspan></text><rect width=".21em" height=".6em" x="7.25em" y="12.9em" fill="#00ACD7" stroke="#00ACD7"/><text x="6.75em" y="13.5em" text-anchor="end"><tspan class="size">132 (2.1%)</tspan></text><text x="7.96em" y="13.5em"><tspan class="size">good</tspan></text><rect width=".21em" height=".6em" x="7.25em" y="14.1em" fill="#00ACD7" stroke="#00ACD7"/><text x="6.75em" y="14.7em" text-anchor="end"><tspan class="size">132 (2.1%)</tspan></text><text x="7.96em" y="14.7em"><tspan class="size">work</tspan></text><rect width=".2em" height=".6em" x="7.25em" y="15.3em" fill="#00ACD7" stroke="#00ACD7"/><text x="6.75em" y="15.9em" text-anchor="end"><tspan class="size">122 (2.0%)</tspan></text><text x="7.95em" y="15.9em"><tspan class="size">time</tspan></text><rect width=".18em" height=".6em" x="7.25em" y="16.5em" fill="#00ACD7" stroke="#00ACD7"/><text x="6.75em" y="17.1em" text-anchor="end"><tspan class="size">115 (1.8%)</tspan></text><text x="7.93em" y="17.1em"><tspan class="size">enough</tspan></text><rect width=".18em" height=".6em" x="7.25em" y="17.7em" fill="#00ACD7" stroke="#00ACD7"/><text x="6.75em" y="18.3em" text-anchor="end"><tspan class="size">114 (1.8%)</tspan></text><text x="7.93em" y="18.3em"><tspan class="size">error handling</tspan></text><rect width=".18em" height=".6em" x="7.25em" y="18.9em" fill="#00ACD7" stroke="#00ACD7"/><text x="6.75em" y="19.5em" text-anchor="end"><tspan class="size">113 (1.8%)</tspan></text><text x="7.93em" y="19.5em"><tspan class="size">type</tspan></text><rect width=".18em" height=".6em" x="7.25em" y="20.1em" fill="#00ACD7" stroke="#00ACD7"/><text x="6.75em" y="20.7em" text-anchor="end"><tspan class="size">109 (1.8%)</tspan></text><text x="7.93em" y="20.7em"><tspan class="size">learning</tspan></text><rect width=".17em" height=".6em" x="7.25em" y="21.3em" fill="#00ACD7" stroke="#00ACD7"/><text x="6.75em" y="21.9em" text-anchor="end"><tspan class="size">106 (1.7%)</tspan></text><text x="7.92em" y="21.9em"><tspan class="size">projects</tspan></text><rect width=".17em" height=".6em" x="7.25em" y="22.5em" fill="#00ACD7" stroke="#00ACD7"/><text x="6.75em" y="23.1em" text-anchor="end"><tspan class="size">104 (1.7%)</tspan></text><text x="7.92em" y="23.1em"><tspan class="size">hard</tspan></text><rect width=".16em" height=".6em" x="7.25em" y="23.7em" fill="#00ACD7" stroke="#00ACD7"/><text x="6.75em" y="24.3em" text-anchor="end"><tspan class="size">97 (1.6%)</tspan></text><text x="7.91em" y="24.3em"><tspan class="size">team</tspan></text><rect width=".15em" height=".6em" x="7.25em" y="24.9em" fill="#00ACD7" stroke="#00ACD7"/><text x="6.75em" y="25.5em" text-anchor="end"><tspan class="size">91 (1.5%)</tspan></text><text x="7.9em" y="25.5em"><tspan class="size">dependencies</tspan></text><rect width=".15em" height=".6em" x="22.25em" y="2.1em" fill="#00ACD7" stroke="#00ACD7"/><text x="21.75em" y="2.7em" text-anchor="end"><tspan class="size">91 (1.5%)</tspan></text><text x="22.9em" y="2.7em"><tspan class="size">java</tspan></text><rect width=".14em" height=".6em" x="22.25em" y="3.3em" fill="#00ACD7" stroke="#00ACD7"/><text x="21.75em" y="3.9em" text-anchor="end"><tspan class="size">87 (1.4%)</tspan></text><text x="22.89em" y="3.9em"><tspan class="size">c</tspan></text><rect width=".13em" height=".6em" x="22.25em" y="4.5em" fill="#00ACD7" stroke="#00ACD7"/><text x="21.75em" y="5.1em" text-anchor="end"><tspan class="size">82 (1.3%)</tspan></text><text x="22.88em" y="5.1em"><tspan class="size">debugging</tspan></text><rect width=".13em" height=".6em" x="22.25em" y="5.7em" fill="#00ACD7" stroke="#00ACD7"/><text x="21.75em" y="6.3em" text-anchor="end"><tspan class="size">81 (1.3%)</tspan></text><text x="22.88em" y="6.3em"><tspan class="size">no generics</tspan></text><rect width=".13em" height=".6em" x="22.25em" y="6.9em" fill="#00ACD7" stroke="#00ACD7"/><text x="21.75em" y="7.5em" text-anchor="end"><tspan class="size">81 (1.3%)</tspan></text><text x="22.88em" y="7.5em"><tspan class="size">vendoring</tspan></text><rect width=".13em" height=".6em" x="22.25em" y="8.1em" fill="#00ACD7" stroke="#00ACD7"/><text x="21.75em" y="8.7em" text-anchor="end"><tspan class="size">79 (1.3%)</tspan></text><text x="22.88em" y="8.7em"><tspan class="size">package management</tspan></text><rect width=".13em" height=".6em" x="22.25em" y="9.3em" fill="#00ACD7" stroke="#00ACD7"/><text x="21.75em" y="9.9em" text-anchor="end"><tspan class="size">79 (1.3%)</tspan></text><text x="22.88em" y="9.9em"><tspan class="size">programming</tspan></text><rect width=".12em" height=".6em" x="22.25em" y="10.5em" fill="#00ACD7" stroke="#00ACD7"/><text x="21.75em" y="11.1em" text-anchor="end"><tspan class="size">77 (1.2%)</tspan></text><text x="22.87em" y="11.1em"><tspan class="size">gopath</tspan></text><rect width=".12em" height=".6em" x="22.25em" y="11.7em" fill="#00ACD7" stroke="#00ACD7"/><text x="21.75em" y="12.3em" text-anchor="end"><tspan class="size">76 (1.2%)</tspan></text><text x="22.87em" y="12.3em"><tspan class="size">features</tspan></text><rect width=".12em" height=".6em" x="22.25em" y="12.9em" fill="#00ACD7" stroke="#00ACD7"/><text x="21.75em" y="13.5em" text-anchor="end"><tspan class="size">76 (1.2%)</tspan></text><text x="22.87em" y="13.5em"><tspan class="size">types</tspan></text><rect width=".12em" height=".6em" x="22.25em" y="14.1em" fill="#00ACD7" stroke="#00ACD7"/><text x="21.75em" y="14.7em" text-anchor="end"><tspan class="size">75 (1.2%)</tspan></text><text x="22.87em" y="14.7em"><tspan class="size">people</tspan></text><rect width=".12em" height=".6em" x="22.25em" y="15.3em" fill="#00ACD7" stroke="#00ACD7"/><text x="21.75em" y="15.9em" text-anchor="end"><tspan class="size">74 (1.2%)</tspan></text><text x="22.87em" y="15.9em"><tspan class="size">web</tspan></text><rect width=".12em" height=".6em" x="22.25em" y="16.5em" fill="#00ACD7" stroke="#00ACD7"/><text x="21.75em" y="17.1em" text-anchor="end"><tspan class="size">73 (1.2%)</tspan></text><text x="22.87em" y="17.1em"><tspan class="size">python</tspan></text><rect width=".12em" height=".6em" x="22.25em" y="17.7em" fill="#00ACD7" stroke="#00ACD7"/><text x="21.75em" y="18.3em" text-anchor="end"><tspan class="size">73 (1.2%)</tspan></text><text x="22.87em" y="18.3em"><tspan class="size">write</tspan></text><rect width=".11em" height=".6em" x="22.25em" y="18.9em" fill="#00ACD7" stroke="#00ACD7"/><text x="21.75em" y="19.5em" text-anchor="end"><tspan class="size">68 (1.1%)</tspan></text><text x="22.86em" y="19.5em"><tspan class="size">development</tspan></text><rect width=".11em" height=".6em" x="22.25em" y="20.1em" fill="#00ACD7" stroke="#00ACD7"/><text x="21.75em" y="20.7em" text-anchor="end"><tspan class="size">67 (1.1%)</tspan></text><text x="22.86em" y="20.7em"><tspan class="size">generic</tspan></text><rect width=".11em" height=".6em" x="22.25em" y="21.3em" fill="#00ACD7" stroke="#00ACD7"/><text x="21.75em" y="21.9em" text-anchor="end"><tspan class="size">67 (1.1%)</tspan></text><text x="22.86em" y="21.9em"><tspan class="size">writing</tspan></text><rect width=".11em" height=".6em" x="22.25em" y="22.5em" fill="#00ACD7" stroke="#00ACD7"/><text x="21.75em" y="23.1em" text-anchor="end"><tspan class="size">66 (1.1%)</tspan></text><text x="22.86em" y="23.1em"><tspan class="size">difficult</tspan></text><rect width=".1em" height=".6em" x="22.25em" y="23.7em" fill="#00ACD7" stroke="#00ACD7"/><text x="21.75em" y="24.3em" text-anchor="end"><tspan class="size">64 (1.0%)</tspan></text><text x="22.85em" y="24.3em"><tspan class="size">interface</tspan></text><rect width=".1em" height=".6em" x="22.25em" y="24.9em" fill="#00ACD7" stroke="#00ACD7"/><text x="21.75em" y="25.5em" text-anchor="end"><tspan class="size">64 (1.0%)</tspan></text><text x="22.85em" y="25.5em"><tspan class="size">tools</tspan></text><rect width=".1em" height=".6em" x="37.25em" y="2.1em" fill="#00ACD7" stroke="#00ACD7"/><text x="36.75em" y="2.7em" text-anchor="end"><tspan class="size">63 (1.0%)</tspan></text><text x="37.85em" y="2.7em"><tspan class="size">missing</tspan></text><rect width=".1em" height=".6em" x="37.25em" y="3.3em" fill="#00ACD7" stroke="#00ACD7"/><text x="36.75em" y="3.9em" text-anchor="end"><tspan class="size">62 (1.0%)</tspan></text><text x="37.85em" y="3.9em"><tspan class="size">performance</tspan></text><rect width=".1em" height=".6em" x="37.25em" y="4.5em" fill="#00ACD7" stroke="#00ACD7"/><text x="36.75em" y="5.1em" text-anchor="end"><tspan class="size">60 (1.0%)</tspan></text><text x="37.85em" y="5.1em"><tspan class="size">interfaces</tspan></text><rect width=".1em" height=".6em" x="37.25em" y="5.7em" fill="#00ACD7" stroke="#00ACD7"/><text x="36.75em" y="6.3em" text-anchor="end"><tspan class="size">60 (1.0%)</tspan></text><text x="37.85em" y="6.3em"><tspan class="size">standard</tspan></text><rect width=".09em" height=".6em" x="37.25em" y="6.9em" fill="#00ACD7" stroke="#00ACD7"/><text x="36.75em" y="7.5em" text-anchor="end"><tspan class="size">58 (0.9%)</tspan></text><text x="37.84em" y="7.5em"><tspan class="size">community</tspan></text><rect width=".09em" height=".6em" x="37.25em" y="8.1em" fill="#00ACD7" stroke="#00ACD7"/><text x="36.75em" y="8.7em" text-anchor="end"><tspan class="size">58 (0.9%)</tspan></text><text x="37.84em" y="8.7em"><tspan class="size">packages</tspan></text><rect width=".09em" height=".6em" x="37.25em" y="9.3em" fill="#00ACD7" stroke="#00ACD7"/><text x="36.75em" y="9.9em" text-anchor="end"><tspan class="size">56 (0.9%)</tspan></text><text x="37.84em" y="9.9em"><tspan class="size">build</tspan></text><rect width=".09em" height=".6em" x="37.25em" y="10.5em" fill="#00ACD7" stroke="#00ACD7"/><text x="36.75em" y="11.1em" text-anchor="end"><tspan class="size">56 (0.9%)</tspan></text><text x="37.84em" y="11.1em"><tspan class="size">well</tspan></text><rect width=".09em" height=".6em" x="37.25em" y="11.7em" fill="#00ACD7" stroke="#00ACD7"/><text x="36.75em" y="12.3em" text-anchor="end"><tspan class="size">55 (0.9%)</tspan></text><text x="37.84em" y="12.3em"><tspan class="size">best</tspan></text><rect width=".09em" height=".6em" x="37.25em" y="12.9em" fill="#00ACD7" stroke="#00ACD7"/><text x="36.75em" y="13.5em" text-anchor="end"><tspan class="size">55 (0.9%)</tspan></text><text x="37.84em" y="13.5em"><tspan class="size">cgo</tspan></text><rect width=".09em" height=".6em" x="37.25em" y="14.1em" fill="#00ACD7" stroke="#00ACD7"/><text x="36.75em" y="14.7em" text-anchor="end"><tspan class="size">55 (0.9%)</tspan></text><text x="37.84em" y="14.7em"><tspan class="size">debugger</tspan></text><rect width=".09em" height=".6em" x="37.25em" y="15.3em" fill="#00ACD7" stroke="#00ACD7"/><text x="36.75em" y="15.9em" text-anchor="end"><tspan class="size">55 (0.9%)</tspan></text><text x="37.84em" y="15.9em"><tspan class="size">ide</tspan></text><rect width=".09em" height=".6em" x="37.25em" y="16.5em" fill="#00ACD7" stroke="#00ACD7"/><text x="36.75em" y="17.1em" text-anchor="end"><tspan class="size">55 (0.9%)</tspan></text><text x="37.84em" y="17.1em"><tspan class="size">other languages</tspan></text><rect width=".09em" height=".6em" x="37.25em" y="17.7em" fill="#00ACD7" stroke="#00ACD7"/><text x="36.75em" y="18.3em" text-anchor="end"><tspan class="size">55 (0.9%)</tspan></text><text x="37.84em" y="18.3em"><tspan class="size">verbose</tspan></text><rect width=".09em" height=".6em" x="37.25em" y="18.9em" fill="#00ACD7" stroke="#00ACD7"/><text x="36.75em" y="19.5em" text-anchor="end"><tspan class="size">54 (0.9%)</tspan></text><text x="37.84em" y="19.5em"><tspan class="size">boilerplate</tspan></text><rect width=".09em" height=".6em" x="37.25em" y="20.1em" fill="#00ACD7" stroke="#00ACD7"/><text x="36.75em" y="20.7em" text-anchor="end"><tspan class="size">54 (0.9%)</tspan></text><text x="37.84em" y="20.7em"><tspan class="size">finding</tspan></text><rect width=".09em" height=".6em" x="37.25em" y="21.3em" fill="#00ACD7" stroke="#00ACD7"/><text x="36.75em" y="21.9em" text-anchor="end"><tspan class="size">54 (0.9%)</tspan></text><text x="37.84em" y="21.9em"><tspan class="size">learn</tspan></text><rect width=".09em" height=".6em" x="37.25em" y="22.5em" fill="#00ACD7" stroke="#00ACD7"/><text x="36.75em" y="23.1em" text-anchor="end"><tspan class="size">53 (0.9%)</tspan></text><text x="37.84em" y="23.1em"><tspan class="size">not enough</tspan></text><rect width="4.75em" height=".6em" x="37.25em" y="23.7em" fill="#fff" stroke="#000"/><text x="36.75em" y="24.3em" text-anchor="end"><tspan class="size">2,956 (47.5%)</tspan></text><text x="42.5em" y="24.3em"><tspan class="size">No response</tspan></text></svg>