<svg xmlns="http://www.w3.org/2000/svg" width="70em" height="20em" version="1.1"><defs><style type="text/css">svg{font-family:&quot;Helvetica Neue&quot;,Arial,sans-serif}tspan.size{font-size:.8em}tspan.head{font-weight:700}tspan.paren{font-weight:400!important}</style></defs><text x="0em" y="1.2em" class="head"><tspan class="size">I have or am interested in contributing in the following ways to the Go community and projects: <tspan class="paren">(multiple choice)</tspan></tspan></text><rect width="2.87em" height=".6em" x="7.25em" y="2.1em" fill="#00ACD7" stroke="#00ACD7"/><text x="6.75em" y="2.7em" text-anchor="end"><tspan class="size">1,785 (29%)</tspan></text><text x="10.62em" y="2.7em"><tspan class="size">Standard library</tspan></text><rect width="2.14em" height=".6em" x="7.25em" y="3.3em" fill="#00ACD7" stroke="#00ACD7"/><text x="6.75em" y="3.9em" text-anchor="end"><tspan class="size">1,331 (21%)</tspan></text><text x="9.89em" y="3.9em"><tspan class="size">Tools (go guru, go vet, go doc, etc)</tspan></text><rect width="1.81em" height=".6em" x="7.25em" y="4.5em" fill="#00ACD7" stroke="#00ACD7"/><text x="6.75em" y="5.1em" text-anchor="end"><tspan class="size">1,129 (18%)</tspan></text><text x="9.56em" y="5.1em"><tspan class="size">Documentation</tspan></text><rect width="1.79em" height=".6em" x="7.25em" y="5.7em" fill="#00ACD7" stroke="#00ACD7"/><text x="6.75em" y="6.3em" text-anchor="end"><tspan class="size">1,115 (18%)</tspan></text><text x="9.54em" y="6.3em"><tspan class="size">Tutorials</tspan></text><rect width="1.55em" height=".6em" x="7.25em" y="6.9em" fill="#00ACD7" stroke="#00ACD7"/><text x="6.75em" y="7.5em" text-anchor="end"><tspan class="size">967 (16%)</tspan></text><text x="9.3em" y="7.5em"><tspan class="size">Community support via Stack Overflow, Slack, mailing list, etc</tspan></text><rect width="1.39em" height=".6em" x="7.25em" y="8.1em" fill="#00ACD7" stroke="#00ACD7"/><text x="6.75em" y="8.7em" text-anchor="end"><tspan class="size">863 (14%)</tspan></text><text x="9.14em" y="8.7em"><tspan class="size">Being a technical mentor</tspan></text><rect width="1.33em" height=".6em" x="7.25em" y="9.3em" fill="#00ACD7" stroke="#00ACD7"/><text x="6.75em" y="9.9em" text-anchor="end"><tspan class="size">829 (13%)</tspan></text><text x="9.08em" y="9.9em"><tspan class="size">Community involvement (workgroups, meetup attendance)</tspan></text><rect width="1.17em" height=".6em" x="7.25em" y="10.5em" fill="#00ACD7" stroke="#00ACD7"/><text x="6.75em" y="11.1em" text-anchor="end"><tspan class="size">727 (12%)</tspan></text><text x="8.92em" y="11.1em"><tspan class="size">Toolchain (compiler, linker, etc)</tspan></text><rect width=".83em" height=".6em" x="7.25em" y="11.7em" fill="#00ACD7" stroke="#00ACD7"/><text x="6.75em" y="12.3em" text-anchor="end"><tspan class="size">514 (8%)</tspan></text><text x="8.58em" y="12.3em"><tspan class="size">Go Project maintenance (issue triage)</tspan></text><rect width=".76em" height=".6em" x="7.25em" y="12.9em" fill="#00ACD7" stroke="#00ACD7"/><text x="6.75em" y="13.5em" text-anchor="end"><tspan class="size">474 (8%)</tspan></text><text x="8.51em" y="13.5em"><tspan class="size">Event planning (meetup, conference, etc)</tspan></text><rect width=".7em" height=".6em" x="7.25em" y="14.1em" fill="#00ACD7" stroke="#00ACD7"/><text x="6.75em" y="14.7em" text-anchor="end"><tspan class="size">433 (7%)</tspan></text><text x="8.45em" y="14.7em"><tspan class="size">Language translation</tspan></text><rect width=".54em" height=".6em" x="7.25em" y="15.3em" fill="#00ACD7" stroke="#00ACD7"/><text x="6.75em" y="15.9em" text-anchor="end"><tspan class="size">337 (5%)</tspan></text><text x="8.29em" y="15.9em"><tspan class="size">General UX &amp; Design contributions</tspan></text><rect width=".5em" height=".6em" x="7.25em" y="16.5em" fill="#00ACD7" stroke="#00ACD7"/><text x="6.75em" y="17.1em" text-anchor="end"><tspan class="size">309 (5%)</tspan></text><text x="8.25em" y="17.1em"><tspan class="size">golang.org website (code, UX, IA, content, etc)</tspan></text><rect width=".24em" height=".6em" x="7.25em" y="17.7em" fill="#777" stroke="#777"/><text x="6.75em" y="18.3em" text-anchor="end"><tspan class="size">148 (2%)</tspan></text><text x="7.99em" y="18.3em"><tspan class="size">Other</tspan></text><rect width="4.1em" height=".6em" x="7.25em" y="18.9em" fill="#fff" stroke="#000"/><text x="6.75em" y="19.5em" text-anchor="end"><tspan class="size">2,553 (41%)</tspan></text><text x="11.85em" y="19.5em"><tspan class="size">No response</tspan></text></svg>