<svg xmlns="http://www.w3.org/2000/svg" width="70em" height="28.4em" version="1.1"><defs><style type="text/css">svg{font-family:&quot;Helvetica Neue&quot;,Arial,sans-serif}tspan.size{font-size:.8em}tspan.head{font-weight:700}tspan.paren{font-weight:400!important}</style></defs><text x="0em" y="1.2em" class="head"><tspan class="size">List of Countries <tspan class="paren">(multiple choice)</tspan></tspan></text><rect width="2.51em" height=".6em" x="7.25em" y="2.1em" fill="#00ACD7" stroke="#00ACD7"/><text x="6.75em" y="2.7em" text-anchor="end"><tspan class="size">1,561 (25%)</tspan></text><text x="10.26em" y="2.7em"><tspan class="size">United States of America</tspan></text><rect width=".7em" height=".6em" x="7.25em" y="3.3em" fill="#00ACD7" stroke="#00ACD7"/><text x="6.75em" y="3.9em" text-anchor="end"><tspan class="size">436 (7%)</tspan></text><text x="8.45em" y="3.9em"><tspan class="size">Germany</tspan></text><rect width=".55em" height=".6em" x="7.25em" y="4.5em" fill="#00ACD7" stroke="#00ACD7"/><text x="6.75em" y="5.1em" text-anchor="end"><tspan class="size">343 (6%)</tspan></text><text x="8.3em" y="5.1em"><tspan class="size">United Kingdom</tspan></text><rect width=".34em" height=".6em" x="7.25em" y="5.7em" fill="#00ACD7" stroke="#00ACD7"/><text x="6.75em" y="6.3em" text-anchor="end"><tspan class="size">211 (3%)</tspan></text><text x="8.09em" y="6.3em"><tspan class="size">Canada</tspan></text><rect width=".32em" height=".6em" x="7.25em" y="6.9em" fill="#00ACD7" stroke="#00ACD7"/><text x="6.75em" y="7.5em" text-anchor="end"><tspan class="size">200 (3%)</tspan></text><text x="8.07em" y="7.5em"><tspan class="size">France</tspan></text><rect width=".28em" height=".6em" x="7.25em" y="8.1em" fill="#00ACD7" stroke="#00ACD7"/><text x="6.75em" y="8.7em" text-anchor="end"><tspan class="size">174 (3%)</tspan></text><text x="8.03em" y="8.7em"><tspan class="size">Russia</tspan></text><rect width=".21em" height=".6em" x="7.25em" y="9.3em" fill="#00ACD7" stroke="#00ACD7"/><text x="6.75em" y="9.9em" text-anchor="end"><tspan class="size">130 (2%)</tspan></text><text x="7.96em" y="9.9em"><tspan class="size">Australia</tspan></text><rect width=".18em" height=".6em" x="7.25em" y="10.5em" fill="#00ACD7" stroke="#00ACD7"/><text x="6.75em" y="11.1em" text-anchor="end"><tspan class="size">113 (2%)</tspan></text><text x="7.93em" y="11.1em"><tspan class="size">India</tspan></text><rect width=".18em" height=".6em" x="7.25em" y="11.7em" fill="#00ACD7" stroke="#00ACD7"/><text x="6.75em" y="12.3em" text-anchor="end"><tspan class="size">110 (2%)</tspan></text><text x="7.93em" y="12.3em"><tspan class="size">Sweden</tspan></text><rect width=".17em" height=".6em" x="7.25em" y="12.9em" fill="#00ACD7" stroke="#00ACD7"/><text x="6.75em" y="13.5em" text-anchor="end"><tspan class="size">103 (2%)</tspan></text><text x="7.92em" y="13.5em"><tspan class="size">China</tspan></text><rect width=".16em" height=".6em" x="7.25em" y="14.1em" fill="#00ACD7" stroke="#00ACD7"/><text x="6.75em" y="14.7em" text-anchor="end"><tspan class="size">99 (2%)</tspan></text><text x="7.91em" y="14.7em"><tspan class="size">Netherlands</tspan></text><rect width=".15em" height=".6em" x="7.25em" y="15.3em" fill="#00ACD7" stroke="#00ACD7"/><text x="6.75em" y="15.9em" text-anchor="end"><tspan class="size">95 (2%)</tspan></text><text x="7.9em" y="15.9em"><tspan class="size">Spain</tspan></text><rect width=".15em" height=".6em" x="7.25em" y="16.5em" fill="#00ACD7" stroke="#00ACD7"/><text x="6.75em" y="17.1em" text-anchor="end"><tspan class="size">94 (2%)</tspan></text><text x="7.9em" y="17.1em"><tspan class="size">Brazil</tspan></text><rect width=".14em" height=".6em" x="7.25em" y="17.7em" fill="#00ACD7" stroke="#00ACD7"/><text x="6.75em" y="18.3em" text-anchor="end"><tspan class="size">89 (1%)</tspan></text><text x="7.89em" y="18.3em"><tspan class="size">Japan</tspan></text><rect width=".13em" height=".6em" x="7.25em" y="18.9em" fill="#00ACD7" stroke="#00ACD7"/><text x="6.75em" y="19.5em" text-anchor="end"><tspan class="size">84 (1%)</tspan></text><text x="7.88em" y="19.5em"><tspan class="size">Poland</tspan></text><rect width=".1em" height=".6em" x="7.25em" y="20.1em" fill="#00ACD7" stroke="#00ACD7"/><text x="6.75em" y="20.7em" text-anchor="end"><tspan class="size">62 (1%)</tspan></text><text x="7.85em" y="20.7em"><tspan class="size">Ukraine</tspan></text><rect width=".09em" height=".6em" x="7.25em" y="21.3em" fill="#00ACD7" stroke="#00ACD7"/><text x="6.75em" y="21.9em" text-anchor="end"><tspan class="size">58 (1%)</tspan></text><text x="7.84em" y="21.9em"><tspan class="size">Italy</tspan></text><rect width=".09em" height=".6em" x="7.25em" y="22.5em" fill="#00ACD7" stroke="#00ACD7"/><text x="6.75em" y="23.1em" text-anchor="end"><tspan class="size">57 (1%)</tspan></text><text x="7.84em" y="23.1em"><tspan class="size">Switzerland</tspan></text><rect width=".08em" height=".6em" x="7.25em" y="23.7em" fill="#00ACD7" stroke="#00ACD7"/><text x="6.75em" y="24.3em" text-anchor="end"><tspan class="size">48 (1%)</tspan></text><text x="7.83em" y="24.3em"><tspan class="size">Taiwan</tspan></text><rect width=".07em" height=".6em" x="7.25em" y="24.9em" fill="#00ACD7" stroke="#00ACD7"/><text x="6.75em" y="25.5em" text-anchor="end"><tspan class="size">42 (1%)</tspan></text><text x="7.82em" y="25.5em"><tspan class="size">Israel</tspan></text><rect width="1.4em" height=".6em" x="7.25em" y="26.1em" fill="#fff" stroke="#000"/><text x="6.75em" y="26.7em" text-anchor="end"><tspan class="size">873 (14%)</tspan></text><text x="9.15em" y="26.7em"><tspan class="size">Other</tspan></text><rect width="2em" height=".6em" x="7.25em" y="27.3em" fill="#fff" stroke="#000"/><text x="6.75em" y="27.9em" text-anchor="end"><tspan class="size">1,244 (20%)</tspan></text><text x="9.75em" y="27.9em"><tspan class="size">No response</tspan></text></svg>