<svg xmlns="http://www.w3.org/2000/svg" width="70em" height="22.4em" version="1.1"><defs><style type="text/css">svg{font-family:&quot;Helvetica Neue&quot;,Arial,sans-serif}tspan.size{font-size:.8em}tspan.head{font-weight:700}tspan.paren{font-weight:400!important}</style></defs><text x="0em" y="1.2em" class="head"><tspan class="size">My team deploys Go programs to: <tspan class="paren">(multiple choice)</tspan></tspan></text><rect width="4.28em" height=".6em" x="7.25em" y="2.1em" fill="#00ACD7" stroke="#00ACD7"/><text x="6.75em" y="2.7em" text-anchor="end"><tspan class="size">2,664 (43%)</tspan></text><text x="12.03em" y="2.7em"><tspan class="size">Self/Company Owned Servers</tspan></text><rect width="2.71em" height=".6em" x="7.25em" y="3.3em" fill="#00ACD7" stroke="#00ACD7"/><text x="6.75em" y="3.9em" text-anchor="end"><tspan class="size">1,689 (27%)</tspan></text><text x="10.46em" y="3.9em"><tspan class="size">AWS EC2</tspan></text><rect width="1.28em" height=".6em" x="7.25em" y="4.5em" fill="#00ACD7" stroke="#00ACD7"/><text x="6.75em" y="5.1em" text-anchor="end"><tspan class="size">799 (13%)</tspan></text><text x="9.03em" y="5.1em"><tspan class="size">None</tspan></text><rect width="1.18em" height=".6em" x="7.25em" y="5.7em" fill="#00ACD7" stroke="#00ACD7"/><text x="6.75em" y="6.3em" text-anchor="end"><tspan class="size">732 (12%)</tspan></text><text x="8.93em" y="6.3em"><tspan class="size">AWS Container</tspan></text><rect width="1.01em" height=".6em" x="7.25em" y="6.9em" fill="#00ACD7" stroke="#00ACD7"/><text x="6.75em" y="7.5em" text-anchor="end"><tspan class="size">631 (10%)</tspan></text><text x="8.76em" y="7.5em"><tspan class="size">Digital Ocean</tspan></text><rect width=".96em" height=".6em" x="7.25em" y="8.1em" fill="#00ACD7" stroke="#00ACD7"/><text x="6.75em" y="8.7em" text-anchor="end"><tspan class="size">596 (10%)</tspan></text><text x="8.71em" y="8.7em"><tspan class="size">Google Compute Engine</tspan></text><rect width=".78em" height=".6em" x="7.25em" y="9.3em" fill="#00ACD7" stroke="#00ACD7"/><text x="6.75em" y="9.9em" text-anchor="end"><tspan class="size">485 (8%)</tspan></text><text x="8.53em" y="9.9em"><tspan class="size">Google Container Engine (GKE)</tspan></text><rect width=".53em" height=".6em" x="7.25em" y="10.5em" fill="#00ACD7" stroke="#00ACD7"/><text x="6.75em" y="11.1em" text-anchor="end"><tspan class="size">328 (5%)</tspan></text><text x="8.28em" y="11.1em"><tspan class="size">Google App Engine</tspan></text><rect width=".42em" height=".6em" x="7.25em" y="11.7em" fill="#00ACD7" stroke="#00ACD7"/><text x="6.75em" y="12.3em" text-anchor="end"><tspan class="size">262 (4%)</tspan></text><text x="8.17em" y="12.3em"><tspan class="size">AWS Lambda</tspan></text><rect width=".41em" height=".6em" x="7.25em" y="12.9em" fill="#00ACD7" stroke="#00ACD7"/><text x="6.75em" y="13.5em" text-anchor="end"><tspan class="size">255 (4%)</tspan></text><text x="8.16em" y="13.5em"><tspan class="size">Heroku</tspan></text><rect width=".41em" height=".6em" x="7.25em" y="14.1em" fill="#00ACD7" stroke="#00ACD7"/><text x="6.75em" y="14.7em" text-anchor="end"><tspan class="size">255 (4%)</tspan></text><text x="8.16em" y="14.7em"><tspan class="size">Microsoft Azure</tspan></text><rect width=".29em" height=".6em" x="7.25em" y="15.3em" fill="#00ACD7" stroke="#00ACD7"/><text x="6.75em" y="15.9em" text-anchor="end"><tspan class="size">183 (3%)</tspan></text><text x="8.04em" y="15.9em"><tspan class="size">Linode</tspan></text><rect width=".1em" height=".6em" x="7.25em" y="16.5em" fill="#00ACD7" stroke="#00ACD7"/><text x="6.75em" y="17.1em" text-anchor="end"><tspan class="size">61 (1%)</tspan></text><text x="7.85em" y="17.1em"><tspan class="size">Azure Container Service</tspan></text><rect width=".08em" height=".6em" x="7.25em" y="17.7em" fill="#00ACD7" stroke="#00ACD7"/><text x="6.75em" y="18.3em" text-anchor="end"><tspan class="size">51 (1%)</tspan></text><text x="7.83em" y="18.3em"><tspan class="size">Google Cloud Functions</tspan></text><rect width=".02em" height=".6em" x="7.25em" y="18.9em" fill="#00ACD7" stroke="#00ACD7"/><text x="6.75em" y="19.5em" text-anchor="end"><tspan class="size">13 (0%)</tspan></text><text x="7.77em" y="19.5em"><tspan class="size">Azure Functions</tspan></text><rect width=".97em" height=".6em" x="7.25em" y="20.1em" fill="#777" stroke="#777"/><text x="6.75em" y="20.7em" text-anchor="end"><tspan class="size">601 (10%)</tspan></text><text x="8.72em" y="20.7em"><tspan class="size">Other</tspan></text><rect width="1.05em" height=".6em" x="7.25em" y="21.3em" fill="#fff" stroke="#000"/><text x="6.75em" y="21.9em" text-anchor="end"><tspan class="size">652 (10%)</tspan></text><text x="8.8em" y="21.9em"><tspan class="size">No response</tspan></text></svg>