<svg xmlns="http://www.w3.org/2000/svg" width="70em" height="22.4em" version="1.1"><defs><style type="text/css">svg{font-family:&quot;Helvetica Neue&quot;,Arial,sans-serif}tspan.size{font-size:.8em}tspan.head{font-weight:700}tspan.paren{font-weight:400!important}</style></defs><text x="0em" y="1.2em" class="head"><tspan class="size">My team deploys Non-Go programs to: <tspan class="paren">(multiple choice)</tspan></tspan></text><rect width="4.6em" height=".6em" x="7.25em" y="2.1em" fill="#00ACD7" stroke="#00ACD7"/><text x="6.75em" y="2.7em" text-anchor="end"><tspan class="size">2,865 (46%)</tspan></text><text x="12.35em" y="2.7em"><tspan class="size">Self/Company Owned Servers</tspan></text><rect width="3.33em" height=".6em" x="7.25em" y="3.3em" fill="#00ACD7" stroke="#00ACD7"/><text x="6.75em" y="3.9em" text-anchor="end"><tspan class="size">2,076 (33%)</tspan></text><text x="11.08em" y="3.9em"><tspan class="size">AWS EC2</tspan></text><rect width="1.29em" height=".6em" x="7.25em" y="4.5em" fill="#00ACD7" stroke="#00ACD7"/><text x="6.75em" y="5.1em" text-anchor="end"><tspan class="size">806 (13%)</tspan></text><text x="9.04em" y="5.1em"><tspan class="size">AWS Container</tspan></text><rect width="1.03em" height=".6em" x="7.25em" y="5.7em" fill="#00ACD7" stroke="#00ACD7"/><text x="6.75em" y="6.3em" text-anchor="end"><tspan class="size">644 (10%)</tspan></text><text x="8.78em" y="6.3em"><tspan class="size">AWS Lambda</tspan></text><rect width=".85em" height=".6em" x="7.25em" y="6.9em" fill="#00ACD7" stroke="#00ACD7"/><text x="6.75em" y="7.5em" text-anchor="end"><tspan class="size">528 (8%)</tspan></text><text x="8.6em" y="7.5em"><tspan class="size">Google Compute Engine</tspan></text><rect width=".85em" height=".6em" x="7.25em" y="8.1em" fill="#00ACD7" stroke="#00ACD7"/><text x="6.75em" y="8.7em" text-anchor="end"><tspan class="size">527 (8%)</tspan></text><text x="8.6em" y="8.7em"><tspan class="size">Digital Ocean</tspan></text><rect width=".71em" height=".6em" x="7.25em" y="9.3em" fill="#00ACD7" stroke="#00ACD7"/><text x="6.75em" y="9.9em" text-anchor="end"><tspan class="size">442 (7%)</tspan></text><text x="8.46em" y="9.9em"><tspan class="size">None</tspan></text><rect width=".65em" height=".6em" x="7.25em" y="10.5em" fill="#00ACD7" stroke="#00ACD7"/><text x="6.75em" y="11.1em" text-anchor="end"><tspan class="size">402 (6%)</tspan></text><text x="8.4em" y="11.1em"><tspan class="size">Microsoft Azure</tspan></text><rect width=".55em" height=".6em" x="7.25em" y="11.7em" fill="#00ACD7" stroke="#00ACD7"/><text x="6.75em" y="12.3em" text-anchor="end"><tspan class="size">340 (5%)</tspan></text><text x="8.3em" y="12.3em"><tspan class="size">Heroku</tspan></text><rect width=".53em" height=".6em" x="7.25em" y="12.9em" fill="#00ACD7" stroke="#00ACD7"/><text x="6.75em" y="13.5em" text-anchor="end"><tspan class="size">327 (5%)</tspan></text><text x="8.28em" y="13.5em"><tspan class="size">Google Container Engine (GKE)</tspan></text><rect width=".3em" height=".6em" x="7.25em" y="14.1em" fill="#00ACD7" stroke="#00ACD7"/><text x="6.75em" y="14.7em" text-anchor="end"><tspan class="size">188 (3%)</tspan></text><text x="8.05em" y="14.7em"><tspan class="size">Google App Engine</tspan></text><rect width=".26em" height=".6em" x="7.25em" y="15.3em" fill="#00ACD7" stroke="#00ACD7"/><text x="6.75em" y="15.9em" text-anchor="end"><tspan class="size">159 (3%)</tspan></text><text x="8.01em" y="15.9em"><tspan class="size">Linode</tspan></text><rect width=".15em" height=".6em" x="7.25em" y="16.5em" fill="#00ACD7" stroke="#00ACD7"/><text x="6.75em" y="17.1em" text-anchor="end"><tspan class="size">95 (2%)</tspan></text><text x="7.9em" y="17.1em"><tspan class="size">Google Cloud Functions</tspan></text><rect width=".14em" height=".6em" x="7.25em" y="17.7em" fill="#00ACD7" stroke="#00ACD7"/><text x="6.75em" y="18.3em" text-anchor="end"><tspan class="size">85 (1%)</tspan></text><text x="7.89em" y="18.3em"><tspan class="size">Azure Container Service</tspan></text><rect width=".08em" height=".6em" x="7.25em" y="18.9em" fill="#00ACD7" stroke="#00ACD7"/><text x="6.75em" y="19.5em" text-anchor="end"><tspan class="size">50 (1%)</tspan></text><text x="7.83em" y="19.5em"><tspan class="size">Azure Functions</tspan></text><rect width=".84em" height=".6em" x="7.25em" y="20.1em" fill="#777" stroke="#777"/><text x="6.75em" y="20.7em" text-anchor="end"><tspan class="size">524 (8%)</tspan></text><text x="8.59em" y="20.7em"><tspan class="size">Other</tspan></text><rect width="1.33em" height=".6em" x="7.25em" y="21.3em" fill="#fff" stroke="#000"/><text x="6.75em" y="21.9em" text-anchor="end"><tspan class="size">825 (13%)</tspan></text><text x="9.08em" y="21.9em"><tspan class="size">No response</tspan></text></svg>