<svg xmlns="http://www.w3.org/2000/svg" xmlns:xlink="http://www.w3.org/1999/xlink" width="100%" height="100%" version="1.1" viewBox="0 0 750 285" xml:space="preserve" style="fill-rule:evenodd;clip-rule:evenodd"><g><text x=".002" y="14.375" style="font-family:'Arial-BoldMT','Arial',sans-serif;font-weight:700;font-size:20px">2016</text><text x="410.002" y="14.375" style="font-family:'Arial-BoldMT','Arial',sans-serif;font-weight:700;font-size:20px">2017</text></g><g><text x=".916" y="33.391" style="font-family:'HelveticaNeue','Helvetica Neue';font-size:12px">My team deploys Non-Go pr<tspan x="153.628 160.516" y="33.391 33.391">og</tspan>rams to: (multiple choice)</text><rect width="57.24" height="7.2" x="87.916" y="44.191" style="fill:#00c4b3;stroke:#00c4b3;stroke-width:1px"/><text x="16.996" y="51.391" style="font-family:'HelveticaNeue','Helvetica Neue';font-size:12px">1,714 (48%)</text><text x="151.156" y="51.391" style="font-family:'HelveticaNeue','Helvetica Neue';font-size:12px">Self/Company Owned Servers</text><rect width="37.44" height="7.2" x="87.916" y="58.591" style="fill:#00c4b3;stroke:#00c4b3;stroke-width:1px"/><text x="16.996" y="65.791" style="font-family:'HelveticaNeue','Helvetica Neue';font-size:12px">1,122 (31%)</text><text x="131.356" y="65.791" style="font-family:'HelveticaNeue','Helvetica Neue';font-size:12px">A<tspan x="138.844 149.956" y="65.791 65.791">WS</tspan> EC2</text><rect width="12" height="7.2" x="87.916" y="72.991" style="fill:#00c4b3;stroke:#00c4b3;stroke-width:1px"/><text x="27.004" y="80.191" style="font-family:'HelveticaNeue','Helvetica Neue';font-size:12px">360 (10%)</text><text x="105.916" y="80.191" style="font-family:'HelveticaNeue','Helvetica Neue';font-size:12px">Digital Ocean</text><rect width="11.4" height="7.2" x="87.916" y="87.391" style="fill:#00c4b3;stroke:#00c4b3;stroke-width:1px"/><text x="27.004" y="94.591" style="font-family:'HelveticaNeue','Helvetica Neue';font-size:12px">343 (10%)</text><text x="105.316" y="94.591" style="font-family:'HelveticaNeue','Helvetica Neue';font-size:12px">A<tspan x="112.804 123.916" y="94.591 94.591">WS</tspan> Container</text><rect width="8.28" height="7.2" x="87.916" y="101.791" style="fill:#00c4b3;stroke:#00c4b3;stroke-width:1px"/><text x="27.004" y="108.991" style="font-family:'HelveticaNeue','Helvetica Neue';font-size:12px">249 (7%)</text><text x="102.196" y="108.991" style="font-family:'HelveticaNeue','Helvetica Neue';font-size:12px">None</text><rect width="7.8" height="7.2" x="87.916" y="116.191" style="fill:#00c4b3;stroke:#00c4b3;stroke-width:1px"/><text x="27.004" y="123.391" style="font-family:'HelveticaNeue','Helvetica Neue';font-size:12px">233 (6%)</text><text x="101.716" y="123.391" style="font-family:'HelveticaNeue','Helvetica Neue';font-size:12px">A<tspan x="109.204 120.316" y="123.391 123.391">WS</tspan> Lambda</text><rect width="6.96" height="7.2" x="87.916" y="130.591" style="fill:#00c4b3;stroke:#00c4b3;stroke-width:1px"/><text x="27.004" y="137.791" style="font-family:'HelveticaNeue','Helvetica Neue';font-size:12px">210 (6%)</text><text x="100.876" y="137.791" style="font-family:'HelveticaNeue','Helvetica Neue';font-size:12px">Micr<tspan x="124.216 131.104" y="137.791 137.791">os</tspan>oft Azur<tspan x="178.648" y="137.791">e</tspan></text><rect width="6.24" height="7.2" x="87.916" y="144.991" style="fill:#00c4b3;stroke:#00c4b3;stroke-width:1px"/><text x="27.004" y="152.191" style="font-family:'HelveticaNeue','Helvetica Neue';font-size:12px">186 (5%)</text><text x="100.156" y="152.191" style="font-family:'HelveticaNeue','Helvetica Neue';font-size:12px">Google Compute Engine</text><rect width="6.12" height="7.2" x="87.916" y="159.391" style="fill:#00c4b3;stroke:#00c4b3;stroke-width:1px"/><text x="27.004" y="166.591" style="font-family:'HelveticaNeue','Helvetica Neue';font-size:12px">185 (5%)</text><text x="100.036" y="166.591" style="font-family:'HelveticaNeue','Helvetica Neue';font-size:12px">Her<tspan x="118.924 125.812" y="166.591 166.591">ok</tspan>u</text><rect width="3.84" height="7.2" x="87.916" y="173.791" style="fill:#00c4b3;stroke:#00c4b3;stroke-width:1px"/><text x="27.004" y="180.991" style="font-family:'HelveticaNeue','Helvetica Neue';font-size:12px">115 (3%)</text><text x="97.756" y="180.991" style="font-family:'HelveticaNeue','Helvetica Neue';font-size:12px">Google Container Engine (GKE)</text><rect width="3.36" height="7.2" x="87.916" y="188.191" style="fill:#00c4b3;stroke:#00c4b3;stroke-width:1px"/><text x="27.004" y="195.391" style="font-family:'HelveticaNeue','Helvetica Neue';font-size:12px">100 (3%)</text><text x="97.276" y="195.391" style="font-family:'HelveticaNeue','Helvetica Neue';font-size:12px">Linode</text><rect width="3.12" height="7.2" x="87.916" y="202.591" style="fill:#00c4b3;stroke:#00c4b3;stroke-width:1px"/><text x="33.676" y="209.791" style="font-family:'HelveticaNeue','Helvetica Neue';font-size:12px">94 (3%)</text><text x="97.036" y="209.791" style="font-family:'HelveticaNeue','Helvetica Neue';font-size:12px">Google App Engine</text><rect width="9.96" height="7.2" x="87.916" y="216.991" style="fill:#777;stroke:#777;stroke-width:1px"/><text x="27.004" y="224.191" style="font-family:'HelveticaNeue','Helvetica Neue';font-size:12px">297 (8%)</text><text x="103.876" y="224.191" style="font-family:'HelveticaNeue','Helvetica Neue';font-size:12px">Other</text><rect width="22.08" height="7.2" x="87.916" y="231.391" style="fill:#fff;stroke:#000;stroke-width:1px"/><text x="27.004" y="238.591" style="font-family:'HelveticaNeue','Helvetica Neue';font-size:12px">660 (18%)</text><text x="115.996" y="238.591" style="font-family:'HelveticaNeue','Helvetica Neue';font-size:12px">No r<tspan x="138.664 145.108" y="238.591 238.591">es</tspan>ponse</text></g><g><text x="409.418" y="33.391" style="font-family:'HelveticaNeue','Helvetica Neue';font-size:12px">My team deploys Non-Go pr<tspan x="562.13 569.018" y="33.391 33.391">og</tspan>rams to: (multiple choice)</text><rect width="55.2" height="7.2" x="496.418" y="44.191" style="fill:#00acd7;stroke:#00acd7;stroke-width:1px"/><text x="425.498" y="51.391" style="font-family:'HelveticaNeue','Helvetica Neue';font-size:12px">2,865 (46%)</text><text x="557.618" y="51.391" style="font-family:'HelveticaNeue','Helvetica Neue';font-size:12px">Self/Company Owned Servers</text><rect width="39.96" height="7.2" x="496.418" y="58.591" style="fill:#00acd7;stroke:#00acd7;stroke-width:1px"/><text x="425.498" y="65.791" style="font-family:'HelveticaNeue','Helvetica Neue';font-size:12px">2,076 (33%)</text><text x="542.378" y="65.791" style="font-family:'HelveticaNeue','Helvetica Neue';font-size:12px">A<tspan x="549.866 560.978" y="65.791 65.791">WS</tspan> EC2</text><rect width="15.48" height="7.2" x="496.418" y="72.991" style="fill:#00acd7;stroke:#00acd7;stroke-width:1px"/><text x="435.506" y="80.191" style="font-family:'HelveticaNeue','Helvetica Neue';font-size:12px">806 (13%)</text><text x="517.898" y="80.191" style="font-family:'HelveticaNeue','Helvetica Neue';font-size:12px">A<tspan x="525.386 536.498" y="80.191 80.191">WS</tspan> Container</text><rect width="12.36" height="7.2" x="496.418" y="87.391" style="fill:#00acd7;stroke:#00acd7;stroke-width:1px"/><text x="435.506" y="94.591" style="font-family:'HelveticaNeue','Helvetica Neue';font-size:12px">644 (10%)</text><text x="514.778" y="94.591" style="font-family:'HelveticaNeue','Helvetica Neue';font-size:12px">A<tspan x="522.266 533.378" y="94.591 94.591">WS</tspan> Lambda</text><rect width="10.2" height="7.2" x="496.418" y="101.791" style="fill:#00acd7;stroke:#00acd7;stroke-width:1px"/><text x="435.506" y="108.991" style="font-family:'HelveticaNeue','Helvetica Neue';font-size:12px">528 (8%)</text><text x="512.618" y="108.991" style="font-family:'HelveticaNeue','Helvetica Neue';font-size:12px">Google Compute Engine</text><rect width="10.2" height="7.2" x="496.418" y="116.191" style="fill:#00acd7;stroke:#00acd7;stroke-width:1px"/><text x="435.506" y="123.391" style="font-family:'HelveticaNeue','Helvetica Neue';font-size:12px">527 (8%)</text><text x="512.618" y="123.391" style="font-family:'HelveticaNeue','Helvetica Neue';font-size:12px">Digital Ocean</text><rect width="8.52" height="7.2" x="496.418" y="130.591" style="fill:#00acd7;stroke:#00acd7;stroke-width:1px"/><text x="435.506" y="137.791" style="font-family:'HelveticaNeue','Helvetica Neue';font-size:12px">442 (7%)</text><text x="510.938" y="137.791" style="font-family:'HelveticaNeue','Helvetica Neue';font-size:12px">None</text><rect width="7.8" height="7.2" x="496.418" y="144.991" style="fill:#00acd7;stroke:#00acd7;stroke-width:1px"/><text x="435.506" y="152.191" style="font-family:'HelveticaNeue','Helvetica Neue';font-size:12px">402 (6%)</text><text x="510.218" y="152.191" style="font-family:'HelveticaNeue','Helvetica Neue';font-size:12px">Micr<tspan x="533.558 540.446" y="152.191 152.191">os</tspan>oft Azur<tspan x="587.99" y="152.191">e</tspan></text><rect width="6.6" height="7.2" x="496.418" y="159.391" style="fill:#00acd7;stroke:#00acd7;stroke-width:1px"/><text x="435.506" y="166.591" style="font-family:'HelveticaNeue','Helvetica Neue';font-size:12px">340 (5%)</text><text x="509.018" y="166.591" style="font-family:'HelveticaNeue','Helvetica Neue';font-size:12px">Her<tspan x="527.906 534.794" y="166.591 166.591">ok</tspan>u</text><rect width="6.36" height="7.2" x="496.418" y="173.791" style="fill:#00acd7;stroke:#00acd7;stroke-width:1px"/><text x="435.506" y="180.991" style="font-family:'HelveticaNeue','Helvetica Neue';font-size:12px">327 (5%)</text><text x="508.778" y="180.991" style="font-family:'HelveticaNeue','Helvetica Neue';font-size:12px">Google Container Engine (GKE)</text><rect width="3.6" height="7.2" x="496.418" y="188.191" style="fill:#00acd7;stroke:#00acd7;stroke-width:1px"/><text x="435.506" y="195.391" style="font-family:'HelveticaNeue','Helvetica Neue';font-size:12px">188 (3%)</text><text x="506.018" y="195.391" style="font-family:'HelveticaNeue','Helvetica Neue';font-size:12px">Google App Engine</text><rect width="3.12" height="7.2" x="496.418" y="202.591" style="fill:#00acd7;stroke:#00acd7;stroke-width:1px"/><text x="435.506" y="209.791" style="font-family:'HelveticaNeue','Helvetica Neue';font-size:12px">159 (3%)</text><text x="505.538" y="209.791" style="font-family:'HelveticaNeue','Helvetica Neue';font-size:12px">Linode</text><rect width="1.8" height="7.2" x="496.418" y="216.991" style="fill:#00acd7;stroke:#00acd7;stroke-width:1px"/><text x="442.178" y="224.191" style="font-family:'HelveticaNeue','Helvetica Neue';font-size:12px">95 (2%)</text><text x="504.218" y="224.191" style="font-family:'HelveticaNeue','Helvetica Neue';font-size:12px">Google Cloud Functions</text><rect width="1.68" height="7.2" x="496.418" y="231.391" style="fill:#00acd7;stroke:#00acd7;stroke-width:1px"/><text x="442.178" y="238.591" style="font-family:'HelveticaNeue','Helvetica Neue';font-size:12px">85 (1%)</text><text x="504.098" y="238.591" style="font-family:'HelveticaNeue','Helvetica Neue';font-size:12px">Azur<tspan x="528.086 534.53" y="238.591 238.591">e </tspan>Container Service</text><rect width=".96" height="7.2" x="496.418" y="245.791" style="fill:#00acd7;stroke:#00acd7;stroke-width:1px"/><text x="442.178" y="252.991" style="font-family:'HelveticaNeue','Helvetica Neue';font-size:12px">50 (1%)</text><text x="503.378" y="252.991" style="font-family:'HelveticaNeue','Helvetica Neue';font-size:12px">Azur<tspan x="527.366 533.81" y="252.991 252.991">e </tspan>Functions</text><rect width="10.08" height="7.2" x="496.418" y="260.191" style="fill:#777;stroke:#777;stroke-width:1px"/><text x="435.506" y="267.391" style="font-family:'HelveticaNeue','Helvetica Neue';font-size:12px">524 (8%)</text><text x="512.498" y="267.391" style="font-family:'HelveticaNeue','Helvetica Neue';font-size:12px">Other</text><rect width="15.96" height="7.2" x="496.418" y="274.591" style="fill:#fff;stroke:#000;stroke-width:1px"/><text x="435.506" y="281.791" style="font-family:'HelveticaNeue','Helvetica Neue';font-size:12px">825 (13%)</text><text x="518.378" y="281.791" style="font-family:'HelveticaNeue','Helvetica Neue';font-size:12px">No r<tspan x="541.046 547.49" y="281.791 281.791">es</tspan>ponse</text></g><path d="M354.369,142.974l-3.445,-6.107l37.049,-20.9l-3.199,-5.671l13.647,3.803l-3.803,13.647l-3.199,-5.672l-37.05,20.9Z" style="fill:#e62626;fill-opacity:.152941;stroke:#e62626;stroke-width:1px;stroke-linecap:round;stroke-linejoin:round;stroke-miterlimit:1.5"/><path d="M340.5,85.67c0,-2.044 -1.66,-3.703 -3.704,-3.703l-332.593,0c-2.044,0 -3.703,1.659 -3.703,3.703l0,7.407c0,2.044 1.659,3.704 3.703,3.704l332.593,0c2.044,0 3.704,-1.66 3.704,-3.704l0,-7.407Z" style="fill:#e62626;fill-opacity:.152941;stroke:#e62626;stroke-width:1px;stroke-linecap:round;stroke-linejoin:round;stroke-miterlimit:1.5"/><path d="M340.5,115.67c0,-2.044 -1.66,-3.703 -3.704,-3.703l-332.593,0c-2.044,0 -3.703,1.659 -3.703,3.703l0,7.407c0,2.044 1.659,3.704 3.703,3.704l332.593,0c2.044,0 3.704,-1.66 3.704,-3.704l0,-7.407Z" style="fill:#e62626;fill-opacity:.152941;stroke:#e62626;stroke-width:1px;stroke-linecap:round;stroke-linejoin:round;stroke-miterlimit:1.5"/><path d="M340.5,172.67c0,-2.044 -1.66,-3.703 -3.704,-3.703l-332.593,0c-2.044,0 -3.703,1.659 -3.703,3.703l0,7.407c0,2.044 1.659,3.704 3.703,3.704l332.593,0c2.044,0 3.704,-1.66 3.704,-3.704l0,-7.407Z" style="fill:#e62626;fill-opacity:.152941;stroke:#e62626;stroke-width:1px;stroke-linecap:round;stroke-linejoin:round;stroke-miterlimit:1.5"/><path d="M340.5,144.67c0,-2.044 -1.66,-3.703 -3.704,-3.703l-332.593,0c-2.044,0 -3.703,1.659 -3.703,3.703l0,7.407c0,2.044 1.659,3.704 3.703,3.704l332.593,0c2.044,0 3.704,-1.66 3.704,-3.704l0,-7.407Z" style="fill:#e62626;fill-opacity:.152941;stroke:#e62626;stroke-width:1px;stroke-linecap:round;stroke-linejoin:round;stroke-miterlimit:1.5"/><path d="M748.745,71.67c0,-2.044 -1.659,-3.703 -3.703,-3.703l-332.593,0c-2.044,0 -3.703,1.659 -3.703,3.703l0,7.407c0,2.044 1.659,3.704 3.703,3.704l332.593,0c2.044,0 3.703,-1.66 3.703,-3.704l0,-7.407Z" style="fill:#e62626;fill-opacity:.152941;stroke:#e62626;stroke-width:1px;stroke-linecap:round;stroke-linejoin:round;stroke-miterlimit:1.5"/><path d="M748.745,101.67c0,-2.044 -1.659,-3.703 -3.703,-3.703l-332.593,0c-2.044,0 -3.703,1.659 -3.703,3.703l0,7.407c0,2.044 1.659,3.704 3.703,3.704l332.593,0c2.044,0 3.703,-1.66 3.703,-3.704l0,-7.407Z" style="fill:#e62626;fill-opacity:.152941;stroke:#e62626;stroke-width:1px;stroke-linecap:round;stroke-linejoin:round;stroke-miterlimit:1.5"/><path d="M748.745,173.67c0,-2.044 -1.659,-3.703 -3.703,-3.703l-332.593,0c-2.044,0 -3.703,1.659 -3.703,3.703l0,7.407c0,2.044 1.659,3.704 3.703,3.704l332.593,0c2.044,0 3.703,-1.66 3.703,-3.704l0,-7.407Z" style="fill:#e62626;fill-opacity:.152941;stroke:#e62626;stroke-width:1px;stroke-linecap:round;stroke-linejoin:round;stroke-miterlimit:1.5"/><path d="M748.745,86.67c0,-2.044 -1.659,-3.703 -3.703,-3.703l-332.593,0c-2.044,0 -3.703,1.659 -3.703,3.703l0,7.407c0,2.044 1.659,3.704 3.703,3.704l332.593,0c2.044,0 3.703,-1.66 3.703,-3.704l0,-7.407Z" style="fill:#e62626;fill-opacity:.152941;stroke:#e62626;stroke-width:1px;stroke-linecap:round;stroke-linejoin:round;stroke-miterlimit:1.5"/></svg>