<svg xmlns="http://www.w3.org/2000/svg" xmlns:xlink="http://www.w3.org/1999/xlink" width="100%" height="100%" version="1.1" viewBox="0 0 745 285" xml:space="preserve" style="fill-rule:evenodd;clip-rule:evenodd"><g><text x=".002" y="14.375" style="font-family:'Arial-BoldMT','Arial',sans-serif;font-weight:700;font-size:20px">2016</text><text x="410.002" y="14.375" style="font-family:'Arial-BoldMT','Arial',sans-serif;font-weight:700;font-size:20px">2017</text></g><g><text x=".916" y="33.391" style="font-family:'HelveticaNeue','Helvetica Neue';font-size:12px">My team deploys Go pr<tspan x="126.736 133.624" y="33.391 33.391">og</tspan>rams to: (multiple choice)</text><rect width="49.68" height="7.2" x="87.916" y="44.191" style="fill:#00c4b3;stroke:#00c4b3;stroke-width:1px"/><text x="16.996" y="51.391" style="font-family:'HelveticaNeue','Helvetica Neue';font-size:12px">1,489 (41%)</text><text x="143.596" y="51.391" style="font-family:'HelveticaNeue','Helvetica Neue';font-size:12px">Self/Company Owned Servers</text><rect width="30.96" height="7.2" x="87.916" y="58.591" style="fill:#00c4b3;stroke:#00c4b3;stroke-width:1px"/><text x="27.004" y="65.791" style="font-family:'HelveticaNeue','Helvetica Neue';font-size:12px">928 (26%)</text><text x="124.876" y="65.791" style="font-family:'HelveticaNeue','Helvetica Neue';font-size:12px">A<tspan x="132.364 143.476" y="65.791 65.791">WS</tspan> EC2</text><rect width="16.8" height="7.2" x="87.916" y="72.991" style="fill:#00c4b3;stroke:#00c4b3;stroke-width:1px"/><text x="27.004" y="80.191" style="font-family:'HelveticaNeue','Helvetica Neue';font-size:12px">503 (14%)</text><text x="110.716" y="80.191" style="font-family:'HelveticaNeue','Helvetica Neue';font-size:12px">None</text><rect width="13.8" height="7.2" x="87.916" y="87.391" style="fill:#00c4b3;stroke:#00c4b3;stroke-width:1px"/><text x="27.004" y="94.591" style="font-family:'HelveticaNeue','Helvetica Neue';font-size:12px">412 (11%)</text><text x="107.716" y="94.591" style="font-family:'HelveticaNeue','Helvetica Neue';font-size:12px">Digital Ocean</text><rect width="9.72" height="7.2" x="87.916" y="101.791" style="fill:#00c4b3;stroke:#00c4b3;stroke-width:1px"/><text x="27.004" y="108.991" style="font-family:'HelveticaNeue','Helvetica Neue';font-size:12px">292 (8%)</text><text x="103.636" y="108.991" style="font-family:'HelveticaNeue','Helvetica Neue';font-size:12px">A<tspan x="111.124 122.236" y="108.991 108.991">WS</tspan> Container</text><rect width="7.32" height="7.2" x="87.916" y="116.191" style="fill:#00c4b3;stroke:#00c4b3;stroke-width:1px"/><text x="27.004" y="123.391" style="font-family:'HelveticaNeue','Helvetica Neue';font-size:12px">221 (6%)</text><text x="101.236" y="123.391" style="font-family:'HelveticaNeue','Helvetica Neue';font-size:12px">Google Compute Engine</text><rect width="6.24" height="7.2" x="87.916" y="130.591" style="fill:#00c4b3;stroke:#00c4b3;stroke-width:1px"/><text x="27.004" y="137.791" style="font-family:'HelveticaNeue','Helvetica Neue';font-size:12px">188 (5%)</text><text x="100.156" y="137.791" style="font-family:'HelveticaNeue','Helvetica Neue';font-size:12px">Google App Engine</text><rect width="5.4" height="7.2" x="87.916" y="144.991" style="fill:#00c4b3;stroke:#00c4b3;stroke-width:1px"/><text x="27.004" y="152.191" style="font-family:'HelveticaNeue','Helvetica Neue';font-size:12px">161 (4%)</text><text x="99.316" y="152.191" style="font-family:'HelveticaNeue','Helvetica Neue';font-size:12px">Google Container Engine (GKE)</text><rect width="4.08" height="7.2" x="87.916" y="159.391" style="fill:#00c4b3;stroke:#00c4b3;stroke-width:1px"/><text x="27.004" y="166.591" style="font-family:'HelveticaNeue','Helvetica Neue';font-size:12px">121 (3%)</text><text x="97.996" y="166.591" style="font-family:'HelveticaNeue','Helvetica Neue';font-size:12px">Her<tspan x="116.884 123.772" y="166.591 166.591">ok</tspan>u</text><rect width="3.84" height="7.2" x="87.916" y="173.791" style="fill:#00c4b3;stroke:#00c4b3;stroke-width:1px"/><text x="27.004" y="180.991" style="font-family:'HelveticaNeue','Helvetica Neue';font-size:12px">114 (3%)</text><text x="97.756" y="180.991" style="font-family:'HelveticaNeue','Helvetica Neue';font-size:12px">Micr<tspan x="121.096 127.984" y="180.991 180.991">os</tspan>oft Azur<tspan x="175.528" y="180.991">e</tspan></text><rect width="3.48" height="7.2" x="87.916" y="188.191" style="fill:#00c4b3;stroke:#00c4b3;stroke-width:1px"/><text x="27.004" y="195.391" style="font-family:'HelveticaNeue','Helvetica Neue';font-size:12px">104 (3%)</text><text x="97.396" y="195.391" style="font-family:'HelveticaNeue','Helvetica Neue';font-size:12px">Linode</text><rect width="3.12" height="7.2" x="87.916" y="202.591" style="fill:#00c4b3;stroke:#00c4b3;stroke-width:1px"/><text x="33.676" y="209.791" style="font-family:'HelveticaNeue','Helvetica Neue';font-size:12px">94 (3%)</text><text x="97.036" y="209.791" style="font-family:'HelveticaNeue','Helvetica Neue';font-size:12px">A<tspan x="104.524 115.636" y="209.791 209.791">WS</tspan> Lambda</text><rect width="10.08" height="7.2" x="87.916" y="216.991" style="fill:#777;stroke:#777;stroke-width:1px"/><text x="27.004" y="224.191" style="font-family:'HelveticaNeue','Helvetica Neue';font-size:12px">301 (8%)</text><text x="103.996" y="224.191" style="font-family:'HelveticaNeue','Helvetica Neue';font-size:12px">Other</text><rect width="21.36" height="7.2" x="87.916" y="231.391" style="fill:#fff;stroke:#000;stroke-width:1px"/><text x="27.004" y="238.591" style="font-family:'HelveticaNeue','Helvetica Neue';font-size:12px">639 (18%)</text><text x="115.276" y="238.591" style="font-family:'HelveticaNeue','Helvetica Neue';font-size:12px">No r<tspan x="137.944 144.388" y="238.591 238.591">es</tspan>ponse</text></g><text x="409.418" y="33.711" style="font-family:'HelveticaNeue','Helvetica Neue';font-size:12px">My team deploys Go pr<tspan x="535.238 542.126" y="33.711 33.711">og</tspan>rams to: (multiple choice)</text><rect width="51.36" height="7.2" x="496.418" y="44.511" style="fill:#00acd7;stroke:#00acd7;stroke-width:1px"/><text x="425.498" y="51.711" style="font-family:'HelveticaNeue','Helvetica Neue';font-size:12px">2,664 (43%)</text><text x="553.778" y="51.711" style="font-family:'HelveticaNeue','Helvetica Neue';font-size:12px">Self/Company Owned Servers</text><rect width="32.52" height="7.2" x="496.418" y="58.911" style="fill:#00acd7;stroke:#00acd7;stroke-width:1px"/><text x="425.498" y="66.111" style="font-family:'HelveticaNeue','Helvetica Neue';font-size:12px">1,689 (27%)</text><text x="534.938" y="66.111" style="font-family:'HelveticaNeue','Helvetica Neue';font-size:12px">A<tspan x="542.426 553.538" y="66.111 66.111">WS</tspan> EC2</text><rect width="15.36" height="7.2" x="496.418" y="73.311" style="fill:#00acd7;stroke:#00acd7;stroke-width:1px"/><text x="435.506" y="80.511" style="font-family:'HelveticaNeue','Helvetica Neue';font-size:12px">799 (13%)</text><text x="517.778" y="80.511" style="font-family:'HelveticaNeue','Helvetica Neue';font-size:12px">None</text><rect width="14.16" height="7.2" x="496.418" y="87.711" style="fill:#00acd7;stroke:#00acd7;stroke-width:1px"/><text x="435.506" y="94.911" style="font-family:'HelveticaNeue','Helvetica Neue';font-size:12px">732 (12%)</text><text x="516.578" y="94.911" style="font-family:'HelveticaNeue','Helvetica Neue';font-size:12px">A<tspan x="524.066 535.178" y="94.911 94.911">WS</tspan> Container</text><rect width="12.12" height="7.2" x="496.418" y="102.111" style="fill:#00acd7;stroke:#00acd7;stroke-width:1px"/><text x="435.506" y="109.311" style="font-family:'HelveticaNeue','Helvetica Neue';font-size:12px">631 (10%)</text><text x="514.538" y="109.311" style="font-family:'HelveticaNeue','Helvetica Neue';font-size:12px">Digital Ocean</text><rect width="11.52" height="7.2" x="496.418" y="116.511" style="fill:#00acd7;stroke:#00acd7;stroke-width:1px"/><text x="435.506" y="123.711" style="font-family:'HelveticaNeue','Helvetica Neue';font-size:12px">596 (10%)</text><text x="513.938" y="123.711" style="font-family:'HelveticaNeue','Helvetica Neue';font-size:12px">Google Compute Engine</text><rect width="9.36" height="7.2" x="496.418" y="130.911" style="fill:#00acd7;stroke:#00acd7;stroke-width:1px"/><text x="435.506" y="138.111" style="font-family:'HelveticaNeue','Helvetica Neue';font-size:12px">485 (8%)</text><text x="511.778" y="138.111" style="font-family:'HelveticaNeue','Helvetica Neue';font-size:12px">Google Container Engine (GKE)</text><rect width="6.36" height="7.2" x="496.418" y="145.311" style="fill:#00acd7;stroke:#00acd7;stroke-width:1px"/><text x="435.506" y="152.511" style="font-family:'HelveticaNeue','Helvetica Neue';font-size:12px">328 (5%)</text><text x="508.778" y="152.511" style="font-family:'HelveticaNeue','Helvetica Neue';font-size:12px">Google App Engine</text><rect width="5.04" height="7.2" x="496.418" y="159.711" style="fill:#00acd7;stroke:#00acd7;stroke-width:1px"/><text x="435.506" y="166.911" style="font-family:'HelveticaNeue','Helvetica Neue';font-size:12px">262 (4%)</text><text x="507.458" y="166.911" style="font-family:'HelveticaNeue','Helvetica Neue';font-size:12px">A<tspan x="514.946 526.058" y="166.911 166.911">WS</tspan> Lambda</text><rect width="4.92" height="7.2" x="496.418" y="174.111" style="fill:#00acd7;stroke:#00acd7;stroke-width:1px"/><text x="435.506" y="181.311" style="font-family:'HelveticaNeue','Helvetica Neue';font-size:12px">255 (4%)</text><text x="507.338" y="181.311" style="font-family:'HelveticaNeue','Helvetica Neue';font-size:12px">Her<tspan x="526.226 533.114" y="181.311 181.311">ok</tspan>u</text><rect width="4.92" height="7.2" x="496.418" y="188.511" style="fill:#00acd7;stroke:#00acd7;stroke-width:1px"/><text x="435.506" y="195.711" style="font-family:'HelveticaNeue','Helvetica Neue';font-size:12px">255 (4%)</text><text x="507.338" y="195.711" style="font-family:'HelveticaNeue','Helvetica Neue';font-size:12px">Micr<tspan x="530.678 537.566" y="195.711 195.711">os</tspan>oft Azur<tspan x="585.11" y="195.711">e</tspan></text><rect width="3.48" height="7.2" x="496.418" y="202.911" style="fill:#00acd7;stroke:#00acd7;stroke-width:1px"/><text x="435.506" y="210.111" style="font-family:'HelveticaNeue','Helvetica Neue';font-size:12px">183 (3%)</text><text x="505.898" y="210.111" style="font-family:'HelveticaNeue','Helvetica Neue';font-size:12px">Linode</text><rect width="1.2" height="7.2" x="496.418" y="217.311" style="fill:#00acd7;stroke:#00acd7;stroke-width:1px"/><text x="442.178" y="224.511" style="font-family:'HelveticaNeue','Helvetica Neue';font-size:12px">61 (1%)</text><text x="503.618" y="224.511" style="font-family:'HelveticaNeue','Helvetica Neue';font-size:12px">Azur<tspan x="527.606 534.05" y="224.511 224.511">e </tspan>Container Service</text><rect width=".96" height="7.2" x="496.418" y="231.711" style="fill:#00acd7;stroke:#00acd7;stroke-width:1px"/><text x="442.178" y="238.911" style="font-family:'HelveticaNeue','Helvetica Neue';font-size:12px">51 (1%)</text><text x="503.378" y="238.911" style="font-family:'HelveticaNeue','Helvetica Neue';font-size:12px">Google Cloud Functions</text><rect width=".24" height="7.2" x="496.418" y="246.111" style="fill:#00acd7;stroke:#00acd7;stroke-width:1px"/><text x="442.178" y="253.311" style="font-family:'HelveticaNeue','Helvetica Neue';font-size:12px">13 (0%)</text><text x="502.658" y="253.311" style="font-family:'HelveticaNeue','Helvetica Neue';font-size:12px">Azur<tspan x="526.646 533.09" y="253.311 253.311">e </tspan>Functions</text><rect width="11.64" height="7.2" x="496.418" y="260.511" style="fill:#777;stroke:#777;stroke-width:1px"/><text x="435.506" y="267.711" style="font-family:'HelveticaNeue','Helvetica Neue';font-size:12px">601 (10%)</text><text x="514.058" y="267.711" style="font-family:'HelveticaNeue','Helvetica Neue';font-size:12px">Other</text><rect width="12.6" height="7.2" x="496.418" y="274.911" style="fill:#fff;stroke:#000;stroke-width:1px"/><text x="435.506" y="282.111" style="font-family:'HelveticaNeue','Helvetica Neue';font-size:12px">652 (10%)</text><text x="515.018" y="282.111" style="font-family:'HelveticaNeue','Helvetica Neue';font-size:12px">No r<tspan x="537.686 544.13" y="282.111 282.111">es</tspan>ponse</text><path d="M340.5,101.004c0,-2.044 -1.66,-3.704 -3.704,-3.704l-332.593,0c-2.044,0 -3.703,1.66 -3.703,3.704l0,7.407c0,2.043 1.659,3.703 3.703,3.703l332.593,0c2.044,0 3.704,-1.66 3.704,-3.703l0,-7.407Z" style="fill:#e62626;fill-opacity:.152941;stroke:#e62626;stroke-width:1px;stroke-linecap:round;stroke-linejoin:round;stroke-miterlimit:1.5"/><path d="M340.5,116.004c0,-2.044 -1.66,-3.704 -3.704,-3.704l-332.593,0c-2.044,0 -3.703,1.66 -3.703,3.704l0,7.407c0,2.043 1.659,3.703 3.703,3.703l332.593,0c2.044,0 3.704,-1.66 3.704,-3.703l0,-7.407Z" style="fill:#e62626;fill-opacity:.152941;stroke:#e62626;stroke-width:1px;stroke-linecap:round;stroke-linejoin:round;stroke-miterlimit:1.5"/><path d="M340.5,145.004c0,-2.044 -1.66,-3.704 -3.704,-3.704l-332.593,0c-2.044,0 -3.703,1.66 -3.703,3.704l0,7.407c0,2.043 1.659,3.703 3.703,3.703l332.593,0c2.044,0 3.704,-1.66 3.704,-3.703l0,-7.407Z" style="fill:#e62626;fill-opacity:.152941;stroke:#e62626;stroke-width:1px;stroke-linecap:round;stroke-linejoin:round;stroke-miterlimit:1.5"/><path d="M744.5,86.597c0,-2.044 -1.66,-3.703 -3.704,-3.703l-332.593,0c-2.044,0 -3.703,1.659 -3.703,3.703l0,7.407c0,2.044 1.659,3.703 3.703,3.703l332.593,0c2.044,0 3.704,-1.659 3.704,-3.703l0,-7.407Z" style="fill:#e62626;fill-opacity:.152941;stroke:#e62626;stroke-width:1px;stroke-linecap:round;stroke-linejoin:round;stroke-miterlimit:1.5"/><path d="M744.5,115.597c0,-2.044 -1.66,-3.703 -3.704,-3.703l-332.593,0c-2.044,0 -3.703,1.659 -3.703,3.703l0,7.407c0,2.044 1.659,3.703 3.703,3.703l332.593,0c2.044,0 3.704,-1.659 3.704,-3.703l0,-7.407Z" style="fill:#e62626;fill-opacity:.152941;stroke:#e62626;stroke-width:1px;stroke-linecap:round;stroke-linejoin:round;stroke-miterlimit:1.5"/><path d="M744.5,130.597c0,-2.044 -1.66,-3.703 -3.704,-3.703l-332.593,0c-2.044,0 -3.703,1.659 -3.703,3.703l0,7.407c0,2.044 1.659,3.703 3.703,3.703l332.593,0c2.044,0 3.704,-1.659 3.704,-3.703l0,-7.407Z" style="fill:#e62626;fill-opacity:.152941;stroke:#e62626;stroke-width:1px;stroke-linecap:round;stroke-linejoin:round;stroke-miterlimit:1.5"/><path d="M354.369,137.974l-3.445,-6.107l37.049,-20.9l-3.199,-5.671l13.647,3.803l-3.803,13.647l-3.199,-5.672l-37.05,20.9Z" style="fill:#e62626;fill-opacity:.152941;stroke:#e62626;stroke-width:1px;stroke-linecap:round;stroke-linejoin:round;stroke-miterlimit:1.5"/></svg>