<svg xmlns="http://www.w3.org/2000/svg" width="70em" height="16.4em" version="1.1"><defs><style type="text/css">svg{font-family:&quot;Helvetica Neue&quot;,Arial,sans-serif}tspan.size{font-size:.8em}tspan.head{font-weight:700}</style></defs><text x="0em" y="1.2em" class="head"><tspan class="size">My preferred code editor</tspan></text><rect width="2.68em" height=".6em" x="7.25em" y="2.1em" fill="#00acd7" stroke="#00acd7"/><rect width="1.25em" height=".6em" x="9.93em" y="2.1em" fill="#75cbe0" stroke="#75cbe0"/><text x="6.75em" y="2.7em" text-anchor="end"><tspan class="size">2,449 (<tspan fill="#00acd7">27</tspan>, <tspan fill="#75cbe0">13</tspan>%)</tspan></text><text x="11.68em" y="2.7em"><tspan class="size">VSCode</tspan></text><rect width="2.23em" height=".6em" x="7.25em" y="3.3em" fill="#00acd7" stroke="#00acd7"/><rect width="1.44em" height=".6em" x="9.48em" y="3.3em" fill="#75cbe0" stroke="#75cbe0"/><text x="6.75em" y="3.9em" text-anchor="end"><tspan class="size">2,288 (<tspan fill="#00acd7">22</tspan>, <tspan fill="#75cbe0">14</tspan>%)</tspan></text><text x="11.42em" y="3.9em"><tspan class="size">Vim</tspan></text><rect width="1.92em" height=".6em" x="7.25em" y="4.5em" fill="#00acd7" stroke="#00acd7"/><rect width=".7em" height=".6em" x="9.17em" y="4.5em" fill="#75cbe0" stroke="#75cbe0"/><text x="6.75em" y="5.1em" text-anchor="end"><tspan class="size">1,628 (<tspan fill="#00acd7">19</tspan>, <tspan fill="#75cbe0">7</tspan>%)</tspan></text><text x="10.36em" y="5.1em"><tspan class="size">IntelliJ/GoLand</tspan></text><rect width=".67em" height=".6em" x="7.25em" y="5.7em" fill="#00acd7" stroke="#00acd7"/><rect width=".79em" height=".6em" x="7.92em" y="5.7em" fill="#75cbe0" stroke="#75cbe0"/><text x="6.75em" y="6.3em" text-anchor="end"><tspan class="size">912 (<tspan fill="#00acd7">7</tspan>, <tspan fill="#75cbe0">8</tspan>%)</tspan></text><text x="9.21em" y="6.3em"><tspan class="size">Sublime Text</tspan></text><rect width=".61em" height=".6em" x="7.25em" y="6.9em" fill="#00acd7" stroke="#00acd7"/><rect width=".66em" height=".6em" x="7.86em" y="6.9em" fill="#75cbe0" stroke="#75cbe0"/><text x="6.75em" y="7.5em" text-anchor="end"><tspan class="size">791 (<tspan fill="#00acd7">6</tspan>, <tspan fill="#75cbe0">7</tspan>%)</tspan></text><text x="9.02em" y="7.5em"><tspan class="size">Atom</tspan></text><rect width=".59em" height=".6em" x="7.25em" y="8.1em" fill="#00acd7" stroke="#00acd7"/><rect width=".19em" height=".6em" x="7.84em" y="8.1em" fill="#75cbe0" stroke="#75cbe0"/><text x="6.75em" y="8.7em" text-anchor="end"><tspan class="size">490 (<tspan fill="#00acd7">6</tspan>, <tspan fill="#75cbe0">2</tspan>%)</tspan></text><text x="8.54em" y="8.7em"><tspan class="size">Emacs</tspan></text><rect width=".2em" height=".6em" x="7.25em" y="9.3em" fill="#00acd7" stroke="#00acd7"/><rect width=".24em" height=".6em" x="7.45em" y="9.3em" fill="#75cbe0" stroke="#75cbe0"/><text x="6.75em" y="9.9em" text-anchor="end"><tspan class="size">274 (<tspan fill="#00acd7">2</tspan>, <tspan fill="#75cbe0">2</tspan>%)</tspan></text><text x="8.19em" y="9.9em"><tspan class="size">Visual Studio</tspan></text><rect width=".12em" height=".6em" x="7.25em" y="10.5em" fill="#00acd7" stroke="#00acd7"/><rect width=".13em" height=".6em" x="7.37em" y="10.5em" fill="#75cbe0" stroke="#75cbe0"/><text x="6.75em" y="11.1em" text-anchor="end"><tspan class="size">154 (<tspan fill="#00acd7">1</tspan>, <tspan fill="#75cbe0">1</tspan>%)</tspan></text><text x="8em" y="11.1em"><tspan class="size">LiteIDE</tspan></text><rect width=".05em" height=".6em" x="7.25em" y="11.7em" fill="#00acd7" stroke="#00acd7"/><rect width=".09em" height=".6em" x="7.3em" y="11.7em" fill="#75cbe0" stroke="#75cbe0"/><text x="6.75em" y="12.3em" text-anchor="end"><tspan class="size">88 (<tspan fill="#00acd7">0.5</tspan>, <tspan fill="#75cbe0">0.9</tspan>%)</tspan></text><text x="7.89em" y="12.3em"><tspan class="size">Eclipse</tspan></text><rect width=".06em" height=".6em" x="7.25em" y="12.9em" fill="#00acd7" stroke="#00acd7"/><rect width=".04em" height=".6em" x="7.31em" y="12.9em" fill="#75cbe0" stroke="#75cbe0"/><text x="6.75em" y="13.5em" text-anchor="end"><tspan class="size">67 (<tspan fill="#00acd7">0.6</tspan>, <tspan fill="#75cbe0">0.4</tspan>%)</tspan></text><text x="7.86em" y="13.5em"><tspan class="size">Acme</tspan></text><rect width=".25em" height=".6em" x="7.25em" y="14.1em" fill="#777" stroke="#777"/><rect width=".16em" height=".6em" x="7.5em" y="14.1em" fill="#b0b0b0" stroke="#b0b0b0"/><text x="6.75em" y="14.7em" text-anchor="end"><tspan class="size">256 (<tspan fill="#777">3</tspan>, <tspan fill="#b0b0b0">2</tspan>%)</tspan></text><text x="8.16em" y="14.7em"><tspan class="size">Other</tspan></text><rect width=".61em" height=".6em" x="7.25em" y="15.3em" fill="#fff" stroke="#000"/><text x="6.75em" y="15.9em" text-anchor="end"><tspan class="size">382 (6.1%)</tspan></text><text x="8.36em" y="15.9em"><tspan class="size">No response</tspan></text></svg>