<svg xmlns="http://www.w3.org/2000/svg" width="70em" height="14em" version="1.1"><defs><style type="text/css">svg{font-family:&quot;Helvetica Neue&quot;,Arial,sans-serif}tspan.size{font-size:.8em}tspan.head{font-weight:700}tspan.paren{font-weight:400!important}</style></defs><text x="0em" y="1.2em" class="head"><tspan class="size">I have attended: <tspan class="paren">(multiple choice)</tspan></tspan></text><rect width="4.01em" height=".6em" x="7.25em" y="2.1em" fill="#00ACD7" stroke="#00ACD7"/><text x="6.75em" y="2.7em" text-anchor="end"><tspan class="size">2,497 (40%)</tspan></text><text x="11.76em" y="2.7em"><tspan class="size">None</tspan></text><rect width="2.6em" height=".6em" x="7.25em" y="3.3em" fill="#00ACD7" stroke="#00ACD7"/><text x="6.75em" y="3.9em" text-anchor="end"><tspan class="size">1,618 (26%)</tspan></text><text x="10.35em" y="3.9em"><tspan class="size">A Go meetup</tspan></text><rect width="1.52em" height=".6em" x="7.25em" y="4.5em" fill="#00ACD7" stroke="#00ACD7"/><text x="6.75em" y="5.1em" text-anchor="end"><tspan class="size">947 (15%)</tspan></text><text x="9.27em" y="5.1em"><tspan class="size">A Go themed conference (GopherCon, GothamGo, etc)</tspan></text><rect width=".81em" height=".6em" x="7.25em" y="5.7em" fill="#00ACD7" stroke="#00ACD7"/><text x="6.75em" y="6.3em" text-anchor="end"><tspan class="size">506 (8%)</tspan></text><text x="8.56em" y="6.3em"><tspan class="size">A Go remote meetup / online event</tspan></text><rect width=".58em" height=".6em" x="7.25em" y="6.9em" fill="#00ACD7" stroke="#00ACD7"/><text x="6.75em" y="7.5em" text-anchor="end"><tspan class="size">363 (6%)</tspan></text><text x="8.33em" y="7.5em"><tspan class="size">Go training</tspan></text><rect width=".37em" height=".6em" x="7.25em" y="8.1em" fill="#00ACD7" stroke="#00ACD7"/><text x="6.75em" y="8.7em" text-anchor="end"><tspan class="size">228 (4%)</tspan></text><text x="8.12em" y="8.7em"><tspan class="size">A technical conference for it&apos;s Go content</tspan></text><rect width=".1em" height=".6em" x="7.25em" y="9.3em" fill="#00ACD7" stroke="#00ACD7"/><text x="6.75em" y="9.9em" text-anchor="end"><tspan class="size">65 (1%)</tspan></text><text x="7.85em" y="9.9em"><tspan class="size">A Women Who Go event</tspan></text><rect width=".1em" height=".6em" x="7.25em" y="10.5em" fill="#00ACD7" stroke="#00ACD7"/><text x="6.75em" y="11.1em" text-anchor="end"><tspan class="size">64 (1%)</tspan></text><text x="7.85em" y="11.1em"><tspan class="size">A GoBridge event</tspan></text><rect width=".09em" height=".6em" x="7.25em" y="11.7em" fill="#777" stroke="#777"/><text x="6.75em" y="12.3em" text-anchor="end"><tspan class="size">58 (1%)</tspan></text><text x="7.84em" y="12.3em"><tspan class="size">Other</tspan></text><rect width="2.31em" height=".6em" x="7.25em" y="12.9em" fill="#fff" stroke="#000"/><text x="6.75em" y="13.5em" text-anchor="end"><tspan class="size">1,440 (23%)</tspan></text><text x="10.06em" y="13.5em"><tspan class="size">No response</tspan></text></svg>