<svg xmlns="http://www.w3.org/2000/svg" width="70em" height="17.6em" version="1.1"><defs><style type="text/css">svg{font-family:&quot;Helvetica Neue&quot;,Arial,sans-serif}tspan.size{font-size:.8em}tspan.head{font-weight:700}</style></defs><text x="0em" y="1.2em" class="head"><tspan class="size">Is there anything else you would like to share with us?</tspan></text><rect width=".21em" height=".6em" x="7.25em" y="2.1em" fill="#00ACD7" stroke="#00ACD7"/><text x="6.75em" y="2.7em" text-anchor="end"><tspan class="size">130 (2.1%)</tspan></text><text x="7.96em" y="2.7em"><tspan class="size">great</tspan></text><rect width=".19em" height=".6em" x="7.25em" y="3.3em" fill="#00ACD7" stroke="#00ACD7"/><text x="6.75em" y="3.9em" text-anchor="end"><tspan class="size">119 (1.9%)</tspan></text><text x="7.94em" y="3.9em"><tspan class="size">generics</tspan></text><rect width=".17em" height=".6em" x="7.25em" y="4.5em" fill="#00ACD7" stroke="#00ACD7"/><text x="6.75em" y="5.1em" text-anchor="end"><tspan class="size">104 (1.7%)</tspan></text><text x="7.92em" y="5.1em"><tspan class="size">love</tspan></text><rect width=".17em" height=".6em" x="7.25em" y="5.7em" fill="#00ACD7" stroke="#00ACD7"/><text x="6.75em" y="6.3em" text-anchor="end"><tspan class="size">104 (1.7%)</tspan></text><text x="7.92em" y="6.3em"><tspan class="size">thank you</tspan></text><rect width=".16em" height=".6em" x="7.25em" y="6.9em" fill="#00ACD7" stroke="#00ACD7"/><text x="6.75em" y="7.5em" text-anchor="end"><tspan class="size">99 (1.6%)</tspan></text><text x="7.91em" y="7.5em"><tspan class="size">thanks</tspan></text><rect width=".14em" height=".6em" x="7.25em" y="8.1em" fill="#00ACD7" stroke="#00ACD7"/><text x="6.75em" y="8.7em" text-anchor="end"><tspan class="size">87 (1.4%)</tspan></text><text x="7.89em" y="8.7em"><tspan class="size">community</tspan></text><rect width=".09em" height=".6em" x="7.25em" y="9.3em" fill="#00ACD7" stroke="#00ACD7"/><text x="6.75em" y="9.9em" text-anchor="end"><tspan class="size">58 (0.9%)</tspan></text><text x="7.84em" y="9.9em"><tspan class="size">programming</tspan></text><rect width=".09em" height=".6em" x="7.25em" y="10.5em" fill="#00ACD7" stroke="#00ACD7"/><text x="6.75em" y="11.1em" text-anchor="end"><tspan class="size">56 (0.9%)</tspan></text><text x="7.84em" y="11.1em"><tspan class="size">simple</tspan></text><rect width=".08em" height=".6em" x="7.25em" y="11.7em" fill="#00ACD7" stroke="#00ACD7"/><text x="6.75em" y="12.3em" text-anchor="end"><tspan class="size">52 (0.8%)</tspan></text><text x="7.83em" y="12.3em"><tspan class="size">awesome</tspan></text><rect width=".08em" height=".6em" x="7.25em" y="12.9em" fill="#00ACD7" stroke="#00ACD7"/><text x="6.75em" y="13.5em" text-anchor="end"><tspan class="size">51 (0.8%)</tspan></text><text x="7.83em" y="13.5em"><tspan class="size">i love</tspan></text><rect width=".08em" height=".6em" x="7.25em" y="14.1em" fill="#00ACD7" stroke="#00ACD7"/><text x="6.75em" y="14.7em" text-anchor="end"><tspan class="size">48 (0.8%)</tspan></text><text x="7.83em" y="14.7em"><tspan class="size">people</tspan></text><rect width=".07em" height=".6em" x="7.25em" y="15.3em" fill="#00ACD7" stroke="#00ACD7"/><text x="6.75em" y="15.9em" text-anchor="end"><tspan class="size">44 (0.7%)</tspan></text><text x="7.82em" y="15.9em"><tspan class="size">team</tspan></text><rect width=".06em" height=".6em" x="7.25em" y="16.5em" fill="#00ACD7" stroke="#00ACD7"/><text x="6.75em" y="17.1em" text-anchor="end"><tspan class="size">40 (0.6%)</tspan></text><text x="7.81em" y="17.1em"><tspan class="size">golang</tspan></text><rect width=".06em" height=".6em" x="22.25em" y="2.1em" fill="#00ACD7" stroke="#00ACD7"/><text x="21.75em" y="2.7em" text-anchor="end"><tspan class="size">38 (0.6%)</tspan></text><text x="22.81em" y="2.7em"><tspan class="size">keep up the good work</tspan></text><rect width=".06em" height=".6em" x="22.25em" y="3.3em" fill="#00ACD7" stroke="#00ACD7"/><text x="21.75em" y="3.9em" text-anchor="end"><tspan class="size">38 (0.6%)</tspan></text><text x="22.81em" y="3.9em"><tspan class="size">time</tspan></text><rect width=".06em" height=".6em" x="22.25em" y="4.5em" fill="#00ACD7" stroke="#00ACD7"/><text x="21.75em" y="5.1em" text-anchor="end"><tspan class="size">37 (0.6%)</tspan></text><text x="22.81em" y="5.1em"><tspan class="size">hard</tspan></text><rect width=".06em" height=".6em" x="22.25em" y="5.7em" fill="#00ACD7" stroke="#00ACD7"/><text x="21.75em" y="6.3em" text-anchor="end"><tspan class="size">37 (0.6%)</tspan></text><text x="22.81em" y="6.3em"><tspan class="size">languages</tspan></text><rect width=".06em" height=".6em" x="22.25em" y="6.9em" fill="#00ACD7" stroke="#00ACD7"/><text x="21.75em" y="7.5em" text-anchor="end"><tspan class="size">36 (0.6%)</tspan></text><text x="22.81em" y="7.5em"><tspan class="size">job</tspan></text><rect width=".06em" height=".6em" x="22.25em" y="8.1em" fill="#00ACD7" stroke="#00ACD7"/><text x="21.75em" y="8.7em" text-anchor="end"><tspan class="size">35 (0.6%)</tspan></text><text x="22.81em" y="8.7em"><tspan class="size">features</tspan></text><rect width=".06em" height=".6em" x="22.25em" y="9.3em" fill="#00ACD7" stroke="#00ACD7"/><text x="21.75em" y="9.9em" text-anchor="end"><tspan class="size">35 (0.6%)</tspan></text><text x="22.81em" y="9.9em"><tspan class="size">great work</tspan></text><rect width=".05em" height=".6em" x="22.25em" y="10.5em" fill="#00ACD7" stroke="#00ACD7"/><text x="21.75em" y="11.1em" text-anchor="end"><tspan class="size">30 (0.5%)</tspan></text><text x="22.8em" y="11.1em"><tspan class="size">3</tspan></text><rect width=".05em" height=".6em" x="22.25em" y="11.7em" fill="#00ACD7" stroke="#00ACD7"/><text x="21.75em" y="12.3em" text-anchor="end"><tspan class="size">30 (0.5%)</tspan></text><text x="22.8em" y="12.3em"><tspan class="size">amazing</tspan></text><rect width=".05em" height=".6em" x="22.25em" y="12.9em" fill="#00ACD7" stroke="#00ACD7"/><text x="21.75em" y="13.5em" text-anchor="end"><tspan class="size">30 (0.5%)</tspan></text><text x="22.8em" y="13.5em"><tspan class="size">c</tspan></text><rect width=".05em" height=".6em" x="22.25em" y="14.1em" fill="#00ACD7" stroke="#00ACD7"/><text x="21.75em" y="14.7em" text-anchor="end"><tspan class="size">30 (0.5%)</tspan></text><text x="22.8em" y="14.7em"><tspan class="size">google</tspan></text><rect width="8.3em" height=".6em" x="22.25em" y="15.3em" fill="#fff" stroke="#000"/><text x="21.75em" y="15.9em" text-anchor="end"><tspan class="size">5,167 (83.0%)</tspan></text><text x="31.05em" y="15.9em"><tspan class="size">No response</tspan></text></svg>