<svg xmlns="http://www.w3.org/2000/svg" width="70em" height="10.4em" version="1.1"><defs><style type="text/css">svg{font-family:&quot;Helvetica Neue&quot;,Arial,sans-serif}tspan.size{font-size:.8em}tspan.head{font-weight:700}tspan.paren{font-weight:400!important}</style></defs><text x="0em" y="1.2em" class="head"><tspan class="size">I&apos;ve used Go for: <tspan class="paren">(single choice)</tspan></tspan></text><rect width="1.1em" height=".6em" x="7.25em" y="2.1em" fill="#00ACD7" stroke="#00ACD7"/><text x="6.75em" y="2.7em" text-anchor="end"><tspan class="size">686 (11%)</tspan></text><text x="8.85em" y="2.7em"><tspan class="size">Less than 3 months</tspan></text><rect width="2.55em" height=".6em" x="7.25em" y="3.3em" fill="#00ACD7" stroke="#00ACD7"/><text x="6.75em" y="3.9em" text-anchor="end"><tspan class="size">1,588 (26%)</tspan></text><text x="10.3em" y="3.9em"><tspan class="size">3 - 12 months</tspan></text><rect width="2.15em" height=".6em" x="7.25em" y="4.5em" fill="#00ACD7" stroke="#00ACD7"/><text x="6.75em" y="5.1em" text-anchor="end"><tspan class="size">1,338 (21%)</tspan></text><text x="9.9em" y="5.1em"><tspan class="size">13 - 24 months</tspan></text><rect width="2.7em" height=".6em" x="7.25em" y="5.7em" fill="#00ACD7" stroke="#00ACD7"/><text x="6.75em" y="6.3em" text-anchor="end"><tspan class="size">1,678 (27%)</tspan></text><text x="10.45em" y="6.3em"><tspan class="size">2 - 4 years</tspan></text><rect width="1.3em" height=".6em" x="7.25em" y="6.9em" fill="#00ACD7" stroke="#00ACD7"/><text x="6.75em" y="7.5em" text-anchor="end"><tspan class="size">809 (13%)</tspan></text><text x="9.05em" y="7.5em"><tspan class="size">4+ years</tspan></text><rect width=".16em" height=".6em" x="7.25em" y="8.1em" fill="#00ACD7" stroke="#00ACD7"/><text x="6.75em" y="8.7em" text-anchor="end"><tspan class="size">102 (2%)</tspan></text><text x="7.91em" y="8.7em"><tspan class="size">I&apos;ve never used Go</tspan></text><rect width=".04em" height=".6em" x="7.25em" y="9.3em" fill="#fff" stroke="#000"/><text x="6.75em" y="9.9em" text-anchor="end"><tspan class="size">25 (0%)</tspan></text><text x="7.79em" y="9.9em"><tspan class="size">No response</tspan></text></svg>