<svg xmlns="http://www.w3.org/2000/svg" width="70em" height="12.8em" version="1.1"><defs><style type="text/css">svg{font-family:&quot;Helvetica Neue&quot;,Arial,sans-serif}tspan.size{font-size:.8em}tspan.head{font-weight:700}tspan.paren{font-weight:400!important}</style></defs><text x="0em" y="1.2em" class="head"><tspan class="size">We want the Go community to be inclusive; we want to see how we&apos;re doing and how to improve. Plea... <tspan class="paren">(multiple choice)</tspan></tspan></text><rect width="4.16em" height=".6em" x="7.25em" y="2.1em" fill="#00ACD7" stroke="#00ACD7"/><text x="6.75em" y="2.7em" text-anchor="end"><tspan class="size">2,591 (42%)</tspan></text><text x="11.91em" y="2.7em"><tspan class="size">I do not identify as part of an underrepresented group</tspan></text><rect width="1.27em" height=".6em" x="7.25em" y="3.3em" fill="#00ACD7" stroke="#00ACD7"/><text x="6.75em" y="3.9em" text-anchor="end"><tspan class="size">790 (13%)</tspan></text><text x="9.02em" y="3.9em"><tspan class="size">I prefer not to answer</tspan></text><rect width=".32em" height=".6em" x="7.25em" y="4.5em" fill="#00ACD7" stroke="#00ACD7"/><text x="6.75em" y="5.1em" text-anchor="end"><tspan class="size">197 (3%)</tspan></text><text x="8.07em" y="5.1em"><tspan class="size">I identify as LGBTQIA</tspan></text><rect width=".31em" height=".6em" x="7.25em" y="5.7em" fill="#00ACD7" stroke="#00ACD7"/><text x="6.75em" y="6.3em" text-anchor="end"><tspan class="size">191 (3%)</tspan></text><text x="8.06em" y="6.3em"><tspan class="size">I identify as ethnically or racially underrepresented</tspan></text><rect width=".26em" height=".6em" x="7.25em" y="6.9em" fill="#00ACD7" stroke="#00ACD7"/><text x="6.75em" y="7.5em" text-anchor="end"><tspan class="size">164 (3%)</tspan></text><text x="8.01em" y="7.5em"><tspan class="size">I identify as neurodiverse or as having a disability</tspan></text><rect width=".25em" height=".6em" x="7.25em" y="8.1em" fill="#00ACD7" stroke="#00ACD7"/><text x="6.75em" y="8.7em" text-anchor="end"><tspan class="size">156 (3%)</tspan></text><text x="8em" y="8.7em"><tspan class="size">I identify with an underrepresented group not listed (please specify)</tspan></text><rect width=".16em" height=".6em" x="7.25em" y="9.3em" fill="#00ACD7" stroke="#00ACD7"/><text x="6.75em" y="9.9em" text-anchor="end"><tspan class="size">101 (2%)</tspan></text><text x="7.91em" y="9.9em"><tspan class="size">I identify as a woman</tspan></text><rect width=".13em" height=".6em" x="7.25em" y="10.5em" fill="#00ACD7" stroke="#00ACD7"/><text x="6.75em" y="11.1em" text-anchor="end"><tspan class="size">81 (1%)</tspan></text><text x="7.88em" y="11.1em"><tspan class="size">I identify as part of an underrepresented group, but I prefer not to specify</tspan></text><rect width="3.35em" height=".6em" x="7.25em" y="11.7em" fill="#fff" stroke="#000"/><text x="6.75em" y="12.3em" text-anchor="end"><tspan class="size">2,085 (33%)</tspan></text><text x="11.1em" y="12.3em"><tspan class="size">No response</tspan></text></svg>