<svg xmlns="http://www.w3.org/2000/svg" width="70em" height="14em" version="1.1"><defs><style type="text/css">svg{font-family:&quot;Helvetica Neue&quot;,Arial,sans-serif}tspan.size{font-size:.8em}tspan.head{font-weight:700}tspan.paren{font-weight:400!important}</style></defs><text x="0em" y="1.2em" class="head"><tspan class="size">Which of the following functionality have you implemented <tspan class="paren">(multiple choice)</tspan></tspan></text><rect width="5.24em" height=".6em" x="7.25em" y="2.1em" fill="#00ACD7" stroke="#00ACD7"/><text x="6.75em" y="2.7em" text-anchor="end"><tspan class="size">3,262 (52%)</tspan></text><text x="12.99em" y="2.7em"><tspan class="size">Writing logs/metrics</tspan></text><rect width="5.02em" height=".6em" x="7.25em" y="3.3em" fill="#00ACD7" stroke="#00ACD7"/><text x="6.75em" y="3.9em" text-anchor="end"><tspan class="size">3,123 (50%)</tspan></text><text x="12.77em" y="3.9em"><tspan class="size">Reading/updating configuration</tspan></text><rect width="4.45em" height=".6em" x="7.25em" y="4.5em" fill="#00ACD7" stroke="#00ACD7"/><text x="6.75em" y="5.1em" text-anchor="end"><tspan class="size">2,771 (45%)</tspan></text><text x="12.2em" y="5.1em"><tspan class="size">User login and authentication</tspan></text><rect width="4.41em" height=".6em" x="7.25em" y="5.7em" fill="#00ACD7" stroke="#00ACD7"/><text x="6.75em" y="6.3em" text-anchor="end"><tspan class="size">2,748 (44%)</tspan></text><text x="12.16em" y="6.3em"><tspan class="size">Process to process communication</tspan></text><rect width="4.02em" height=".6em" x="7.25em" y="6.9em" fill="#00ACD7" stroke="#00ACD7"/><text x="6.75em" y="7.5em" text-anchor="end"><tspan class="size">2,504 (40%)</tspan></text><text x="11.77em" y="7.5em"><tspan class="size">Service authentication/authorization</tspan></text><rect width="3.3em" height=".6em" x="7.25em" y="8.1em" fill="#00ACD7" stroke="#00ACD7"/><text x="6.75em" y="8.7em" text-anchor="end"><tspan class="size">2,056 (33%)</tspan></text><text x="11.05em" y="8.7em"><tspan class="size">Health checking</tspan></text><rect width="1.83em" height=".6em" x="7.25em" y="9.3em" fill="#00ACD7" stroke="#00ACD7"/><text x="6.75em" y="9.9em" text-anchor="end"><tspan class="size">1,138 (18%)</tspan></text><text x="9.58em" y="9.9em"><tspan class="size">Keys &amp; secret maintenance</tspan></text><rect width="1.33em" height=".6em" x="7.25em" y="10.5em" fill="#00ACD7" stroke="#00ACD7"/><text x="6.75em" y="11.1em" text-anchor="end"><tspan class="size">831 (13%)</tspan></text><text x="9.08em" y="11.1em"><tspan class="size">Distributed caching</tspan></text><rect width=".85em" height=".6em" x="7.25em" y="11.7em" fill="#00ACD7" stroke="#00ACD7"/><text x="6.75em" y="12.3em" text-anchor="end"><tspan class="size">532 (9%)</tspan></text><text x="8.6em" y="12.3em"><tspan class="size">Distributed tracing</tspan></text><rect width="2.04em" height=".6em" x="7.25em" y="12.9em" fill="#fff" stroke="#000"/><text x="6.75em" y="13.5em" text-anchor="end"><tspan class="size">1,269 (20%)</tspan></text><text x="9.79em" y="13.5em"><tspan class="size">No response</tspan></text></svg>