<svg xmlns="http://www.w3.org/2000/svg" width="70em" height="32em" version="1.1"><defs><style type="text/css">svg{font-family:&quot;Helvetica Neue&quot;,Arial,sans-serif}tspan.size{font-size:.8em}tspan.head{font-weight:700}tspan.paren{font-weight:400!important}</style></defs><text x="0em" y="1.2em" class="head"><tspan class="size">Just for fun: What is your favorite Go keyword? <tspan class="paren">(multiple choice)</tspan></tspan></text><rect width="2.61em" height=".6em" x="7.25em" y="2.1em" fill="#00ACD7" stroke="#00ACD7"/><text x="6.75em" y="2.7em" text-anchor="end"><tspan class="size">1,627 (26%)</tspan></text><text x="10.36em" y="2.7em"><tspan class="size">go</tspan></text><rect width="1.37em" height=".6em" x="7.25em" y="3.3em" fill="#00ACD7" stroke="#00ACD7"/><text x="6.75em" y="3.9em" text-anchor="end"><tspan class="size">856 (14%)</tspan></text><text x="9.12em" y="3.9em"><tspan class="size">defer</tspan></text><rect width=".87em" height=".6em" x="7.25em" y="4.5em" fill="#00ACD7" stroke="#00ACD7"/><text x="6.75em" y="5.1em" text-anchor="end"><tspan class="size">539 (9%)</tspan></text><text x="8.62em" y="5.1em"><tspan class="size">func</tspan></text><rect width=".62em" height=".6em" x="7.25em" y="5.7em" fill="#00ACD7" stroke="#00ACD7"/><text x="6.75em" y="6.3em" text-anchor="end"><tspan class="size">384 (6%)</tspan></text><text x="8.37em" y="6.3em"><tspan class="size">select</tspan></text><rect width=".6em" height=".6em" x="7.25em" y="6.9em" fill="#00ACD7" stroke="#00ACD7"/><text x="6.75em" y="7.5em" text-anchor="end"><tspan class="size">375 (6%)</tspan></text><text x="8.35em" y="7.5em"><tspan class="size">interface</tspan></text><rect width=".39em" height=".6em" x="7.25em" y="8.1em" fill="#00ACD7" stroke="#00ACD7"/><text x="6.75em" y="8.7em" text-anchor="end"><tspan class="size">242 (4%)</tspan></text><text x="8.14em" y="8.7em"><tspan class="size">range</tspan></text><rect width=".36em" height=".6em" x="7.25em" y="9.3em" fill="#00ACD7" stroke="#00ACD7"/><text x="6.75em" y="9.9em" text-anchor="end"><tspan class="size">222 (4%)</tspan></text><text x="8.11em" y="9.9em"><tspan class="size">chan</tspan></text><rect width=".35em" height=".6em" x="7.25em" y="10.5em" fill="#00ACD7" stroke="#00ACD7"/><text x="6.75em" y="11.1em" text-anchor="end"><tspan class="size">215 (3%)</tspan></text><text x="8.1em" y="11.1em"><tspan class="size">struct</tspan></text><rect width=".18em" height=".6em" x="7.25em" y="11.7em" fill="#00ACD7" stroke="#00ACD7"/><text x="6.75em" y="12.3em" text-anchor="end"><tspan class="size">114 (2%)</tspan></text><text x="7.93em" y="12.3em"><tspan class="size">fallthrough</tspan></text><rect width=".15em" height=".6em" x="7.25em" y="12.9em" fill="#00ACD7" stroke="#00ACD7"/><text x="6.75em" y="13.5em" text-anchor="end"><tspan class="size">96 (2%)</tspan></text><text x="7.9em" y="13.5em"><tspan class="size">goto</tspan></text><rect width=".14em" height=".6em" x="7.25em" y="14.1em" fill="#00ACD7" stroke="#00ACD7"/><text x="6.75em" y="14.7em" text-anchor="end"><tspan class="size">90 (1%)</tspan></text><text x="7.89em" y="14.7em"><tspan class="size">switch</tspan></text><rect width=".14em" height=".6em" x="7.25em" y="15.3em" fill="#00ACD7" stroke="#00ACD7"/><text x="6.75em" y="15.9em" text-anchor="end"><tspan class="size">89 (1%)</tspan></text><text x="7.89em" y="15.9em"><tspan class="size">type</tspan></text><rect width=".13em" height=".6em" x="7.25em" y="16.5em" fill="#00ACD7" stroke="#00ACD7"/><text x="6.75em" y="17.1em" text-anchor="end"><tspan class="size">82 (1%)</tspan></text><text x="7.88em" y="17.1em"><tspan class="size">for</tspan></text><rect width=".11em" height=".6em" x="7.25em" y="17.7em" fill="#00ACD7" stroke="#00ACD7"/><text x="6.75em" y="18.3em" text-anchor="end"><tspan class="size">71 (1%)</tspan></text><text x="7.86em" y="18.3em"><tspan class="size">map</tspan></text><rect width=".08em" height=".6em" x="7.25em" y="18.9em" fill="#00ACD7" stroke="#00ACD7"/><text x="6.75em" y="19.5em" text-anchor="end"><tspan class="size">48 (1%)</tspan></text><text x="7.83em" y="19.5em"><tspan class="size">import</tspan></text><rect width=".06em" height=".6em" x="7.25em" y="20.1em" fill="#00ACD7" stroke="#00ACD7"/><text x="6.75em" y="20.7em" text-anchor="end"><tspan class="size">39 (1%)</tspan></text><text x="7.81em" y="20.7em"><tspan class="size">if</tspan></text><rect width=".05em" height=".6em" x="7.25em" y="21.3em" fill="#00ACD7" stroke="#00ACD7"/><text x="6.75em" y="21.9em" text-anchor="end"><tspan class="size">33 (1%)</tspan></text><text x="7.8em" y="21.9em"><tspan class="size">package</tspan></text><rect width=".05em" height=".6em" x="7.25em" y="22.5em" fill="#00ACD7" stroke="#00ACD7"/><text x="6.75em" y="23.1em" text-anchor="end"><tspan class="size">32 (1%)</tspan></text><text x="7.8em" y="23.1em"><tspan class="size">return</tspan></text><rect width=".04em" height=".6em" x="7.25em" y="23.7em" fill="#00ACD7" stroke="#00ACD7"/><text x="6.75em" y="24.3em" text-anchor="end"><tspan class="size">27 (0%)</tspan></text><text x="7.79em" y="24.3em"><tspan class="size">var</tspan></text><rect width=".04em" height=".6em" x="7.25em" y="24.9em" fill="#00ACD7" stroke="#00ACD7"/><text x="6.75em" y="25.5em" text-anchor="end"><tspan class="size">24 (0%)</tspan></text><text x="7.79em" y="25.5em"><tspan class="size">continue</tspan></text><rect width=".04em" height=".6em" x="7.25em" y="26.1em" fill="#00ACD7" stroke="#00ACD7"/><text x="6.75em" y="26.7em" text-anchor="end"><tspan class="size">22 (0%)</tspan></text><text x="7.79em" y="26.7em"><tspan class="size">const</tspan></text><rect width=".02em" height=".6em" x="7.25em" y="27.3em" fill="#00ACD7" stroke="#00ACD7"/><text x="6.75em" y="27.9em" text-anchor="end"><tspan class="size">15 (0%)</tspan></text><text x="7.77em" y="27.9em"><tspan class="size">break</tspan></text><rect width=".02em" height=".6em" x="7.25em" y="28.5em" fill="#00ACD7" stroke="#00ACD7"/><text x="6.75em" y="29.1em" text-anchor="end"><tspan class="size">10 (0%)</tspan></text><text x="7.77em" y="29.1em"><tspan class="size">case</tspan></text><rect width=".01em" height=".6em" x="7.25em" y="29.7em" fill="#00ACD7" stroke="#00ACD7"/><text x="6.75em" y="30.3em" text-anchor="end"><tspan class="size">5 (0%)</tspan></text><text x="7.76em" y="30.3em"><tspan class="size">else</tspan></text><rect width="1.56em" height=".6em" x="7.25em" y="30.9em" fill="#fff" stroke="#000"/><text x="6.75em" y="31.5em" text-anchor="end"><tspan class="size">969 (16%)</tspan></text><text x="9.31em" y="31.5em"><tspan class="size">No response</tspan></text></svg>