<svg xmlns="http://www.w3.org/2000/svg" width="70em" height="29.6em" version="1.1"><defs><style type="text/css">svg{font-family:&quot;Helvetica Neue&quot;,Arial,sans-serif}tspan.size{font-size:.8em}tspan.head{font-weight:700}</style></defs><text x="0em" y="1.2em" class="head"><tspan class="size">Rank the following languages in terms of your preference</tspan></text><rect width="6.54em" height=".6em" x="12em" y="2.1em" fill="#00acd7" stroke="#00acd7"/><rect width="1.76em" height=".6em" x="18.54em" y="2.1em" fill="#2eb8da" stroke="#2eb8da"/><rect width=".59em" height=".6em" x="20.29em" y="2.1em" fill="#5cc4dd" stroke="#5cc4dd"/><rect width=".21em" height=".6em" x="20.88em" y="2.1em" fill="#8ad0e0" stroke="#8ad0e0"/><rect width=".11em" height=".6em" x="21.09em" y="2.1em" fill="#b8dce3" stroke="#b8dce3"/><text x="11.5em" y="2.7em" text-anchor="end"><tspan class="size">5,728 (<tspan fill="#00acd7">65</tspan>, <tspan fill="#2eb8da">18</tspan>, <tspan fill="#5cc4dd">6</tspan>, <tspan fill="#8ad0e0">2</tspan>, <tspan fill="#b8dce3">1</tspan>%)</tspan></text><text x="21.7em" y="2.7em"><tspan class="size">Go</tspan></text><rect width=".73em" height=".6em" x="12em" y="3.3em" fill="#00acd7" stroke="#00acd7"/><rect width="1.81em" height=".6em" x="12.73em" y="3.3em" fill="#2eb8da" stroke="#2eb8da"/><rect width="1.25em" height=".6em" x="14.55em" y="3.3em" fill="#5cc4dd" stroke="#5cc4dd"/><rect width=".83em" height=".6em" x="15.8em" y="3.3em" fill="#8ad0e0" stroke="#8ad0e0"/><rect width=".44em" height=".6em" x="16.63em" y="3.3em" fill="#b8dce3" stroke="#b8dce3"/><text x="11.5em" y="3.9em" text-anchor="end"><tspan class="size">3,156 (<tspan fill="#00acd7">7</tspan>, <tspan fill="#2eb8da">18</tspan>, <tspan fill="#5cc4dd">12</tspan>, <tspan fill="#8ad0e0">8</tspan>, <tspan fill="#b8dce3">4</tspan>%)</tspan></text><text x="17.57em" y="3.9em"><tspan class="size">Python</tspan></text><rect width=".3em" height=".6em" x="12em" y="4.5em" fill="#00acd7" stroke="#00acd7"/><rect width=".94em" height=".6em" x="12.3em" y="4.5em" fill="#2eb8da" stroke="#2eb8da"/><rect width="1.17em" height=".6em" x="13.24em" y="4.5em" fill="#5cc4dd" stroke="#5cc4dd"/><rect width=".84em" height=".6em" x="14.41em" y="4.5em" fill="#8ad0e0" stroke="#8ad0e0"/><rect width=".7em" height=".6em" x="15.25em" y="4.5em" fill="#b8dce3" stroke="#b8dce3"/><text x="11.5em" y="5.1em" text-anchor="end"><tspan class="size">2,463 (<tspan fill="#00acd7">3</tspan>, <tspan fill="#2eb8da">9</tspan>, <tspan fill="#5cc4dd">12</tspan>, <tspan fill="#8ad0e0">8</tspan>, <tspan fill="#b8dce3">7</tspan>%)</tspan></text><text x="16.46em" y="5.1em"><tspan class="size">JavaScript</tspan></text><rect width=".17em" height=".6em" x="12em" y="5.7em" fill="#00acd7" stroke="#00acd7"/><rect width=".74em" height=".6em" x="12.17em" y="5.7em" fill="#2eb8da" stroke="#2eb8da"/><rect width=".77em" height=".6em" x="12.91em" y="5.7em" fill="#5cc4dd" stroke="#5cc4dd"/><rect width=".69em" height=".6em" x="13.68em" y="5.7em" fill="#8ad0e0" stroke="#8ad0e0"/><rect width=".56em" height=".6em" x="14.37em" y="5.7em" fill="#b8dce3" stroke="#b8dce3"/><text x="11.5em" y="6.3em" text-anchor="end"><tspan class="size">1,827 (<tspan fill="#00acd7">2</tspan>, <tspan fill="#2eb8da">7</tspan>, <tspan fill="#5cc4dd">8</tspan>, <tspan fill="#8ad0e0">7</tspan>, <tspan fill="#b8dce3">6</tspan>%)</tspan></text><text x="15.43em" y="6.3em"><tspan class="size">C</tspan></text><rect width=".22em" height=".6em" x="12em" y="6.9em" fill="#00acd7" stroke="#00acd7"/><rect width=".63em" height=".6em" x="12.22em" y="6.9em" fill="#2eb8da" stroke="#2eb8da"/><rect width=".69em" height=".6em" x="12.85em" y="6.9em" fill="#5cc4dd" stroke="#5cc4dd"/><rect width=".66em" height=".6em" x="13.54em" y="6.9em" fill="#8ad0e0" stroke="#8ad0e0"/><rect width=".63em" height=".6em" x="14.2em" y="6.9em" fill="#b8dce3" stroke="#b8dce3"/><text x="11.5em" y="7.5em" text-anchor="end"><tspan class="size">1,764 (<tspan fill="#00acd7">2</tspan>, <tspan fill="#2eb8da">6</tspan>, <tspan fill="#5cc4dd">7</tspan>, <tspan fill="#8ad0e0">7</tspan>, <tspan fill="#b8dce3">6</tspan>%)</tspan></text><text x="15.33em" y="7.5em"><tspan class="size">Java</tspan></text><rect width=".14em" height=".6em" x="12em" y="8.1em" fill="#00acd7" stroke="#00acd7"/><rect width=".35em" height=".6em" x="12.14em" y="8.1em" fill="#2eb8da" stroke="#2eb8da"/><rect width=".51em" height=".6em" x="12.49em" y="8.1em" fill="#5cc4dd" stroke="#5cc4dd"/><rect width=".54em" height=".6em" x="13em" y="8.1em" fill="#8ad0e0" stroke="#8ad0e0"/><rect width=".46em" height=".6em" x="13.54em" y="8.1em" fill="#b8dce3" stroke="#b8dce3"/><text x="11.5em" y="8.7em" text-anchor="end"><tspan class="size">1,240 (<tspan fill="#00acd7">1</tspan>, <tspan fill="#2eb8da">4</tspan>, <tspan fill="#5cc4dd">5</tspan>, <tspan fill="#8ad0e0">5</tspan>, <tspan fill="#b8dce3">5</tspan>%)</tspan></text><text x="14.49em" y="8.7em"><tspan class="size">C++</tspan></text><rect width=".06em" height=".6em" x="12em" y="9.3em" fill="#00acd7" stroke="#00acd7"/><rect width=".31em" height=".6em" x="12.06em" y="9.3em" fill="#2eb8da" stroke="#2eb8da"/><rect width=".56em" height=".6em" x="12.37em" y="9.3em" fill="#5cc4dd" stroke="#5cc4dd"/><rect width=".51em" height=".6em" x="12.93em" y="9.3em" fill="#8ad0e0" stroke="#8ad0e0"/><rect width=".49em" height=".6em" x="13.43em" y="9.3em" fill="#b8dce3" stroke="#b8dce3"/><text x="11.5em" y="9.9em" text-anchor="end"><tspan class="size">1,196 (<tspan fill="#00acd7">0.6</tspan>, <tspan fill="#2eb8da">3</tspan>, <tspan fill="#5cc4dd">6</tspan>, <tspan fill="#8ad0e0">5</tspan>, <tspan fill="#b8dce3">5</tspan>%)</tspan></text><text x="14.42em" y="9.9em"><tspan class="size">Bash</tspan></text><rect width=".24em" height=".6em" x="12em" y="10.5em" fill="#00acd7" stroke="#00acd7"/><rect width=".44em" height=".6em" x="12.24em" y="10.5em" fill="#2eb8da" stroke="#2eb8da"/><rect width=".38em" height=".6em" x="12.68em" y="10.5em" fill="#5cc4dd" stroke="#5cc4dd"/><rect width=".27em" height=".6em" x="13.06em" y="10.5em" fill="#8ad0e0" stroke="#8ad0e0"/><rect width=".18em" height=".6em" x="13.33em" y="10.5em" fill="#b8dce3" stroke="#b8dce3"/><text x="11.5em" y="11.1em" text-anchor="end"><tspan class="size">939 (<tspan fill="#00acd7">2</tspan>, <tspan fill="#2eb8da">4</tspan>, <tspan fill="#5cc4dd">4</tspan>, <tspan fill="#8ad0e0">3</tspan>, <tspan fill="#b8dce3">2</tspan>%)</tspan></text><text x="14.01em" y="11.1em"><tspan class="size">Rust</tspan></text><rect width=".21em" height=".6em" x="12em" y="11.7em" fill="#00acd7" stroke="#00acd7"/><rect width=".44em" height=".6em" x="12.21em" y="11.7em" fill="#2eb8da" stroke="#2eb8da"/><rect width=".4em" height=".6em" x="12.65em" y="11.7em" fill="#5cc4dd" stroke="#5cc4dd"/><rect width=".28em" height=".6em" x="13.04em" y="11.7em" fill="#8ad0e0" stroke="#8ad0e0"/><rect width=".16em" height=".6em" x="13.33em" y="11.7em" fill="#b8dce3" stroke="#b8dce3"/><text x="11.5em" y="12.3em" text-anchor="end"><tspan class="size">924 (<tspan fill="#00acd7">2</tspan>, <tspan fill="#2eb8da">4</tspan>, <tspan fill="#5cc4dd">4</tspan>, <tspan fill="#8ad0e0">3</tspan>, <tspan fill="#b8dce3">2</tspan>%)</tspan></text><text x="13.98em" y="12.3em"><tspan class="size">C#</tspan></text><rect width=".2em" height=".6em" x="12em" y="12.9em" fill="#00acd7" stroke="#00acd7"/><rect width=".41em" height=".6em" x="12.2em" y="12.9em" fill="#2eb8da" stroke="#2eb8da"/><rect width=".32em" height=".6em" x="12.61em" y="12.9em" fill="#5cc4dd" stroke="#5cc4dd"/><rect width=".26em" height=".6em" x="12.93em" y="12.9em" fill="#8ad0e0" stroke="#8ad0e0"/><rect width=".19em" height=".6em" x="13.19em" y="12.9em" fill="#b8dce3" stroke="#b8dce3"/><text x="11.5em" y="13.5em" text-anchor="end"><tspan class="size">859 (<tspan fill="#00acd7">2</tspan>, <tspan fill="#2eb8da">4</tspan>, <tspan fill="#5cc4dd">3</tspan>, <tspan fill="#8ad0e0">3</tspan>, <tspan fill="#b8dce3">2</tspan>%)</tspan></text><text x="13.88em" y="13.5em"><tspan class="size">Ruby</tspan></text><rect width=".08em" height=".6em" x="12em" y="14.1em" fill="#00acd7" stroke="#00acd7"/><rect width=".27em" height=".6em" x="12.08em" y="14.1em" fill="#2eb8da" stroke="#2eb8da"/><rect width=".29em" height=".6em" x="12.35em" y="14.1em" fill="#5cc4dd" stroke="#5cc4dd"/><rect width=".27em" height=".6em" x="12.64em" y="14.1em" fill="#8ad0e0" stroke="#8ad0e0"/><rect width=".3em" height=".6em" x="12.92em" y="14.1em" fill="#b8dce3" stroke="#b8dce3"/><text x="11.5em" y="14.7em" text-anchor="end"><tspan class="size">757 (<tspan fill="#00acd7">0.8</tspan>, <tspan fill="#2eb8da">3</tspan>, <tspan fill="#5cc4dd">3</tspan>, <tspan fill="#8ad0e0">3</tspan>, <tspan fill="#b8dce3">3</tspan>%)</tspan></text><text x="13.72em" y="14.7em"><tspan class="size">PHP</tspan></text><rect width=".1em" height=".6em" x="12em" y="15.3em" fill="#00acd7" stroke="#00acd7"/><rect width=".18em" height=".6em" x="12.1em" y="15.3em" fill="#2eb8da" stroke="#2eb8da"/><rect width=".2em" height=".6em" x="12.29em" y="15.3em" fill="#5cc4dd" stroke="#5cc4dd"/><rect width=".15em" height=".6em" x="12.49em" y="15.3em" fill="#8ad0e0" stroke="#8ad0e0"/><rect width=".09em" height=".6em" x="12.64em" y="15.3em" fill="#b8dce3" stroke="#b8dce3"/><text x="11.5em" y="15.9em" text-anchor="end"><tspan class="size">455 (<tspan fill="#00acd7">1</tspan>, <tspan fill="#2eb8da">2</tspan>, <tspan fill="#5cc4dd">2</tspan>, <tspan fill="#8ad0e0">2</tspan>, <tspan fill="#b8dce3">0.9</tspan>%)</tspan></text><text x="13.23em" y="15.9em"><tspan class="size">Kotlin</tspan></text><rect width=".07em" height=".6em" x="12em" y="16.5em" fill="#00acd7" stroke="#00acd7"/><rect width=".14em" height=".6em" x="12.07em" y="16.5em" fill="#2eb8da" stroke="#2eb8da"/><rect width=".19em" height=".6em" x="12.21em" y="16.5em" fill="#5cc4dd" stroke="#5cc4dd"/><rect width=".17em" height=".6em" x="12.4em" y="16.5em" fill="#8ad0e0" stroke="#8ad0e0"/><rect width=".1em" height=".6em" x="12.56em" y="16.5em" fill="#b8dce3" stroke="#b8dce3"/><text x="11.5em" y="17.1em" text-anchor="end"><tspan class="size">414 (<tspan fill="#00acd7">0.7</tspan>, <tspan fill="#2eb8da">1</tspan>, <tspan fill="#5cc4dd">2</tspan>, <tspan fill="#8ad0e0">2</tspan>, <tspan fill="#b8dce3">1</tspan>%)</tspan></text><text x="13.16em" y="17.1em"><tspan class="size">Swift</tspan></text><rect width=".1em" height=".6em" x="12em" y="17.7em" fill="#00acd7" stroke="#00acd7"/><rect width=".11em" height=".6em" x="12.1em" y="17.7em" fill="#2eb8da" stroke="#2eb8da"/><rect width=".14em" height=".6em" x="12.2em" y="17.7em" fill="#5cc4dd" stroke="#5cc4dd"/><rect width=".15em" height=".6em" x="12.35em" y="17.7em" fill="#8ad0e0" stroke="#8ad0e0"/><rect width=".12em" height=".6em" x="12.5em" y="17.7em" fill="#b8dce3" stroke="#b8dce3"/><text x="11.5em" y="18.3em" text-anchor="end"><tspan class="size">383 (<tspan fill="#00acd7">1</tspan>, <tspan fill="#2eb8da">1</tspan>, <tspan fill="#5cc4dd">1</tspan>, <tspan fill="#8ad0e0">2</tspan>, <tspan fill="#b8dce3">1</tspan>%)</tspan></text><text x="13.12em" y="18.3em"><tspan class="size">Haskell</tspan></text><rect width=".08em" height=".6em" x="12em" y="18.9em" fill="#00acd7" stroke="#00acd7"/><rect width=".1em" height=".6em" x="12.08em" y="18.9em" fill="#2eb8da" stroke="#2eb8da"/><rect width=".15em" height=".6em" x="12.18em" y="18.9em" fill="#5cc4dd" stroke="#5cc4dd"/><rect width=".12em" height=".6em" x="12.32em" y="18.9em" fill="#8ad0e0" stroke="#8ad0e0"/><rect width=".09em" height=".6em" x="12.45em" y="18.9em" fill="#b8dce3" stroke="#b8dce3"/><text x="11.5em" y="19.5em" text-anchor="end"><tspan class="size">335 (<tspan fill="#00acd7">0.8</tspan>, <tspan fill="#2eb8da">1</tspan>, <tspan fill="#5cc4dd">1</tspan>, <tspan fill="#8ad0e0">1</tspan>, <tspan fill="#b8dce3">0.9</tspan>%)</tspan></text><text x="13.04em" y="19.5em"><tspan class="size">Scala</tspan></text><rect width=".06em" height=".6em" x="12em" y="20.1em" fill="#00acd7" stroke="#00acd7"/><rect width=".13em" height=".6em" x="12.06em" y="20.1em" fill="#2eb8da" stroke="#2eb8da"/><rect width=".11em" height=".6em" x="12.18em" y="20.1em" fill="#5cc4dd" stroke="#5cc4dd"/><rect width=".11em" height=".6em" x="12.29em" y="20.1em" fill="#8ad0e0" stroke="#8ad0e0"/><rect width=".09em" height=".6em" x="12.4em" y="20.1em" fill="#b8dce3" stroke="#b8dce3"/><text x="11.5em" y="20.7em" text-anchor="end"><tspan class="size">305 (<tspan fill="#00acd7">0.6</tspan>, <tspan fill="#2eb8da">1</tspan>, <tspan fill="#5cc4dd">1</tspan>, <tspan fill="#8ad0e0">1</tspan>, <tspan fill="#b8dce3">0.9</tspan>%)</tspan></text><text x="12.99em" y="20.7em"><tspan class="size">Perl</tspan></text><rect width=".03em" height=".6em" x="12em" y="21.3em" fill="#00acd7" stroke="#00acd7"/><rect width=".08em" height=".6em" x="12.03em" y="21.3em" fill="#2eb8da" stroke="#2eb8da"/><rect width=".13em" height=".6em" x="12.11em" y="21.3em" fill="#5cc4dd" stroke="#5cc4dd"/><rect width=".13em" height=".6em" x="12.24em" y="21.3em" fill="#8ad0e0" stroke="#8ad0e0"/><rect width=".08em" height=".6em" x="12.37em" y="21.3em" fill="#b8dce3" stroke="#b8dce3"/><text x="11.5em" y="21.9em" text-anchor="end"><tspan class="size">279 (<tspan fill="#00acd7">0.3</tspan>, <tspan fill="#2eb8da">0.8</tspan>, <tspan fill="#5cc4dd">1</tspan>, <tspan fill="#8ad0e0">1</tspan>, <tspan fill="#b8dce3">0.8</tspan>%)</tspan></text><text x="12.95em" y="21.9em"><tspan class="size">Erlang</tspan></text><rect width=".01em" height=".6em" x="12em" y="22.5em" fill="#00acd7" stroke="#00acd7"/><rect width=".05em" height=".6em" x="12.01em" y="22.5em" fill="#2eb8da" stroke="#2eb8da"/><rect width=".11em" height=".6em" x="12.06em" y="22.5em" fill="#5cc4dd" stroke="#5cc4dd"/><rect width=".13em" height=".6em" x="12.17em" y="22.5em" fill="#8ad0e0" stroke="#8ad0e0"/><rect width=".11em" height=".6em" x="12.29em" y="22.5em" fill="#b8dce3" stroke="#b8dce3"/><text x="11.5em" y="23.1em" text-anchor="end"><tspan class="size">250 (<tspan fill="#00acd7">0.1</tspan>, <tspan fill="#2eb8da">0.5</tspan>, <tspan fill="#5cc4dd">1</tspan>, <tspan fill="#8ad0e0">1</tspan>, <tspan fill="#b8dce3">1</tspan>%)</tspan></text><text x="12.9em" y="23.1em"><tspan class="size">Lua</tspan></text><rect width=".06em" height=".6em" x="12em" y="23.7em" fill="#00acd7" stroke="#00acd7"/><rect width=".08em" height=".6em" x="12.06em" y="23.7em" fill="#2eb8da" stroke="#2eb8da"/><rect width=".11em" height=".6em" x="12.14em" y="23.7em" fill="#5cc4dd" stroke="#5cc4dd"/><rect width=".09em" height=".6em" x="12.24em" y="23.7em" fill="#8ad0e0" stroke="#8ad0e0"/><rect width=".06em" height=".6em" x="12.34em" y="23.7em" fill="#b8dce3" stroke="#b8dce3"/><text x="11.5em" y="24.3em" text-anchor="end"><tspan class="size">248 (<tspan fill="#00acd7">0.6</tspan>, <tspan fill="#2eb8da">0.8</tspan>, <tspan fill="#5cc4dd">1</tspan>, <tspan fill="#8ad0e0">0.9</tspan>, <tspan fill="#b8dce3">0.6</tspan>%)</tspan></text><text x="12.9em" y="24.3em"><tspan class="size">Clojure</tspan></text><rect width=".01em" height=".6em" x="12em" y="24.9em" fill="#00acd7" stroke="#00acd7"/><rect width=".04em" height=".6em" x="12.01em" y="24.9em" fill="#2eb8da" stroke="#2eb8da"/><rect width=".04em" height=".6em" x="12.05em" y="24.9em" fill="#5cc4dd" stroke="#5cc4dd"/><rect width=".05em" height=".6em" x="12.09em" y="24.9em" fill="#8ad0e0" stroke="#8ad0e0"/><rect width=".04em" height=".6em" x="12.14em" y="24.9em" fill="#b8dce3" stroke="#b8dce3"/><text x="11.5em" y="25.5em" text-anchor="end"><tspan class="size">113 (<tspan fill="#00acd7">0.1</tspan>, <tspan fill="#2eb8da">0.4</tspan>, <tspan fill="#5cc4dd">0.4</tspan>, <tspan fill="#8ad0e0">0.5</tspan>, <tspan fill="#b8dce3">0.4</tspan>%)</tspan></text><text x="12.68em" y="25.5em"><tspan class="size">R</tspan></text><rect width=".01em" height=".6em" x="12em" y="26.1em" fill="#00acd7" stroke="#00acd7"/><rect width=".02em" height=".6em" x="12.01em" y="26.1em" fill="#2eb8da" stroke="#2eb8da"/><rect width=".03em" height=".6em" x="12.03em" y="26.1em" fill="#5cc4dd" stroke="#5cc4dd"/><rect width=".03em" height=".6em" x="12.06em" y="26.1em" fill="#8ad0e0" stroke="#8ad0e0"/><rect width=".02em" height=".6em" x="12.09em" y="26.1em" fill="#b8dce3" stroke="#b8dce3"/><text x="11.5em" y="26.7em" text-anchor="end"><tspan class="size">71 (<tspan fill="#00acd7">0.1</tspan>, <tspan fill="#2eb8da">0.2</tspan>, <tspan fill="#5cc4dd">0.3</tspan>, <tspan fill="#8ad0e0">0.3</tspan>, <tspan fill="#b8dce3">0.2</tspan>%)</tspan></text><text x="12.61em" y="26.7em"><tspan class="size">Julia</tspan></text><rect width=".22em" height=".6em" x="12em" y="27.3em" fill="#777" stroke="#777"/><rect width=".29em" height=".6em" x="12.22em" y="27.3em" fill="#8e8e8e" stroke="#8e8e8e"/><rect width=".31em" height=".6em" x="12.52em" y="27.3em" fill="#a5a5a5" stroke="#a5a5a5"/><rect width=".2em" height=".6em" x="12.82em" y="27.3em" fill="#bcbcbc" stroke="#bcbcbc"/><rect width=".11em" height=".6em" x="13.03em" y="27.3em" fill="#d3d3d3" stroke="#d3d3d3"/><text x="11.5em" y="27.9em" text-anchor="end"><tspan class="size">709 (<tspan fill="#777">2</tspan>, <tspan fill="#8e8e8e">3</tspan>, <tspan fill="#a5a5a5">3</tspan>, <tspan fill="#bcbcbc">2</tspan>, <tspan fill="#d3d3d3">1</tspan>%)</tspan></text><text x="13.64em" y="27.9em"><tspan class="size">Other</tspan></text><rect width=".39em" height=".6em" x="12em" y="28.5em" fill="#fff" stroke="#000"/><text x="11.5em" y="29.1em" text-anchor="end"><tspan class="size">241 (3.9%)</tspan></text><text x="12.89em" y="29.1em"><tspan class="size">No response</tspan></text></svg>