<svg xmlns="http://www.w3.org/2000/svg" width="70em" height="29.6em" version="1.1"><defs><style type="text/css">svg{font-family:&quot;Helvetica Neue&quot;,Arial,sans-serif}tspan.size{font-size:.8em}tspan.head{font-weight:700}</style></defs><text x="0em" y="1.2em" class="head"><tspan class="size">Rank the following languages in terms of your expertise</tspan></text><rect width="3.03em" height=".6em" x="12em" y="2.1em" fill="#00acd7" stroke="#00acd7"/><rect width="2.65em" height=".6em" x="15.03em" y="2.1em" fill="#2eb8da" stroke="#2eb8da"/><rect width="1.71em" height=".6em" x="17.69em" y="2.1em" fill="#5cc4dd" stroke="#5cc4dd"/><rect width=".94em" height=".6em" x="19.4em" y="2.1em" fill="#8ad0e0" stroke="#8ad0e0"/><rect width=".55em" height=".6em" x="20.34em" y="2.1em" fill="#b8dce3" stroke="#b8dce3"/><text x="11.5em" y="2.7em" text-anchor="end"><tspan class="size">5,540 (<tspan fill="#00acd7">30</tspan>, <tspan fill="#2eb8da">27</tspan>, <tspan fill="#5cc4dd">17</tspan>, <tspan fill="#8ad0e0">9</tspan>, <tspan fill="#b8dce3">6</tspan>%)</tspan></text><text x="21.4em" y="2.7em"><tspan class="size">Go</tspan></text><rect width=".86em" height=".6em" x="12em" y="3.3em" fill="#00acd7" stroke="#00acd7"/><rect width="1.65em" height=".6em" x="12.86em" y="3.3em" fill="#2eb8da" stroke="#2eb8da"/><rect width="1.52em" height=".6em" x="14.51em" y="3.3em" fill="#5cc4dd" stroke="#5cc4dd"/><rect width="1.07em" height=".6em" x="16.02em" y="3.3em" fill="#8ad0e0" stroke="#8ad0e0"/><rect width=".75em" height=".6em" x="17.1em" y="3.3em" fill="#b8dce3" stroke="#b8dce3"/><text x="11.5em" y="3.9em" text-anchor="end"><tspan class="size">3,638 (<tspan fill="#00acd7">9</tspan>, <tspan fill="#2eb8da">16</tspan>, <tspan fill="#5cc4dd">15</tspan>, <tspan fill="#8ad0e0">11</tspan>, <tspan fill="#b8dce3">7</tspan>%)</tspan></text><text x="18.34em" y="3.9em"><tspan class="size">JavaScript</tspan></text><rect width="1.3em" height=".6em" x="12em" y="4.5em" fill="#00acd7" stroke="#00acd7"/><rect width="1.16em" height=".6em" x="13.3em" y="4.5em" fill="#2eb8da" stroke="#2eb8da"/><rect width="1.18em" height=".6em" x="14.46em" y="4.5em" fill="#5cc4dd" stroke="#5cc4dd"/><rect width="1.04em" height=".6em" x="15.64em" y="4.5em" fill="#8ad0e0" stroke="#8ad0e0"/><rect width=".73em" height=".6em" x="16.68em" y="4.5em" fill="#b8dce3" stroke="#b8dce3"/><text x="11.5em" y="5.1em" text-anchor="end"><tspan class="size">3,369 (<tspan fill="#00acd7">13</tspan>, <tspan fill="#2eb8da">12</tspan>, <tspan fill="#5cc4dd">12</tspan>, <tspan fill="#8ad0e0">10</tspan>, <tspan fill="#b8dce3">7</tspan>%)</tspan></text><text x="17.91em" y="5.1em"><tspan class="size">Python</tspan></text><rect width="1.11em" height=".6em" x="12em" y="5.7em" fill="#00acd7" stroke="#00acd7"/><rect width=".78em" height=".6em" x="13.11em" y="5.7em" fill="#2eb8da" stroke="#2eb8da"/><rect width=".85em" height=".6em" x="13.88em" y="5.7em" fill="#5cc4dd" stroke="#5cc4dd"/><rect width=".87em" height=".6em" x="14.73em" y="5.7em" fill="#8ad0e0" stroke="#8ad0e0"/><rect width=".75em" height=".6em" x="15.6em" y="5.7em" fill="#b8dce3" stroke="#b8dce3"/><text x="11.5em" y="6.3em" text-anchor="end"><tspan class="size">2,706 (<tspan fill="#00acd7">11</tspan>, <tspan fill="#2eb8da">8</tspan>, <tspan fill="#5cc4dd">8</tspan>, <tspan fill="#8ad0e0">9</tspan>, <tspan fill="#b8dce3">7</tspan>%)</tspan></text><text x="16.85em" y="6.3em"><tspan class="size">Java</tspan></text><rect width=".7em" height=".6em" x="12em" y="6.9em" fill="#00acd7" stroke="#00acd7"/><rect width=".76em" height=".6em" x="12.7em" y="6.9em" fill="#2eb8da" stroke="#2eb8da"/><rect width=".81em" height=".6em" x="13.46em" y="6.9em" fill="#5cc4dd" stroke="#5cc4dd"/><rect width=".8em" height=".6em" x="14.27em" y="6.9em" fill="#8ad0e0" stroke="#8ad0e0"/><rect width=".79em" height=".6em" x="15.07em" y="6.9em" fill="#b8dce3" stroke="#b8dce3"/><text x="11.5em" y="7.5em" text-anchor="end"><tspan class="size">2,402 (<tspan fill="#00acd7">7</tspan>, <tspan fill="#2eb8da">8</tspan>, <tspan fill="#5cc4dd">8</tspan>, <tspan fill="#8ad0e0">8</tspan>, <tspan fill="#b8dce3">8</tspan>%)</tspan></text><text x="16.36em" y="7.5em"><tspan class="size">C</tspan></text><rect width=".2em" height=".6em" x="12em" y="8.1em" fill="#00acd7" stroke="#00acd7"/><rect width=".48em" height=".6em" x="12.2em" y="8.1em" fill="#2eb8da" stroke="#2eb8da"/><rect width=".86em" height=".6em" x="12.69em" y="8.1em" fill="#5cc4dd" stroke="#5cc4dd"/><rect width=".96em" height=".6em" x="13.54em" y="8.1em" fill="#8ad0e0" stroke="#8ad0e0"/><rect width=".74em" height=".6em" x="14.51em" y="8.1em" fill="#b8dce3" stroke="#b8dce3"/><text x="11.5em" y="8.7em" text-anchor="end"><tspan class="size">2,020 (<tspan fill="#00acd7">2</tspan>, <tspan fill="#2eb8da">5</tspan>, <tspan fill="#5cc4dd">9</tspan>, <tspan fill="#8ad0e0">10</tspan>, <tspan fill="#b8dce3">7</tspan>%)</tspan></text><text x="15.74em" y="8.7em"><tspan class="size">Bash</tspan></text><rect width=".39em" height=".6em" x="12em" y="9.3em" fill="#00acd7" stroke="#00acd7"/><rect width=".44em" height=".6em" x="12.39em" y="9.3em" fill="#2eb8da" stroke="#2eb8da"/><rect width=".53em" height=".6em" x="12.82em" y="9.3em" fill="#5cc4dd" stroke="#5cc4dd"/><rect width=".66em" height=".6em" x="13.35em" y="9.3em" fill="#8ad0e0" stroke="#8ad0e0"/><rect width=".6em" height=".6em" x="14.02em" y="9.3em" fill="#b8dce3" stroke="#b8dce3"/><text x="11.5em" y="9.9em" text-anchor="end"><tspan class="size">1,631 (<tspan fill="#00acd7">4</tspan>, <tspan fill="#2eb8da">4</tspan>, <tspan fill="#5cc4dd">5</tspan>, <tspan fill="#8ad0e0">7</tspan>, <tspan fill="#b8dce3">6</tspan>%)</tspan></text><text x="15.12em" y="9.9em"><tspan class="size">C++</tspan></text><rect width=".65em" height=".6em" x="12em" y="10.5em" fill="#00acd7" stroke="#00acd7"/><rect width=".46em" height=".6em" x="12.65em" y="10.5em" fill="#2eb8da" stroke="#2eb8da"/><rect width=".42em" height=".6em" x="13.11em" y="10.5em" fill="#5cc4dd" stroke="#5cc4dd"/><rect width=".44em" height=".6em" x="13.53em" y="10.5em" fill="#8ad0e0" stroke="#8ad0e0"/><rect width=".4em" height=".6em" x="13.97em" y="10.5em" fill="#b8dce3" stroke="#b8dce3"/><text x="11.5em" y="11.1em" text-anchor="end"><tspan class="size">1,475 (<tspan fill="#00acd7">7</tspan>, <tspan fill="#2eb8da">5</tspan>, <tspan fill="#5cc4dd">4</tspan>, <tspan fill="#8ad0e0">4</tspan>, <tspan fill="#b8dce3">4</tspan>%)</tspan></text><text x="14.87em" y="11.1em"><tspan class="size">PHP</tspan></text><rect width=".44em" height=".6em" x="12em" y="11.7em" fill="#00acd7" stroke="#00acd7"/><rect width=".29em" height=".6em" x="12.44em" y="11.7em" fill="#2eb8da" stroke="#2eb8da"/><rect width=".35em" height=".6em" x="12.74em" y="11.7em" fill="#5cc4dd" stroke="#5cc4dd"/><rect width=".33em" height=".6em" x="13.09em" y="11.7em" fill="#8ad0e0" stroke="#8ad0e0"/><rect width=".25em" height=".6em" x="13.42em" y="11.7em" fill="#b8dce3" stroke="#b8dce3"/><text x="11.5em" y="12.3em" text-anchor="end"><tspan class="size">1,042 (<tspan fill="#00acd7">4</tspan>, <tspan fill="#2eb8da">3</tspan>, <tspan fill="#5cc4dd">4</tspan>, <tspan fill="#8ad0e0">3</tspan>, <tspan fill="#b8dce3">3</tspan>%)</tspan></text><text x="14.17em" y="12.3em"><tspan class="size">C#</tspan></text><rect width=".45em" height=".6em" x="12em" y="12.9em" fill="#00acd7" stroke="#00acd7"/><rect width=".34em" height=".6em" x="12.45em" y="12.9em" fill="#2eb8da" stroke="#2eb8da"/><rect width=".31em" height=".6em" x="12.78em" y="12.9em" fill="#5cc4dd" stroke="#5cc4dd"/><rect width=".3em" height=".6em" x="13.09em" y="12.9em" fill="#8ad0e0" stroke="#8ad0e0"/><rect width=".27em" height=".6em" x="13.39em" y="12.9em" fill="#b8dce3" stroke="#b8dce3"/><text x="11.5em" y="13.5em" text-anchor="end"><tspan class="size">1,034 (<tspan fill="#00acd7">4</tspan>, <tspan fill="#2eb8da">3</tspan>, <tspan fill="#5cc4dd">3</tspan>, <tspan fill="#8ad0e0">3</tspan>, <tspan fill="#b8dce3">3</tspan>%)</tspan></text><text x="14.16em" y="13.5em"><tspan class="size">Ruby</tspan></text><rect width=".14em" height=".6em" x="12em" y="14.1em" fill="#00acd7" stroke="#00acd7"/><rect width=".14em" height=".6em" x="12.14em" y="14.1em" fill="#2eb8da" stroke="#2eb8da"/><rect width=".14em" height=".6em" x="12.28em" y="14.1em" fill="#5cc4dd" stroke="#5cc4dd"/><rect width=".16em" height=".6em" x="12.43em" y="14.1em" fill="#8ad0e0" stroke="#8ad0e0"/><rect width=".15em" height=".6em" x="12.58em" y="14.1em" fill="#b8dce3" stroke="#b8dce3"/><text x="11.5em" y="14.7em" text-anchor="end"><tspan class="size">460 (<tspan fill="#00acd7">1</tspan>, <tspan fill="#2eb8da">1</tspan>, <tspan fill="#5cc4dd">1</tspan>, <tspan fill="#8ad0e0">2</tspan>, <tspan fill="#b8dce3">2</tspan>%)</tspan></text><text x="13.24em" y="14.7em"><tspan class="size">Perl</tspan></text><rect width=".05em" height=".6em" x="12em" y="15.3em" fill="#00acd7" stroke="#00acd7"/><rect width=".06em" height=".6em" x="12.05em" y="15.3em" fill="#2eb8da" stroke="#2eb8da"/><rect width=".08em" height=".6em" x="12.11em" y="15.3em" fill="#5cc4dd" stroke="#5cc4dd"/><rect width=".11em" height=".6em" x="12.2em" y="15.3em" fill="#8ad0e0" stroke="#8ad0e0"/><rect width=".14em" height=".6em" x="12.31em" y="15.3em" fill="#b8dce3" stroke="#b8dce3"/><text x="11.5em" y="15.9em" text-anchor="end"><tspan class="size">284 (<tspan fill="#00acd7">0.5</tspan>, <tspan fill="#2eb8da">0.6</tspan>, <tspan fill="#5cc4dd">0.8</tspan>, <tspan fill="#8ad0e0">1</tspan>, <tspan fill="#b8dce3">1</tspan>%)</tspan></text><text x="12.96em" y="15.9em"><tspan class="size">Scala</tspan></text><rect width=".02em" height=".6em" x="12em" y="16.5em" fill="#00acd7" stroke="#00acd7"/><rect width=".04em" height=".6em" x="12.02em" y="16.5em" fill="#2eb8da" stroke="#2eb8da"/><rect width=".08em" height=".6em" x="12.06em" y="16.5em" fill="#5cc4dd" stroke="#5cc4dd"/><rect width=".11em" height=".6em" x="12.14em" y="16.5em" fill="#8ad0e0" stroke="#8ad0e0"/><rect width=".2em" height=".6em" x="12.25em" y="16.5em" fill="#b8dce3" stroke="#b8dce3"/><text x="11.5em" y="17.1em" text-anchor="end"><tspan class="size">278 (<tspan fill="#00acd7">0.2</tspan>, <tspan fill="#2eb8da">0.4</tspan>, <tspan fill="#5cc4dd">0.8</tspan>, <tspan fill="#8ad0e0">1</tspan>, <tspan fill="#b8dce3">2</tspan>%)</tspan></text><text x="12.95em" y="17.1em"><tspan class="size">Rust</tspan></text><rect width=".03em" height=".6em" x="12em" y="17.7em" fill="#00acd7" stroke="#00acd7"/><rect width=".05em" height=".6em" x="12.03em" y="17.7em" fill="#2eb8da" stroke="#2eb8da"/><rect width=".07em" height=".6em" x="12.08em" y="17.7em" fill="#5cc4dd" stroke="#5cc4dd"/><rect width=".14em" height=".6em" x="12.14em" y="17.7em" fill="#8ad0e0" stroke="#8ad0e0"/><rect width=".13em" height=".6em" x="12.29em" y="17.7em" fill="#b8dce3" stroke="#b8dce3"/><text x="11.5em" y="18.3em" text-anchor="end"><tspan class="size">260 (<tspan fill="#00acd7">0.3</tspan>, <tspan fill="#2eb8da">0.5</tspan>, <tspan fill="#5cc4dd">0.7</tspan>, <tspan fill="#8ad0e0">1</tspan>, <tspan fill="#b8dce3">1</tspan>%)</tspan></text><text x="12.92em" y="18.3em"><tspan class="size">Swift</tspan></text><rect width=".01em" height=".6em" x="12em" y="18.9em" fill="#00acd7" stroke="#00acd7"/><rect width=".02em" height=".6em" x="12.01em" y="18.9em" fill="#2eb8da" stroke="#2eb8da"/><rect width=".08em" height=".6em" x="12.03em" y="18.9em" fill="#5cc4dd" stroke="#5cc4dd"/><rect width=".11em" height=".6em" x="12.11em" y="18.9em" fill="#8ad0e0" stroke="#8ad0e0"/><rect width=".13em" height=".6em" x="12.22em" y="18.9em" fill="#b8dce3" stroke="#b8dce3"/><text x="11.5em" y="19.5em" text-anchor="end"><tspan class="size">223 (<tspan fill="#00acd7">0.1</tspan>, <tspan fill="#2eb8da">0.2</tspan>, <tspan fill="#5cc4dd">0.8</tspan>, <tspan fill="#8ad0e0">1</tspan>, <tspan fill="#b8dce3">1</tspan>%)</tspan></text><text x="12.86em" y="19.5em"><tspan class="size">Lua</tspan></text><rect width=".01em" height=".6em" x="12em" y="20.1em" fill="#00acd7" stroke="#00acd7"/><rect width=".05em" height=".6em" x="12.01em" y="20.1em" fill="#2eb8da" stroke="#2eb8da"/><rect width=".07em" height=".6em" x="12.07em" y="20.1em" fill="#5cc4dd" stroke="#5cc4dd"/><rect width=".08em" height=".6em" x="12.14em" y="20.1em" fill="#8ad0e0" stroke="#8ad0e0"/><rect width=".08em" height=".6em" x="12.22em" y="20.1em" fill="#b8dce3" stroke="#b8dce3"/><text x="11.5em" y="20.7em" text-anchor="end"><tspan class="size">185 (<tspan fill="#00acd7">0.1</tspan>, <tspan fill="#2eb8da">0.5</tspan>, <tspan fill="#5cc4dd">0.7</tspan>, <tspan fill="#8ad0e0">0.8</tspan>, <tspan fill="#b8dce3">0.8</tspan>%)</tspan></text><text x="12.8em" y="20.7em"><tspan class="size">Kotlin</tspan></text><rect width=".01em" height=".6em" x="12em" y="21.3em" fill="#00acd7" stroke="#00acd7"/><rect width=".02em" height=".6em" x="12.01em" y="21.3em" fill="#2eb8da" stroke="#2eb8da"/><rect width=".03em" height=".6em" x="12.03em" y="21.3em" fill="#5cc4dd" stroke="#5cc4dd"/><rect width=".06em" height=".6em" x="12.06em" y="21.3em" fill="#8ad0e0" stroke="#8ad0e0"/><rect width=".1em" height=".6em" x="12.12em" y="21.3em" fill="#b8dce3" stroke="#b8dce3"/><text x="11.5em" y="21.9em" text-anchor="end"><tspan class="size">139 (<tspan fill="#00acd7">0.1</tspan>, <tspan fill="#2eb8da">0.2</tspan>, <tspan fill="#5cc4dd">0.3</tspan>, <tspan fill="#8ad0e0">0.6</tspan>, <tspan fill="#b8dce3">1</tspan>%)</tspan></text><text x="12.72em" y="21.9em"><tspan class="size">Haskell</tspan></text><rect width=".02em" height=".6em" x="12em" y="22.5em" fill="#00acd7" stroke="#00acd7"/><rect width=".02em" height=".6em" x="12.02em" y="22.5em" fill="#2eb8da" stroke="#2eb8da"/><rect width=".04em" height=".6em" x="12.04em" y="22.5em" fill="#5cc4dd" stroke="#5cc4dd"/><rect width=".08em" height=".6em" x="12.08em" y="22.5em" fill="#8ad0e0" stroke="#8ad0e0"/><rect width=".06em" height=".6em" x="12.16em" y="22.5em" fill="#b8dce3" stroke="#b8dce3"/><text x="11.5em" y="23.1em" text-anchor="end"><tspan class="size">139 (<tspan fill="#00acd7">0.2</tspan>, <tspan fill="#2eb8da">0.2</tspan>, <tspan fill="#5cc4dd">0.4</tspan>, <tspan fill="#8ad0e0">0.8</tspan>, <tspan fill="#b8dce3">0.6</tspan>%)</tspan></text><text x="12.72em" y="23.1em"><tspan class="size">Clojure</tspan></text><rect width=".02em" height=".6em" x="12em" y="23.7em" fill="#00acd7" stroke="#00acd7"/><rect width=".03em" height=".6em" x="12.02em" y="23.7em" fill="#2eb8da" stroke="#2eb8da"/><rect width=".04em" height=".6em" x="12.04em" y="23.7em" fill="#5cc4dd" stroke="#5cc4dd"/><rect width=".05em" height=".6em" x="12.09em" y="23.7em" fill="#8ad0e0" stroke="#8ad0e0"/><rect width=".08em" height=".6em" x="12.14em" y="23.7em" fill="#b8dce3" stroke="#b8dce3"/><text x="11.5em" y="24.3em" text-anchor="end"><tspan class="size">136 (<tspan fill="#00acd7">0.2</tspan>, <tspan fill="#2eb8da">0.3</tspan>, <tspan fill="#5cc4dd">0.4</tspan>, <tspan fill="#8ad0e0">0.5</tspan>, <tspan fill="#b8dce3">0.8</tspan>%)</tspan></text><text x="12.72em" y="24.3em"><tspan class="size">R</tspan></text><rect width=".01em" height=".6em" x="12em" y="24.9em" fill="#00acd7" stroke="#00acd7"/><rect width=".02em" height=".6em" x="12.01em" y="24.9em" fill="#2eb8da" stroke="#2eb8da"/><rect width=".04em" height=".6em" x="12.04em" y="24.9em" fill="#5cc4dd" stroke="#5cc4dd"/><rect width=".06em" height=".6em" x="12.07em" y="24.9em" fill="#8ad0e0" stroke="#8ad0e0"/><rect width=".07em" height=".6em" x="12.13em" y="24.9em" fill="#b8dce3" stroke="#b8dce3"/><text x="11.5em" y="25.5em" text-anchor="end"><tspan class="size">124 (<tspan fill="#00acd7">0.1</tspan>, <tspan fill="#2eb8da">0.2</tspan>, <tspan fill="#5cc4dd">0.4</tspan>, <tspan fill="#8ad0e0">0.6</tspan>, <tspan fill="#b8dce3">0.7</tspan>%)</tspan></text><text x="12.7em" y="25.5em"><tspan class="size">Erlang</tspan></text><rect width="0em" height=".6em" x="12em" y="26.1em" fill="#00acd7" stroke="#00acd7"/><rect width=".01em" height=".6em" x="12em" y="26.1em" fill="#2eb8da" stroke="#2eb8da"/><rect width="0em" height=".6em" x="12.01em" y="26.1em" fill="#5cc4dd" stroke="#5cc4dd"/><rect width=".01em" height=".6em" x="12.02em" y="26.1em" fill="#8ad0e0" stroke="#8ad0e0"/><rect width=".01em" height=".6em" x="12.03em" y="26.1em" fill="#b8dce3" stroke="#b8dce3"/><text x="11.5em" y="26.7em" text-anchor="end"><tspan class="size">24 (<tspan fill="#00acd7">0.0</tspan>, <tspan fill="#2eb8da">0.1</tspan>, <tspan fill="#5cc4dd">0.0</tspan>, <tspan fill="#8ad0e0">0.1</tspan>, <tspan fill="#b8dce3">0.1</tspan>%)</tspan></text><text x="12.54em" y="26.7em"><tspan class="size">Julia</tspan></text><rect width=".25em" height=".6em" x="12em" y="27.3em" fill="#777" stroke="#777"/><rect width=".23em" height=".6em" x="12.25em" y="27.3em" fill="#8e8e8e" stroke="#8e8e8e"/><rect width=".28em" height=".6em" x="12.48em" y="27.3em" fill="#a5a5a5" stroke="#a5a5a5"/><rect width=".23em" height=".6em" x="12.76em" y="27.3em" fill="#bcbcbc" stroke="#bcbcbc"/><rect width=".17em" height=".6em" x="12.99em" y="27.3em" fill="#d3d3d3" stroke="#d3d3d3"/><text x="11.5em" y="27.9em" text-anchor="end"><tspan class="size">726 (<tspan fill="#777">3</tspan>, <tspan fill="#8e8e8e">2</tspan>, <tspan fill="#a5a5a5">3</tspan>, <tspan fill="#bcbcbc">2</tspan>, <tspan fill="#d3d3d3">2</tspan>%)</tspan></text><text x="13.67em" y="27.9em"><tspan class="size">Other</tspan></text><rect width=".28em" height=".6em" x="12em" y="28.5em" fill="#fff" stroke="#000"/><text x="11.5em" y="29.1em" text-anchor="end"><tspan class="size">173 (2.8%)</tspan></text><text x="12.78em" y="29.1em"><tspan class="size">No response</tspan></text></svg>