<svg xmlns="http://www.w3.org/2000/svg" width="70em" height="17.6em" version="1.1"><defs><style type="text/css">svg{font-family:&quot;Helvetica Neue&quot;,Arial,sans-serif}tspan.size{font-size:.8em}tspan.head{font-weight:700}</style></defs><text x="0em" y="1.2em" class="head"><tspan class="size">Which Go libraries do you need that aren’t available today?</tspan></text><rect width=".49em" height=".6em" x="7.25em" y="2.1em" fill="#00ACD7" stroke="#00ACD7"/><text x="6.75em" y="2.7em" text-anchor="end"><tspan class="size">306 (4.9%)</tspan></text><text x="8.24em" y="2.7em"><tspan class="size">gui</tspan></text><rect width=".35em" height=".6em" x="7.25em" y="3.3em" fill="#00ACD7" stroke="#00ACD7"/><text x="6.75em" y="3.9em" text-anchor="end"><tspan class="size">221 (3.5%)</tspan></text><text x="8.1em" y="3.9em"><tspan class="size">library</tspan></text><rect width=".3em" height=".6em" x="7.25em" y="4.5em" fill="#00ACD7" stroke="#00ACD7"/><text x="6.75em" y="5.1em" text-anchor="end"><tspan class="size">185 (3.0%)</tspan></text><text x="8.05em" y="5.1em"><tspan class="size">libraries</tspan></text><rect width=".14em" height=".6em" x="7.25em" y="5.7em" fill="#00ACD7" stroke="#00ACD7"/><text x="6.75em" y="6.3em" text-anchor="end"><tspan class="size">90 (1.4%)</tspan></text><text x="7.89em" y="6.3em"><tspan class="size">native</tspan></text><rect width=".13em" height=".6em" x="7.25em" y="6.9em" fill="#00ACD7" stroke="#00ACD7"/><text x="6.75em" y="7.5em" text-anchor="end"><tspan class="size">83 (1.3%)</tspan></text><text x="7.88em" y="7.5em"><tspan class="size">good</tspan></text><rect width=".1em" height=".6em" x="7.25em" y="8.1em" fill="#00ACD7" stroke="#00ACD7"/><text x="6.75em" y="8.7em" text-anchor="end"><tspan class="size">60 (1.0%)</tspan></text><text x="7.85em" y="8.7em"><tspan class="size">ui</tspan></text><rect width=".09em" height=".6em" x="7.25em" y="9.3em" fill="#00ACD7" stroke="#00ACD7"/><text x="6.75em" y="9.9em" text-anchor="end"><tspan class="size">59 (0.9%)</tspan></text><text x="7.84em" y="9.9em"><tspan class="size">machine learning</tspan></text><rect width=".09em" height=".6em" x="7.25em" y="10.5em" fill="#00ACD7" stroke="#00ACD7"/><text x="6.75em" y="11.1em" text-anchor="end"><tspan class="size">54 (0.9%)</tspan></text><text x="7.84em" y="11.1em"><tspan class="size">framework</tspan></text><rect width=".08em" height=".6em" x="7.25em" y="11.7em" fill="#00ACD7" stroke="#00ACD7"/><text x="6.75em" y="12.3em" text-anchor="end"><tspan class="size">48 (0.8%)</tspan></text><text x="7.83em" y="12.3em"><tspan class="size">gui library</tspan></text><rect width=".08em" height=".6em" x="7.25em" y="12.9em" fill="#00ACD7" stroke="#00ACD7"/><text x="6.75em" y="13.5em" text-anchor="end"><tspan class="size">48 (0.8%)</tspan></text><text x="7.83em" y="13.5em"><tspan class="size">orm</tspan></text><rect width=".08em" height=".6em" x="7.25em" y="14.1em" fill="#00ACD7" stroke="#00ACD7"/><text x="6.75em" y="14.7em" text-anchor="end"><tspan class="size">48 (0.8%)</tspan></text><text x="7.83em" y="14.7em"><tspan class="size">processing</tspan></text><rect width=".08em" height=".6em" x="7.25em" y="15.3em" fill="#00ACD7" stroke="#00ACD7"/><text x="6.75em" y="15.9em" text-anchor="end"><tspan class="size">47 (0.8%)</tspan></text><text x="7.83em" y="15.9em"><tspan class="size">desktop</tspan></text><rect width=".07em" height=".6em" x="7.25em" y="16.5em" fill="#00ACD7" stroke="#00ACD7"/><text x="6.75em" y="17.1em" text-anchor="end"><tspan class="size">44 (0.7%)</tspan></text><text x="7.82em" y="17.1em"><tspan class="size">web</tspan></text><rect width=".07em" height=".6em" x="22.25em" y="2.1em" fill="#00ACD7" stroke="#00ACD7"/><text x="21.75em" y="2.7em" text-anchor="end"><tspan class="size">41 (0.7%)</tspan></text><text x="22.82em" y="2.7em"><tspan class="size">cross-platform</tspan></text><rect width=".06em" height=".6em" x="22.25em" y="3.3em" fill="#00ACD7" stroke="#00ACD7"/><text x="21.75em" y="3.9em" text-anchor="end"><tspan class="size">39 (0.6%)</tspan></text><text x="22.81em" y="3.9em"><tspan class="size">client</tspan></text><rect width=".06em" height=".6em" x="22.25em" y="4.5em" fill="#00ACD7" stroke="#00ACD7"/><text x="21.75em" y="5.1em" text-anchor="end"><tspan class="size">39 (0.6%)</tspan></text><text x="22.81em" y="5.1em"><tspan class="size">platform</tspan></text><rect width=".06em" height=".6em" x="22.25em" y="5.7em" fill="#00ACD7" stroke="#00ACD7"/><text x="21.75em" y="6.3em" text-anchor="end"><tspan class="size">37 (0.6%)</tspan></text><text x="22.81em" y="6.3em"><tspan class="size">standard</tspan></text><rect width=".06em" height=".6em" x="22.25em" y="6.9em" fill="#00ACD7" stroke="#00ACD7"/><text x="21.75em" y="7.5em" text-anchor="end"><tspan class="size">35 (0.6%)</tspan></text><text x="22.81em" y="7.5em"><tspan class="size">audio</tspan></text><rect width=".05em" height=".6em" x="22.25em" y="8.1em" fill="#00ACD7" stroke="#00ACD7"/><text x="21.75em" y="8.7em" text-anchor="end"><tspan class="size">34 (0.5%)</tspan></text><text x="22.8em" y="8.7em"><tspan class="size">image</tspan></text><rect width=".05em" height=".6em" x="22.25em" y="9.3em" fill="#00ACD7" stroke="#00ACD7"/><text x="21.75em" y="9.9em" text-anchor="end"><tspan class="size">34 (0.5%)</tspan></text><text x="22.8em" y="9.9em"><tspan class="size">mobile</tspan></text><rect width=".05em" height=".6em" x="22.25em" y="10.5em" fill="#00ACD7" stroke="#00ACD7"/><text x="21.75em" y="11.1em" text-anchor="end"><tspan class="size">33 (0.5%)</tspan></text><text x="22.8em" y="11.1em"><tspan class="size">sql</tspan></text><rect width=".05em" height=".6em" x="22.25em" y="11.7em" fill="#00ACD7" stroke="#00ACD7"/><text x="21.75em" y="12.3em" text-anchor="end"><tspan class="size">32 (0.5%)</tspan></text><text x="22.8em" y="12.3em"><tspan class="size">soap</tspan></text><rect width=".05em" height=".6em" x="22.25em" y="12.9em" fill="#00ACD7" stroke="#00ACD7"/><text x="21.75em" y="13.5em" text-anchor="end"><tspan class="size">31 (0.5%)</tspan></text><text x="22.8em" y="13.5em"><tspan class="size">pdf</tspan></text><rect width=".05em" height=".6em" x="22.25em" y="14.1em" fill="#00ACD7" stroke="#00ACD7"/><text x="21.75em" y="14.7em" text-anchor="end"><tspan class="size">30 (0.5%)</tspan></text><text x="22.8em" y="14.7em"><tspan class="size">api</tspan></text><rect width=".05em" height=".6em" x="22.25em" y="15.3em" fill="#00ACD7" stroke="#00ACD7"/><text x="21.75em" y="15.9em" text-anchor="end"><tspan class="size">30 (0.5%)</tspan></text><text x="22.8em" y="15.9em"><tspan class="size">package</tspan></text><rect width="7.35em" height=".6em" x="22.25em" y="16.5em" fill="#fff" stroke="#000"/><text x="21.75em" y="17.1em" text-anchor="end"><tspan class="size">4,578 (73.5%)</tspan></text><text x="30.1em" y="17.1em"><tspan class="size">No response</tspan></text></svg>