<svg xmlns="http://www.w3.org/2000/svg" width="70em" height="23.6em" version="1.1"><defs><style type="text/css">svg{font-family:&quot;Helvetica Neue&quot;,Arial,sans-serif}tspan.size{font-size:.8em}tspan.head{font-weight:700}</style></defs><text x="0em" y="1.2em" class="head"><tspan class="size">Rank the following in terms of where you get Go news from:</tspan></text><rect width="1.56em" height=".6em" x="12em" y="2.1em" fill="#00acd7" stroke="#00acd7"/><rect width="1.4em" height=".6em" x="13.56em" y="2.1em" fill="#2eb8da" stroke="#2eb8da"/><rect width=".91em" height=".6em" x="14.97em" y="2.1em" fill="#5cc4dd" stroke="#5cc4dd"/><rect width=".43em" height=".6em" x="15.87em" y="2.1em" fill="#8ad0e0" stroke="#8ad0e0"/><rect width=".21em" height=".6em" x="16.31em" y="2.1em" fill="#b8dce3" stroke="#b8dce3"/><text x="11.5em" y="2.7em" text-anchor="end"><tspan class="size">2,809 (<tspan fill="#00acd7">16</tspan>, <tspan fill="#2eb8da">14</tspan>, <tspan fill="#5cc4dd">9</tspan>, <tspan fill="#8ad0e0">4</tspan>, <tspan fill="#b8dce3">2</tspan>%)</tspan></text><text x="17.01em" y="2.7em"><tspan class="size">blog.Golang.org</tspan></text><rect width="1.49em" height=".6em" x="12em" y="3.3em" fill="#00acd7" stroke="#00acd7"/><rect width=".69em" height=".6em" x="13.49em" y="3.3em" fill="#2eb8da" stroke="#2eb8da"/><rect width=".41em" height=".6em" x="14.18em" y="3.3em" fill="#5cc4dd" stroke="#5cc4dd"/><rect width=".25em" height=".6em" x="14.58em" y="3.3em" fill="#8ad0e0" stroke="#8ad0e0"/><rect width=".12em" height=".6em" x="14.84em" y="3.3em" fill="#b8dce3" stroke="#b8dce3"/><text x="11.5em" y="3.9em" text-anchor="end"><tspan class="size">1,838 (<tspan fill="#00acd7">15</tspan>, <tspan fill="#2eb8da">7</tspan>, <tspan fill="#5cc4dd">4</tspan>, <tspan fill="#8ad0e0">3</tspan>, <tspan fill="#b8dce3">1</tspan>%)</tspan></text><text x="15.45em" y="3.9em"><tspan class="size">Twitter</tspan></text><rect width="1.22em" height=".6em" x="12em" y="4.5em" fill="#00acd7" stroke="#00acd7"/><rect width=".74em" height=".6em" x="13.22em" y="4.5em" fill="#2eb8da" stroke="#2eb8da"/><rect width=".44em" height=".6em" x="13.96em" y="4.5em" fill="#5cc4dd" stroke="#5cc4dd"/><rect width=".23em" height=".6em" x="14.4em" y="4.5em" fill="#8ad0e0" stroke="#8ad0e0"/><rect width=".1em" height=".6em" x="14.63em" y="4.5em" fill="#b8dce3" stroke="#b8dce3"/><text x="11.5em" y="5.1em" text-anchor="end"><tspan class="size">1,703 (<tspan fill="#00acd7">12</tspan>, <tspan fill="#2eb8da">7</tspan>, <tspan fill="#5cc4dd">4</tspan>, <tspan fill="#8ad0e0">2</tspan>, <tspan fill="#b8dce3">1</tspan>%)</tspan></text><text x="15.24em" y="5.1em"><tspan class="size">Reddit (r/golang)</tspan></text><rect width="1.3em" height=".6em" x="12em" y="5.7em" fill="#00acd7" stroke="#00acd7"/><rect width=".74em" height=".6em" x="13.3em" y="5.7em" fill="#2eb8da" stroke="#2eb8da"/><rect width=".33em" height=".6em" x="14.04em" y="5.7em" fill="#5cc4dd" stroke="#5cc4dd"/><rect width=".16em" height=".6em" x="14.37em" y="5.7em" fill="#8ad0e0" stroke="#8ad0e0"/><rect width=".07em" height=".6em" x="14.52em" y="5.7em" fill="#b8dce3" stroke="#b8dce3"/><text x="11.5em" y="6.3em" text-anchor="end"><tspan class="size">1,617 (<tspan fill="#00acd7">13</tspan>, <tspan fill="#2eb8da">7</tspan>, <tspan fill="#5cc4dd">3</tspan>, <tspan fill="#8ad0e0">2</tspan>, <tspan fill="#b8dce3">0.7</tspan>%)</tspan></text><text x="15.1em" y="6.3em"><tspan class="size">Golangweekly.com</tspan></text><rect width=".85em" height=".6em" x="12em" y="6.9em" fill="#00acd7" stroke="#00acd7"/><rect width=".79em" height=".6em" x="12.85em" y="6.9em" fill="#2eb8da" stroke="#2eb8da"/><rect width=".5em" height=".6em" x="13.65em" y="6.9em" fill="#5cc4dd" stroke="#5cc4dd"/><rect width=".26em" height=".6em" x="14.15em" y="6.9em" fill="#8ad0e0" stroke="#8ad0e0"/><rect width=".12em" height=".6em" x="14.41em" y="6.9em" fill="#b8dce3" stroke="#b8dce3"/><text x="11.5em" y="7.5em" text-anchor="end"><tspan class="size">1,578 (<tspan fill="#00acd7">9</tspan>, <tspan fill="#2eb8da">8</tspan>, <tspan fill="#5cc4dd">5</tspan>, <tspan fill="#8ad0e0">3</tspan>, <tspan fill="#b8dce3">1</tspan>%)</tspan></text><text x="15.03em" y="7.5em"><tspan class="size">Hacker News</tspan></text><rect width=".24em" height=".6em" x="12em" y="8.1em" fill="#00acd7" stroke="#00acd7"/><rect width=".49em" height=".6em" x="12.24em" y="8.1em" fill="#2eb8da" stroke="#2eb8da"/><rect width=".49em" height=".6em" x="12.73em" y="8.1em" fill="#5cc4dd" stroke="#5cc4dd"/><rect width=".3em" height=".6em" x="13.22em" y="8.1em" fill="#8ad0e0" stroke="#8ad0e0"/><rect width=".17em" height=".6em" x="13.51em" y="8.1em" fill="#b8dce3" stroke="#b8dce3"/><text x="11.5em" y="8.7em" text-anchor="end"><tspan class="size">1,051 (<tspan fill="#00acd7">2</tspan>, <tspan fill="#2eb8da">5</tspan>, <tspan fill="#5cc4dd">5</tspan>, <tspan fill="#8ad0e0">3</tspan>, <tspan fill="#b8dce3">2</tspan>%)</tspan></text><text x="14.19em" y="8.7em"><tspan class="size">Community Blogs</tspan></text><rect width=".24em" height=".6em" x="12em" y="9.3em" fill="#00acd7" stroke="#00acd7"/><rect width=".37em" height=".6em" x="12.24em" y="9.3em" fill="#2eb8da" stroke="#2eb8da"/><rect width=".38em" height=".6em" x="12.61em" y="9.3em" fill="#5cc4dd" stroke="#5cc4dd"/><rect width=".23em" height=".6em" x="12.99em" y="9.3em" fill="#8ad0e0" stroke="#8ad0e0"/><rect width=".16em" height=".6em" x="13.22em" y="9.3em" fill="#b8dce3" stroke="#b8dce3"/><text x="11.5em" y="9.9em" text-anchor="end"><tspan class="size">859 (<tspan fill="#00acd7">2</tspan>, <tspan fill="#2eb8da">4</tspan>, <tspan fill="#5cc4dd">4</tspan>, <tspan fill="#8ad0e0">2</tspan>, <tspan fill="#b8dce3">2</tspan>%)</tspan></text><text x="13.88em" y="9.9em"><tspan class="size">GitHub</tspan></text><rect width=".35em" height=".6em" x="12em" y="10.5em" fill="#00acd7" stroke="#00acd7"/><rect width=".43em" height=".6em" x="12.35em" y="10.5em" fill="#2eb8da" stroke="#2eb8da"/><rect width=".3em" height=".6em" x="12.79em" y="10.5em" fill="#5cc4dd" stroke="#5cc4dd"/><rect width=".14em" height=".6em" x="13.09em" y="10.5em" fill="#8ad0e0" stroke="#8ad0e0"/><rect width=".06em" height=".6em" x="13.22em" y="10.5em" fill="#b8dce3" stroke="#b8dce3"/><text x="11.5em" y="11.1em" text-anchor="end"><tspan class="size">798 (<tspan fill="#00acd7">4</tspan>, <tspan fill="#2eb8da">4</tspan>, <tspan fill="#5cc4dd">3</tspan>, <tspan fill="#8ad0e0">1</tspan>, <tspan fill="#b8dce3">0.6</tspan>%)</tspan></text><text x="13.78em" y="11.1em"><tspan class="size">Coworkers</tspan></text><rect width=".14em" height=".6em" x="12em" y="11.7em" fill="#00acd7" stroke="#00acd7"/><rect width=".28em" height=".6em" x="12.14em" y="11.7em" fill="#2eb8da" stroke="#2eb8da"/><rect width=".34em" height=".6em" x="12.42em" y="11.7em" fill="#5cc4dd" stroke="#5cc4dd"/><rect width=".23em" height=".6em" x="12.76em" y="11.7em" fill="#8ad0e0" stroke="#8ad0e0"/><rect width=".15em" height=".6em" x="12.98em" y="11.7em" fill="#b8dce3" stroke="#b8dce3"/><text x="11.5em" y="12.3em" text-anchor="end"><tspan class="size">704 (<tspan fill="#00acd7">1</tspan>, <tspan fill="#2eb8da">3</tspan>, <tspan fill="#5cc4dd">3</tspan>, <tspan fill="#8ad0e0">2</tspan>, <tspan fill="#b8dce3">1</tspan>%)</tspan></text><text x="13.63em" y="12.3em"><tspan class="size">Just For Func</tspan></text><rect width=".22em" height=".6em" x="12em" y="12.9em" fill="#00acd7" stroke="#00acd7"/><rect width=".21em" height=".6em" x="12.22em" y="12.9em" fill="#2eb8da" stroke="#2eb8da"/><rect width=".19em" height=".6em" x="12.43em" y="12.9em" fill="#5cc4dd" stroke="#5cc4dd"/><rect width=".14em" height=".6em" x="12.63em" y="12.9em" fill="#8ad0e0" stroke="#8ad0e0"/><rect width=".07em" height=".6em" x="12.76em" y="12.9em" fill="#b8dce3" stroke="#b8dce3"/><text x="11.5em" y="13.5em" text-anchor="end"><tspan class="size">516 (<tspan fill="#00acd7">2</tspan>, <tspan fill="#2eb8da">2</tspan>, <tspan fill="#5cc4dd">2</tspan>, <tspan fill="#8ad0e0">1</tspan>, <tspan fill="#b8dce3">0.7</tspan>%)</tspan></text><text x="13.33em" y="13.5em"><tspan class="size">golang-nuts mailing list (groups.google.com/d/forum/golang-nuts)</tspan></text><rect width=".13em" height=".6em" x="12em" y="14.1em" fill="#00acd7" stroke="#00acd7"/><rect width=".21em" height=".6em" x="12.13em" y="14.1em" fill="#2eb8da" stroke="#2eb8da"/><rect width=".17em" height=".6em" x="12.35em" y="14.1em" fill="#5cc4dd" stroke="#5cc4dd"/><rect width=".11em" height=".6em" x="12.52em" y="14.1em" fill="#8ad0e0" stroke="#8ad0e0"/><rect width=".06em" height=".6em" x="12.62em" y="14.1em" fill="#b8dce3" stroke="#b8dce3"/><text x="11.5em" y="14.7em" text-anchor="end"><tspan class="size">428 (<tspan fill="#00acd7">1</tspan>, <tspan fill="#2eb8da">2</tspan>, <tspan fill="#5cc4dd">2</tspan>, <tspan fill="#8ad0e0">1</tspan>, <tspan fill="#b8dce3">0.6</tspan>%)</tspan></text><text x="13.19em" y="14.7em"><tspan class="size">Go Time podcast</tspan></text><rect width=".18em" height=".6em" x="12em" y="15.3em" fill="#00acd7" stroke="#00acd7"/><rect width=".17em" height=".6em" x="12.18em" y="15.3em" fill="#2eb8da" stroke="#2eb8da"/><rect width=".14em" height=".6em" x="12.35em" y="15.3em" fill="#5cc4dd" stroke="#5cc4dd"/><rect width=".1em" height=".6em" x="12.5em" y="15.3em" fill="#8ad0e0" stroke="#8ad0e0"/><rect width=".04em" height=".6em" x="12.59em" y="15.3em" fill="#b8dce3" stroke="#b8dce3"/><text x="11.5em" y="15.9em" text-anchor="end"><tspan class="size">393 (<tspan fill="#00acd7">2</tspan>, <tspan fill="#2eb8da">2</tspan>, <tspan fill="#5cc4dd">1</tspan>, <tspan fill="#8ad0e0">1</tspan>, <tspan fill="#b8dce3">0.4</tspan>%)</tspan></text><text x="13.13em" y="15.9em"><tspan class="size">Golangnews.com</tspan></text><rect width=".1em" height=".6em" x="12em" y="16.5em" fill="#00acd7" stroke="#00acd7"/><rect width=".14em" height=".6em" x="12.1em" y="16.5em" fill="#2eb8da" stroke="#2eb8da"/><rect width=".12em" height=".6em" x="12.24em" y="16.5em" fill="#5cc4dd" stroke="#5cc4dd"/><rect width=".1em" height=".6em" x="12.36em" y="16.5em" fill="#8ad0e0" stroke="#8ad0e0"/><rect width=".07em" height=".6em" x="12.46em" y="16.5em" fill="#b8dce3" stroke="#b8dce3"/><text x="11.5em" y="17.1em" text-anchor="end"><tspan class="size">333 (<tspan fill="#00acd7">1</tspan>, <tspan fill="#2eb8da">1</tspan>, <tspan fill="#5cc4dd">1</tspan>, <tspan fill="#8ad0e0">1</tspan>, <tspan fill="#b8dce3">0.7</tspan>%)</tspan></text><text x="13.03em" y="17.1em"><tspan class="size">Gopher Slack (invite.slack.golangbridge.org)</tspan></text><rect width=".1em" height=".6em" x="12em" y="17.7em" fill="#00acd7" stroke="#00acd7"/><rect width=".13em" height=".6em" x="12.1em" y="17.7em" fill="#2eb8da" stroke="#2eb8da"/><rect width=".12em" height=".6em" x="12.24em" y="17.7em" fill="#5cc4dd" stroke="#5cc4dd"/><rect width=".07em" height=".6em" x="12.35em" y="17.7em" fill="#8ad0e0" stroke="#8ad0e0"/><rect width=".04em" height=".6em" x="12.43em" y="17.7em" fill="#b8dce3" stroke="#b8dce3"/><text x="11.5em" y="18.3em" text-anchor="end"><tspan class="size">287 (<tspan fill="#00acd7">1</tspan>, <tspan fill="#2eb8da">1</tspan>, <tspan fill="#5cc4dd">1</tspan>, <tspan fill="#8ad0e0">0.7</tspan>, <tspan fill="#b8dce3">0.4</tspan>%)</tspan></text><text x="12.96em" y="18.3em"><tspan class="size">golang-announce (groups.google.com/d/forum/golang-announce)</tspan></text><rect width=".05em" height=".6em" x="12em" y="18.9em" fill="#00acd7" stroke="#00acd7"/><rect width=".05em" height=".6em" x="12.05em" y="18.9em" fill="#2eb8da" stroke="#2eb8da"/><rect width=".04em" height=".6em" x="12.1em" y="18.9em" fill="#5cc4dd" stroke="#5cc4dd"/><rect width=".02em" height=".6em" x="12.14em" y="18.9em" fill="#8ad0e0" stroke="#8ad0e0"/><rect width=".03em" height=".6em" x="12.17em" y="18.9em" fill="#b8dce3" stroke="#b8dce3"/><text x="11.5em" y="19.5em" text-anchor="end"><tspan class="size">120 (<tspan fill="#00acd7">0.5</tspan>, <tspan fill="#2eb8da">0.5</tspan>, <tspan fill="#5cc4dd">0.4</tspan>, <tspan fill="#8ad0e0">0.2</tspan>, <tspan fill="#b8dce3">0.3</tspan>%)</tspan></text><text x="12.69em" y="19.5em"><tspan class="size">Facebook</tspan></text><rect width=".01em" height=".6em" x="12em" y="20.1em" fill="#00acd7" stroke="#00acd7"/><rect width=".04em" height=".6em" x="12.01em" y="20.1em" fill="#2eb8da" stroke="#2eb8da"/><rect width=".04em" height=".6em" x="12.05em" y="20.1em" fill="#5cc4dd" stroke="#5cc4dd"/><rect width=".02em" height=".6em" x="12.09em" y="20.1em" fill="#8ad0e0" stroke="#8ad0e0"/><rect width=".02em" height=".6em" x="12.11em" y="20.1em" fill="#b8dce3" stroke="#b8dce3"/><text x="11.5em" y="20.7em" text-anchor="end"><tspan class="size">86 (<tspan fill="#00acd7">0.1</tspan>, <tspan fill="#2eb8da">0.4</tspan>, <tspan fill="#5cc4dd">0.4</tspan>, <tspan fill="#8ad0e0">0.2</tspan>, <tspan fill="#b8dce3">0.2</tspan>%)</tspan></text><text x="12.64em" y="20.7em"><tspan class="size">Go Forum (forum.golangbridge.org)</tspan></text><rect width=".12em" height=".6em" x="12em" y="21.3em" fill="#777" stroke="#777"/><rect width=".1em" height=".6em" x="12.12em" y="21.3em" fill="#8e8e8e" stroke="#8e8e8e"/><rect width=".07em" height=".6em" x="12.22em" y="21.3em" fill="#a5a5a5" stroke="#a5a5a5"/><rect width=".03em" height=".6em" x="12.29em" y="21.3em" fill="#bcbcbc" stroke="#bcbcbc"/><rect width=".01em" height=".6em" x="12.31em" y="21.3em" fill="#d3d3d3" stroke="#d3d3d3"/><text x="11.5em" y="21.9em" text-anchor="end"><tspan class="size">205 (<tspan fill="#777">1</tspan>, <tspan fill="#8e8e8e">1</tspan>, <tspan fill="#a5a5a5">0.7</tspan>, <tspan fill="#bcbcbc">0.3</tspan>, <tspan fill="#d3d3d3">0.1</tspan>%)</tspan></text><text x="12.83em" y="21.9em"><tspan class="size">Other</tspan></text><rect width="1.67em" height=".6em" x="12em" y="22.5em" fill="#fff" stroke="#000"/><text x="11.5em" y="23.1em" text-anchor="end"><tspan class="size">1,040 (17%)</tspan></text><text x="14.17em" y="23.1em"><tspan class="size">No response</tspan></text></svg>