<svg xmlns="http://www.w3.org/2000/svg" xmlns:xlink="http://www.w3.org/1999/xlink" width="100%" height="100%" version="1.1" viewBox="0 0 711 178" xml:space="preserve" style="fill-rule:evenodd;clip-rule:evenodd;stroke-linecap:round;stroke-linejoin:round;stroke-miterlimit:1.5"><path d="M302.656,52.22c0,-2.044 -1.66,-3.703 -3.704,-3.703l-288.147,0c-2.044,0 -3.703,1.659 -3.703,3.703l0,7.407c0,2.044 1.659,3.703 3.703,3.703l288.147,0c2.044,0 3.704,-1.659 3.704,-3.703l0,-7.407Z" style="fill:none;stroke:#e62626;stroke-width:1px"/><path d="M687.656,37.407c0,-2.044 -1.66,-3.704 -3.704,-3.704l-293.48,0c-2.044,0 -3.704,1.66 -3.704,3.704l0,7.406c0,2.044 1.66,3.704 3.704,3.704l293.48,0c2.044,0 3.704,-1.66 3.704,-3.704l0,-7.406Z" style="fill:none;stroke:#e62626;stroke-width:1px"/><path d="M324.318,57.239l-1.301,-5.018l40.745,-10.568l-1.209,-4.66l9.029,5.31l-5.31,9.029l-1.209,-4.66l-40.745,10.567Z" style="fill:none;stroke:#e62626;stroke-width:1px"/><text x="14.016" y="14.375" style="font-family:'Arial-BoldMT','Arial',sans-serif;font-weight:700;font-size:20px">2016</text><text x="398.016" y="14.375" style="font-family:'Arial-BoldMT','Arial',sans-serif;font-weight:700;font-size:20px">2017</text><g><text x="-.984" y="27.728" style="font-family:'HelveticaNeue','Helvetica Neue';font-size:12px">I write the following in Go: (multiple choice)</text><rect width="75" height="7.2" x="86.016" y="38.528" style="fill:#00c4b3;stroke:#00c4b3;stroke-width:1px;stroke-linecap:butt;stroke-linejoin:miter;stroke-miterlimit:4"/><text x="15.096" y="45.728" style="font-family:'HelveticaNeue','Helvetica Neue';font-size:12px">2,247 (63%)</text><text x="167.016" y="45.728" style="font-family:'HelveticaNeue','Helvetica Neue';font-size:12px">A runnable/interactive pr<tspan x="298.368 305.256" y="45.728 45.728">og</tspan>ram</text><rect width="72.6" height="7.2" x="86.016" y="52.928" style="fill:#00c4b3;stroke:#00c4b3;stroke-width:1px;stroke-linecap:butt;stroke-linejoin:miter;stroke-miterlimit:4"/><text x="15.096" y="60.128" style="font-family:'HelveticaNeue','Helvetica Neue';font-size:12px">2,174 (60%)</text><text x="164.616" y="60.128" style="font-family:'HelveticaNeue','Helvetica Neue';font-size:12px">API/RPC services</text><rect width="63" height="7.2" x="86.016" y="67.328" style="fill:#00c4b3;stroke:#00c4b3;stroke-width:1px;stroke-linecap:butt;stroke-linejoin:miter;stroke-miterlimit:4"/><text x="15.096" y="74.528" style="font-family:'HelveticaNeue','Helvetica Neue';font-size:12px">1,886 (52%)</text><text x="155.016" y="74.528" style="font-family:'HelveticaNeue','Helvetica Neue';font-size:12px">W<tspan x="165.444 171.888" y="74.528 74.528">eb</tspan> services</text><rect width="52.8" height="7.2" x="86.016" y="81.728" style="fill:#00c4b3;stroke:#00c4b3;stroke-width:1px;stroke-linecap:butt;stroke-linejoin:miter;stroke-miterlimit:4"/><text x="15.096" y="88.928" style="font-family:'HelveticaNeue','Helvetica Neue';font-size:12px">1,583 (44%)</text><text x="144.816" y="88.928" style="font-family:'HelveticaNeue','Helvetica Neue';font-size:12px">Agents and daemons</text><rect width="47.28" height="7.2" x="86.016" y="96.128" style="fill:#00c4b3;stroke:#00c4b3;stroke-width:1px;stroke-linecap:butt;stroke-linejoin:miter;stroke-miterlimit:4"/><text x="15.096" y="103.328" style="font-family:'HelveticaNeue','Helvetica Neue';font-size:12px">1,417 (39%)</text><text x="139.296" y="103.328" style="font-family:'HelveticaNeue','Helvetica Neue';font-size:12px">Libraries or Frameworks</text><rect width="40.32" height="7.2" x="86.016" y="110.528" style="fill:#00c4b3;stroke:#00c4b3;stroke-width:1px;stroke-linecap:butt;stroke-linejoin:miter;stroke-miterlimit:4"/><text x="15.096" y="117.728" style="font-family:'HelveticaNeue','Helvetica Neue';font-size:12px">1,209 (34%)</text><text x="132.336" y="117.728" style="font-family:'HelveticaNeue','Helvetica Neue';font-size:12px">Data pr<tspan x="171.684 178.572" y="117.728 117.728">oc</tspan>essing</text><rect width="37.44" height="7.2" x="86.016" y="124.928" style="fill:#00c4b3;stroke:#00c4b3;stroke-width:1px;stroke-linecap:butt;stroke-linejoin:miter;stroke-miterlimit:4"/><text x="15.096" y="132.128" style="font-family:'HelveticaNeue','Helvetica Neue';font-size:12px">1,120 (31%)</text><text x="129.456" y="132.128" style="font-family:'HelveticaNeue','Helvetica Neue';font-size:12px">Automation/scripts</text><rect width="3.6" height="7.2" x="86.016" y="139.328" style="fill:#00c4b3;stroke:#00c4b3;stroke-width:1px;stroke-linecap:butt;stroke-linejoin:miter;stroke-miterlimit:4"/><text x="25.104" y="146.528" style="font-family:'HelveticaNeue','Helvetica Neue';font-size:12px">107 (3%)</text><text x="95.616" y="146.528" style="font-family:'HelveticaNeue','Helvetica Neue';font-size:12px">I don&apos;t write in Go</text><rect width="4.56" height="7.2" x="86.016" y="153.728" style="fill:#777;stroke:#777;stroke-width:1px;stroke-linecap:butt;stroke-linejoin:miter;stroke-miterlimit:4"/><text x="25.104" y="160.928" style="font-family:'HelveticaNeue','Helvetica Neue';font-size:12px">137 (4%)</text><text x="96.576" y="160.928" style="font-family:'HelveticaNeue','Helvetica Neue';font-size:12px">Other</text><rect width="1.56" height="7.2" x="86.016" y="168.128" style="fill:#fff;stroke:#000;stroke-width:1px;stroke-linecap:butt;stroke-linejoin:miter;stroke-miterlimit:4"/><text x="31.776" y="175.328" style="font-family:'HelveticaNeue','Helvetica Neue';font-size:12px">45 (1%)</text><text x="93.576" y="175.328" style="font-family:'HelveticaNeue','Helvetica Neue';font-size:12px">No r<tspan x="116.244 122.688" y="175.328 175.328">es</tspan>ponse</text></g><g><text x="377.016" y="27.728" style="font-family:'HelveticaNeue','Helvetica Neue';font-size:12px">I write the following in Go: (multiple choice)</text><rect width="78.48" height="7.2" x="464.016" y="38.528" style="fill:#00acd7;stroke:#00acd7;stroke-width:1px;stroke-linecap:butt;stroke-linejoin:miter;stroke-miterlimit:4"/><text x="393.096" y="45.728" style="font-family:'HelveticaNeue','Helvetica Neue';font-size:12px">4,071 (65%)</text><text x="548.496" y="45.728" style="font-family:'HelveticaNeue','Helvetica Neue';font-size:12px">API/RPC services</text><rect width="75.6" height="7.2" x="464.016" y="52.928" style="fill:#00acd7;stroke:#00acd7;stroke-width:1px;stroke-linecap:butt;stroke-linejoin:miter;stroke-miterlimit:4"/><text x="393.096" y="60.128" style="font-family:'HelveticaNeue','Helvetica Neue';font-size:12px">3,921 (63%)</text><text x="545.616" y="60.128" style="font-family:'HelveticaNeue','Helvetica Neue';font-size:12px">A runnable/interactive pr<tspan x="676.968 683.856" y="60.128 60.128">og</tspan>ram</text><rect width="58.32" height="7.2" x="464.016" y="67.328" style="fill:#00acd7;stroke:#00acd7;stroke-width:1px;stroke-linecap:butt;stroke-linejoin:miter;stroke-miterlimit:4"/><text x="393.096" y="74.528" style="font-family:'HelveticaNeue','Helvetica Neue';font-size:12px">3,027 (49%)</text><text x="528.336" y="74.528" style="font-family:'HelveticaNeue','Helvetica Neue';font-size:12px">W<tspan x="538.764 545.208" y="74.528 74.528">eb</tspan> services</text><rect width="53.28" height="7.2" x="464.016" y="81.728" style="fill:#00acd7;stroke:#00acd7;stroke-width:1px;stroke-linecap:butt;stroke-linejoin:miter;stroke-miterlimit:4"/><text x="393.096" y="88.928" style="font-family:'HelveticaNeue','Helvetica Neue';font-size:12px">2,766 (44%)</text><text x="523.296" y="88.928" style="font-family:'HelveticaNeue','Helvetica Neue';font-size:12px">Agents and daemons</text><rect width="46.2" height="7.2" x="464.016" y="96.128" style="fill:#00acd7;stroke:#00acd7;stroke-width:1px;stroke-linecap:butt;stroke-linejoin:miter;stroke-miterlimit:4"/><text x="393.096" y="103.328" style="font-family:'HelveticaNeue','Helvetica Neue';font-size:12px">2,394 (38%)</text><text x="516.216" y="103.328" style="font-family:'HelveticaNeue','Helvetica Neue';font-size:12px">Libraries or Frameworks</text><rect width="39.24" height="7.2" x="464.016" y="110.528" style="fill:#00acd7;stroke:#00acd7;stroke-width:1px;stroke-linecap:butt;stroke-linejoin:miter;stroke-miterlimit:4"/><text x="393.096" y="117.728" style="font-family:'HelveticaNeue','Helvetica Neue';font-size:12px">2,038 (33%)</text><text x="509.256" y="117.728" style="font-family:'HelveticaNeue','Helvetica Neue';font-size:12px">Automation/scripts</text><rect width="39.12" height="7.2" x="464.016" y="124.928" style="fill:#00acd7;stroke:#00acd7;stroke-width:1px;stroke-linecap:butt;stroke-linejoin:miter;stroke-miterlimit:4"/><text x="393.096" y="132.128" style="font-family:'HelveticaNeue','Helvetica Neue';font-size:12px">2,030 (33%)</text><text x="509.136" y="132.128" style="font-family:'HelveticaNeue','Helvetica Neue';font-size:12px">Data pr<tspan x="548.484 555.372" y="132.128 132.128">oc</tspan>essing</text><rect width="3.24" height="7.2" x="464.016" y="139.328" style="fill:#00acd7;stroke:#00acd7;stroke-width:1px;stroke-linecap:butt;stroke-linejoin:miter;stroke-miterlimit:4"/><text x="403.104" y="146.528" style="font-family:'HelveticaNeue','Helvetica Neue';font-size:12px">167 (3%)</text><text x="473.256" y="146.528" style="font-family:'HelveticaNeue','Helvetica Neue';font-size:12px">I don&apos;t write in Go</text><rect width="3.36" height="7.2" x="464.016" y="153.728" style="fill:#777;stroke:#777;stroke-width:1px;stroke-linecap:butt;stroke-linejoin:miter;stroke-miterlimit:4"/><text x="403.104" y="160.928" style="font-family:'HelveticaNeue','Helvetica Neue';font-size:12px">176 (3%)</text><text x="473.376" y="160.928" style="font-family:'HelveticaNeue','Helvetica Neue';font-size:12px">Other</text><rect width="1.32" height="7.2" x="464.016" y="168.128" style="fill:#fff;stroke:#000;stroke-width:1px;stroke-linecap:butt;stroke-linejoin:miter;stroke-miterlimit:4"/><text x="409.776" y="175.328" style="font-family:'HelveticaNeue','Helvetica Neue';font-size:12px">70 (1%)</text><text x="471.336" y="175.328" style="font-family:'HelveticaNeue','Helvetica Neue';font-size:12px">No r<tspan x="494.004 500.448" y="175.328 175.328">es</tspan>ponse</text></g></svg>