<svg xmlns="http://www.w3.org/2000/svg" width="12" height="12" fill="none" viewBox="0 0 12 12"><mask id="mask0" width="12" height="12" x="0" y="0" mask-type="alpha" maskUnits="userSpaceOnUse"><path fill="#fff" fill-rule="evenodd" d="M11.6816 1.49605L10.7568 0.37836C10.5772 0.152162 10.3044 0.0124512 9.99173 0.0124512H2.00826C1.69557 0.0124512 1.4228 0.152162 1.23652 0.37836L0.318423 1.49605C0.125489 1.72224 0.0123901 2.02162 0.0123901 2.34096V10.6571C0.0123901 11.3889 0.611151 11.9877 1.34297 11.9877H10.657C11.3888 11.9877 11.9876 11.3889 11.9876 10.6571V2.34096C11.9876 2.02162 11.8745 1.72224 11.6816 1.49605ZM2.16793 1.34303H9.83206L10.3842 2.00832H1.62239L2.16793 1.34303ZM1.34297 3.3389V10.6571H10.657V3.3389H1.34297Z" clip-rule="evenodd"/></mask><g mask="url(#mask0)"><rect width="15.967" height="15.967" x="-1.983" y="-1.984" fill="#80868B"/></g><path fill="#007D9C" fill-rule="evenodd" d="M5.14288 2.0083H6.85717V7.71432H5.14288V2.0083Z" clip-rule="evenodd"/><path fill="#007D9C" fill-rule="evenodd" d="M5.6539 0.828125H6.30011L6.85717 2.00821H5.14288L5.6539 0.828125Z" clip-rule="evenodd"/></svg>