<svg xmlns="http://www.w3.org/2000/svg" xmlns:xlink="http://www.w3.org/1999/xlink" width="300" height="300" fill="#fff" fill-rule="evenodd" stroke="#000" stroke-linecap="round" stroke-linejoin="round" font-family="Roboto" font-size="14" text-anchor="middle" viewBox="0 0 85 85"><defs><style type="text/css"/></defs><use x="2.5" y="2.5" xlink:href="#A"/><symbol id="A" overflow="visible"><path fill="#4285f4" d="M62.1 47.672H40V32.603h39.323A40.53 40.53 0 0 1 80 40a40.51 40.51 0 0 1-.729 7.671 39.85 39.85 0 0 1-12.692 22.27L52.675 59.34a23.53 23.53 0 0 0 9.425-11.668z"/><path fill="#ea4335" d="M54.95 21.214L66.327 9.837C59.302 3.706 50.1 0 40 0A39.91 39.91 0 0 0 4.143 22.197L17.485 32.46A23.51 23.51 0 0 1 40 15.89c5.686 0 10.89 1.994 14.95 5.323z"/><path fill="#fbbc05" d="M17.708 47.13L3.965 57.438C1.423 52.173 0 46.26 0 40c0-6.404 1.5-12.447 4.143-17.803L17.485 32.46c-.68 2.208-1.047 4.556-1.047 6.992 0 2.69.446 5.273 1.27 7.678z"/><path fill="#34a853" d="M17.71 47.13L3.965 57.438A39.91 39.91 0 0 0 40.001 80a39.87 39.87 0 0 0 26.579-10.059L52.675 59.34C49.02 61.667 44.673 63.014 40 63.014A23.51 23.51 0 0 1 17.709 47.13z"/></symbol></svg>