<svg xmlns="http://www.w3.org/2000/svg" xmlns:xlink="http://www.w3.org/1999/xlink" width="300" height="300" fill="#fff" fill-rule="evenodd" stroke="#000" stroke-linecap="round" stroke-linejoin="round" font-family="Roboto" font-size="14" text-anchor="middle" viewBox="0 0 63 66"><defs><style type="text/css"/></defs><use x="1" y="1" xlink:href="#A"/><symbol id="A" overflow="visible"><g fill-rule="nonzero" stroke="none"><path fill="#ffa400" d="M43.606 34.42h-7.66v-3.95a5.76 5.76 0 0 0-5.72-5.72c-3.12 0-5.72 2.6-5.72 5.72v3.95h-7.64v-3.95c0-7.416 6.046-13.4 13.4-13.4 7.416 0 13.4 6.046 13.4 13.4z"/><path fill="#003a70" d="M46.77 34.4H13.722a2.54 2.54 0 0 0-2.58 2.58v24.4a2.54 2.54 0 0 0 2.58 2.6H46.77a2.54 2.54 0 0 0 2.58-2.58V37c-.08-1.45-1.2-2.6-2.6-2.6zM31.858 50.44v3.304c0 .886-.726 1.692-1.692 1.692-.886 0-1.692-.726-1.692-1.692V50.46c-1.048-.564-1.692-1.692-1.692-3a3.41 3.41 0 0 1 3.386-3.386 3.41 3.41 0 0 1 3.386 3.386c.08 1.3-.644 2.4-1.692 3z"/><path fill="#ffa400" d="M10.338 30.8h-8A2.34 2.34 0 0 1 0 28.452a2.34 2.34 0 0 1 2.338-2.338h8a2.34 2.34 0 0 1 2.338 2.338 2.34 2.34 0 0 1-2.338 2.338zm5.64-12.574a2.06 2.06 0 0 1-1.45-.564l-6.288-5.16c-.968-.806-1.128-2.256-.32-3.304.806-.968 2.256-1.128 3.304-.32l6.288 5.16c.968.806 1.128 2.256.32 3.304-.564.564-1.2.886-1.854.886zm14.268-5.48a2.34 2.34 0 0 1-2.338-2.338V2.34A2.34 2.34 0 0 1 30.246 0a2.34 2.34 0 0 1 2.338 2.338V10.4a2.34 2.34 0 0 1-2.338 2.338zm14.186 5.48c-.644 0-1.37-.32-1.774-.886-.806-.968-.644-2.5.32-3.304l6.288-5.16c.968-.806 2.5-.644 3.304.32s.644 2.5-.32 3.304l-6.288 5.16a2.26 2.26 0 0 1-1.532.564zm13.6 12.574h-8.06a2.34 2.34 0 0 1-2.338-2.338 2.34 2.34 0 0 1 2.338-2.338h8.06a2.34 2.34 0 0 1 2.338 2.338 2.34 2.34 0 0 1-2.338 2.338z"/></g></symbol></svg>